%FSLAX34Y34*%
G04 Gerber Fmt 3.4, Leading zero omitted, Abs format*
G04 (created by PCBNEW (2014-jan-25)-product) date Fri 11 Jul 2014 09:44:34 PM PDT*
%MOIN*%
G01*
G70*
G90*
G04 APERTURE LIST*
%ADD10C,0.003937*%
%ADD11C,0.008000*%
%ADD12C,0.006000*%
%ADD13C,0.010000*%
%ADD14C,0.005906*%
%ADD15C,0.015000*%
%ADD16C,0.012000*%
%ADD17C,0.000100*%
G04 APERTURE END LIST*
G54D10*
G54D11*
X37750Y-56500D02*
X37750Y-57000D01*
X39750Y-56500D02*
X39750Y-57000D01*
X41750Y-56500D02*
X41750Y-57000D01*
X43750Y-56500D02*
X43750Y-57000D01*
X45750Y-56500D02*
X45750Y-57000D01*
X47750Y-56500D02*
X47750Y-57000D01*
X47750Y-54500D02*
X47750Y-54000D01*
X45750Y-54500D02*
X45750Y-54000D01*
X43750Y-54500D02*
X43750Y-54000D01*
X41750Y-54500D02*
X41750Y-54000D01*
X39750Y-54500D02*
X39750Y-54250D01*
X32423Y-59930D02*
X32195Y-59930D01*
X32309Y-59930D02*
X32309Y-59530D01*
X32271Y-59588D01*
X32233Y-59626D01*
X32195Y-59645D01*
X43317Y-51366D02*
X43184Y-51176D01*
X43089Y-51366D02*
X43089Y-50966D01*
X43241Y-50966D01*
X43279Y-50985D01*
X43298Y-51004D01*
X43317Y-51043D01*
X43317Y-51100D01*
X43298Y-51138D01*
X43279Y-51157D01*
X43241Y-51176D01*
X43089Y-51176D01*
X43641Y-51347D02*
X43603Y-51366D01*
X43527Y-51366D01*
X43489Y-51347D01*
X43470Y-51309D01*
X43470Y-51157D01*
X43489Y-51119D01*
X43527Y-51100D01*
X43603Y-51100D01*
X43641Y-51119D01*
X43660Y-51157D01*
X43660Y-51195D01*
X43470Y-51233D01*
X43794Y-51100D02*
X43889Y-51366D01*
X43984Y-51100D01*
X44137Y-51328D02*
X44156Y-51347D01*
X44137Y-51366D01*
X44117Y-51347D01*
X44137Y-51328D01*
X44137Y-51366D01*
X44613Y-51252D02*
X44803Y-51252D01*
X44575Y-51366D02*
X44708Y-50966D01*
X44841Y-51366D01*
X42660Y-52006D02*
X42432Y-52006D01*
X42546Y-52006D02*
X42546Y-51606D01*
X42508Y-51664D01*
X42470Y-51702D01*
X42432Y-51721D01*
X43041Y-52006D02*
X42813Y-52006D01*
X42927Y-52006D02*
X42927Y-51606D01*
X42889Y-51664D01*
X42851Y-51702D01*
X42813Y-51721D01*
X43327Y-51606D02*
X43327Y-51892D01*
X43308Y-51949D01*
X43270Y-51987D01*
X43213Y-52006D01*
X43175Y-52006D01*
X43689Y-51740D02*
X43689Y-52006D01*
X43517Y-51740D02*
X43517Y-51949D01*
X43537Y-51987D01*
X43575Y-52006D01*
X43632Y-52006D01*
X43670Y-51987D01*
X43689Y-51968D01*
X43937Y-52006D02*
X43898Y-51987D01*
X43879Y-51949D01*
X43879Y-51606D01*
X44070Y-51644D02*
X44089Y-51625D01*
X44127Y-51606D01*
X44222Y-51606D01*
X44260Y-51625D01*
X44279Y-51644D01*
X44298Y-51683D01*
X44298Y-51721D01*
X44279Y-51778D01*
X44051Y-52006D01*
X44298Y-52006D01*
X44546Y-51606D02*
X44584Y-51606D01*
X44622Y-51625D01*
X44641Y-51644D01*
X44660Y-51683D01*
X44679Y-51759D01*
X44679Y-51854D01*
X44660Y-51930D01*
X44641Y-51968D01*
X44622Y-51987D01*
X44584Y-52006D01*
X44546Y-52006D01*
X44508Y-51987D01*
X44489Y-51968D01*
X44470Y-51930D01*
X44451Y-51854D01*
X44451Y-51759D01*
X44470Y-51683D01*
X44489Y-51644D01*
X44508Y-51625D01*
X44546Y-51606D01*
X45060Y-52006D02*
X44832Y-52006D01*
X44946Y-52006D02*
X44946Y-51606D01*
X44908Y-51664D01*
X44870Y-51702D01*
X44832Y-51721D01*
X45403Y-51740D02*
X45403Y-52006D01*
X45308Y-51587D02*
X45213Y-51873D01*
X45460Y-51873D01*
X32104Y-54050D02*
X32066Y-54030D01*
X32009Y-54030D01*
X31952Y-54050D01*
X31914Y-54088D01*
X31895Y-54126D01*
X31876Y-54202D01*
X31876Y-54259D01*
X31895Y-54335D01*
X31914Y-54373D01*
X31952Y-54411D01*
X32009Y-54430D01*
X32047Y-54430D01*
X32104Y-54411D01*
X32123Y-54392D01*
X32123Y-54259D01*
X32047Y-54259D01*
X32000Y-55240D02*
X32000Y-55430D01*
X31866Y-55030D02*
X32000Y-55240D01*
X32133Y-55030D01*
X31961Y-56030D02*
X32038Y-56030D01*
X32076Y-56050D01*
X32114Y-56088D01*
X32133Y-56164D01*
X32133Y-56297D01*
X32114Y-56373D01*
X32076Y-56411D01*
X32038Y-56430D01*
X31961Y-56430D01*
X31923Y-56411D01*
X31885Y-56373D01*
X31866Y-56297D01*
X31866Y-56164D01*
X31885Y-56088D01*
X31923Y-56050D01*
X31961Y-56030D01*
X32123Y-57430D02*
X31990Y-57240D01*
X31895Y-57430D02*
X31895Y-57030D01*
X32047Y-57030D01*
X32085Y-57050D01*
X32104Y-57069D01*
X32123Y-57107D01*
X32123Y-57164D01*
X32104Y-57202D01*
X32085Y-57221D01*
X32047Y-57240D01*
X31895Y-57240D01*
X32028Y-58221D02*
X32085Y-58240D01*
X32104Y-58259D01*
X32123Y-58297D01*
X32123Y-58354D01*
X32104Y-58392D01*
X32085Y-58411D01*
X32047Y-58430D01*
X31895Y-58430D01*
X31895Y-58030D01*
X32028Y-58030D01*
X32066Y-58050D01*
X32085Y-58069D01*
X32104Y-58107D01*
X32104Y-58145D01*
X32085Y-58183D01*
X32066Y-58202D01*
X32028Y-58221D01*
X31895Y-58221D01*
X32028Y-59221D02*
X32085Y-59240D01*
X32104Y-59259D01*
X32123Y-59297D01*
X32123Y-59354D01*
X32104Y-59392D01*
X32085Y-59411D01*
X32047Y-59430D01*
X31895Y-59430D01*
X31895Y-59030D01*
X32028Y-59030D01*
X32066Y-59050D01*
X32085Y-59069D01*
X32104Y-59107D01*
X32104Y-59145D01*
X32085Y-59183D01*
X32066Y-59202D01*
X32028Y-59221D01*
X31895Y-59221D01*
X35173Y-41680D02*
X34945Y-41680D01*
X35059Y-41680D02*
X35059Y-41280D01*
X35021Y-41338D01*
X34983Y-41376D01*
X34945Y-41395D01*
X41923Y-41680D02*
X41695Y-41680D01*
X41809Y-41680D02*
X41809Y-41280D01*
X41771Y-41338D01*
X41733Y-41376D01*
X41695Y-41395D01*
X41904Y-51976D02*
X41619Y-51976D01*
X41761Y-51976D02*
X41761Y-51476D01*
X41714Y-51547D01*
X41666Y-51595D01*
X41619Y-51619D01*
X35923Y-56430D02*
X35695Y-56430D01*
X35809Y-56430D02*
X35809Y-56030D01*
X35771Y-56088D01*
X35733Y-56126D01*
X35695Y-56145D01*
X35923Y-59430D02*
X35695Y-59430D01*
X35809Y-59430D02*
X35809Y-59030D01*
X35771Y-59088D01*
X35733Y-59126D01*
X35695Y-59145D01*
G54D12*
X47478Y-53600D02*
X47450Y-53585D01*
X47407Y-53585D01*
X47364Y-53600D01*
X47335Y-53628D01*
X47321Y-53657D01*
X47307Y-53714D01*
X47307Y-53757D01*
X47321Y-53814D01*
X47335Y-53842D01*
X47364Y-53871D01*
X47407Y-53885D01*
X47435Y-53885D01*
X47478Y-53871D01*
X47492Y-53857D01*
X47492Y-53757D01*
X47435Y-53757D01*
X47621Y-53885D02*
X47621Y-53585D01*
X47735Y-53585D01*
X47764Y-53600D01*
X47778Y-53614D01*
X47792Y-53642D01*
X47792Y-53685D01*
X47778Y-53714D01*
X47764Y-53728D01*
X47735Y-53742D01*
X47621Y-53742D01*
X47964Y-53714D02*
X47935Y-53700D01*
X47921Y-53685D01*
X47907Y-53657D01*
X47907Y-53642D01*
X47921Y-53614D01*
X47935Y-53600D01*
X47964Y-53585D01*
X48021Y-53585D01*
X48050Y-53600D01*
X48064Y-53614D01*
X48078Y-53642D01*
X48078Y-53657D01*
X48064Y-53685D01*
X48050Y-53700D01*
X48021Y-53714D01*
X47964Y-53714D01*
X47935Y-53728D01*
X47921Y-53742D01*
X47907Y-53771D01*
X47907Y-53828D01*
X47921Y-53857D01*
X47935Y-53871D01*
X47964Y-53885D01*
X48021Y-53885D01*
X48050Y-53871D01*
X48064Y-53857D01*
X48078Y-53828D01*
X48078Y-53771D01*
X48064Y-53742D01*
X48050Y-53728D01*
X48021Y-53714D01*
X41478Y-53600D02*
X41450Y-53585D01*
X41407Y-53585D01*
X41364Y-53600D01*
X41335Y-53628D01*
X41321Y-53657D01*
X41307Y-53714D01*
X41307Y-53757D01*
X41321Y-53814D01*
X41335Y-53842D01*
X41364Y-53871D01*
X41407Y-53885D01*
X41435Y-53885D01*
X41478Y-53871D01*
X41492Y-53857D01*
X41492Y-53757D01*
X41435Y-53757D01*
X41621Y-53885D02*
X41621Y-53585D01*
X41735Y-53585D01*
X41764Y-53600D01*
X41778Y-53614D01*
X41792Y-53642D01*
X41792Y-53685D01*
X41778Y-53714D01*
X41764Y-53728D01*
X41735Y-53742D01*
X41621Y-53742D01*
X42078Y-53885D02*
X41907Y-53885D01*
X41992Y-53885D02*
X41992Y-53585D01*
X41964Y-53628D01*
X41935Y-53657D01*
X41907Y-53671D01*
X42250Y-53714D02*
X42221Y-53700D01*
X42207Y-53685D01*
X42192Y-53657D01*
X42192Y-53642D01*
X42207Y-53614D01*
X42221Y-53600D01*
X42250Y-53585D01*
X42307Y-53585D01*
X42335Y-53600D01*
X42350Y-53614D01*
X42364Y-53642D01*
X42364Y-53657D01*
X42350Y-53685D01*
X42335Y-53700D01*
X42307Y-53714D01*
X42250Y-53714D01*
X42221Y-53728D01*
X42207Y-53742D01*
X42192Y-53771D01*
X42192Y-53828D01*
X42207Y-53857D01*
X42221Y-53871D01*
X42250Y-53885D01*
X42307Y-53885D01*
X42335Y-53871D01*
X42350Y-53857D01*
X42364Y-53828D01*
X42364Y-53771D01*
X42350Y-53742D01*
X42335Y-53728D01*
X42307Y-53714D01*
X40728Y-54100D02*
X40700Y-54085D01*
X40657Y-54085D01*
X40614Y-54100D01*
X40585Y-54128D01*
X40571Y-54157D01*
X40557Y-54214D01*
X40557Y-54257D01*
X40571Y-54314D01*
X40585Y-54342D01*
X40614Y-54371D01*
X40657Y-54385D01*
X40685Y-54385D01*
X40728Y-54371D01*
X40742Y-54357D01*
X40742Y-54257D01*
X40685Y-54257D01*
X40871Y-54385D02*
X40871Y-54085D01*
X40985Y-54085D01*
X41014Y-54100D01*
X41028Y-54114D01*
X41042Y-54142D01*
X41042Y-54185D01*
X41028Y-54214D01*
X41014Y-54228D01*
X40985Y-54242D01*
X40871Y-54242D01*
X41328Y-54385D02*
X41157Y-54385D01*
X41242Y-54385D02*
X41242Y-54085D01*
X41214Y-54128D01*
X41185Y-54157D01*
X41157Y-54171D01*
X41585Y-54185D02*
X41585Y-54385D01*
X41514Y-54071D02*
X41442Y-54285D01*
X41628Y-54285D01*
X39478Y-53850D02*
X39450Y-53835D01*
X39407Y-53835D01*
X39364Y-53850D01*
X39335Y-53878D01*
X39321Y-53907D01*
X39307Y-53964D01*
X39307Y-54007D01*
X39321Y-54064D01*
X39335Y-54092D01*
X39364Y-54121D01*
X39407Y-54135D01*
X39435Y-54135D01*
X39478Y-54121D01*
X39492Y-54107D01*
X39492Y-54007D01*
X39435Y-54007D01*
X39621Y-54135D02*
X39621Y-53835D01*
X39735Y-53835D01*
X39764Y-53850D01*
X39778Y-53864D01*
X39792Y-53892D01*
X39792Y-53935D01*
X39778Y-53964D01*
X39764Y-53978D01*
X39735Y-53992D01*
X39621Y-53992D01*
X40078Y-54135D02*
X39907Y-54135D01*
X39992Y-54135D02*
X39992Y-53835D01*
X39964Y-53878D01*
X39935Y-53907D01*
X39907Y-53921D01*
X40335Y-53935D02*
X40335Y-54135D01*
X40264Y-53821D02*
X40192Y-54035D01*
X40378Y-54035D01*
X47478Y-57100D02*
X47450Y-57085D01*
X47407Y-57085D01*
X47364Y-57100D01*
X47335Y-57128D01*
X47321Y-57157D01*
X47307Y-57214D01*
X47307Y-57257D01*
X47321Y-57314D01*
X47335Y-57342D01*
X47364Y-57371D01*
X47407Y-57385D01*
X47435Y-57385D01*
X47478Y-57371D01*
X47492Y-57357D01*
X47492Y-57257D01*
X47435Y-57257D01*
X47621Y-57385D02*
X47621Y-57085D01*
X47735Y-57085D01*
X47764Y-57100D01*
X47778Y-57114D01*
X47792Y-57142D01*
X47792Y-57185D01*
X47778Y-57214D01*
X47764Y-57228D01*
X47735Y-57242D01*
X47621Y-57242D01*
X48078Y-57385D02*
X47907Y-57385D01*
X47992Y-57385D02*
X47992Y-57085D01*
X47964Y-57128D01*
X47935Y-57157D01*
X47907Y-57171D01*
X48364Y-57385D02*
X48192Y-57385D01*
X48278Y-57385D02*
X48278Y-57085D01*
X48250Y-57128D01*
X48221Y-57157D01*
X48192Y-57171D01*
X45478Y-57100D02*
X45450Y-57085D01*
X45407Y-57085D01*
X45364Y-57100D01*
X45335Y-57128D01*
X45321Y-57157D01*
X45307Y-57214D01*
X45307Y-57257D01*
X45321Y-57314D01*
X45335Y-57342D01*
X45364Y-57371D01*
X45407Y-57385D01*
X45435Y-57385D01*
X45478Y-57371D01*
X45492Y-57357D01*
X45492Y-57257D01*
X45435Y-57257D01*
X45621Y-57385D02*
X45621Y-57085D01*
X45735Y-57085D01*
X45764Y-57100D01*
X45778Y-57114D01*
X45792Y-57142D01*
X45792Y-57185D01*
X45778Y-57214D01*
X45764Y-57228D01*
X45735Y-57242D01*
X45621Y-57242D01*
X46078Y-57385D02*
X45907Y-57385D01*
X45992Y-57385D02*
X45992Y-57085D01*
X45964Y-57128D01*
X45935Y-57157D01*
X45907Y-57171D01*
X46264Y-57085D02*
X46292Y-57085D01*
X46321Y-57100D01*
X46335Y-57114D01*
X46350Y-57142D01*
X46364Y-57200D01*
X46364Y-57271D01*
X46350Y-57328D01*
X46335Y-57357D01*
X46321Y-57371D01*
X46292Y-57385D01*
X46264Y-57385D01*
X46235Y-57371D01*
X46221Y-57357D01*
X46207Y-57328D01*
X46192Y-57271D01*
X46192Y-57200D01*
X46207Y-57142D01*
X46221Y-57114D01*
X46235Y-57100D01*
X46264Y-57085D01*
X48478Y-56650D02*
X48450Y-56635D01*
X48407Y-56635D01*
X48364Y-56650D01*
X48335Y-56678D01*
X48321Y-56707D01*
X48307Y-56764D01*
X48307Y-56807D01*
X48321Y-56864D01*
X48335Y-56892D01*
X48364Y-56921D01*
X48407Y-56935D01*
X48435Y-56935D01*
X48478Y-56921D01*
X48492Y-56907D01*
X48492Y-56807D01*
X48435Y-56807D01*
X48621Y-56935D02*
X48621Y-56635D01*
X48792Y-56935D01*
X48792Y-56635D01*
X48935Y-56935D02*
X48935Y-56635D01*
X49007Y-56635D01*
X49050Y-56650D01*
X49078Y-56678D01*
X49092Y-56707D01*
X49107Y-56764D01*
X49107Y-56807D01*
X49092Y-56864D01*
X49078Y-56892D01*
X49050Y-56921D01*
X49007Y-56935D01*
X48935Y-56935D01*
X46478Y-56650D02*
X46450Y-56635D01*
X46407Y-56635D01*
X46364Y-56650D01*
X46335Y-56678D01*
X46321Y-56707D01*
X46307Y-56764D01*
X46307Y-56807D01*
X46321Y-56864D01*
X46335Y-56892D01*
X46364Y-56921D01*
X46407Y-56935D01*
X46435Y-56935D01*
X46478Y-56921D01*
X46492Y-56907D01*
X46492Y-56807D01*
X46435Y-56807D01*
X46621Y-56935D02*
X46621Y-56635D01*
X46735Y-56635D01*
X46764Y-56650D01*
X46778Y-56664D01*
X46792Y-56692D01*
X46792Y-56735D01*
X46778Y-56764D01*
X46764Y-56778D01*
X46735Y-56792D01*
X46621Y-56792D01*
X46935Y-56935D02*
X46992Y-56935D01*
X47021Y-56921D01*
X47035Y-56907D01*
X47064Y-56864D01*
X47078Y-56807D01*
X47078Y-56692D01*
X47064Y-56664D01*
X47050Y-56650D01*
X47021Y-56635D01*
X46964Y-56635D01*
X46935Y-56650D01*
X46921Y-56664D01*
X46907Y-56692D01*
X46907Y-56764D01*
X46921Y-56792D01*
X46935Y-56807D01*
X46964Y-56821D01*
X47021Y-56821D01*
X47050Y-56807D01*
X47064Y-56792D01*
X47078Y-56764D01*
X43478Y-53600D02*
X43450Y-53585D01*
X43407Y-53585D01*
X43364Y-53600D01*
X43335Y-53628D01*
X43321Y-53657D01*
X43307Y-53714D01*
X43307Y-53757D01*
X43321Y-53814D01*
X43335Y-53842D01*
X43364Y-53871D01*
X43407Y-53885D01*
X43435Y-53885D01*
X43478Y-53871D01*
X43492Y-53857D01*
X43492Y-53757D01*
X43435Y-53757D01*
X43621Y-53885D02*
X43621Y-53585D01*
X43735Y-53585D01*
X43764Y-53600D01*
X43778Y-53614D01*
X43792Y-53642D01*
X43792Y-53685D01*
X43778Y-53714D01*
X43764Y-53728D01*
X43735Y-53742D01*
X43621Y-53742D01*
X43907Y-53614D02*
X43921Y-53600D01*
X43950Y-53585D01*
X44021Y-53585D01*
X44050Y-53600D01*
X44064Y-53614D01*
X44078Y-53642D01*
X44078Y-53671D01*
X44064Y-53714D01*
X43892Y-53885D01*
X44078Y-53885D01*
X44178Y-53585D02*
X44364Y-53585D01*
X44264Y-53700D01*
X44307Y-53700D01*
X44335Y-53714D01*
X44350Y-53728D01*
X44364Y-53757D01*
X44364Y-53828D01*
X44350Y-53857D01*
X44335Y-53871D01*
X44307Y-53885D01*
X44221Y-53885D01*
X44192Y-53871D01*
X44178Y-53857D01*
X44478Y-54100D02*
X44450Y-54085D01*
X44407Y-54085D01*
X44364Y-54100D01*
X44335Y-54128D01*
X44321Y-54157D01*
X44307Y-54214D01*
X44307Y-54257D01*
X44321Y-54314D01*
X44335Y-54342D01*
X44364Y-54371D01*
X44407Y-54385D01*
X44435Y-54385D01*
X44478Y-54371D01*
X44492Y-54357D01*
X44492Y-54257D01*
X44435Y-54257D01*
X44621Y-54385D02*
X44621Y-54085D01*
X44735Y-54085D01*
X44764Y-54100D01*
X44778Y-54114D01*
X44792Y-54142D01*
X44792Y-54185D01*
X44778Y-54214D01*
X44764Y-54228D01*
X44735Y-54242D01*
X44621Y-54242D01*
X44907Y-54114D02*
X44921Y-54100D01*
X44950Y-54085D01*
X45021Y-54085D01*
X45050Y-54100D01*
X45064Y-54114D01*
X45078Y-54142D01*
X45078Y-54171D01*
X45064Y-54214D01*
X44892Y-54385D01*
X45078Y-54385D01*
X45335Y-54185D02*
X45335Y-54385D01*
X45264Y-54071D02*
X45192Y-54285D01*
X45378Y-54285D01*
X46478Y-54100D02*
X46450Y-54085D01*
X46407Y-54085D01*
X46364Y-54100D01*
X46335Y-54128D01*
X46321Y-54157D01*
X46307Y-54214D01*
X46307Y-54257D01*
X46321Y-54314D01*
X46335Y-54342D01*
X46364Y-54371D01*
X46407Y-54385D01*
X46435Y-54385D01*
X46478Y-54371D01*
X46492Y-54357D01*
X46492Y-54257D01*
X46435Y-54257D01*
X46621Y-54385D02*
X46621Y-54085D01*
X46735Y-54085D01*
X46764Y-54100D01*
X46778Y-54114D01*
X46792Y-54142D01*
X46792Y-54185D01*
X46778Y-54214D01*
X46764Y-54228D01*
X46735Y-54242D01*
X46621Y-54242D01*
X46907Y-54114D02*
X46921Y-54100D01*
X46950Y-54085D01*
X47021Y-54085D01*
X47050Y-54100D01*
X47064Y-54114D01*
X47078Y-54142D01*
X47078Y-54171D01*
X47064Y-54214D01*
X46892Y-54385D01*
X47078Y-54385D01*
X47350Y-54085D02*
X47207Y-54085D01*
X47192Y-54228D01*
X47207Y-54214D01*
X47235Y-54200D01*
X47307Y-54200D01*
X47335Y-54214D01*
X47350Y-54228D01*
X47364Y-54257D01*
X47364Y-54328D01*
X47350Y-54357D01*
X47335Y-54371D01*
X47307Y-54385D01*
X47235Y-54385D01*
X47207Y-54371D01*
X47192Y-54357D01*
X48478Y-54100D02*
X48450Y-54085D01*
X48407Y-54085D01*
X48364Y-54100D01*
X48335Y-54128D01*
X48321Y-54157D01*
X48307Y-54214D01*
X48307Y-54257D01*
X48321Y-54314D01*
X48335Y-54342D01*
X48364Y-54371D01*
X48407Y-54385D01*
X48435Y-54385D01*
X48478Y-54371D01*
X48492Y-54357D01*
X48492Y-54257D01*
X48435Y-54257D01*
X48621Y-54385D02*
X48621Y-54085D01*
X48735Y-54085D01*
X48764Y-54100D01*
X48778Y-54114D01*
X48792Y-54142D01*
X48792Y-54185D01*
X48778Y-54214D01*
X48764Y-54228D01*
X48735Y-54242D01*
X48621Y-54242D01*
X48892Y-54085D02*
X49092Y-54085D01*
X48964Y-54385D01*
X44292Y-56635D02*
X44478Y-56635D01*
X44378Y-56750D01*
X44421Y-56750D01*
X44450Y-56764D01*
X44464Y-56778D01*
X44478Y-56807D01*
X44478Y-56878D01*
X44464Y-56907D01*
X44450Y-56921D01*
X44421Y-56935D01*
X44335Y-56935D01*
X44307Y-56921D01*
X44292Y-56907D01*
X44564Y-56635D02*
X44664Y-56935D01*
X44764Y-56635D01*
X44835Y-56635D02*
X45021Y-56635D01*
X44921Y-56750D01*
X44964Y-56750D01*
X44992Y-56764D01*
X45007Y-56778D01*
X45021Y-56807D01*
X45021Y-56878D01*
X45007Y-56907D01*
X44992Y-56921D01*
X44964Y-56935D01*
X44878Y-56935D01*
X44850Y-56921D01*
X44835Y-56907D01*
X43478Y-57100D02*
X43450Y-57085D01*
X43407Y-57085D01*
X43364Y-57100D01*
X43335Y-57128D01*
X43321Y-57157D01*
X43307Y-57214D01*
X43307Y-57257D01*
X43321Y-57314D01*
X43335Y-57342D01*
X43364Y-57371D01*
X43407Y-57385D01*
X43435Y-57385D01*
X43478Y-57371D01*
X43492Y-57357D01*
X43492Y-57257D01*
X43435Y-57257D01*
X43621Y-57385D02*
X43621Y-57085D01*
X43735Y-57085D01*
X43764Y-57100D01*
X43778Y-57114D01*
X43792Y-57142D01*
X43792Y-57185D01*
X43778Y-57214D01*
X43764Y-57228D01*
X43735Y-57242D01*
X43621Y-57242D01*
X43907Y-57114D02*
X43921Y-57100D01*
X43950Y-57085D01*
X44021Y-57085D01*
X44050Y-57100D01*
X44064Y-57114D01*
X44078Y-57142D01*
X44078Y-57171D01*
X44064Y-57214D01*
X43892Y-57385D01*
X44078Y-57385D01*
X44192Y-57114D02*
X44207Y-57100D01*
X44235Y-57085D01*
X44307Y-57085D01*
X44335Y-57100D01*
X44350Y-57114D01*
X44364Y-57142D01*
X44364Y-57171D01*
X44350Y-57214D01*
X44178Y-57385D01*
X44364Y-57385D01*
X42478Y-56650D02*
X42450Y-56635D01*
X42407Y-56635D01*
X42364Y-56650D01*
X42335Y-56678D01*
X42321Y-56707D01*
X42307Y-56764D01*
X42307Y-56807D01*
X42321Y-56864D01*
X42335Y-56892D01*
X42364Y-56921D01*
X42407Y-56935D01*
X42435Y-56935D01*
X42478Y-56921D01*
X42492Y-56907D01*
X42492Y-56807D01*
X42435Y-56807D01*
X42621Y-56935D02*
X42621Y-56635D01*
X42735Y-56635D01*
X42764Y-56650D01*
X42778Y-56664D01*
X42792Y-56692D01*
X42792Y-56735D01*
X42778Y-56764D01*
X42764Y-56778D01*
X42735Y-56792D01*
X42621Y-56792D01*
X42907Y-56664D02*
X42921Y-56650D01*
X42950Y-56635D01*
X43021Y-56635D01*
X43050Y-56650D01*
X43064Y-56664D01*
X43078Y-56692D01*
X43078Y-56721D01*
X43064Y-56764D01*
X42892Y-56935D01*
X43078Y-56935D01*
X43178Y-56635D02*
X43378Y-56635D01*
X43250Y-56935D01*
X41478Y-57100D02*
X41450Y-57085D01*
X41407Y-57085D01*
X41364Y-57100D01*
X41335Y-57128D01*
X41321Y-57157D01*
X41307Y-57214D01*
X41307Y-57257D01*
X41321Y-57314D01*
X41335Y-57342D01*
X41364Y-57371D01*
X41407Y-57385D01*
X41435Y-57385D01*
X41478Y-57371D01*
X41492Y-57357D01*
X41492Y-57257D01*
X41435Y-57257D01*
X41621Y-57385D02*
X41621Y-57085D01*
X41735Y-57085D01*
X41764Y-57100D01*
X41778Y-57114D01*
X41792Y-57142D01*
X41792Y-57185D01*
X41778Y-57214D01*
X41764Y-57228D01*
X41735Y-57242D01*
X41621Y-57242D01*
X42078Y-57385D02*
X41907Y-57385D01*
X41992Y-57385D02*
X41992Y-57085D01*
X41964Y-57128D01*
X41935Y-57157D01*
X41907Y-57171D01*
X42178Y-57085D02*
X42378Y-57085D01*
X42250Y-57385D01*
X39478Y-57100D02*
X39450Y-57085D01*
X39407Y-57085D01*
X39364Y-57100D01*
X39335Y-57128D01*
X39321Y-57157D01*
X39307Y-57214D01*
X39307Y-57257D01*
X39321Y-57314D01*
X39335Y-57342D01*
X39364Y-57371D01*
X39407Y-57385D01*
X39435Y-57385D01*
X39478Y-57371D01*
X39492Y-57357D01*
X39492Y-57257D01*
X39435Y-57257D01*
X39621Y-57385D02*
X39621Y-57085D01*
X39735Y-57085D01*
X39764Y-57100D01*
X39778Y-57114D01*
X39792Y-57142D01*
X39792Y-57185D01*
X39778Y-57214D01*
X39764Y-57228D01*
X39735Y-57242D01*
X39621Y-57242D01*
X40050Y-57185D02*
X40050Y-57385D01*
X39978Y-57071D02*
X39907Y-57285D01*
X40092Y-57285D01*
X38478Y-56650D02*
X38450Y-56635D01*
X38407Y-56635D01*
X38364Y-56650D01*
X38335Y-56678D01*
X38321Y-56707D01*
X38307Y-56764D01*
X38307Y-56807D01*
X38321Y-56864D01*
X38335Y-56892D01*
X38364Y-56921D01*
X38407Y-56935D01*
X38435Y-56935D01*
X38478Y-56921D01*
X38492Y-56907D01*
X38492Y-56807D01*
X38435Y-56807D01*
X38621Y-56935D02*
X38621Y-56635D01*
X38735Y-56635D01*
X38764Y-56650D01*
X38778Y-56664D01*
X38792Y-56692D01*
X38792Y-56735D01*
X38778Y-56764D01*
X38764Y-56778D01*
X38735Y-56792D01*
X38621Y-56792D01*
X38892Y-56635D02*
X39078Y-56635D01*
X38978Y-56750D01*
X39021Y-56750D01*
X39050Y-56764D01*
X39064Y-56778D01*
X39078Y-56807D01*
X39078Y-56878D01*
X39064Y-56907D01*
X39050Y-56921D01*
X39021Y-56935D01*
X38935Y-56935D01*
X38907Y-56921D01*
X38892Y-56907D01*
X37478Y-57100D02*
X37450Y-57085D01*
X37407Y-57085D01*
X37364Y-57100D01*
X37335Y-57128D01*
X37321Y-57157D01*
X37307Y-57214D01*
X37307Y-57257D01*
X37321Y-57314D01*
X37335Y-57342D01*
X37364Y-57371D01*
X37407Y-57385D01*
X37435Y-57385D01*
X37478Y-57371D01*
X37492Y-57357D01*
X37492Y-57257D01*
X37435Y-57257D01*
X37621Y-57385D02*
X37621Y-57085D01*
X37735Y-57085D01*
X37764Y-57100D01*
X37778Y-57114D01*
X37792Y-57142D01*
X37792Y-57185D01*
X37778Y-57214D01*
X37764Y-57228D01*
X37735Y-57242D01*
X37621Y-57242D01*
X37907Y-57114D02*
X37921Y-57100D01*
X37950Y-57085D01*
X38021Y-57085D01*
X38050Y-57100D01*
X38064Y-57114D01*
X38078Y-57142D01*
X38078Y-57171D01*
X38064Y-57214D01*
X37892Y-57385D01*
X38078Y-57385D01*
X36542Y-56635D02*
X36728Y-56635D01*
X36628Y-56750D01*
X36671Y-56750D01*
X36700Y-56764D01*
X36714Y-56778D01*
X36728Y-56807D01*
X36728Y-56878D01*
X36714Y-56907D01*
X36700Y-56921D01*
X36671Y-56935D01*
X36585Y-56935D01*
X36557Y-56921D01*
X36542Y-56907D01*
X36814Y-56635D02*
X36914Y-56935D01*
X37014Y-56635D01*
X37085Y-56635D02*
X37271Y-56635D01*
X37171Y-56750D01*
X37214Y-56750D01*
X37242Y-56764D01*
X37257Y-56778D01*
X37271Y-56807D01*
X37271Y-56878D01*
X37257Y-56907D01*
X37242Y-56921D01*
X37214Y-56935D01*
X37128Y-56935D01*
X37100Y-56921D01*
X37085Y-56907D01*
X40478Y-56650D02*
X40450Y-56635D01*
X40407Y-56635D01*
X40364Y-56650D01*
X40335Y-56678D01*
X40321Y-56707D01*
X40307Y-56764D01*
X40307Y-56807D01*
X40321Y-56864D01*
X40335Y-56892D01*
X40364Y-56921D01*
X40407Y-56935D01*
X40435Y-56935D01*
X40478Y-56921D01*
X40492Y-56907D01*
X40492Y-56807D01*
X40435Y-56807D01*
X40621Y-56935D02*
X40621Y-56635D01*
X40792Y-56935D01*
X40792Y-56635D01*
X40935Y-56935D02*
X40935Y-56635D01*
X41007Y-56635D01*
X41050Y-56650D01*
X41078Y-56678D01*
X41092Y-56707D01*
X41107Y-56764D01*
X41107Y-56807D01*
X41092Y-56864D01*
X41078Y-56892D01*
X41050Y-56921D01*
X41007Y-56935D01*
X40935Y-56935D01*
X45728Y-53600D02*
X45700Y-53585D01*
X45657Y-53585D01*
X45614Y-53600D01*
X45585Y-53628D01*
X45571Y-53657D01*
X45557Y-53714D01*
X45557Y-53757D01*
X45571Y-53814D01*
X45585Y-53842D01*
X45614Y-53871D01*
X45657Y-53885D01*
X45685Y-53885D01*
X45728Y-53871D01*
X45742Y-53857D01*
X45742Y-53757D01*
X45685Y-53757D01*
X45871Y-53885D02*
X45871Y-53585D01*
X46042Y-53885D01*
X46042Y-53585D01*
X46185Y-53885D02*
X46185Y-53585D01*
X46257Y-53585D01*
X46300Y-53600D01*
X46328Y-53628D01*
X46342Y-53657D01*
X46357Y-53714D01*
X46357Y-53757D01*
X46342Y-53814D01*
X46328Y-53842D01*
X46300Y-53871D01*
X46257Y-53885D01*
X46185Y-53885D01*
X42478Y-54100D02*
X42450Y-54085D01*
X42407Y-54085D01*
X42364Y-54100D01*
X42335Y-54128D01*
X42321Y-54157D01*
X42307Y-54214D01*
X42307Y-54257D01*
X42321Y-54314D01*
X42335Y-54342D01*
X42364Y-54371D01*
X42407Y-54385D01*
X42435Y-54385D01*
X42478Y-54371D01*
X42492Y-54357D01*
X42492Y-54257D01*
X42435Y-54257D01*
X42621Y-54385D02*
X42621Y-54085D01*
X42792Y-54385D01*
X42792Y-54085D01*
X42935Y-54385D02*
X42935Y-54085D01*
X43007Y-54085D01*
X43050Y-54100D01*
X43078Y-54128D01*
X43092Y-54157D01*
X43107Y-54214D01*
X43107Y-54257D01*
X43092Y-54314D01*
X43078Y-54342D01*
X43050Y-54371D01*
X43007Y-54385D01*
X42935Y-54385D01*
X38478Y-54100D02*
X38450Y-54085D01*
X38407Y-54085D01*
X38364Y-54100D01*
X38335Y-54128D01*
X38321Y-54157D01*
X38307Y-54214D01*
X38307Y-54257D01*
X38321Y-54314D01*
X38335Y-54342D01*
X38364Y-54371D01*
X38407Y-54385D01*
X38435Y-54385D01*
X38478Y-54371D01*
X38492Y-54357D01*
X38492Y-54257D01*
X38435Y-54257D01*
X38621Y-54385D02*
X38621Y-54085D01*
X38792Y-54385D01*
X38792Y-54085D01*
X38935Y-54385D02*
X38935Y-54085D01*
X39007Y-54085D01*
X39050Y-54100D01*
X39078Y-54128D01*
X39092Y-54157D01*
X39107Y-54214D01*
X39107Y-54257D01*
X39092Y-54314D01*
X39078Y-54342D01*
X39050Y-54371D01*
X39007Y-54385D01*
X38935Y-54385D01*
X37714Y-54085D02*
X37571Y-54085D01*
X37557Y-54228D01*
X37571Y-54214D01*
X37600Y-54200D01*
X37671Y-54200D01*
X37700Y-54214D01*
X37714Y-54228D01*
X37728Y-54257D01*
X37728Y-54328D01*
X37714Y-54357D01*
X37700Y-54371D01*
X37671Y-54385D01*
X37600Y-54385D01*
X37571Y-54371D01*
X37557Y-54357D01*
X37814Y-54085D02*
X37914Y-54385D01*
X38014Y-54085D01*
X36714Y-54085D02*
X36571Y-54085D01*
X36557Y-54228D01*
X36571Y-54214D01*
X36600Y-54200D01*
X36671Y-54200D01*
X36700Y-54214D01*
X36714Y-54228D01*
X36728Y-54257D01*
X36728Y-54328D01*
X36714Y-54357D01*
X36700Y-54371D01*
X36671Y-54385D01*
X36600Y-54385D01*
X36571Y-54371D01*
X36557Y-54357D01*
X36814Y-54085D02*
X36914Y-54385D01*
X37014Y-54085D01*
X38381Y-50525D02*
X38381Y-50225D01*
X38510Y-50525D02*
X38510Y-50368D01*
X38495Y-50340D01*
X38467Y-50325D01*
X38424Y-50325D01*
X38395Y-50340D01*
X38381Y-50354D01*
X38781Y-50525D02*
X38781Y-50368D01*
X38767Y-50340D01*
X38738Y-50325D01*
X38681Y-50325D01*
X38652Y-50340D01*
X38781Y-50511D02*
X38752Y-50525D01*
X38681Y-50525D01*
X38652Y-50511D01*
X38638Y-50482D01*
X38638Y-50454D01*
X38652Y-50425D01*
X38681Y-50411D01*
X38752Y-50411D01*
X38781Y-50397D01*
X38924Y-50525D02*
X38924Y-50325D01*
X38924Y-50382D02*
X38938Y-50354D01*
X38952Y-50340D01*
X38981Y-50325D01*
X39010Y-50325D01*
X39238Y-50525D02*
X39238Y-50225D01*
X39238Y-50511D02*
X39210Y-50525D01*
X39152Y-50525D01*
X39124Y-50511D01*
X39110Y-50497D01*
X39095Y-50468D01*
X39095Y-50382D01*
X39110Y-50354D01*
X39124Y-50340D01*
X39152Y-50325D01*
X39210Y-50325D01*
X39238Y-50340D01*
X39352Y-50325D02*
X39410Y-50525D01*
X39467Y-50382D01*
X39524Y-50525D01*
X39581Y-50325D01*
X39824Y-50525D02*
X39824Y-50368D01*
X39810Y-50340D01*
X39781Y-50325D01*
X39724Y-50325D01*
X39695Y-50340D01*
X39824Y-50511D02*
X39795Y-50525D01*
X39724Y-50525D01*
X39695Y-50511D01*
X39681Y-50482D01*
X39681Y-50454D01*
X39695Y-50425D01*
X39724Y-50411D01*
X39795Y-50411D01*
X39824Y-50397D01*
X39967Y-50525D02*
X39967Y-50325D01*
X39967Y-50382D02*
X39981Y-50354D01*
X39995Y-50340D01*
X40024Y-50325D01*
X40052Y-50325D01*
X40267Y-50511D02*
X40238Y-50525D01*
X40181Y-50525D01*
X40152Y-50511D01*
X40138Y-50482D01*
X40138Y-50368D01*
X40152Y-50340D01*
X40181Y-50325D01*
X40238Y-50325D01*
X40267Y-50340D01*
X40281Y-50368D01*
X40281Y-50397D01*
X40138Y-50425D01*
X38154Y-50125D02*
X38125Y-50111D01*
X38111Y-50097D01*
X38097Y-50068D01*
X38097Y-49982D01*
X38111Y-49954D01*
X38125Y-49940D01*
X38154Y-49925D01*
X38197Y-49925D01*
X38225Y-49940D01*
X38240Y-49954D01*
X38254Y-49982D01*
X38254Y-50068D01*
X38240Y-50097D01*
X38225Y-50111D01*
X38197Y-50125D01*
X38154Y-50125D01*
X38382Y-49925D02*
X38382Y-50225D01*
X38382Y-49940D02*
X38411Y-49925D01*
X38468Y-49925D01*
X38497Y-49940D01*
X38511Y-49954D01*
X38525Y-49982D01*
X38525Y-50068D01*
X38511Y-50097D01*
X38497Y-50111D01*
X38468Y-50125D01*
X38411Y-50125D01*
X38382Y-50111D01*
X38768Y-50111D02*
X38740Y-50125D01*
X38682Y-50125D01*
X38654Y-50111D01*
X38640Y-50082D01*
X38640Y-49968D01*
X38654Y-49940D01*
X38682Y-49925D01*
X38740Y-49925D01*
X38768Y-49940D01*
X38782Y-49968D01*
X38782Y-49997D01*
X38640Y-50025D01*
X38911Y-49925D02*
X38911Y-50125D01*
X38911Y-49954D02*
X38925Y-49940D01*
X38954Y-49925D01*
X38997Y-49925D01*
X39025Y-49940D01*
X39040Y-49968D01*
X39040Y-50125D01*
X39397Y-50111D02*
X39425Y-50125D01*
X39482Y-50125D01*
X39511Y-50111D01*
X39525Y-50082D01*
X39525Y-50068D01*
X39511Y-50040D01*
X39482Y-50025D01*
X39440Y-50025D01*
X39411Y-50011D01*
X39397Y-49982D01*
X39397Y-49968D01*
X39411Y-49940D01*
X39440Y-49925D01*
X39482Y-49925D01*
X39511Y-49940D01*
X39697Y-50125D02*
X39668Y-50111D01*
X39654Y-50097D01*
X39640Y-50068D01*
X39640Y-49982D01*
X39654Y-49954D01*
X39668Y-49940D01*
X39697Y-49925D01*
X39740Y-49925D01*
X39768Y-49940D01*
X39782Y-49954D01*
X39797Y-49982D01*
X39797Y-50068D01*
X39782Y-50097D01*
X39768Y-50111D01*
X39740Y-50125D01*
X39697Y-50125D01*
X40054Y-49925D02*
X40054Y-50125D01*
X39925Y-49925D02*
X39925Y-50082D01*
X39940Y-50111D01*
X39968Y-50125D01*
X40011Y-50125D01*
X40040Y-50111D01*
X40054Y-50097D01*
X40197Y-50125D02*
X40197Y-49925D01*
X40197Y-49982D02*
X40211Y-49954D01*
X40225Y-49940D01*
X40254Y-49925D01*
X40282Y-49925D01*
X40511Y-50111D02*
X40482Y-50125D01*
X40425Y-50125D01*
X40397Y-50111D01*
X40382Y-50097D01*
X40368Y-50068D01*
X40368Y-49982D01*
X40382Y-49954D01*
X40397Y-49940D01*
X40425Y-49925D01*
X40482Y-49925D01*
X40511Y-49940D01*
X40754Y-50111D02*
X40725Y-50125D01*
X40668Y-50125D01*
X40640Y-50111D01*
X40625Y-50082D01*
X40625Y-49968D01*
X40640Y-49940D01*
X40668Y-49925D01*
X40725Y-49925D01*
X40754Y-49940D01*
X40768Y-49968D01*
X40768Y-49997D01*
X40625Y-50025D01*
G54D11*
X35350Y-53350D02*
X35216Y-53160D01*
X35121Y-53350D02*
X35121Y-52950D01*
X35273Y-52950D01*
X35311Y-52970D01*
X35330Y-52989D01*
X35350Y-53027D01*
X35350Y-53084D01*
X35330Y-53122D01*
X35311Y-53141D01*
X35273Y-53160D01*
X35121Y-53160D01*
X35692Y-53350D02*
X35692Y-53141D01*
X35673Y-53103D01*
X35635Y-53084D01*
X35559Y-53084D01*
X35521Y-53103D01*
X35692Y-53331D02*
X35654Y-53350D01*
X35559Y-53350D01*
X35521Y-53331D01*
X35502Y-53293D01*
X35502Y-53255D01*
X35521Y-53217D01*
X35559Y-53198D01*
X35654Y-53198D01*
X35692Y-53179D01*
X35864Y-53331D02*
X35902Y-53350D01*
X35978Y-53350D01*
X36016Y-53331D01*
X36035Y-53293D01*
X36035Y-53274D01*
X36016Y-53236D01*
X35978Y-53217D01*
X35921Y-53217D01*
X35883Y-53198D01*
X35864Y-53160D01*
X35864Y-53141D01*
X35883Y-53103D01*
X35921Y-53084D01*
X35978Y-53084D01*
X36016Y-53103D01*
X36207Y-53084D02*
X36207Y-53484D01*
X36207Y-53103D02*
X36245Y-53084D01*
X36321Y-53084D01*
X36359Y-53103D01*
X36378Y-53122D01*
X36397Y-53160D01*
X36397Y-53274D01*
X36378Y-53312D01*
X36359Y-53331D01*
X36321Y-53350D01*
X36245Y-53350D01*
X36207Y-53331D01*
X36569Y-53350D02*
X36569Y-52950D01*
X36569Y-53103D02*
X36607Y-53084D01*
X36683Y-53084D01*
X36721Y-53103D01*
X36740Y-53122D01*
X36759Y-53160D01*
X36759Y-53274D01*
X36740Y-53312D01*
X36721Y-53331D01*
X36683Y-53350D01*
X36607Y-53350D01*
X36569Y-53331D01*
X37083Y-53331D02*
X37045Y-53350D01*
X36969Y-53350D01*
X36930Y-53331D01*
X36911Y-53293D01*
X36911Y-53141D01*
X36930Y-53103D01*
X36969Y-53084D01*
X37045Y-53084D01*
X37083Y-53103D01*
X37102Y-53141D01*
X37102Y-53179D01*
X36911Y-53217D01*
X37273Y-53350D02*
X37273Y-53084D01*
X37273Y-53160D02*
X37292Y-53122D01*
X37311Y-53103D01*
X37350Y-53084D01*
X37388Y-53084D01*
X37521Y-53350D02*
X37521Y-53084D01*
X37521Y-53160D02*
X37540Y-53122D01*
X37559Y-53103D01*
X37597Y-53084D01*
X37635Y-53084D01*
X37730Y-53084D02*
X37826Y-53350D01*
X37921Y-53084D02*
X37826Y-53350D01*
X37788Y-53446D01*
X37769Y-53465D01*
X37730Y-53484D01*
X38378Y-53350D02*
X38378Y-52950D01*
X38530Y-52950D01*
X38569Y-52970D01*
X38588Y-52989D01*
X38607Y-53027D01*
X38607Y-53084D01*
X38588Y-53122D01*
X38569Y-53141D01*
X38530Y-53160D01*
X38378Y-53160D01*
X38778Y-53350D02*
X38778Y-53084D01*
X38778Y-52950D02*
X38759Y-52970D01*
X38778Y-52989D01*
X38797Y-52970D01*
X38778Y-52950D01*
X38778Y-52989D01*
X35273Y-53990D02*
X35273Y-53590D01*
X35407Y-53876D01*
X35540Y-53590D01*
X35540Y-53990D01*
X35730Y-53990D02*
X35730Y-53724D01*
X35730Y-53590D02*
X35711Y-53610D01*
X35730Y-53629D01*
X35750Y-53610D01*
X35730Y-53590D01*
X35730Y-53629D01*
X35921Y-53724D02*
X35921Y-53990D01*
X35921Y-53762D02*
X35940Y-53743D01*
X35978Y-53724D01*
X36035Y-53724D01*
X36073Y-53743D01*
X36092Y-53781D01*
X36092Y-53990D01*
X36283Y-53990D02*
X36283Y-53724D01*
X36283Y-53590D02*
X36264Y-53610D01*
X36283Y-53629D01*
X36302Y-53610D01*
X36283Y-53590D01*
X36283Y-53629D01*
X36473Y-53838D02*
X36778Y-53838D01*
X36950Y-53971D02*
X37007Y-53990D01*
X37102Y-53990D01*
X37140Y-53971D01*
X37159Y-53952D01*
X37178Y-53914D01*
X37178Y-53876D01*
X37159Y-53838D01*
X37140Y-53819D01*
X37102Y-53800D01*
X37026Y-53781D01*
X36988Y-53762D01*
X36969Y-53743D01*
X36950Y-53705D01*
X36950Y-53667D01*
X36969Y-53629D01*
X36988Y-53610D01*
X37026Y-53590D01*
X37121Y-53590D01*
X37178Y-53610D01*
X37350Y-53990D02*
X37350Y-53590D01*
X37521Y-53990D02*
X37521Y-53781D01*
X37502Y-53743D01*
X37464Y-53724D01*
X37407Y-53724D01*
X37369Y-53743D01*
X37350Y-53762D01*
X37711Y-53990D02*
X37711Y-53724D01*
X37711Y-53590D02*
X37692Y-53610D01*
X37711Y-53629D01*
X37730Y-53610D01*
X37711Y-53590D01*
X37711Y-53629D01*
X38054Y-53971D02*
X38016Y-53990D01*
X37940Y-53990D01*
X37902Y-53971D01*
X37883Y-53933D01*
X37883Y-53781D01*
X37902Y-53743D01*
X37940Y-53724D01*
X38016Y-53724D01*
X38054Y-53743D01*
X38073Y-53781D01*
X38073Y-53819D01*
X37883Y-53857D01*
X38302Y-53990D02*
X38264Y-53971D01*
X38245Y-53933D01*
X38245Y-53590D01*
X38626Y-53990D02*
X38626Y-53590D01*
X38626Y-53971D02*
X38588Y-53990D01*
X38511Y-53990D01*
X38473Y-53971D01*
X38454Y-53952D01*
X38435Y-53914D01*
X38435Y-53800D01*
X38454Y-53762D01*
X38473Y-53743D01*
X38511Y-53724D01*
X38588Y-53724D01*
X38626Y-53743D01*
X48645Y-47633D02*
X48883Y-47633D01*
X48597Y-47776D02*
X48764Y-47276D01*
X48930Y-47776D01*
X49335Y-47276D02*
X49097Y-47276D01*
X49073Y-47514D01*
X49097Y-47490D01*
X49145Y-47466D01*
X49264Y-47466D01*
X49311Y-47490D01*
X49335Y-47514D01*
X49359Y-47561D01*
X49359Y-47680D01*
X49335Y-47728D01*
X49311Y-47752D01*
X49264Y-47776D01*
X49145Y-47776D01*
X49097Y-47752D01*
X49073Y-47728D01*
X48645Y-46583D02*
X48883Y-46583D01*
X48597Y-46726D02*
X48764Y-46226D01*
X48930Y-46726D01*
X49050Y-46226D02*
X49359Y-46226D01*
X49192Y-46416D01*
X49264Y-46416D01*
X49311Y-46440D01*
X49335Y-46464D01*
X49359Y-46511D01*
X49359Y-46630D01*
X49335Y-46678D01*
X49311Y-46702D01*
X49264Y-46726D01*
X49121Y-46726D01*
X49073Y-46702D01*
X49050Y-46678D01*
X48645Y-45583D02*
X48883Y-45583D01*
X48597Y-45726D02*
X48764Y-45226D01*
X48930Y-45726D01*
X49359Y-45726D02*
X49073Y-45726D01*
X49216Y-45726D02*
X49216Y-45226D01*
X49169Y-45297D01*
X49121Y-45345D01*
X49073Y-45369D01*
X48954Y-44726D02*
X48788Y-44488D01*
X48669Y-44726D02*
X48669Y-44226D01*
X48859Y-44226D01*
X48907Y-44250D01*
X48930Y-44273D01*
X48954Y-44321D01*
X48954Y-44392D01*
X48930Y-44440D01*
X48907Y-44464D01*
X48859Y-44488D01*
X48669Y-44488D01*
X49145Y-44702D02*
X49216Y-44726D01*
X49335Y-44726D01*
X49383Y-44702D01*
X49407Y-44678D01*
X49430Y-44630D01*
X49430Y-44583D01*
X49407Y-44535D01*
X49383Y-44511D01*
X49335Y-44488D01*
X49240Y-44464D01*
X49192Y-44440D01*
X49169Y-44416D01*
X49145Y-44369D01*
X49145Y-44321D01*
X49169Y-44273D01*
X49192Y-44250D01*
X49240Y-44226D01*
X49359Y-44226D01*
X49430Y-44250D01*
X48930Y-43300D02*
X48883Y-43276D01*
X48811Y-43276D01*
X48740Y-43300D01*
X48692Y-43347D01*
X48669Y-43395D01*
X48645Y-43490D01*
X48645Y-43561D01*
X48669Y-43657D01*
X48692Y-43704D01*
X48740Y-43752D01*
X48811Y-43776D01*
X48859Y-43776D01*
X48930Y-43752D01*
X48954Y-43728D01*
X48954Y-43561D01*
X48859Y-43561D01*
X49169Y-43776D02*
X49169Y-43276D01*
X49288Y-43276D01*
X49359Y-43300D01*
X49407Y-43347D01*
X49430Y-43395D01*
X49454Y-43490D01*
X49454Y-43561D01*
X49430Y-43657D01*
X49407Y-43704D01*
X49359Y-43752D01*
X49288Y-43776D01*
X49169Y-43776D01*
X48621Y-42226D02*
X48930Y-42226D01*
X48764Y-42416D01*
X48835Y-42416D01*
X48883Y-42440D01*
X48907Y-42464D01*
X48930Y-42511D01*
X48930Y-42630D01*
X48907Y-42678D01*
X48883Y-42702D01*
X48835Y-42726D01*
X48692Y-42726D01*
X48645Y-42702D01*
X48621Y-42678D01*
X49145Y-42678D02*
X49169Y-42702D01*
X49145Y-42726D01*
X49121Y-42702D01*
X49145Y-42678D01*
X49145Y-42726D01*
X49335Y-42226D02*
X49645Y-42226D01*
X49478Y-42416D01*
X49550Y-42416D01*
X49597Y-42440D01*
X49621Y-42464D01*
X49645Y-42511D01*
X49645Y-42630D01*
X49621Y-42678D01*
X49597Y-42702D01*
X49550Y-42726D01*
X49407Y-42726D01*
X49359Y-42702D01*
X49335Y-42678D01*
X48597Y-41226D02*
X48764Y-41726D01*
X48930Y-41226D01*
X49097Y-41726D02*
X49097Y-41226D01*
X49383Y-41726D01*
X49383Y-41226D01*
X48669Y-48726D02*
X48669Y-48226D01*
X48835Y-48583D01*
X49002Y-48226D01*
X49002Y-48726D01*
X49502Y-48250D02*
X49454Y-48226D01*
X49383Y-48226D01*
X49311Y-48250D01*
X49264Y-48297D01*
X49240Y-48345D01*
X49216Y-48440D01*
X49216Y-48511D01*
X49240Y-48607D01*
X49264Y-48654D01*
X49311Y-48702D01*
X49383Y-48726D01*
X49430Y-48726D01*
X49502Y-48702D01*
X49526Y-48678D01*
X49526Y-48511D01*
X49430Y-48511D01*
X33669Y-48726D02*
X33669Y-48226D01*
X33835Y-48583D01*
X34002Y-48226D01*
X34002Y-48726D01*
X34240Y-48726D02*
X34240Y-48226D01*
X34430Y-48226D01*
X34478Y-48250D01*
X34502Y-48273D01*
X34526Y-48321D01*
X34526Y-48392D01*
X34502Y-48440D01*
X34478Y-48464D01*
X34430Y-48488D01*
X34240Y-48488D01*
X33930Y-47726D02*
X33645Y-47726D01*
X33788Y-47726D02*
X33788Y-47226D01*
X33740Y-47297D01*
X33692Y-47345D01*
X33645Y-47369D01*
X34097Y-47226D02*
X34407Y-47226D01*
X34240Y-47416D01*
X34311Y-47416D01*
X34359Y-47440D01*
X34383Y-47464D01*
X34407Y-47511D01*
X34407Y-47630D01*
X34383Y-47678D01*
X34359Y-47702D01*
X34311Y-47726D01*
X34169Y-47726D01*
X34121Y-47702D01*
X34097Y-47678D01*
X33930Y-46726D02*
X33645Y-46726D01*
X33788Y-46726D02*
X33788Y-46226D01*
X33740Y-46297D01*
X33692Y-46345D01*
X33645Y-46369D01*
X34407Y-46726D02*
X34121Y-46726D01*
X34264Y-46726D02*
X34264Y-46226D01*
X34216Y-46297D01*
X34169Y-46345D01*
X34121Y-46369D01*
X33669Y-45676D02*
X33669Y-45176D01*
X33788Y-45176D01*
X33859Y-45200D01*
X33907Y-45247D01*
X33930Y-45295D01*
X33954Y-45390D01*
X33954Y-45461D01*
X33930Y-45557D01*
X33907Y-45604D01*
X33859Y-45652D01*
X33788Y-45676D01*
X33669Y-45676D01*
X34192Y-45676D02*
X34288Y-45676D01*
X34335Y-45652D01*
X34359Y-45628D01*
X34407Y-45557D01*
X34430Y-45461D01*
X34430Y-45271D01*
X34407Y-45223D01*
X34383Y-45200D01*
X34335Y-45176D01*
X34240Y-45176D01*
X34192Y-45200D01*
X34169Y-45223D01*
X34145Y-45271D01*
X34145Y-45390D01*
X34169Y-45438D01*
X34192Y-45461D01*
X34240Y-45485D01*
X34335Y-45485D01*
X34383Y-45461D01*
X34407Y-45438D01*
X34430Y-45390D01*
X33669Y-44726D02*
X33669Y-44226D01*
X33788Y-44226D01*
X33859Y-44250D01*
X33907Y-44297D01*
X33930Y-44345D01*
X33954Y-44440D01*
X33954Y-44511D01*
X33930Y-44607D01*
X33907Y-44654D01*
X33859Y-44702D01*
X33788Y-44726D01*
X33669Y-44726D01*
X34121Y-44226D02*
X34454Y-44226D01*
X34240Y-44726D01*
X33719Y-43726D02*
X33719Y-43226D01*
X33838Y-43226D01*
X33909Y-43250D01*
X33957Y-43297D01*
X33980Y-43345D01*
X34004Y-43440D01*
X34004Y-43511D01*
X33980Y-43607D01*
X33957Y-43654D01*
X33909Y-43702D01*
X33838Y-43726D01*
X33719Y-43726D01*
X34457Y-43226D02*
X34219Y-43226D01*
X34195Y-43464D01*
X34219Y-43440D01*
X34266Y-43416D01*
X34385Y-43416D01*
X34433Y-43440D01*
X34457Y-43464D01*
X34480Y-43511D01*
X34480Y-43630D01*
X34457Y-43678D01*
X34433Y-43702D01*
X34385Y-43726D01*
X34266Y-43726D01*
X34219Y-43702D01*
X34195Y-43678D01*
X33719Y-42726D02*
X33719Y-42226D01*
X33838Y-42226D01*
X33909Y-42250D01*
X33957Y-42297D01*
X33980Y-42345D01*
X34004Y-42440D01*
X34004Y-42511D01*
X33980Y-42607D01*
X33957Y-42654D01*
X33909Y-42702D01*
X33838Y-42726D01*
X33719Y-42726D01*
X34171Y-42226D02*
X34480Y-42226D01*
X34314Y-42416D01*
X34385Y-42416D01*
X34433Y-42440D01*
X34457Y-42464D01*
X34480Y-42511D01*
X34480Y-42630D01*
X34457Y-42678D01*
X34433Y-42702D01*
X34385Y-42726D01*
X34242Y-42726D01*
X34195Y-42702D01*
X34171Y-42678D01*
X33719Y-41726D02*
X33719Y-41226D01*
X33838Y-41226D01*
X33909Y-41250D01*
X33957Y-41297D01*
X33980Y-41345D01*
X34004Y-41440D01*
X34004Y-41511D01*
X33980Y-41607D01*
X33957Y-41654D01*
X33909Y-41702D01*
X33838Y-41726D01*
X33719Y-41726D01*
X34480Y-41726D02*
X34195Y-41726D01*
X34338Y-41726D02*
X34338Y-41226D01*
X34290Y-41297D01*
X34242Y-41345D01*
X34195Y-41369D01*
X45497Y-48726D02*
X45497Y-48226D01*
X45664Y-48583D01*
X45830Y-48226D01*
X45830Y-48726D01*
X46330Y-48250D02*
X46283Y-48226D01*
X46211Y-48226D01*
X46140Y-48250D01*
X46092Y-48297D01*
X46069Y-48345D01*
X46045Y-48440D01*
X46045Y-48511D01*
X46069Y-48607D01*
X46092Y-48654D01*
X46140Y-48702D01*
X46211Y-48726D01*
X46259Y-48726D01*
X46330Y-48702D01*
X46354Y-48678D01*
X46354Y-48511D01*
X46259Y-48511D01*
X45640Y-47583D02*
X45878Y-47583D01*
X45592Y-47726D02*
X45759Y-47226D01*
X45926Y-47726D01*
X46307Y-47392D02*
X46307Y-47726D01*
X46188Y-47202D02*
X46069Y-47559D01*
X46378Y-47559D01*
X45640Y-46583D02*
X45878Y-46583D01*
X45592Y-46726D02*
X45759Y-46226D01*
X45926Y-46726D01*
X46069Y-46273D02*
X46092Y-46250D01*
X46140Y-46226D01*
X46259Y-46226D01*
X46307Y-46250D01*
X46330Y-46273D01*
X46354Y-46321D01*
X46354Y-46369D01*
X46330Y-46440D01*
X46045Y-46726D01*
X46354Y-46726D01*
X45640Y-45583D02*
X45878Y-45583D01*
X45592Y-45726D02*
X45759Y-45226D01*
X45926Y-45726D01*
X46188Y-45226D02*
X46235Y-45226D01*
X46283Y-45250D01*
X46307Y-45273D01*
X46330Y-45321D01*
X46354Y-45416D01*
X46354Y-45535D01*
X46330Y-45630D01*
X46307Y-45678D01*
X46283Y-45702D01*
X46235Y-45726D01*
X46188Y-45726D01*
X46140Y-45702D01*
X46116Y-45678D01*
X46092Y-45630D01*
X46069Y-45535D01*
X46069Y-45416D01*
X46092Y-45321D01*
X46116Y-45273D01*
X46140Y-45250D01*
X46188Y-45226D01*
X45616Y-44583D02*
X45854Y-44583D01*
X45569Y-44726D02*
X45735Y-44226D01*
X45902Y-44726D01*
X46354Y-44726D02*
X46188Y-44488D01*
X46069Y-44726D02*
X46069Y-44226D01*
X46259Y-44226D01*
X46307Y-44250D01*
X46330Y-44273D01*
X46354Y-44321D01*
X46354Y-44392D01*
X46330Y-44440D01*
X46307Y-44464D01*
X46259Y-44488D01*
X46069Y-44488D01*
X45830Y-43250D02*
X45783Y-43226D01*
X45711Y-43226D01*
X45640Y-43250D01*
X45592Y-43297D01*
X45569Y-43345D01*
X45545Y-43440D01*
X45545Y-43511D01*
X45569Y-43607D01*
X45592Y-43654D01*
X45640Y-43702D01*
X45711Y-43726D01*
X45759Y-43726D01*
X45830Y-43702D01*
X45854Y-43678D01*
X45854Y-43511D01*
X45759Y-43511D01*
X46069Y-43726D02*
X46069Y-43226D01*
X46188Y-43226D01*
X46259Y-43250D01*
X46307Y-43297D01*
X46330Y-43345D01*
X46354Y-43440D01*
X46354Y-43511D01*
X46330Y-43607D01*
X46307Y-43654D01*
X46259Y-43702D01*
X46188Y-43726D01*
X46069Y-43726D01*
X45902Y-42226D02*
X45664Y-42226D01*
X45640Y-42464D01*
X45664Y-42440D01*
X45711Y-42416D01*
X45830Y-42416D01*
X45878Y-42440D01*
X45902Y-42464D01*
X45926Y-42511D01*
X45926Y-42630D01*
X45902Y-42678D01*
X45878Y-42702D01*
X45830Y-42726D01*
X45711Y-42726D01*
X45664Y-42702D01*
X45640Y-42678D01*
X46069Y-42226D02*
X46235Y-42726D01*
X46402Y-42226D01*
X45307Y-41226D02*
X45473Y-41726D01*
X45640Y-41226D01*
X45807Y-41726D02*
X45807Y-41226D01*
X46045Y-41726D02*
X46045Y-41226D01*
X46330Y-41726D01*
X46330Y-41226D01*
X30497Y-48726D02*
X30497Y-48226D01*
X30664Y-48583D01*
X30830Y-48226D01*
X30830Y-48726D01*
X31069Y-48726D02*
X31069Y-48226D01*
X31259Y-48226D01*
X31307Y-48250D01*
X31330Y-48273D01*
X31354Y-48321D01*
X31354Y-48392D01*
X31330Y-48440D01*
X31307Y-48464D01*
X31259Y-48488D01*
X31069Y-48488D01*
X30878Y-47726D02*
X30592Y-47726D01*
X30735Y-47726D02*
X30735Y-47226D01*
X30688Y-47297D01*
X30640Y-47345D01*
X30592Y-47369D01*
X31069Y-47273D02*
X31092Y-47250D01*
X31140Y-47226D01*
X31259Y-47226D01*
X31307Y-47250D01*
X31330Y-47273D01*
X31354Y-47321D01*
X31354Y-47369D01*
X31330Y-47440D01*
X31045Y-47726D01*
X31354Y-47726D01*
X30878Y-46726D02*
X30592Y-46726D01*
X30735Y-46726D02*
X30735Y-46226D01*
X30688Y-46297D01*
X30640Y-46345D01*
X30592Y-46369D01*
X31188Y-46226D02*
X31235Y-46226D01*
X31283Y-46250D01*
X31307Y-46273D01*
X31330Y-46321D01*
X31354Y-46416D01*
X31354Y-46535D01*
X31330Y-46630D01*
X31307Y-46678D01*
X31283Y-46702D01*
X31235Y-46726D01*
X31188Y-46726D01*
X31140Y-46702D01*
X31116Y-46678D01*
X31092Y-46630D01*
X31069Y-46535D01*
X31069Y-46416D01*
X31092Y-46321D01*
X31116Y-46273D01*
X31140Y-46250D01*
X31188Y-46226D01*
X30592Y-45726D02*
X30592Y-45226D01*
X30711Y-45226D01*
X30783Y-45250D01*
X30830Y-45297D01*
X30854Y-45345D01*
X30878Y-45440D01*
X30878Y-45511D01*
X30854Y-45607D01*
X30830Y-45654D01*
X30783Y-45702D01*
X30711Y-45726D01*
X30592Y-45726D01*
X31164Y-45440D02*
X31116Y-45416D01*
X31092Y-45392D01*
X31069Y-45345D01*
X31069Y-45321D01*
X31092Y-45273D01*
X31116Y-45250D01*
X31164Y-45226D01*
X31259Y-45226D01*
X31307Y-45250D01*
X31330Y-45273D01*
X31354Y-45321D01*
X31354Y-45345D01*
X31330Y-45392D01*
X31307Y-45416D01*
X31259Y-45440D01*
X31164Y-45440D01*
X31116Y-45464D01*
X31092Y-45488D01*
X31069Y-45535D01*
X31069Y-45630D01*
X31092Y-45678D01*
X31116Y-45702D01*
X31164Y-45726D01*
X31259Y-45726D01*
X31307Y-45702D01*
X31330Y-45678D01*
X31354Y-45630D01*
X31354Y-45535D01*
X31330Y-45488D01*
X31307Y-45464D01*
X31259Y-45440D01*
X30592Y-44726D02*
X30592Y-44226D01*
X30711Y-44226D01*
X30783Y-44250D01*
X30830Y-44297D01*
X30854Y-44345D01*
X30878Y-44440D01*
X30878Y-44511D01*
X30854Y-44607D01*
X30830Y-44654D01*
X30783Y-44702D01*
X30711Y-44726D01*
X30592Y-44726D01*
X31307Y-44226D02*
X31211Y-44226D01*
X31164Y-44250D01*
X31140Y-44273D01*
X31092Y-44345D01*
X31069Y-44440D01*
X31069Y-44630D01*
X31092Y-44678D01*
X31116Y-44702D01*
X31164Y-44726D01*
X31259Y-44726D01*
X31307Y-44702D01*
X31330Y-44678D01*
X31354Y-44630D01*
X31354Y-44511D01*
X31330Y-44464D01*
X31307Y-44440D01*
X31259Y-44416D01*
X31164Y-44416D01*
X31116Y-44440D01*
X31092Y-44464D01*
X31069Y-44511D01*
X30592Y-43726D02*
X30592Y-43226D01*
X30711Y-43226D01*
X30783Y-43250D01*
X30830Y-43297D01*
X30854Y-43345D01*
X30878Y-43440D01*
X30878Y-43511D01*
X30854Y-43607D01*
X30830Y-43654D01*
X30783Y-43702D01*
X30711Y-43726D01*
X30592Y-43726D01*
X31307Y-43392D02*
X31307Y-43726D01*
X31188Y-43202D02*
X31069Y-43559D01*
X31378Y-43559D01*
X30592Y-42726D02*
X30592Y-42226D01*
X30711Y-42226D01*
X30783Y-42250D01*
X30830Y-42297D01*
X30854Y-42345D01*
X30878Y-42440D01*
X30878Y-42511D01*
X30854Y-42607D01*
X30830Y-42654D01*
X30783Y-42702D01*
X30711Y-42726D01*
X30592Y-42726D01*
X31069Y-42273D02*
X31092Y-42250D01*
X31140Y-42226D01*
X31259Y-42226D01*
X31307Y-42250D01*
X31330Y-42273D01*
X31354Y-42321D01*
X31354Y-42369D01*
X31330Y-42440D01*
X31045Y-42726D01*
X31354Y-42726D01*
X30592Y-41726D02*
X30592Y-41226D01*
X30711Y-41226D01*
X30783Y-41250D01*
X30830Y-41297D01*
X30854Y-41345D01*
X30878Y-41440D01*
X30878Y-41511D01*
X30854Y-41607D01*
X30830Y-41654D01*
X30783Y-41702D01*
X30711Y-41726D01*
X30592Y-41726D01*
X31188Y-41226D02*
X31235Y-41226D01*
X31283Y-41250D01*
X31307Y-41273D01*
X31330Y-41321D01*
X31354Y-41416D01*
X31354Y-41535D01*
X31330Y-41630D01*
X31307Y-41678D01*
X31283Y-41702D01*
X31235Y-41726D01*
X31188Y-41726D01*
X31140Y-41702D01*
X31116Y-41678D01*
X31092Y-41630D01*
X31069Y-41535D01*
X31069Y-41416D01*
X31092Y-41321D01*
X31116Y-41273D01*
X31140Y-41250D01*
X31188Y-41226D01*
X49842Y-40657D02*
X49842Y-60342D01*
X49842Y-60342D02*
X30157Y-60342D01*
X30157Y-40657D02*
X30157Y-60342D01*
X30157Y-40657D02*
X49842Y-40657D01*
G54D13*
X33500Y-49000D02*
X33500Y-41000D01*
X31500Y-42000D02*
X31500Y-49000D01*
X33500Y-49000D02*
X31500Y-49000D01*
X33500Y-41000D02*
X32500Y-41000D01*
X31500Y-41000D02*
X31500Y-42000D01*
X32500Y-41000D02*
X32500Y-42000D01*
X32500Y-42000D02*
X31500Y-42000D01*
X31500Y-41000D02*
X32500Y-41000D01*
X48500Y-49000D02*
X48500Y-41000D01*
X46500Y-42000D02*
X46500Y-49000D01*
X48500Y-49000D02*
X46500Y-49000D01*
X48500Y-41000D02*
X47500Y-41000D01*
X46500Y-41000D02*
X46500Y-42000D01*
X47500Y-41000D02*
X47500Y-42000D01*
X47500Y-42000D02*
X46500Y-42000D01*
X46500Y-41000D02*
X47500Y-41000D01*
X36250Y-57750D02*
X49250Y-57750D01*
X37250Y-59750D02*
X49250Y-59750D01*
X49250Y-57750D02*
X49250Y-59750D01*
X36250Y-57750D02*
X36250Y-58750D01*
X36250Y-59750D02*
X37250Y-59750D01*
X36250Y-58750D02*
X37250Y-58750D01*
X37250Y-58750D02*
X37250Y-59750D01*
X36250Y-59750D02*
X36250Y-58750D01*
X36250Y-54500D02*
X49250Y-54500D01*
X37250Y-56500D02*
X49250Y-56500D01*
X49250Y-54500D02*
X49250Y-56500D01*
X36250Y-54500D02*
X36250Y-55500D01*
X36250Y-56500D02*
X37250Y-56500D01*
X36250Y-55500D02*
X37250Y-55500D01*
X37250Y-55500D02*
X37250Y-56500D01*
X36250Y-56500D02*
X36250Y-55500D01*
G54D14*
X49244Y-51886D02*
G75*
G03X49250Y-53610I-494J-863D01*
G74*
G01*
X49250Y-53610D02*
X49250Y-51880D01*
G54D13*
X30750Y-58750D02*
X30750Y-53750D01*
X30750Y-53750D02*
X31750Y-53750D01*
X31750Y-53750D02*
X31750Y-58750D01*
X30750Y-59750D02*
X30750Y-58750D01*
X30750Y-58750D02*
X31750Y-58750D01*
X30750Y-59750D02*
X31750Y-59750D01*
X31750Y-59750D02*
X31750Y-58750D01*
G54D15*
X33000Y-52719D02*
X33000Y-53119D01*
X33000Y-50719D02*
X33000Y-50319D01*
X32500Y-52719D02*
X32500Y-50719D01*
X32500Y-50719D02*
X33500Y-50719D01*
X33500Y-50719D02*
X33500Y-52719D01*
X33500Y-52719D02*
X32500Y-52719D01*
X33000Y-57969D02*
X33000Y-58369D01*
X33000Y-55969D02*
X33000Y-55569D01*
X32500Y-57969D02*
X32500Y-55969D01*
X32500Y-55969D02*
X33500Y-55969D01*
X33500Y-55969D02*
X33500Y-57969D01*
X33500Y-57969D02*
X32500Y-57969D01*
X34500Y-52719D02*
X34500Y-53119D01*
X34500Y-50719D02*
X34500Y-50319D01*
X34000Y-52719D02*
X34000Y-50719D01*
X34000Y-50719D02*
X35000Y-50719D01*
X35000Y-50719D02*
X35000Y-52719D01*
X35000Y-52719D02*
X34000Y-52719D01*
X34500Y-57969D02*
X34500Y-58369D01*
X34500Y-55969D02*
X34500Y-55569D01*
X34000Y-57969D02*
X34000Y-55969D01*
X34000Y-55969D02*
X35000Y-55969D01*
X35000Y-55969D02*
X35000Y-57969D01*
X35000Y-57969D02*
X34000Y-57969D01*
X47969Y-50250D02*
X48369Y-50250D01*
X45969Y-50250D02*
X45569Y-50250D01*
X47969Y-50750D02*
X45969Y-50750D01*
X45969Y-50750D02*
X45969Y-49750D01*
X45969Y-49750D02*
X47969Y-49750D01*
X47969Y-49750D02*
X47969Y-50750D01*
X43781Y-52750D02*
X43381Y-52750D01*
X45781Y-52750D02*
X46181Y-52750D01*
X43781Y-52250D02*
X45781Y-52250D01*
X45781Y-52250D02*
X45781Y-53250D01*
X45781Y-53250D02*
X43781Y-53250D01*
X43781Y-53250D02*
X43781Y-52250D01*
X40500Y-46969D02*
X40500Y-47369D01*
X40500Y-44969D02*
X40500Y-44569D01*
X40000Y-46969D02*
X40000Y-44969D01*
X40000Y-44969D02*
X41000Y-44969D01*
X41000Y-44969D02*
X41000Y-46969D01*
X41000Y-46969D02*
X40000Y-46969D01*
X44250Y-41500D02*
X44250Y-49500D01*
X42250Y-49500D02*
X42250Y-41500D01*
X42250Y-41500D02*
X44250Y-41500D01*
X43750Y-41500D02*
X43750Y-42000D01*
X43750Y-42000D02*
X42750Y-42000D01*
X42750Y-42000D02*
X42750Y-41500D01*
X44250Y-49500D02*
X42250Y-49500D01*
X37500Y-41500D02*
X37500Y-49500D01*
X35500Y-49500D02*
X35500Y-41500D01*
X35500Y-41500D02*
X37500Y-41500D01*
X37000Y-41500D02*
X37000Y-42000D01*
X37000Y-42000D02*
X36000Y-42000D01*
X36000Y-42000D02*
X36000Y-41500D01*
X37500Y-49500D02*
X35500Y-49500D01*
G54D16*
X37480Y-50750D02*
X35500Y-50750D01*
X35500Y-50750D02*
X35500Y-49750D01*
X35500Y-49750D02*
X37500Y-49750D01*
X37500Y-49750D02*
X37500Y-50750D01*
X37500Y-50500D02*
X37250Y-50750D01*
X44230Y-50750D02*
X42250Y-50750D01*
X42250Y-50750D02*
X42250Y-49750D01*
X42250Y-49750D02*
X44250Y-49750D01*
X44250Y-49750D02*
X44250Y-50750D01*
X44250Y-50500D02*
X44000Y-50750D01*
G54D17*
G36*
X38724Y-49808D02*
X38735Y-49803D01*
X38758Y-49788D01*
X38791Y-49766D01*
X38831Y-49739D01*
X38870Y-49713D01*
X38903Y-49691D01*
X38926Y-49676D01*
X38935Y-49671D01*
X38940Y-49673D01*
X38959Y-49682D01*
X38987Y-49696D01*
X39002Y-49704D01*
X39028Y-49715D01*
X39040Y-49717D01*
X39042Y-49714D01*
X39051Y-49695D01*
X39066Y-49662D01*
X39085Y-49619D01*
X39106Y-49568D01*
X39129Y-49513D01*
X39153Y-49457D01*
X39175Y-49404D01*
X39194Y-49356D01*
X39210Y-49317D01*
X39220Y-49290D01*
X39224Y-49278D01*
X39223Y-49276D01*
X39210Y-49264D01*
X39188Y-49247D01*
X39141Y-49209D01*
X39094Y-49151D01*
X39066Y-49084D01*
X39057Y-49011D01*
X39065Y-48943D01*
X39091Y-48878D01*
X39137Y-48819D01*
X39193Y-48775D01*
X39257Y-48747D01*
X39330Y-48738D01*
X39399Y-48746D01*
X39466Y-48772D01*
X39525Y-48817D01*
X39550Y-48846D01*
X39585Y-48906D01*
X39604Y-48969D01*
X39606Y-48986D01*
X39603Y-49056D01*
X39583Y-49123D01*
X39545Y-49183D01*
X39494Y-49233D01*
X39488Y-49237D01*
X39464Y-49255D01*
X39448Y-49267D01*
X39435Y-49278D01*
X39525Y-49493D01*
X39539Y-49527D01*
X39563Y-49586D01*
X39585Y-49637D01*
X39602Y-49677D01*
X39614Y-49704D01*
X39619Y-49715D01*
X39620Y-49715D01*
X39628Y-49717D01*
X39644Y-49711D01*
X39674Y-49696D01*
X39694Y-49686D01*
X39717Y-49675D01*
X39727Y-49671D01*
X39736Y-49676D01*
X39758Y-49690D01*
X39790Y-49711D01*
X39829Y-49737D01*
X39865Y-49762D01*
X39899Y-49785D01*
X39924Y-49800D01*
X39935Y-49807D01*
X39937Y-49807D01*
X39948Y-49801D01*
X39967Y-49785D01*
X39997Y-49757D01*
X40038Y-49716D01*
X40044Y-49710D01*
X40078Y-49675D01*
X40106Y-49646D01*
X40125Y-49625D01*
X40131Y-49616D01*
X40131Y-49616D01*
X40125Y-49604D01*
X40110Y-49580D01*
X40087Y-49545D01*
X40060Y-49505D01*
X39989Y-49402D01*
X40028Y-49304D01*
X40040Y-49274D01*
X40055Y-49238D01*
X40067Y-49212D01*
X40073Y-49201D01*
X40083Y-49197D01*
X40110Y-49190D01*
X40149Y-49182D01*
X40195Y-49174D01*
X40239Y-49166D01*
X40279Y-49158D01*
X40308Y-49153D01*
X40321Y-49150D01*
X40324Y-49148D01*
X40326Y-49142D01*
X40328Y-49128D01*
X40329Y-49104D01*
X40329Y-49066D01*
X40329Y-49011D01*
X40329Y-49005D01*
X40329Y-48952D01*
X40328Y-48910D01*
X40327Y-48884D01*
X40325Y-48873D01*
X40325Y-48873D01*
X40312Y-48870D01*
X40284Y-48864D01*
X40244Y-48856D01*
X40197Y-48847D01*
X40194Y-48846D01*
X40147Y-48837D01*
X40107Y-48829D01*
X40079Y-48822D01*
X40067Y-48819D01*
X40065Y-48815D01*
X40055Y-48797D01*
X40042Y-48768D01*
X40026Y-48732D01*
X40011Y-48695D01*
X39997Y-48661D01*
X39988Y-48636D01*
X39986Y-48625D01*
X39986Y-48625D01*
X39993Y-48613D01*
X40009Y-48589D01*
X40032Y-48555D01*
X40060Y-48515D01*
X40062Y-48512D01*
X40089Y-48472D01*
X40111Y-48438D01*
X40126Y-48414D01*
X40131Y-48403D01*
X40131Y-48402D01*
X40122Y-48390D01*
X40102Y-48368D01*
X40073Y-48337D01*
X40038Y-48302D01*
X40027Y-48291D01*
X39988Y-48253D01*
X39961Y-48228D01*
X39944Y-48215D01*
X39936Y-48212D01*
X39936Y-48212D01*
X39924Y-48219D01*
X39898Y-48236D01*
X39864Y-48259D01*
X39824Y-48287D01*
X39821Y-48289D01*
X39781Y-48316D01*
X39747Y-48338D01*
X39724Y-48354D01*
X39713Y-48360D01*
X39712Y-48360D01*
X39695Y-48355D01*
X39667Y-48345D01*
X39632Y-48332D01*
X39595Y-48317D01*
X39561Y-48303D01*
X39536Y-48291D01*
X39524Y-48285D01*
X39524Y-48284D01*
X39520Y-48270D01*
X39513Y-48240D01*
X39504Y-48199D01*
X39495Y-48150D01*
X39494Y-48142D01*
X39485Y-48094D01*
X39477Y-48055D01*
X39471Y-48028D01*
X39469Y-48016D01*
X39462Y-48015D01*
X39438Y-48013D01*
X39403Y-48012D01*
X39360Y-48012D01*
X39315Y-48012D01*
X39271Y-48013D01*
X39233Y-48014D01*
X39206Y-48016D01*
X39195Y-48018D01*
X39195Y-48019D01*
X39190Y-48034D01*
X39184Y-48064D01*
X39175Y-48105D01*
X39166Y-48154D01*
X39164Y-48163D01*
X39155Y-48210D01*
X39147Y-48249D01*
X39142Y-48276D01*
X39139Y-48287D01*
X39134Y-48289D01*
X39115Y-48298D01*
X39083Y-48311D01*
X39043Y-48327D01*
X38952Y-48364D01*
X38840Y-48287D01*
X38829Y-48280D01*
X38789Y-48252D01*
X38756Y-48230D01*
X38733Y-48215D01*
X38723Y-48210D01*
X38722Y-48210D01*
X38711Y-48220D01*
X38689Y-48241D01*
X38659Y-48271D01*
X38623Y-48306D01*
X38597Y-48332D01*
X38566Y-48363D01*
X38547Y-48385D01*
X38536Y-48398D01*
X38532Y-48406D01*
X38533Y-48412D01*
X38540Y-48423D01*
X38557Y-48448D01*
X38580Y-48482D01*
X38607Y-48522D01*
X38630Y-48555D01*
X38654Y-48593D01*
X38670Y-48620D01*
X38675Y-48633D01*
X38674Y-48638D01*
X38666Y-48660D01*
X38653Y-48693D01*
X38636Y-48733D01*
X38597Y-48822D01*
X38539Y-48833D01*
X38503Y-48840D01*
X38454Y-48849D01*
X38407Y-48858D01*
X38333Y-48873D01*
X38330Y-49143D01*
X38342Y-49148D01*
X38353Y-49151D01*
X38380Y-49157D01*
X38419Y-49165D01*
X38465Y-49173D01*
X38504Y-49181D01*
X38544Y-49188D01*
X38572Y-49194D01*
X38585Y-49196D01*
X38588Y-49201D01*
X38598Y-49220D01*
X38612Y-49250D01*
X38628Y-49287D01*
X38643Y-49325D01*
X38657Y-49360D01*
X38667Y-49386D01*
X38671Y-49400D01*
X38665Y-49411D01*
X38650Y-49434D01*
X38628Y-49467D01*
X38602Y-49506D01*
X38575Y-49545D01*
X38552Y-49579D01*
X38536Y-49603D01*
X38530Y-49614D01*
X38533Y-49622D01*
X38549Y-49641D01*
X38578Y-49671D01*
X38622Y-49715D01*
X38630Y-49722D01*
X38665Y-49756D01*
X38694Y-49783D01*
X38715Y-49801D01*
X38724Y-49808D01*
X38724Y-49808D01*
G37*
X38724Y-49808D02*
X38735Y-49803D01*
X38758Y-49788D01*
X38791Y-49766D01*
X38831Y-49739D01*
X38870Y-49713D01*
X38903Y-49691D01*
X38926Y-49676D01*
X38935Y-49671D01*
X38940Y-49673D01*
X38959Y-49682D01*
X38987Y-49696D01*
X39002Y-49704D01*
X39028Y-49715D01*
X39040Y-49717D01*
X39042Y-49714D01*
X39051Y-49695D01*
X39066Y-49662D01*
X39085Y-49619D01*
X39106Y-49568D01*
X39129Y-49513D01*
X39153Y-49457D01*
X39175Y-49404D01*
X39194Y-49356D01*
X39210Y-49317D01*
X39220Y-49290D01*
X39224Y-49278D01*
X39223Y-49276D01*
X39210Y-49264D01*
X39188Y-49247D01*
X39141Y-49209D01*
X39094Y-49151D01*
X39066Y-49084D01*
X39057Y-49011D01*
X39065Y-48943D01*
X39091Y-48878D01*
X39137Y-48819D01*
X39193Y-48775D01*
X39257Y-48747D01*
X39330Y-48738D01*
X39399Y-48746D01*
X39466Y-48772D01*
X39525Y-48817D01*
X39550Y-48846D01*
X39585Y-48906D01*
X39604Y-48969D01*
X39606Y-48986D01*
X39603Y-49056D01*
X39583Y-49123D01*
X39545Y-49183D01*
X39494Y-49233D01*
X39488Y-49237D01*
X39464Y-49255D01*
X39448Y-49267D01*
X39435Y-49278D01*
X39525Y-49493D01*
X39539Y-49527D01*
X39563Y-49586D01*
X39585Y-49637D01*
X39602Y-49677D01*
X39614Y-49704D01*
X39619Y-49715D01*
X39620Y-49715D01*
X39628Y-49717D01*
X39644Y-49711D01*
X39674Y-49696D01*
X39694Y-49686D01*
X39717Y-49675D01*
X39727Y-49671D01*
X39736Y-49676D01*
X39758Y-49690D01*
X39790Y-49711D01*
X39829Y-49737D01*
X39865Y-49762D01*
X39899Y-49785D01*
X39924Y-49800D01*
X39935Y-49807D01*
X39937Y-49807D01*
X39948Y-49801D01*
X39967Y-49785D01*
X39997Y-49757D01*
X40038Y-49716D01*
X40044Y-49710D01*
X40078Y-49675D01*
X40106Y-49646D01*
X40125Y-49625D01*
X40131Y-49616D01*
X40131Y-49616D01*
X40125Y-49604D01*
X40110Y-49580D01*
X40087Y-49545D01*
X40060Y-49505D01*
X39989Y-49402D01*
X40028Y-49304D01*
X40040Y-49274D01*
X40055Y-49238D01*
X40067Y-49212D01*
X40073Y-49201D01*
X40083Y-49197D01*
X40110Y-49190D01*
X40149Y-49182D01*
X40195Y-49174D01*
X40239Y-49166D01*
X40279Y-49158D01*
X40308Y-49153D01*
X40321Y-49150D01*
X40324Y-49148D01*
X40326Y-49142D01*
X40328Y-49128D01*
X40329Y-49104D01*
X40329Y-49066D01*
X40329Y-49011D01*
X40329Y-49005D01*
X40329Y-48952D01*
X40328Y-48910D01*
X40327Y-48884D01*
X40325Y-48873D01*
X40325Y-48873D01*
X40312Y-48870D01*
X40284Y-48864D01*
X40244Y-48856D01*
X40197Y-48847D01*
X40194Y-48846D01*
X40147Y-48837D01*
X40107Y-48829D01*
X40079Y-48822D01*
X40067Y-48819D01*
X40065Y-48815D01*
X40055Y-48797D01*
X40042Y-48768D01*
X40026Y-48732D01*
X40011Y-48695D01*
X39997Y-48661D01*
X39988Y-48636D01*
X39986Y-48625D01*
X39986Y-48625D01*
X39993Y-48613D01*
X40009Y-48589D01*
X40032Y-48555D01*
X40060Y-48515D01*
X40062Y-48512D01*
X40089Y-48472D01*
X40111Y-48438D01*
X40126Y-48414D01*
X40131Y-48403D01*
X40131Y-48402D01*
X40122Y-48390D01*
X40102Y-48368D01*
X40073Y-48337D01*
X40038Y-48302D01*
X40027Y-48291D01*
X39988Y-48253D01*
X39961Y-48228D01*
X39944Y-48215D01*
X39936Y-48212D01*
X39936Y-48212D01*
X39924Y-48219D01*
X39898Y-48236D01*
X39864Y-48259D01*
X39824Y-48287D01*
X39821Y-48289D01*
X39781Y-48316D01*
X39747Y-48338D01*
X39724Y-48354D01*
X39713Y-48360D01*
X39712Y-48360D01*
X39695Y-48355D01*
X39667Y-48345D01*
X39632Y-48332D01*
X39595Y-48317D01*
X39561Y-48303D01*
X39536Y-48291D01*
X39524Y-48285D01*
X39524Y-48284D01*
X39520Y-48270D01*
X39513Y-48240D01*
X39504Y-48199D01*
X39495Y-48150D01*
X39494Y-48142D01*
X39485Y-48094D01*
X39477Y-48055D01*
X39471Y-48028D01*
X39469Y-48016D01*
X39462Y-48015D01*
X39438Y-48013D01*
X39403Y-48012D01*
X39360Y-48012D01*
X39315Y-48012D01*
X39271Y-48013D01*
X39233Y-48014D01*
X39206Y-48016D01*
X39195Y-48018D01*
X39195Y-48019D01*
X39190Y-48034D01*
X39184Y-48064D01*
X39175Y-48105D01*
X39166Y-48154D01*
X39164Y-48163D01*
X39155Y-48210D01*
X39147Y-48249D01*
X39142Y-48276D01*
X39139Y-48287D01*
X39134Y-48289D01*
X39115Y-48298D01*
X39083Y-48311D01*
X39043Y-48327D01*
X38952Y-48364D01*
X38840Y-48287D01*
X38829Y-48280D01*
X38789Y-48252D01*
X38756Y-48230D01*
X38733Y-48215D01*
X38723Y-48210D01*
X38722Y-48210D01*
X38711Y-48220D01*
X38689Y-48241D01*
X38659Y-48271D01*
X38623Y-48306D01*
X38597Y-48332D01*
X38566Y-48363D01*
X38547Y-48385D01*
X38536Y-48398D01*
X38532Y-48406D01*
X38533Y-48412D01*
X38540Y-48423D01*
X38557Y-48448D01*
X38580Y-48482D01*
X38607Y-48522D01*
X38630Y-48555D01*
X38654Y-48593D01*
X38670Y-48620D01*
X38675Y-48633D01*
X38674Y-48638D01*
X38666Y-48660D01*
X38653Y-48693D01*
X38636Y-48733D01*
X38597Y-48822D01*
X38539Y-48833D01*
X38503Y-48840D01*
X38454Y-48849D01*
X38407Y-48858D01*
X38333Y-48873D01*
X38330Y-49143D01*
X38342Y-49148D01*
X38353Y-49151D01*
X38380Y-49157D01*
X38419Y-49165D01*
X38465Y-49173D01*
X38504Y-49181D01*
X38544Y-49188D01*
X38572Y-49194D01*
X38585Y-49196D01*
X38588Y-49201D01*
X38598Y-49220D01*
X38612Y-49250D01*
X38628Y-49287D01*
X38643Y-49325D01*
X38657Y-49360D01*
X38667Y-49386D01*
X38671Y-49400D01*
X38665Y-49411D01*
X38650Y-49434D01*
X38628Y-49467D01*
X38602Y-49506D01*
X38575Y-49545D01*
X38552Y-49579D01*
X38536Y-49603D01*
X38530Y-49614D01*
X38533Y-49622D01*
X38549Y-49641D01*
X38578Y-49671D01*
X38622Y-49715D01*
X38630Y-49722D01*
X38665Y-49756D01*
X38694Y-49783D01*
X38715Y-49801D01*
X38724Y-49808D01*
G54D14*
X40500Y-51250D02*
X40500Y-51000D01*
X40500Y-51000D02*
X41000Y-51000D01*
X41000Y-51000D02*
X41000Y-51250D01*
X38500Y-51250D02*
X38500Y-51000D01*
X38500Y-51000D02*
X40000Y-51000D01*
X40000Y-51000D02*
X40000Y-51250D01*
X41250Y-52250D02*
X41250Y-52750D01*
X41250Y-52750D02*
X38250Y-52750D01*
X38250Y-52750D02*
X38250Y-52250D01*
G54D13*
X40250Y-51250D02*
X38250Y-51250D01*
X38250Y-51250D02*
X38250Y-52250D01*
X38250Y-52250D02*
X40250Y-52250D01*
X41250Y-52250D02*
X40250Y-52250D01*
X40250Y-52250D02*
X40250Y-51250D01*
X41250Y-52250D02*
X41250Y-51250D01*
X41250Y-51250D02*
X40250Y-51250D01*
G54D11*
X31695Y-49680D02*
X31695Y-49280D01*
X31923Y-49680D01*
X31923Y-49280D01*
X32323Y-49680D02*
X32095Y-49680D01*
X32209Y-49680D02*
X32209Y-49280D01*
X32171Y-49338D01*
X32133Y-49376D01*
X32095Y-49395D01*
X47945Y-49580D02*
X47945Y-49180D01*
X48173Y-49580D01*
X48173Y-49180D01*
X48345Y-49219D02*
X48364Y-49200D01*
X48402Y-49180D01*
X48497Y-49180D01*
X48535Y-49200D01*
X48554Y-49219D01*
X48573Y-49257D01*
X48573Y-49295D01*
X48554Y-49352D01*
X48326Y-49580D01*
X48573Y-49580D01*
X35445Y-58180D02*
X35445Y-57780D01*
X35673Y-58180D01*
X35673Y-57780D01*
X36035Y-57914D02*
X36035Y-58180D01*
X35940Y-57761D02*
X35845Y-58047D01*
X36092Y-58047D01*
X35445Y-55430D02*
X35445Y-55030D01*
X35673Y-55430D01*
X35673Y-55030D01*
X36054Y-55030D02*
X35864Y-55030D01*
X35845Y-55221D01*
X35864Y-55202D01*
X35902Y-55183D01*
X35997Y-55183D01*
X36035Y-55202D01*
X36054Y-55221D01*
X36073Y-55259D01*
X36073Y-55354D01*
X36054Y-55392D01*
X36035Y-55411D01*
X35997Y-55430D01*
X35902Y-55430D01*
X35864Y-55411D01*
X35845Y-55392D01*
X47961Y-51719D02*
X47923Y-51700D01*
X47885Y-51661D01*
X47828Y-51604D01*
X47790Y-51585D01*
X47752Y-51585D01*
X47771Y-51680D02*
X47733Y-51661D01*
X47695Y-51623D01*
X47676Y-51547D01*
X47676Y-51414D01*
X47695Y-51338D01*
X47733Y-51300D01*
X47771Y-51280D01*
X47847Y-51280D01*
X47885Y-51300D01*
X47923Y-51338D01*
X47942Y-51414D01*
X47942Y-51547D01*
X47923Y-51623D01*
X47885Y-51661D01*
X47847Y-51680D01*
X47771Y-51680D01*
X48323Y-51680D02*
X48095Y-51680D01*
X48209Y-51680D02*
X48209Y-51280D01*
X48171Y-51338D01*
X48133Y-51376D01*
X48095Y-51395D01*
X30945Y-53430D02*
X30945Y-53030D01*
X31173Y-53430D01*
X31173Y-53030D01*
X31535Y-53030D02*
X31459Y-53030D01*
X31421Y-53050D01*
X31402Y-53069D01*
X31364Y-53126D01*
X31345Y-53202D01*
X31345Y-53354D01*
X31364Y-53392D01*
X31383Y-53411D01*
X31421Y-53430D01*
X31497Y-53430D01*
X31535Y-53411D01*
X31554Y-53392D01*
X31573Y-53354D01*
X31573Y-53259D01*
X31554Y-53221D01*
X31535Y-53202D01*
X31497Y-53183D01*
X31421Y-53183D01*
X31383Y-53202D01*
X31364Y-53221D01*
X31345Y-53259D01*
X31933Y-51930D02*
X31800Y-51740D01*
X31704Y-51930D02*
X31704Y-51530D01*
X31857Y-51530D01*
X31895Y-51550D01*
X31914Y-51569D01*
X31933Y-51607D01*
X31933Y-51664D01*
X31914Y-51702D01*
X31895Y-51721D01*
X31857Y-51740D01*
X31704Y-51740D01*
X32314Y-51930D02*
X32085Y-51930D01*
X32200Y-51930D02*
X32200Y-51530D01*
X32161Y-51588D01*
X32123Y-51626D01*
X32085Y-51645D01*
X32933Y-60030D02*
X32800Y-59840D01*
X32704Y-60030D02*
X32704Y-59630D01*
X32857Y-59630D01*
X32895Y-59650D01*
X32914Y-59669D01*
X32933Y-59707D01*
X32933Y-59764D01*
X32914Y-59802D01*
X32895Y-59821D01*
X32857Y-59840D01*
X32704Y-59840D01*
X33085Y-59669D02*
X33104Y-59650D01*
X33142Y-59630D01*
X33238Y-59630D01*
X33276Y-59650D01*
X33295Y-59669D01*
X33314Y-59707D01*
X33314Y-59745D01*
X33295Y-59802D01*
X33066Y-60030D01*
X33314Y-60030D01*
X35433Y-51930D02*
X35300Y-51740D01*
X35204Y-51930D02*
X35204Y-51530D01*
X35357Y-51530D01*
X35395Y-51550D01*
X35414Y-51569D01*
X35433Y-51607D01*
X35433Y-51664D01*
X35414Y-51702D01*
X35395Y-51721D01*
X35357Y-51740D01*
X35204Y-51740D01*
X35566Y-51530D02*
X35814Y-51530D01*
X35680Y-51683D01*
X35738Y-51683D01*
X35776Y-51702D01*
X35795Y-51721D01*
X35814Y-51759D01*
X35814Y-51854D01*
X35795Y-51892D01*
X35776Y-51911D01*
X35738Y-51930D01*
X35623Y-51930D01*
X35585Y-51911D01*
X35566Y-51892D01*
X34433Y-60030D02*
X34300Y-59840D01*
X34204Y-60030D02*
X34204Y-59630D01*
X34357Y-59630D01*
X34395Y-59650D01*
X34414Y-59669D01*
X34433Y-59707D01*
X34433Y-59764D01*
X34414Y-59802D01*
X34395Y-59821D01*
X34357Y-59840D01*
X34204Y-59840D01*
X34776Y-59764D02*
X34776Y-60030D01*
X34680Y-59611D02*
X34585Y-59897D01*
X34833Y-59897D01*
X46945Y-51348D02*
X46811Y-51157D01*
X46716Y-51348D02*
X46716Y-50948D01*
X46868Y-50948D01*
X46907Y-50967D01*
X46926Y-50986D01*
X46945Y-51024D01*
X46945Y-51081D01*
X46926Y-51119D01*
X46907Y-51138D01*
X46868Y-51157D01*
X46716Y-51157D01*
X47307Y-50948D02*
X47116Y-50948D01*
X47097Y-51138D01*
X47116Y-51119D01*
X47154Y-51100D01*
X47249Y-51100D01*
X47288Y-51119D01*
X47307Y-51138D01*
X47326Y-51176D01*
X47326Y-51272D01*
X47307Y-51310D01*
X47288Y-51329D01*
X47249Y-51348D01*
X47154Y-51348D01*
X47116Y-51329D01*
X47097Y-51310D01*
X44884Y-53832D02*
X44750Y-53642D01*
X44655Y-53832D02*
X44655Y-53432D01*
X44807Y-53432D01*
X44846Y-53451D01*
X44865Y-53470D01*
X44884Y-53508D01*
X44884Y-53565D01*
X44865Y-53603D01*
X44846Y-53623D01*
X44807Y-53642D01*
X44655Y-53642D01*
X45226Y-53432D02*
X45150Y-53432D01*
X45112Y-53451D01*
X45093Y-53470D01*
X45055Y-53527D01*
X45036Y-53603D01*
X45036Y-53756D01*
X45055Y-53794D01*
X45074Y-53813D01*
X45112Y-53832D01*
X45188Y-53832D01*
X45226Y-53813D01*
X45246Y-53794D01*
X45265Y-53756D01*
X45265Y-53661D01*
X45246Y-53623D01*
X45226Y-53603D01*
X45188Y-53584D01*
X45112Y-53584D01*
X45074Y-53603D01*
X45055Y-53623D01*
X45036Y-53661D01*
X39683Y-47680D02*
X39550Y-47490D01*
X39454Y-47680D02*
X39454Y-47280D01*
X39607Y-47280D01*
X39645Y-47300D01*
X39664Y-47319D01*
X39683Y-47357D01*
X39683Y-47414D01*
X39664Y-47452D01*
X39645Y-47471D01*
X39607Y-47490D01*
X39454Y-47490D01*
X39816Y-47280D02*
X40083Y-47280D01*
X39911Y-47680D01*
X41445Y-49280D02*
X41445Y-49604D01*
X41464Y-49642D01*
X41483Y-49661D01*
X41521Y-49680D01*
X41597Y-49680D01*
X41635Y-49661D01*
X41654Y-49642D01*
X41673Y-49604D01*
X41673Y-49280D01*
X42073Y-49680D02*
X41845Y-49680D01*
X41959Y-49680D02*
X41959Y-49280D01*
X41921Y-49338D01*
X41883Y-49376D01*
X41845Y-49395D01*
X37695Y-41530D02*
X37695Y-41854D01*
X37714Y-41892D01*
X37733Y-41911D01*
X37771Y-41930D01*
X37847Y-41930D01*
X37885Y-41911D01*
X37904Y-41892D01*
X37923Y-41854D01*
X37923Y-41530D01*
X38095Y-41569D02*
X38114Y-41550D01*
X38152Y-41530D01*
X38247Y-41530D01*
X38285Y-41550D01*
X38304Y-41569D01*
X38323Y-41607D01*
X38323Y-41645D01*
X38304Y-41702D01*
X38076Y-41930D01*
X38323Y-41930D01*
X36433Y-51392D02*
X36414Y-51411D01*
X36357Y-51430D01*
X36319Y-51430D01*
X36261Y-51411D01*
X36223Y-51373D01*
X36204Y-51335D01*
X36185Y-51259D01*
X36185Y-51202D01*
X36204Y-51126D01*
X36223Y-51088D01*
X36261Y-51050D01*
X36319Y-51030D01*
X36357Y-51030D01*
X36414Y-51050D01*
X36433Y-51069D01*
X36814Y-51430D02*
X36585Y-51430D01*
X36700Y-51430D02*
X36700Y-51030D01*
X36661Y-51088D01*
X36623Y-51126D01*
X36585Y-51145D01*
X41683Y-50392D02*
X41664Y-50411D01*
X41607Y-50430D01*
X41569Y-50430D01*
X41511Y-50411D01*
X41473Y-50373D01*
X41454Y-50335D01*
X41435Y-50259D01*
X41435Y-50202D01*
X41454Y-50126D01*
X41473Y-50088D01*
X41511Y-50050D01*
X41569Y-50030D01*
X41607Y-50030D01*
X41664Y-50050D01*
X41683Y-50069D01*
X41835Y-50069D02*
X41854Y-50050D01*
X41892Y-50030D01*
X41988Y-50030D01*
X42026Y-50050D01*
X42045Y-50069D01*
X42064Y-50107D01*
X42064Y-50145D01*
X42045Y-50202D01*
X41816Y-50430D01*
X42064Y-50430D01*
X39695Y-42180D02*
X39695Y-41780D01*
X39695Y-41971D02*
X39923Y-41971D01*
X39923Y-42180D02*
X39923Y-41780D01*
X40323Y-42180D02*
X40095Y-42180D01*
X40209Y-42180D02*
X40209Y-41780D01*
X40171Y-41838D01*
X40133Y-41876D01*
X40095Y-41895D01*
X40785Y-53300D02*
X40785Y-52900D01*
X41013Y-53300D01*
X41013Y-52900D01*
X41166Y-52900D02*
X41413Y-52900D01*
X41280Y-53053D01*
X41337Y-53053D01*
X41375Y-53072D01*
X41394Y-53091D01*
X41413Y-53129D01*
X41413Y-53224D01*
X41394Y-53262D01*
X41375Y-53281D01*
X41337Y-53300D01*
X41223Y-53300D01*
X41185Y-53281D01*
X41166Y-53262D01*
M02*
