%FSLAX34Y34*%
G04 Gerber Fmt 3.4, Leading zero omitted, Abs format*
G04 (created by PCBNEW (2014-jan-25)-product) date Sun 06 Jul 2014 02:53:45 PM PDT*
%MOIN*%
G01*
G70*
G90*
G04 APERTURE LIST*
%ADD10C,0.003937*%
%ADD11C,0.008000*%
%ADD12C,0.006000*%
%ADD13C,0.010000*%
%ADD14C,0.005906*%
%ADD15C,0.015000*%
%ADD16C,0.012000*%
%ADD17C,0.000100*%
G04 APERTURE END LIST*
G54D10*
G54D11*
X43317Y-51366D02*
X43184Y-51176D01*
X43089Y-51366D02*
X43089Y-50966D01*
X43241Y-50966D01*
X43279Y-50985D01*
X43298Y-51004D01*
X43317Y-51043D01*
X43317Y-51100D01*
X43298Y-51138D01*
X43279Y-51157D01*
X43241Y-51176D01*
X43089Y-51176D01*
X43641Y-51347D02*
X43603Y-51366D01*
X43527Y-51366D01*
X43489Y-51347D01*
X43470Y-51309D01*
X43470Y-51157D01*
X43489Y-51119D01*
X43527Y-51100D01*
X43603Y-51100D01*
X43641Y-51119D01*
X43660Y-51157D01*
X43660Y-51195D01*
X43470Y-51233D01*
X43794Y-51100D02*
X43889Y-51366D01*
X43984Y-51100D01*
X44137Y-51328D02*
X44156Y-51347D01*
X44137Y-51366D01*
X44117Y-51347D01*
X44137Y-51328D01*
X44137Y-51366D01*
X44613Y-51252D02*
X44803Y-51252D01*
X44575Y-51366D02*
X44708Y-50966D01*
X44841Y-51366D01*
X42813Y-51606D02*
X42737Y-51606D01*
X42698Y-51625D01*
X42679Y-51644D01*
X42641Y-51702D01*
X42622Y-51778D01*
X42622Y-51930D01*
X42641Y-51968D01*
X42660Y-51987D01*
X42698Y-52006D01*
X42775Y-52006D01*
X42813Y-51987D01*
X42832Y-51968D01*
X42851Y-51930D01*
X42851Y-51835D01*
X42832Y-51797D01*
X42813Y-51778D01*
X42775Y-51759D01*
X42698Y-51759D01*
X42660Y-51778D01*
X42641Y-51797D01*
X42622Y-51835D01*
X43137Y-51606D02*
X43137Y-51892D01*
X43117Y-51949D01*
X43079Y-51987D01*
X43022Y-52006D01*
X42984Y-52006D01*
X43498Y-51740D02*
X43498Y-52006D01*
X43327Y-51740D02*
X43327Y-51949D01*
X43346Y-51987D01*
X43384Y-52006D01*
X43441Y-52006D01*
X43479Y-51987D01*
X43498Y-51968D01*
X43746Y-52006D02*
X43708Y-51987D01*
X43689Y-51949D01*
X43689Y-51606D01*
X43879Y-51644D02*
X43898Y-51625D01*
X43937Y-51606D01*
X44032Y-51606D01*
X44070Y-51625D01*
X44089Y-51644D01*
X44108Y-51683D01*
X44108Y-51721D01*
X44089Y-51778D01*
X43860Y-52006D01*
X44108Y-52006D01*
X44356Y-51606D02*
X44394Y-51606D01*
X44432Y-51625D01*
X44451Y-51644D01*
X44470Y-51683D01*
X44489Y-51759D01*
X44489Y-51854D01*
X44470Y-51930D01*
X44451Y-51968D01*
X44432Y-51987D01*
X44394Y-52006D01*
X44356Y-52006D01*
X44317Y-51987D01*
X44298Y-51968D01*
X44279Y-51930D01*
X44260Y-51854D01*
X44260Y-51759D01*
X44279Y-51683D01*
X44298Y-51644D01*
X44317Y-51625D01*
X44356Y-51606D01*
X44870Y-52006D02*
X44641Y-52006D01*
X44756Y-52006D02*
X44756Y-51606D01*
X44717Y-51664D01*
X44679Y-51702D01*
X44641Y-51721D01*
X45213Y-51740D02*
X45213Y-52006D01*
X45117Y-51587D02*
X45022Y-51873D01*
X45270Y-51873D01*
X32104Y-54050D02*
X32066Y-54030D01*
X32009Y-54030D01*
X31952Y-54050D01*
X31914Y-54088D01*
X31895Y-54126D01*
X31876Y-54202D01*
X31876Y-54259D01*
X31895Y-54335D01*
X31914Y-54373D01*
X31952Y-54411D01*
X32009Y-54430D01*
X32047Y-54430D01*
X32104Y-54411D01*
X32123Y-54392D01*
X32123Y-54259D01*
X32047Y-54259D01*
X32000Y-55240D02*
X32000Y-55430D01*
X31866Y-55030D02*
X32000Y-55240D01*
X32133Y-55030D01*
X31961Y-56030D02*
X32038Y-56030D01*
X32076Y-56050D01*
X32114Y-56088D01*
X32133Y-56164D01*
X32133Y-56297D01*
X32114Y-56373D01*
X32076Y-56411D01*
X32038Y-56430D01*
X31961Y-56430D01*
X31923Y-56411D01*
X31885Y-56373D01*
X31866Y-56297D01*
X31866Y-56164D01*
X31885Y-56088D01*
X31923Y-56050D01*
X31961Y-56030D01*
X32123Y-57430D02*
X31990Y-57240D01*
X31895Y-57430D02*
X31895Y-57030D01*
X32047Y-57030D01*
X32085Y-57050D01*
X32104Y-57069D01*
X32123Y-57107D01*
X32123Y-57164D01*
X32104Y-57202D01*
X32085Y-57221D01*
X32047Y-57240D01*
X31895Y-57240D01*
X32028Y-58221D02*
X32085Y-58240D01*
X32104Y-58259D01*
X32123Y-58297D01*
X32123Y-58354D01*
X32104Y-58392D01*
X32085Y-58411D01*
X32047Y-58430D01*
X31895Y-58430D01*
X31895Y-58030D01*
X32028Y-58030D01*
X32066Y-58050D01*
X32085Y-58069D01*
X32104Y-58107D01*
X32104Y-58145D01*
X32085Y-58183D01*
X32066Y-58202D01*
X32028Y-58221D01*
X31895Y-58221D01*
X32028Y-59221D02*
X32085Y-59240D01*
X32104Y-59259D01*
X32123Y-59297D01*
X32123Y-59354D01*
X32104Y-59392D01*
X32085Y-59411D01*
X32047Y-59430D01*
X31895Y-59430D01*
X31895Y-59030D01*
X32028Y-59030D01*
X32066Y-59050D01*
X32085Y-59069D01*
X32104Y-59107D01*
X32104Y-59145D01*
X32085Y-59183D01*
X32066Y-59202D01*
X32028Y-59221D01*
X31895Y-59221D01*
X35154Y-41726D02*
X34869Y-41726D01*
X35011Y-41726D02*
X35011Y-41226D01*
X34964Y-41297D01*
X34916Y-41345D01*
X34869Y-41369D01*
X41904Y-41726D02*
X41619Y-41726D01*
X41761Y-41726D02*
X41761Y-41226D01*
X41714Y-41297D01*
X41666Y-41345D01*
X41619Y-41369D01*
X41904Y-51976D02*
X41619Y-51976D01*
X41761Y-51976D02*
X41761Y-51476D01*
X41714Y-51547D01*
X41666Y-51595D01*
X41619Y-51619D01*
X35904Y-56476D02*
X35619Y-56476D01*
X35761Y-56476D02*
X35761Y-55976D01*
X35714Y-56047D01*
X35666Y-56095D01*
X35619Y-56119D01*
X35904Y-59476D02*
X35619Y-59476D01*
X35761Y-59476D02*
X35761Y-58976D01*
X35714Y-59047D01*
X35666Y-59095D01*
X35619Y-59119D01*
G54D12*
X47478Y-53850D02*
X47450Y-53835D01*
X47407Y-53835D01*
X47364Y-53850D01*
X47335Y-53878D01*
X47321Y-53907D01*
X47307Y-53964D01*
X47307Y-54007D01*
X47321Y-54064D01*
X47335Y-54092D01*
X47364Y-54121D01*
X47407Y-54135D01*
X47435Y-54135D01*
X47478Y-54121D01*
X47492Y-54107D01*
X47492Y-54007D01*
X47435Y-54007D01*
X47621Y-54135D02*
X47621Y-53835D01*
X47735Y-53835D01*
X47764Y-53850D01*
X47778Y-53864D01*
X47792Y-53892D01*
X47792Y-53935D01*
X47778Y-53964D01*
X47764Y-53978D01*
X47735Y-53992D01*
X47621Y-53992D01*
X47964Y-53964D02*
X47935Y-53950D01*
X47921Y-53935D01*
X47907Y-53907D01*
X47907Y-53892D01*
X47921Y-53864D01*
X47935Y-53850D01*
X47964Y-53835D01*
X48021Y-53835D01*
X48050Y-53850D01*
X48064Y-53864D01*
X48078Y-53892D01*
X48078Y-53907D01*
X48064Y-53935D01*
X48050Y-53950D01*
X48021Y-53964D01*
X47964Y-53964D01*
X47935Y-53978D01*
X47921Y-53992D01*
X47907Y-54021D01*
X47907Y-54078D01*
X47921Y-54107D01*
X47935Y-54121D01*
X47964Y-54135D01*
X48021Y-54135D01*
X48050Y-54121D01*
X48064Y-54107D01*
X48078Y-54078D01*
X48078Y-54021D01*
X48064Y-53992D01*
X48050Y-53978D01*
X48021Y-53964D01*
X41478Y-53850D02*
X41450Y-53835D01*
X41407Y-53835D01*
X41364Y-53850D01*
X41335Y-53878D01*
X41321Y-53907D01*
X41307Y-53964D01*
X41307Y-54007D01*
X41321Y-54064D01*
X41335Y-54092D01*
X41364Y-54121D01*
X41407Y-54135D01*
X41435Y-54135D01*
X41478Y-54121D01*
X41492Y-54107D01*
X41492Y-54007D01*
X41435Y-54007D01*
X41621Y-54135D02*
X41621Y-53835D01*
X41735Y-53835D01*
X41764Y-53850D01*
X41778Y-53864D01*
X41792Y-53892D01*
X41792Y-53935D01*
X41778Y-53964D01*
X41764Y-53978D01*
X41735Y-53992D01*
X41621Y-53992D01*
X42078Y-54135D02*
X41907Y-54135D01*
X41992Y-54135D02*
X41992Y-53835D01*
X41964Y-53878D01*
X41935Y-53907D01*
X41907Y-53921D01*
X42250Y-53964D02*
X42221Y-53950D01*
X42207Y-53935D01*
X42192Y-53907D01*
X42192Y-53892D01*
X42207Y-53864D01*
X42221Y-53850D01*
X42250Y-53835D01*
X42307Y-53835D01*
X42335Y-53850D01*
X42350Y-53864D01*
X42364Y-53892D01*
X42364Y-53907D01*
X42350Y-53935D01*
X42335Y-53950D01*
X42307Y-53964D01*
X42250Y-53964D01*
X42221Y-53978D01*
X42207Y-53992D01*
X42192Y-54021D01*
X42192Y-54078D01*
X42207Y-54107D01*
X42221Y-54121D01*
X42250Y-54135D01*
X42307Y-54135D01*
X42335Y-54121D01*
X42350Y-54107D01*
X42364Y-54078D01*
X42364Y-54021D01*
X42350Y-53992D01*
X42335Y-53978D01*
X42307Y-53964D01*
X40478Y-54350D02*
X40450Y-54335D01*
X40407Y-54335D01*
X40364Y-54350D01*
X40335Y-54378D01*
X40321Y-54407D01*
X40307Y-54464D01*
X40307Y-54507D01*
X40321Y-54564D01*
X40335Y-54592D01*
X40364Y-54621D01*
X40407Y-54635D01*
X40435Y-54635D01*
X40478Y-54621D01*
X40492Y-54607D01*
X40492Y-54507D01*
X40435Y-54507D01*
X40621Y-54635D02*
X40621Y-54335D01*
X40735Y-54335D01*
X40764Y-54350D01*
X40778Y-54364D01*
X40792Y-54392D01*
X40792Y-54435D01*
X40778Y-54464D01*
X40764Y-54478D01*
X40735Y-54492D01*
X40621Y-54492D01*
X41078Y-54635D02*
X40907Y-54635D01*
X40992Y-54635D02*
X40992Y-54335D01*
X40964Y-54378D01*
X40935Y-54407D01*
X40907Y-54421D01*
X41335Y-54435D02*
X41335Y-54635D01*
X41264Y-54321D02*
X41192Y-54535D01*
X41378Y-54535D01*
X39478Y-53850D02*
X39450Y-53835D01*
X39407Y-53835D01*
X39364Y-53850D01*
X39335Y-53878D01*
X39321Y-53907D01*
X39307Y-53964D01*
X39307Y-54007D01*
X39321Y-54064D01*
X39335Y-54092D01*
X39364Y-54121D01*
X39407Y-54135D01*
X39435Y-54135D01*
X39478Y-54121D01*
X39492Y-54107D01*
X39492Y-54007D01*
X39435Y-54007D01*
X39621Y-54135D02*
X39621Y-53835D01*
X39735Y-53835D01*
X39764Y-53850D01*
X39778Y-53864D01*
X39792Y-53892D01*
X39792Y-53935D01*
X39778Y-53964D01*
X39764Y-53978D01*
X39735Y-53992D01*
X39621Y-53992D01*
X40078Y-54135D02*
X39907Y-54135D01*
X39992Y-54135D02*
X39992Y-53835D01*
X39964Y-53878D01*
X39935Y-53907D01*
X39907Y-53921D01*
X40335Y-53935D02*
X40335Y-54135D01*
X40264Y-53821D02*
X40192Y-54035D01*
X40378Y-54035D01*
X47478Y-57350D02*
X47450Y-57335D01*
X47407Y-57335D01*
X47364Y-57350D01*
X47335Y-57378D01*
X47321Y-57407D01*
X47307Y-57464D01*
X47307Y-57507D01*
X47321Y-57564D01*
X47335Y-57592D01*
X47364Y-57621D01*
X47407Y-57635D01*
X47435Y-57635D01*
X47478Y-57621D01*
X47492Y-57607D01*
X47492Y-57507D01*
X47435Y-57507D01*
X47621Y-57635D02*
X47621Y-57335D01*
X47735Y-57335D01*
X47764Y-57350D01*
X47778Y-57364D01*
X47792Y-57392D01*
X47792Y-57435D01*
X47778Y-57464D01*
X47764Y-57478D01*
X47735Y-57492D01*
X47621Y-57492D01*
X48078Y-57635D02*
X47907Y-57635D01*
X47992Y-57635D02*
X47992Y-57335D01*
X47964Y-57378D01*
X47935Y-57407D01*
X47907Y-57421D01*
X48364Y-57635D02*
X48192Y-57635D01*
X48278Y-57635D02*
X48278Y-57335D01*
X48250Y-57378D01*
X48221Y-57407D01*
X48192Y-57421D01*
X45478Y-57350D02*
X45450Y-57335D01*
X45407Y-57335D01*
X45364Y-57350D01*
X45335Y-57378D01*
X45321Y-57407D01*
X45307Y-57464D01*
X45307Y-57507D01*
X45321Y-57564D01*
X45335Y-57592D01*
X45364Y-57621D01*
X45407Y-57635D01*
X45435Y-57635D01*
X45478Y-57621D01*
X45492Y-57607D01*
X45492Y-57507D01*
X45435Y-57507D01*
X45621Y-57635D02*
X45621Y-57335D01*
X45735Y-57335D01*
X45764Y-57350D01*
X45778Y-57364D01*
X45792Y-57392D01*
X45792Y-57435D01*
X45778Y-57464D01*
X45764Y-57478D01*
X45735Y-57492D01*
X45621Y-57492D01*
X46078Y-57635D02*
X45907Y-57635D01*
X45992Y-57635D02*
X45992Y-57335D01*
X45964Y-57378D01*
X45935Y-57407D01*
X45907Y-57421D01*
X46264Y-57335D02*
X46292Y-57335D01*
X46321Y-57350D01*
X46335Y-57364D01*
X46350Y-57392D01*
X46364Y-57450D01*
X46364Y-57521D01*
X46350Y-57578D01*
X46335Y-57607D01*
X46321Y-57621D01*
X46292Y-57635D01*
X46264Y-57635D01*
X46235Y-57621D01*
X46221Y-57607D01*
X46207Y-57578D01*
X46192Y-57521D01*
X46192Y-57450D01*
X46207Y-57392D01*
X46221Y-57364D01*
X46235Y-57350D01*
X46264Y-57335D01*
X48478Y-56850D02*
X48450Y-56835D01*
X48407Y-56835D01*
X48364Y-56850D01*
X48335Y-56878D01*
X48321Y-56907D01*
X48307Y-56964D01*
X48307Y-57007D01*
X48321Y-57064D01*
X48335Y-57092D01*
X48364Y-57121D01*
X48407Y-57135D01*
X48435Y-57135D01*
X48478Y-57121D01*
X48492Y-57107D01*
X48492Y-57007D01*
X48435Y-57007D01*
X48621Y-57135D02*
X48621Y-56835D01*
X48792Y-57135D01*
X48792Y-56835D01*
X48935Y-57135D02*
X48935Y-56835D01*
X49007Y-56835D01*
X49050Y-56850D01*
X49078Y-56878D01*
X49092Y-56907D01*
X49107Y-56964D01*
X49107Y-57007D01*
X49092Y-57064D01*
X49078Y-57092D01*
X49050Y-57121D01*
X49007Y-57135D01*
X48935Y-57135D01*
X46478Y-56850D02*
X46450Y-56835D01*
X46407Y-56835D01*
X46364Y-56850D01*
X46335Y-56878D01*
X46321Y-56907D01*
X46307Y-56964D01*
X46307Y-57007D01*
X46321Y-57064D01*
X46335Y-57092D01*
X46364Y-57121D01*
X46407Y-57135D01*
X46435Y-57135D01*
X46478Y-57121D01*
X46492Y-57107D01*
X46492Y-57007D01*
X46435Y-57007D01*
X46621Y-57135D02*
X46621Y-56835D01*
X46735Y-56835D01*
X46764Y-56850D01*
X46778Y-56864D01*
X46792Y-56892D01*
X46792Y-56935D01*
X46778Y-56964D01*
X46764Y-56978D01*
X46735Y-56992D01*
X46621Y-56992D01*
X46935Y-57135D02*
X46992Y-57135D01*
X47021Y-57121D01*
X47035Y-57107D01*
X47064Y-57064D01*
X47078Y-57007D01*
X47078Y-56892D01*
X47064Y-56864D01*
X47050Y-56850D01*
X47021Y-56835D01*
X46964Y-56835D01*
X46935Y-56850D01*
X46921Y-56864D01*
X46907Y-56892D01*
X46907Y-56964D01*
X46921Y-56992D01*
X46935Y-57007D01*
X46964Y-57021D01*
X47021Y-57021D01*
X47050Y-57007D01*
X47064Y-56992D01*
X47078Y-56964D01*
X43478Y-53850D02*
X43450Y-53835D01*
X43407Y-53835D01*
X43364Y-53850D01*
X43335Y-53878D01*
X43321Y-53907D01*
X43307Y-53964D01*
X43307Y-54007D01*
X43321Y-54064D01*
X43335Y-54092D01*
X43364Y-54121D01*
X43407Y-54135D01*
X43435Y-54135D01*
X43478Y-54121D01*
X43492Y-54107D01*
X43492Y-54007D01*
X43435Y-54007D01*
X43621Y-54135D02*
X43621Y-53835D01*
X43735Y-53835D01*
X43764Y-53850D01*
X43778Y-53864D01*
X43792Y-53892D01*
X43792Y-53935D01*
X43778Y-53964D01*
X43764Y-53978D01*
X43735Y-53992D01*
X43621Y-53992D01*
X43907Y-53864D02*
X43921Y-53850D01*
X43950Y-53835D01*
X44021Y-53835D01*
X44050Y-53850D01*
X44064Y-53864D01*
X44078Y-53892D01*
X44078Y-53921D01*
X44064Y-53964D01*
X43892Y-54135D01*
X44078Y-54135D01*
X44178Y-53835D02*
X44364Y-53835D01*
X44264Y-53950D01*
X44307Y-53950D01*
X44335Y-53964D01*
X44350Y-53978D01*
X44364Y-54007D01*
X44364Y-54078D01*
X44350Y-54107D01*
X44335Y-54121D01*
X44307Y-54135D01*
X44221Y-54135D01*
X44192Y-54121D01*
X44178Y-54107D01*
X44478Y-54350D02*
X44450Y-54335D01*
X44407Y-54335D01*
X44364Y-54350D01*
X44335Y-54378D01*
X44321Y-54407D01*
X44307Y-54464D01*
X44307Y-54507D01*
X44321Y-54564D01*
X44335Y-54592D01*
X44364Y-54621D01*
X44407Y-54635D01*
X44435Y-54635D01*
X44478Y-54621D01*
X44492Y-54607D01*
X44492Y-54507D01*
X44435Y-54507D01*
X44621Y-54635D02*
X44621Y-54335D01*
X44735Y-54335D01*
X44764Y-54350D01*
X44778Y-54364D01*
X44792Y-54392D01*
X44792Y-54435D01*
X44778Y-54464D01*
X44764Y-54478D01*
X44735Y-54492D01*
X44621Y-54492D01*
X44907Y-54364D02*
X44921Y-54350D01*
X44950Y-54335D01*
X45021Y-54335D01*
X45050Y-54350D01*
X45064Y-54364D01*
X45078Y-54392D01*
X45078Y-54421D01*
X45064Y-54464D01*
X44892Y-54635D01*
X45078Y-54635D01*
X45335Y-54435D02*
X45335Y-54635D01*
X45264Y-54321D02*
X45192Y-54535D01*
X45378Y-54535D01*
X46478Y-54350D02*
X46450Y-54335D01*
X46407Y-54335D01*
X46364Y-54350D01*
X46335Y-54378D01*
X46321Y-54407D01*
X46307Y-54464D01*
X46307Y-54507D01*
X46321Y-54564D01*
X46335Y-54592D01*
X46364Y-54621D01*
X46407Y-54635D01*
X46435Y-54635D01*
X46478Y-54621D01*
X46492Y-54607D01*
X46492Y-54507D01*
X46435Y-54507D01*
X46621Y-54635D02*
X46621Y-54335D01*
X46735Y-54335D01*
X46764Y-54350D01*
X46778Y-54364D01*
X46792Y-54392D01*
X46792Y-54435D01*
X46778Y-54464D01*
X46764Y-54478D01*
X46735Y-54492D01*
X46621Y-54492D01*
X46907Y-54364D02*
X46921Y-54350D01*
X46950Y-54335D01*
X47021Y-54335D01*
X47050Y-54350D01*
X47064Y-54364D01*
X47078Y-54392D01*
X47078Y-54421D01*
X47064Y-54464D01*
X46892Y-54635D01*
X47078Y-54635D01*
X47350Y-54335D02*
X47207Y-54335D01*
X47192Y-54478D01*
X47207Y-54464D01*
X47235Y-54450D01*
X47307Y-54450D01*
X47335Y-54464D01*
X47350Y-54478D01*
X47364Y-54507D01*
X47364Y-54578D01*
X47350Y-54607D01*
X47335Y-54621D01*
X47307Y-54635D01*
X47235Y-54635D01*
X47207Y-54621D01*
X47192Y-54607D01*
X48478Y-54350D02*
X48450Y-54335D01*
X48407Y-54335D01*
X48364Y-54350D01*
X48335Y-54378D01*
X48321Y-54407D01*
X48307Y-54464D01*
X48307Y-54507D01*
X48321Y-54564D01*
X48335Y-54592D01*
X48364Y-54621D01*
X48407Y-54635D01*
X48435Y-54635D01*
X48478Y-54621D01*
X48492Y-54607D01*
X48492Y-54507D01*
X48435Y-54507D01*
X48621Y-54635D02*
X48621Y-54335D01*
X48735Y-54335D01*
X48764Y-54350D01*
X48778Y-54364D01*
X48792Y-54392D01*
X48792Y-54435D01*
X48778Y-54464D01*
X48764Y-54478D01*
X48735Y-54492D01*
X48621Y-54492D01*
X48892Y-54335D02*
X49092Y-54335D01*
X48964Y-54635D01*
X44292Y-56835D02*
X44478Y-56835D01*
X44378Y-56950D01*
X44421Y-56950D01*
X44450Y-56964D01*
X44464Y-56978D01*
X44478Y-57007D01*
X44478Y-57078D01*
X44464Y-57107D01*
X44450Y-57121D01*
X44421Y-57135D01*
X44335Y-57135D01*
X44307Y-57121D01*
X44292Y-57107D01*
X44564Y-56835D02*
X44664Y-57135D01*
X44764Y-56835D01*
X44835Y-56835D02*
X45021Y-56835D01*
X44921Y-56950D01*
X44964Y-56950D01*
X44992Y-56964D01*
X45007Y-56978D01*
X45021Y-57007D01*
X45021Y-57078D01*
X45007Y-57107D01*
X44992Y-57121D01*
X44964Y-57135D01*
X44878Y-57135D01*
X44850Y-57121D01*
X44835Y-57107D01*
X43478Y-57350D02*
X43450Y-57335D01*
X43407Y-57335D01*
X43364Y-57350D01*
X43335Y-57378D01*
X43321Y-57407D01*
X43307Y-57464D01*
X43307Y-57507D01*
X43321Y-57564D01*
X43335Y-57592D01*
X43364Y-57621D01*
X43407Y-57635D01*
X43435Y-57635D01*
X43478Y-57621D01*
X43492Y-57607D01*
X43492Y-57507D01*
X43435Y-57507D01*
X43621Y-57635D02*
X43621Y-57335D01*
X43735Y-57335D01*
X43764Y-57350D01*
X43778Y-57364D01*
X43792Y-57392D01*
X43792Y-57435D01*
X43778Y-57464D01*
X43764Y-57478D01*
X43735Y-57492D01*
X43621Y-57492D01*
X43907Y-57364D02*
X43921Y-57350D01*
X43950Y-57335D01*
X44021Y-57335D01*
X44050Y-57350D01*
X44064Y-57364D01*
X44078Y-57392D01*
X44078Y-57421D01*
X44064Y-57464D01*
X43892Y-57635D01*
X44078Y-57635D01*
X44192Y-57364D02*
X44207Y-57350D01*
X44235Y-57335D01*
X44307Y-57335D01*
X44335Y-57350D01*
X44350Y-57364D01*
X44364Y-57392D01*
X44364Y-57421D01*
X44350Y-57464D01*
X44178Y-57635D01*
X44364Y-57635D01*
X42478Y-56850D02*
X42450Y-56835D01*
X42407Y-56835D01*
X42364Y-56850D01*
X42335Y-56878D01*
X42321Y-56907D01*
X42307Y-56964D01*
X42307Y-57007D01*
X42321Y-57064D01*
X42335Y-57092D01*
X42364Y-57121D01*
X42407Y-57135D01*
X42435Y-57135D01*
X42478Y-57121D01*
X42492Y-57107D01*
X42492Y-57007D01*
X42435Y-57007D01*
X42621Y-57135D02*
X42621Y-56835D01*
X42735Y-56835D01*
X42764Y-56850D01*
X42778Y-56864D01*
X42792Y-56892D01*
X42792Y-56935D01*
X42778Y-56964D01*
X42764Y-56978D01*
X42735Y-56992D01*
X42621Y-56992D01*
X42907Y-56864D02*
X42921Y-56850D01*
X42950Y-56835D01*
X43021Y-56835D01*
X43050Y-56850D01*
X43064Y-56864D01*
X43078Y-56892D01*
X43078Y-56921D01*
X43064Y-56964D01*
X42892Y-57135D01*
X43078Y-57135D01*
X43178Y-56835D02*
X43378Y-56835D01*
X43250Y-57135D01*
X41478Y-57350D02*
X41450Y-57335D01*
X41407Y-57335D01*
X41364Y-57350D01*
X41335Y-57378D01*
X41321Y-57407D01*
X41307Y-57464D01*
X41307Y-57507D01*
X41321Y-57564D01*
X41335Y-57592D01*
X41364Y-57621D01*
X41407Y-57635D01*
X41435Y-57635D01*
X41478Y-57621D01*
X41492Y-57607D01*
X41492Y-57507D01*
X41435Y-57507D01*
X41621Y-57635D02*
X41621Y-57335D01*
X41735Y-57335D01*
X41764Y-57350D01*
X41778Y-57364D01*
X41792Y-57392D01*
X41792Y-57435D01*
X41778Y-57464D01*
X41764Y-57478D01*
X41735Y-57492D01*
X41621Y-57492D01*
X42078Y-57635D02*
X41907Y-57635D01*
X41992Y-57635D02*
X41992Y-57335D01*
X41964Y-57378D01*
X41935Y-57407D01*
X41907Y-57421D01*
X42178Y-57335D02*
X42378Y-57335D01*
X42250Y-57635D01*
X39478Y-57350D02*
X39450Y-57335D01*
X39407Y-57335D01*
X39364Y-57350D01*
X39335Y-57378D01*
X39321Y-57407D01*
X39307Y-57464D01*
X39307Y-57507D01*
X39321Y-57564D01*
X39335Y-57592D01*
X39364Y-57621D01*
X39407Y-57635D01*
X39435Y-57635D01*
X39478Y-57621D01*
X39492Y-57607D01*
X39492Y-57507D01*
X39435Y-57507D01*
X39621Y-57635D02*
X39621Y-57335D01*
X39735Y-57335D01*
X39764Y-57350D01*
X39778Y-57364D01*
X39792Y-57392D01*
X39792Y-57435D01*
X39778Y-57464D01*
X39764Y-57478D01*
X39735Y-57492D01*
X39621Y-57492D01*
X40050Y-57435D02*
X40050Y-57635D01*
X39978Y-57321D02*
X39907Y-57535D01*
X40092Y-57535D01*
X38478Y-56850D02*
X38450Y-56835D01*
X38407Y-56835D01*
X38364Y-56850D01*
X38335Y-56878D01*
X38321Y-56907D01*
X38307Y-56964D01*
X38307Y-57007D01*
X38321Y-57064D01*
X38335Y-57092D01*
X38364Y-57121D01*
X38407Y-57135D01*
X38435Y-57135D01*
X38478Y-57121D01*
X38492Y-57107D01*
X38492Y-57007D01*
X38435Y-57007D01*
X38621Y-57135D02*
X38621Y-56835D01*
X38735Y-56835D01*
X38764Y-56850D01*
X38778Y-56864D01*
X38792Y-56892D01*
X38792Y-56935D01*
X38778Y-56964D01*
X38764Y-56978D01*
X38735Y-56992D01*
X38621Y-56992D01*
X38892Y-56835D02*
X39078Y-56835D01*
X38978Y-56950D01*
X39021Y-56950D01*
X39050Y-56964D01*
X39064Y-56978D01*
X39078Y-57007D01*
X39078Y-57078D01*
X39064Y-57107D01*
X39050Y-57121D01*
X39021Y-57135D01*
X38935Y-57135D01*
X38907Y-57121D01*
X38892Y-57107D01*
X37478Y-57350D02*
X37450Y-57335D01*
X37407Y-57335D01*
X37364Y-57350D01*
X37335Y-57378D01*
X37321Y-57407D01*
X37307Y-57464D01*
X37307Y-57507D01*
X37321Y-57564D01*
X37335Y-57592D01*
X37364Y-57621D01*
X37407Y-57635D01*
X37435Y-57635D01*
X37478Y-57621D01*
X37492Y-57607D01*
X37492Y-57507D01*
X37435Y-57507D01*
X37621Y-57635D02*
X37621Y-57335D01*
X37735Y-57335D01*
X37764Y-57350D01*
X37778Y-57364D01*
X37792Y-57392D01*
X37792Y-57435D01*
X37778Y-57464D01*
X37764Y-57478D01*
X37735Y-57492D01*
X37621Y-57492D01*
X37907Y-57364D02*
X37921Y-57350D01*
X37950Y-57335D01*
X38021Y-57335D01*
X38050Y-57350D01*
X38064Y-57364D01*
X38078Y-57392D01*
X38078Y-57421D01*
X38064Y-57464D01*
X37892Y-57635D01*
X38078Y-57635D01*
X36542Y-56835D02*
X36728Y-56835D01*
X36628Y-56950D01*
X36671Y-56950D01*
X36700Y-56964D01*
X36714Y-56978D01*
X36728Y-57007D01*
X36728Y-57078D01*
X36714Y-57107D01*
X36700Y-57121D01*
X36671Y-57135D01*
X36585Y-57135D01*
X36557Y-57121D01*
X36542Y-57107D01*
X36814Y-56835D02*
X36914Y-57135D01*
X37014Y-56835D01*
X37085Y-56835D02*
X37271Y-56835D01*
X37171Y-56950D01*
X37214Y-56950D01*
X37242Y-56964D01*
X37257Y-56978D01*
X37271Y-57007D01*
X37271Y-57078D01*
X37257Y-57107D01*
X37242Y-57121D01*
X37214Y-57135D01*
X37128Y-57135D01*
X37100Y-57121D01*
X37085Y-57107D01*
X40478Y-56850D02*
X40450Y-56835D01*
X40407Y-56835D01*
X40364Y-56850D01*
X40335Y-56878D01*
X40321Y-56907D01*
X40307Y-56964D01*
X40307Y-57007D01*
X40321Y-57064D01*
X40335Y-57092D01*
X40364Y-57121D01*
X40407Y-57135D01*
X40435Y-57135D01*
X40478Y-57121D01*
X40492Y-57107D01*
X40492Y-57007D01*
X40435Y-57007D01*
X40621Y-57135D02*
X40621Y-56835D01*
X40792Y-57135D01*
X40792Y-56835D01*
X40935Y-57135D02*
X40935Y-56835D01*
X41007Y-56835D01*
X41050Y-56850D01*
X41078Y-56878D01*
X41092Y-56907D01*
X41107Y-56964D01*
X41107Y-57007D01*
X41092Y-57064D01*
X41078Y-57092D01*
X41050Y-57121D01*
X41007Y-57135D01*
X40935Y-57135D01*
X45478Y-53850D02*
X45450Y-53835D01*
X45407Y-53835D01*
X45364Y-53850D01*
X45335Y-53878D01*
X45321Y-53907D01*
X45307Y-53964D01*
X45307Y-54007D01*
X45321Y-54064D01*
X45335Y-54092D01*
X45364Y-54121D01*
X45407Y-54135D01*
X45435Y-54135D01*
X45478Y-54121D01*
X45492Y-54107D01*
X45492Y-54007D01*
X45435Y-54007D01*
X45621Y-54135D02*
X45621Y-53835D01*
X45792Y-54135D01*
X45792Y-53835D01*
X45935Y-54135D02*
X45935Y-53835D01*
X46007Y-53835D01*
X46050Y-53850D01*
X46078Y-53878D01*
X46092Y-53907D01*
X46107Y-53964D01*
X46107Y-54007D01*
X46092Y-54064D01*
X46078Y-54092D01*
X46050Y-54121D01*
X46007Y-54135D01*
X45935Y-54135D01*
X42478Y-54350D02*
X42450Y-54335D01*
X42407Y-54335D01*
X42364Y-54350D01*
X42335Y-54378D01*
X42321Y-54407D01*
X42307Y-54464D01*
X42307Y-54507D01*
X42321Y-54564D01*
X42335Y-54592D01*
X42364Y-54621D01*
X42407Y-54635D01*
X42435Y-54635D01*
X42478Y-54621D01*
X42492Y-54607D01*
X42492Y-54507D01*
X42435Y-54507D01*
X42621Y-54635D02*
X42621Y-54335D01*
X42792Y-54635D01*
X42792Y-54335D01*
X42935Y-54635D02*
X42935Y-54335D01*
X43007Y-54335D01*
X43050Y-54350D01*
X43078Y-54378D01*
X43092Y-54407D01*
X43107Y-54464D01*
X43107Y-54507D01*
X43092Y-54564D01*
X43078Y-54592D01*
X43050Y-54621D01*
X43007Y-54635D01*
X42935Y-54635D01*
X38478Y-54350D02*
X38450Y-54335D01*
X38407Y-54335D01*
X38364Y-54350D01*
X38335Y-54378D01*
X38321Y-54407D01*
X38307Y-54464D01*
X38307Y-54507D01*
X38321Y-54564D01*
X38335Y-54592D01*
X38364Y-54621D01*
X38407Y-54635D01*
X38435Y-54635D01*
X38478Y-54621D01*
X38492Y-54607D01*
X38492Y-54507D01*
X38435Y-54507D01*
X38621Y-54635D02*
X38621Y-54335D01*
X38792Y-54635D01*
X38792Y-54335D01*
X38935Y-54635D02*
X38935Y-54335D01*
X39007Y-54335D01*
X39050Y-54350D01*
X39078Y-54378D01*
X39092Y-54407D01*
X39107Y-54464D01*
X39107Y-54507D01*
X39092Y-54564D01*
X39078Y-54592D01*
X39050Y-54621D01*
X39007Y-54635D01*
X38935Y-54635D01*
X37714Y-53835D02*
X37571Y-53835D01*
X37557Y-53978D01*
X37571Y-53964D01*
X37600Y-53950D01*
X37671Y-53950D01*
X37700Y-53964D01*
X37714Y-53978D01*
X37728Y-54007D01*
X37728Y-54078D01*
X37714Y-54107D01*
X37700Y-54121D01*
X37671Y-54135D01*
X37600Y-54135D01*
X37571Y-54121D01*
X37557Y-54107D01*
X37814Y-53835D02*
X37914Y-54135D01*
X38014Y-53835D01*
X36714Y-54335D02*
X36571Y-54335D01*
X36557Y-54478D01*
X36571Y-54464D01*
X36600Y-54450D01*
X36671Y-54450D01*
X36700Y-54464D01*
X36714Y-54478D01*
X36728Y-54507D01*
X36728Y-54578D01*
X36714Y-54607D01*
X36700Y-54621D01*
X36671Y-54635D01*
X36600Y-54635D01*
X36571Y-54621D01*
X36557Y-54607D01*
X36814Y-54335D02*
X36914Y-54635D01*
X37014Y-54335D01*
X38821Y-50972D02*
X38821Y-50672D01*
X38950Y-50972D02*
X38950Y-50815D01*
X38935Y-50786D01*
X38907Y-50772D01*
X38864Y-50772D01*
X38835Y-50786D01*
X38821Y-50800D01*
X39221Y-50972D02*
X39221Y-50815D01*
X39207Y-50786D01*
X39178Y-50772D01*
X39121Y-50772D01*
X39092Y-50786D01*
X39221Y-50958D02*
X39192Y-50972D01*
X39121Y-50972D01*
X39092Y-50958D01*
X39078Y-50929D01*
X39078Y-50900D01*
X39092Y-50872D01*
X39121Y-50858D01*
X39192Y-50858D01*
X39221Y-50843D01*
X39364Y-50972D02*
X39364Y-50772D01*
X39364Y-50829D02*
X39378Y-50800D01*
X39392Y-50786D01*
X39421Y-50772D01*
X39450Y-50772D01*
X39678Y-50972D02*
X39678Y-50672D01*
X39678Y-50958D02*
X39650Y-50972D01*
X39592Y-50972D01*
X39564Y-50958D01*
X39550Y-50943D01*
X39535Y-50915D01*
X39535Y-50829D01*
X39550Y-50800D01*
X39564Y-50786D01*
X39592Y-50772D01*
X39650Y-50772D01*
X39678Y-50786D01*
X39792Y-50772D02*
X39850Y-50972D01*
X39907Y-50829D01*
X39964Y-50972D01*
X40021Y-50772D01*
X40264Y-50972D02*
X40264Y-50815D01*
X40250Y-50786D01*
X40221Y-50772D01*
X40164Y-50772D01*
X40135Y-50786D01*
X40264Y-50958D02*
X40235Y-50972D01*
X40164Y-50972D01*
X40135Y-50958D01*
X40121Y-50929D01*
X40121Y-50900D01*
X40135Y-50872D01*
X40164Y-50858D01*
X40235Y-50858D01*
X40264Y-50843D01*
X40407Y-50972D02*
X40407Y-50772D01*
X40407Y-50829D02*
X40421Y-50800D01*
X40435Y-50786D01*
X40464Y-50772D01*
X40492Y-50772D01*
X40707Y-50958D02*
X40678Y-50972D01*
X40621Y-50972D01*
X40592Y-50958D01*
X40578Y-50929D01*
X40578Y-50815D01*
X40592Y-50786D01*
X40621Y-50772D01*
X40678Y-50772D01*
X40707Y-50786D01*
X40721Y-50815D01*
X40721Y-50843D01*
X40578Y-50872D01*
X38588Y-50568D02*
X38560Y-50554D01*
X38545Y-50540D01*
X38531Y-50511D01*
X38531Y-50425D01*
X38545Y-50397D01*
X38560Y-50383D01*
X38588Y-50368D01*
X38631Y-50368D01*
X38660Y-50383D01*
X38674Y-50397D01*
X38688Y-50425D01*
X38688Y-50511D01*
X38674Y-50540D01*
X38660Y-50554D01*
X38631Y-50568D01*
X38588Y-50568D01*
X38817Y-50368D02*
X38817Y-50668D01*
X38817Y-50383D02*
X38845Y-50368D01*
X38902Y-50368D01*
X38931Y-50383D01*
X38945Y-50397D01*
X38960Y-50425D01*
X38960Y-50511D01*
X38945Y-50540D01*
X38931Y-50554D01*
X38902Y-50568D01*
X38845Y-50568D01*
X38817Y-50554D01*
X39202Y-50554D02*
X39174Y-50568D01*
X39117Y-50568D01*
X39088Y-50554D01*
X39074Y-50525D01*
X39074Y-50411D01*
X39088Y-50383D01*
X39117Y-50368D01*
X39174Y-50368D01*
X39202Y-50383D01*
X39217Y-50411D01*
X39217Y-50440D01*
X39074Y-50468D01*
X39345Y-50368D02*
X39345Y-50568D01*
X39345Y-50397D02*
X39360Y-50383D01*
X39388Y-50368D01*
X39431Y-50368D01*
X39460Y-50383D01*
X39474Y-50411D01*
X39474Y-50568D01*
X39831Y-50554D02*
X39860Y-50568D01*
X39917Y-50568D01*
X39945Y-50554D01*
X39960Y-50525D01*
X39960Y-50511D01*
X39945Y-50483D01*
X39917Y-50468D01*
X39874Y-50468D01*
X39845Y-50454D01*
X39831Y-50425D01*
X39831Y-50411D01*
X39845Y-50383D01*
X39874Y-50368D01*
X39917Y-50368D01*
X39945Y-50383D01*
X40131Y-50568D02*
X40102Y-50554D01*
X40088Y-50540D01*
X40074Y-50511D01*
X40074Y-50425D01*
X40088Y-50397D01*
X40102Y-50383D01*
X40131Y-50368D01*
X40174Y-50368D01*
X40202Y-50383D01*
X40217Y-50397D01*
X40231Y-50425D01*
X40231Y-50511D01*
X40217Y-50540D01*
X40202Y-50554D01*
X40174Y-50568D01*
X40131Y-50568D01*
X40488Y-50368D02*
X40488Y-50568D01*
X40360Y-50368D02*
X40360Y-50525D01*
X40374Y-50554D01*
X40402Y-50568D01*
X40445Y-50568D01*
X40474Y-50554D01*
X40488Y-50540D01*
X40631Y-50568D02*
X40631Y-50368D01*
X40631Y-50425D02*
X40645Y-50397D01*
X40660Y-50383D01*
X40688Y-50368D01*
X40717Y-50368D01*
X40945Y-50554D02*
X40917Y-50568D01*
X40860Y-50568D01*
X40831Y-50554D01*
X40817Y-50540D01*
X40802Y-50511D01*
X40802Y-50425D01*
X40817Y-50397D01*
X40831Y-50383D01*
X40860Y-50368D01*
X40917Y-50368D01*
X40945Y-50383D01*
X41188Y-50554D02*
X41160Y-50568D01*
X41102Y-50568D01*
X41074Y-50554D01*
X41060Y-50525D01*
X41060Y-50411D01*
X41074Y-50383D01*
X41102Y-50368D01*
X41160Y-50368D01*
X41188Y-50383D01*
X41202Y-50411D01*
X41202Y-50440D01*
X41060Y-50468D01*
G54D11*
X35864Y-52926D02*
X35697Y-52688D01*
X35578Y-52926D02*
X35578Y-52426D01*
X35768Y-52426D01*
X35816Y-52450D01*
X35840Y-52474D01*
X35864Y-52521D01*
X35864Y-52593D01*
X35840Y-52641D01*
X35816Y-52664D01*
X35768Y-52688D01*
X35578Y-52688D01*
X36292Y-52926D02*
X36292Y-52664D01*
X36268Y-52617D01*
X36221Y-52593D01*
X36126Y-52593D01*
X36078Y-52617D01*
X36292Y-52902D02*
X36245Y-52926D01*
X36126Y-52926D01*
X36078Y-52902D01*
X36054Y-52855D01*
X36054Y-52807D01*
X36078Y-52760D01*
X36126Y-52736D01*
X36245Y-52736D01*
X36292Y-52712D01*
X36507Y-52902D02*
X36554Y-52926D01*
X36649Y-52926D01*
X36697Y-52902D01*
X36721Y-52855D01*
X36721Y-52831D01*
X36697Y-52783D01*
X36649Y-52760D01*
X36578Y-52760D01*
X36530Y-52736D01*
X36507Y-52688D01*
X36507Y-52664D01*
X36530Y-52617D01*
X36578Y-52593D01*
X36649Y-52593D01*
X36697Y-52617D01*
X36935Y-52593D02*
X36935Y-53093D01*
X36935Y-52617D02*
X36983Y-52593D01*
X37078Y-52593D01*
X37126Y-52617D01*
X37149Y-52641D01*
X37173Y-52688D01*
X37173Y-52831D01*
X37149Y-52879D01*
X37126Y-52902D01*
X37078Y-52926D01*
X36983Y-52926D01*
X36935Y-52902D01*
X37387Y-52926D02*
X37387Y-52426D01*
X37387Y-52617D02*
X37435Y-52593D01*
X37530Y-52593D01*
X37578Y-52617D01*
X37602Y-52641D01*
X37626Y-52688D01*
X37626Y-52831D01*
X37602Y-52879D01*
X37578Y-52902D01*
X37530Y-52926D01*
X37435Y-52926D01*
X37387Y-52902D01*
X38030Y-52902D02*
X37983Y-52926D01*
X37887Y-52926D01*
X37840Y-52902D01*
X37816Y-52855D01*
X37816Y-52664D01*
X37840Y-52617D01*
X37887Y-52593D01*
X37983Y-52593D01*
X38030Y-52617D01*
X38054Y-52664D01*
X38054Y-52712D01*
X37816Y-52760D01*
X38268Y-52926D02*
X38268Y-52593D01*
X38268Y-52688D02*
X38292Y-52641D01*
X38316Y-52617D01*
X38364Y-52593D01*
X38411Y-52593D01*
X38578Y-52926D02*
X38578Y-52593D01*
X38578Y-52688D02*
X38602Y-52641D01*
X38626Y-52617D01*
X38673Y-52593D01*
X38721Y-52593D01*
X38840Y-52593D02*
X38959Y-52926D01*
X39078Y-52593D02*
X38959Y-52926D01*
X38911Y-53045D01*
X38887Y-53069D01*
X38840Y-53093D01*
X39649Y-52926D02*
X39649Y-52426D01*
X39840Y-52426D01*
X39887Y-52450D01*
X39911Y-52474D01*
X39935Y-52521D01*
X39935Y-52593D01*
X39911Y-52641D01*
X39887Y-52664D01*
X39840Y-52688D01*
X39649Y-52688D01*
X40149Y-52926D02*
X40149Y-52593D01*
X40149Y-52426D02*
X40126Y-52450D01*
X40149Y-52474D01*
X40173Y-52450D01*
X40149Y-52426D01*
X40149Y-52474D01*
X35768Y-53706D02*
X35768Y-53206D01*
X35935Y-53563D01*
X36102Y-53206D01*
X36102Y-53706D01*
X36340Y-53706D02*
X36340Y-53373D01*
X36340Y-53206D02*
X36316Y-53230D01*
X36340Y-53254D01*
X36364Y-53230D01*
X36340Y-53206D01*
X36340Y-53254D01*
X36578Y-53373D02*
X36578Y-53706D01*
X36578Y-53421D02*
X36602Y-53397D01*
X36649Y-53373D01*
X36721Y-53373D01*
X36768Y-53397D01*
X36792Y-53444D01*
X36792Y-53706D01*
X37030Y-53706D02*
X37030Y-53373D01*
X37030Y-53206D02*
X37007Y-53230D01*
X37030Y-53254D01*
X37054Y-53230D01*
X37030Y-53206D01*
X37030Y-53254D01*
X37268Y-53516D02*
X37649Y-53516D01*
X37864Y-53682D02*
X37935Y-53706D01*
X38054Y-53706D01*
X38102Y-53682D01*
X38126Y-53659D01*
X38149Y-53611D01*
X38149Y-53563D01*
X38126Y-53516D01*
X38102Y-53492D01*
X38054Y-53468D01*
X37959Y-53444D01*
X37911Y-53421D01*
X37887Y-53397D01*
X37864Y-53349D01*
X37864Y-53301D01*
X37887Y-53254D01*
X37911Y-53230D01*
X37959Y-53206D01*
X38078Y-53206D01*
X38149Y-53230D01*
X38364Y-53706D02*
X38364Y-53206D01*
X38578Y-53706D02*
X38578Y-53444D01*
X38554Y-53397D01*
X38507Y-53373D01*
X38435Y-53373D01*
X38387Y-53397D01*
X38364Y-53421D01*
X38816Y-53706D02*
X38816Y-53373D01*
X38816Y-53206D02*
X38792Y-53230D01*
X38816Y-53254D01*
X38840Y-53230D01*
X38816Y-53206D01*
X38816Y-53254D01*
X39245Y-53682D02*
X39197Y-53706D01*
X39102Y-53706D01*
X39054Y-53682D01*
X39030Y-53635D01*
X39030Y-53444D01*
X39054Y-53397D01*
X39102Y-53373D01*
X39197Y-53373D01*
X39245Y-53397D01*
X39268Y-53444D01*
X39268Y-53492D01*
X39030Y-53540D01*
X39554Y-53706D02*
X39507Y-53682D01*
X39483Y-53635D01*
X39483Y-53206D01*
X39959Y-53706D02*
X39959Y-53206D01*
X39959Y-53682D02*
X39911Y-53706D01*
X39816Y-53706D01*
X39768Y-53682D01*
X39745Y-53659D01*
X39721Y-53611D01*
X39721Y-53468D01*
X39745Y-53421D01*
X39768Y-53397D01*
X39816Y-53373D01*
X39911Y-53373D01*
X39959Y-53397D01*
X48645Y-47633D02*
X48883Y-47633D01*
X48597Y-47776D02*
X48764Y-47276D01*
X48930Y-47776D01*
X49335Y-47276D02*
X49097Y-47276D01*
X49073Y-47514D01*
X49097Y-47490D01*
X49145Y-47466D01*
X49264Y-47466D01*
X49311Y-47490D01*
X49335Y-47514D01*
X49359Y-47561D01*
X49359Y-47680D01*
X49335Y-47728D01*
X49311Y-47752D01*
X49264Y-47776D01*
X49145Y-47776D01*
X49097Y-47752D01*
X49073Y-47728D01*
X48645Y-46583D02*
X48883Y-46583D01*
X48597Y-46726D02*
X48764Y-46226D01*
X48930Y-46726D01*
X49050Y-46226D02*
X49359Y-46226D01*
X49192Y-46416D01*
X49264Y-46416D01*
X49311Y-46440D01*
X49335Y-46464D01*
X49359Y-46511D01*
X49359Y-46630D01*
X49335Y-46678D01*
X49311Y-46702D01*
X49264Y-46726D01*
X49121Y-46726D01*
X49073Y-46702D01*
X49050Y-46678D01*
X48645Y-45583D02*
X48883Y-45583D01*
X48597Y-45726D02*
X48764Y-45226D01*
X48930Y-45726D01*
X49359Y-45726D02*
X49073Y-45726D01*
X49216Y-45726D02*
X49216Y-45226D01*
X49169Y-45297D01*
X49121Y-45345D01*
X49073Y-45369D01*
X48954Y-44726D02*
X48788Y-44488D01*
X48669Y-44726D02*
X48669Y-44226D01*
X48859Y-44226D01*
X48907Y-44250D01*
X48930Y-44273D01*
X48954Y-44321D01*
X48954Y-44392D01*
X48930Y-44440D01*
X48907Y-44464D01*
X48859Y-44488D01*
X48669Y-44488D01*
X49145Y-44702D02*
X49216Y-44726D01*
X49335Y-44726D01*
X49383Y-44702D01*
X49407Y-44678D01*
X49430Y-44630D01*
X49430Y-44583D01*
X49407Y-44535D01*
X49383Y-44511D01*
X49335Y-44488D01*
X49240Y-44464D01*
X49192Y-44440D01*
X49169Y-44416D01*
X49145Y-44369D01*
X49145Y-44321D01*
X49169Y-44273D01*
X49192Y-44250D01*
X49240Y-44226D01*
X49359Y-44226D01*
X49430Y-44250D01*
X48930Y-43300D02*
X48883Y-43276D01*
X48811Y-43276D01*
X48740Y-43300D01*
X48692Y-43347D01*
X48669Y-43395D01*
X48645Y-43490D01*
X48645Y-43561D01*
X48669Y-43657D01*
X48692Y-43704D01*
X48740Y-43752D01*
X48811Y-43776D01*
X48859Y-43776D01*
X48930Y-43752D01*
X48954Y-43728D01*
X48954Y-43561D01*
X48859Y-43561D01*
X49169Y-43776D02*
X49169Y-43276D01*
X49288Y-43276D01*
X49359Y-43300D01*
X49407Y-43347D01*
X49430Y-43395D01*
X49454Y-43490D01*
X49454Y-43561D01*
X49430Y-43657D01*
X49407Y-43704D01*
X49359Y-43752D01*
X49288Y-43776D01*
X49169Y-43776D01*
X48621Y-42226D02*
X48930Y-42226D01*
X48764Y-42416D01*
X48835Y-42416D01*
X48883Y-42440D01*
X48907Y-42464D01*
X48930Y-42511D01*
X48930Y-42630D01*
X48907Y-42678D01*
X48883Y-42702D01*
X48835Y-42726D01*
X48692Y-42726D01*
X48645Y-42702D01*
X48621Y-42678D01*
X49145Y-42678D02*
X49169Y-42702D01*
X49145Y-42726D01*
X49121Y-42702D01*
X49145Y-42678D01*
X49145Y-42726D01*
X49335Y-42226D02*
X49645Y-42226D01*
X49478Y-42416D01*
X49550Y-42416D01*
X49597Y-42440D01*
X49621Y-42464D01*
X49645Y-42511D01*
X49645Y-42630D01*
X49621Y-42678D01*
X49597Y-42702D01*
X49550Y-42726D01*
X49407Y-42726D01*
X49359Y-42702D01*
X49335Y-42678D01*
X48597Y-41226D02*
X48764Y-41726D01*
X48930Y-41226D01*
X49097Y-41726D02*
X49097Y-41226D01*
X49383Y-41726D01*
X49383Y-41226D01*
X48669Y-48726D02*
X48669Y-48226D01*
X48835Y-48583D01*
X49002Y-48226D01*
X49002Y-48726D01*
X49502Y-48250D02*
X49454Y-48226D01*
X49383Y-48226D01*
X49311Y-48250D01*
X49264Y-48297D01*
X49240Y-48345D01*
X49216Y-48440D01*
X49216Y-48511D01*
X49240Y-48607D01*
X49264Y-48654D01*
X49311Y-48702D01*
X49383Y-48726D01*
X49430Y-48726D01*
X49502Y-48702D01*
X49526Y-48678D01*
X49526Y-48511D01*
X49430Y-48511D01*
X33669Y-48726D02*
X33669Y-48226D01*
X33835Y-48583D01*
X34002Y-48226D01*
X34002Y-48726D01*
X34240Y-48726D02*
X34240Y-48226D01*
X34430Y-48226D01*
X34478Y-48250D01*
X34502Y-48273D01*
X34526Y-48321D01*
X34526Y-48392D01*
X34502Y-48440D01*
X34478Y-48464D01*
X34430Y-48488D01*
X34240Y-48488D01*
X34692Y-48226D02*
X34811Y-48726D01*
X34907Y-48369D01*
X35002Y-48726D01*
X35121Y-48226D01*
X35597Y-48726D02*
X35430Y-48488D01*
X35311Y-48726D02*
X35311Y-48226D01*
X35502Y-48226D01*
X35550Y-48250D01*
X35573Y-48273D01*
X35597Y-48321D01*
X35597Y-48392D01*
X35573Y-48440D01*
X35550Y-48464D01*
X35502Y-48488D01*
X35311Y-48488D01*
X33669Y-47726D02*
X33669Y-47226D01*
X33788Y-47226D01*
X33859Y-47250D01*
X33907Y-47297D01*
X33930Y-47345D01*
X33954Y-47440D01*
X33954Y-47511D01*
X33930Y-47607D01*
X33907Y-47654D01*
X33859Y-47702D01*
X33788Y-47726D01*
X33669Y-47726D01*
X34430Y-47726D02*
X34145Y-47726D01*
X34288Y-47726D02*
X34288Y-47226D01*
X34240Y-47297D01*
X34192Y-47345D01*
X34145Y-47369D01*
X34597Y-47226D02*
X34907Y-47226D01*
X34740Y-47416D01*
X34811Y-47416D01*
X34859Y-47440D01*
X34883Y-47464D01*
X34907Y-47511D01*
X34907Y-47630D01*
X34883Y-47678D01*
X34859Y-47702D01*
X34811Y-47726D01*
X34669Y-47726D01*
X34621Y-47702D01*
X34597Y-47678D01*
X33669Y-46726D02*
X33669Y-46226D01*
X33788Y-46226D01*
X33859Y-46250D01*
X33907Y-46297D01*
X33930Y-46345D01*
X33954Y-46440D01*
X33954Y-46511D01*
X33930Y-46607D01*
X33907Y-46654D01*
X33859Y-46702D01*
X33788Y-46726D01*
X33669Y-46726D01*
X34430Y-46726D02*
X34145Y-46726D01*
X34288Y-46726D02*
X34288Y-46226D01*
X34240Y-46297D01*
X34192Y-46345D01*
X34145Y-46369D01*
X34907Y-46726D02*
X34621Y-46726D01*
X34764Y-46726D02*
X34764Y-46226D01*
X34716Y-46297D01*
X34669Y-46345D01*
X34621Y-46369D01*
X33669Y-45676D02*
X33669Y-45176D01*
X33788Y-45176D01*
X33859Y-45200D01*
X33907Y-45247D01*
X33930Y-45295D01*
X33954Y-45390D01*
X33954Y-45461D01*
X33930Y-45557D01*
X33907Y-45604D01*
X33859Y-45652D01*
X33788Y-45676D01*
X33669Y-45676D01*
X34192Y-45676D02*
X34288Y-45676D01*
X34335Y-45652D01*
X34359Y-45628D01*
X34407Y-45557D01*
X34430Y-45461D01*
X34430Y-45271D01*
X34407Y-45223D01*
X34383Y-45200D01*
X34335Y-45176D01*
X34240Y-45176D01*
X34192Y-45200D01*
X34169Y-45223D01*
X34145Y-45271D01*
X34145Y-45390D01*
X34169Y-45438D01*
X34192Y-45461D01*
X34240Y-45485D01*
X34335Y-45485D01*
X34383Y-45461D01*
X34407Y-45438D01*
X34430Y-45390D01*
X33669Y-44726D02*
X33669Y-44226D01*
X33788Y-44226D01*
X33859Y-44250D01*
X33907Y-44297D01*
X33930Y-44345D01*
X33954Y-44440D01*
X33954Y-44511D01*
X33930Y-44607D01*
X33907Y-44654D01*
X33859Y-44702D01*
X33788Y-44726D01*
X33669Y-44726D01*
X34121Y-44226D02*
X34454Y-44226D01*
X34240Y-44726D01*
X33719Y-43726D02*
X33719Y-43226D01*
X33838Y-43226D01*
X33909Y-43250D01*
X33957Y-43297D01*
X33980Y-43345D01*
X34004Y-43440D01*
X34004Y-43511D01*
X33980Y-43607D01*
X33957Y-43654D01*
X33909Y-43702D01*
X33838Y-43726D01*
X33719Y-43726D01*
X34457Y-43226D02*
X34219Y-43226D01*
X34195Y-43464D01*
X34219Y-43440D01*
X34266Y-43416D01*
X34385Y-43416D01*
X34433Y-43440D01*
X34457Y-43464D01*
X34480Y-43511D01*
X34480Y-43630D01*
X34457Y-43678D01*
X34433Y-43702D01*
X34385Y-43726D01*
X34266Y-43726D01*
X34219Y-43702D01*
X34195Y-43678D01*
X33719Y-42726D02*
X33719Y-42226D01*
X33838Y-42226D01*
X33909Y-42250D01*
X33957Y-42297D01*
X33980Y-42345D01*
X34004Y-42440D01*
X34004Y-42511D01*
X33980Y-42607D01*
X33957Y-42654D01*
X33909Y-42702D01*
X33838Y-42726D01*
X33719Y-42726D01*
X34171Y-42226D02*
X34480Y-42226D01*
X34314Y-42416D01*
X34385Y-42416D01*
X34433Y-42440D01*
X34457Y-42464D01*
X34480Y-42511D01*
X34480Y-42630D01*
X34457Y-42678D01*
X34433Y-42702D01*
X34385Y-42726D01*
X34242Y-42726D01*
X34195Y-42702D01*
X34171Y-42678D01*
X33719Y-41726D02*
X33719Y-41226D01*
X33838Y-41226D01*
X33909Y-41250D01*
X33957Y-41297D01*
X33980Y-41345D01*
X34004Y-41440D01*
X34004Y-41511D01*
X33980Y-41607D01*
X33957Y-41654D01*
X33909Y-41702D01*
X33838Y-41726D01*
X33719Y-41726D01*
X34480Y-41726D02*
X34195Y-41726D01*
X34338Y-41726D02*
X34338Y-41226D01*
X34290Y-41297D01*
X34242Y-41345D01*
X34195Y-41369D01*
X44473Y-48726D02*
X44473Y-48226D01*
X44640Y-48583D01*
X44807Y-48226D01*
X44807Y-48726D01*
X45307Y-48250D02*
X45259Y-48226D01*
X45188Y-48226D01*
X45116Y-48250D01*
X45069Y-48297D01*
X45045Y-48345D01*
X45021Y-48440D01*
X45021Y-48511D01*
X45045Y-48607D01*
X45069Y-48654D01*
X45116Y-48702D01*
X45188Y-48726D01*
X45235Y-48726D01*
X45307Y-48702D01*
X45330Y-48678D01*
X45330Y-48511D01*
X45235Y-48511D01*
X45545Y-48726D02*
X45545Y-48226D01*
X45830Y-48726D01*
X45830Y-48226D01*
X46069Y-48726D02*
X46069Y-48226D01*
X46188Y-48226D01*
X46259Y-48250D01*
X46307Y-48297D01*
X46330Y-48345D01*
X46354Y-48440D01*
X46354Y-48511D01*
X46330Y-48607D01*
X46307Y-48654D01*
X46259Y-48702D01*
X46188Y-48726D01*
X46069Y-48726D01*
X45640Y-47583D02*
X45878Y-47583D01*
X45592Y-47726D02*
X45759Y-47226D01*
X45926Y-47726D01*
X46307Y-47392D02*
X46307Y-47726D01*
X46188Y-47202D02*
X46069Y-47559D01*
X46378Y-47559D01*
X45640Y-46583D02*
X45878Y-46583D01*
X45592Y-46726D02*
X45759Y-46226D01*
X45926Y-46726D01*
X46069Y-46273D02*
X46092Y-46250D01*
X46140Y-46226D01*
X46259Y-46226D01*
X46307Y-46250D01*
X46330Y-46273D01*
X46354Y-46321D01*
X46354Y-46369D01*
X46330Y-46440D01*
X46045Y-46726D01*
X46354Y-46726D01*
X45640Y-45583D02*
X45878Y-45583D01*
X45592Y-45726D02*
X45759Y-45226D01*
X45926Y-45726D01*
X46188Y-45226D02*
X46235Y-45226D01*
X46283Y-45250D01*
X46307Y-45273D01*
X46330Y-45321D01*
X46354Y-45416D01*
X46354Y-45535D01*
X46330Y-45630D01*
X46307Y-45678D01*
X46283Y-45702D01*
X46235Y-45726D01*
X46188Y-45726D01*
X46140Y-45702D01*
X46116Y-45678D01*
X46092Y-45630D01*
X46069Y-45535D01*
X46069Y-45416D01*
X46092Y-45321D01*
X46116Y-45273D01*
X46140Y-45250D01*
X46188Y-45226D01*
X44735Y-44583D02*
X44973Y-44583D01*
X44688Y-44726D02*
X44854Y-44226D01*
X45021Y-44726D01*
X45473Y-44726D02*
X45307Y-44488D01*
X45188Y-44726D02*
X45188Y-44226D01*
X45378Y-44226D01*
X45426Y-44250D01*
X45450Y-44273D01*
X45473Y-44321D01*
X45473Y-44392D01*
X45450Y-44440D01*
X45426Y-44464D01*
X45378Y-44488D01*
X45188Y-44488D01*
X45688Y-44464D02*
X45854Y-44464D01*
X45926Y-44726D02*
X45688Y-44726D01*
X45688Y-44226D01*
X45926Y-44226D01*
X46307Y-44464D02*
X46140Y-44464D01*
X46140Y-44726D02*
X46140Y-44226D01*
X46378Y-44226D01*
X45307Y-43250D02*
X45259Y-43226D01*
X45188Y-43226D01*
X45116Y-43250D01*
X45069Y-43297D01*
X45045Y-43345D01*
X45021Y-43440D01*
X45021Y-43511D01*
X45045Y-43607D01*
X45069Y-43654D01*
X45116Y-43702D01*
X45188Y-43726D01*
X45235Y-43726D01*
X45307Y-43702D01*
X45330Y-43678D01*
X45330Y-43511D01*
X45235Y-43511D01*
X45545Y-43726D02*
X45545Y-43226D01*
X45830Y-43726D01*
X45830Y-43226D01*
X46069Y-43726D02*
X46069Y-43226D01*
X46188Y-43226D01*
X46259Y-43250D01*
X46307Y-43297D01*
X46330Y-43345D01*
X46354Y-43440D01*
X46354Y-43511D01*
X46330Y-43607D01*
X46307Y-43654D01*
X46259Y-43702D01*
X46188Y-43726D01*
X46069Y-43726D01*
X45902Y-42226D02*
X45664Y-42226D01*
X45640Y-42464D01*
X45664Y-42440D01*
X45711Y-42416D01*
X45830Y-42416D01*
X45878Y-42440D01*
X45902Y-42464D01*
X45926Y-42511D01*
X45926Y-42630D01*
X45902Y-42678D01*
X45878Y-42702D01*
X45830Y-42726D01*
X45711Y-42726D01*
X45664Y-42702D01*
X45640Y-42678D01*
X46069Y-42226D02*
X46235Y-42726D01*
X46402Y-42226D01*
X45307Y-41226D02*
X45473Y-41726D01*
X45640Y-41226D01*
X45807Y-41726D02*
X45807Y-41226D01*
X46045Y-41726D02*
X46045Y-41226D01*
X46330Y-41726D01*
X46330Y-41226D01*
X30497Y-48726D02*
X30497Y-48226D01*
X30664Y-48583D01*
X30830Y-48226D01*
X30830Y-48726D01*
X31069Y-48726D02*
X31069Y-48226D01*
X31259Y-48226D01*
X31307Y-48250D01*
X31330Y-48273D01*
X31354Y-48321D01*
X31354Y-48392D01*
X31330Y-48440D01*
X31307Y-48464D01*
X31259Y-48488D01*
X31069Y-48488D01*
X30878Y-47726D02*
X30592Y-47726D01*
X30735Y-47726D02*
X30735Y-47226D01*
X30688Y-47297D01*
X30640Y-47345D01*
X30592Y-47369D01*
X31069Y-47273D02*
X31092Y-47250D01*
X31140Y-47226D01*
X31259Y-47226D01*
X31307Y-47250D01*
X31330Y-47273D01*
X31354Y-47321D01*
X31354Y-47369D01*
X31330Y-47440D01*
X31045Y-47726D01*
X31354Y-47726D01*
X30878Y-46726D02*
X30592Y-46726D01*
X30735Y-46726D02*
X30735Y-46226D01*
X30688Y-46297D01*
X30640Y-46345D01*
X30592Y-46369D01*
X31188Y-46226D02*
X31235Y-46226D01*
X31283Y-46250D01*
X31307Y-46273D01*
X31330Y-46321D01*
X31354Y-46416D01*
X31354Y-46535D01*
X31330Y-46630D01*
X31307Y-46678D01*
X31283Y-46702D01*
X31235Y-46726D01*
X31188Y-46726D01*
X31140Y-46702D01*
X31116Y-46678D01*
X31092Y-46630D01*
X31069Y-46535D01*
X31069Y-46416D01*
X31092Y-46321D01*
X31116Y-46273D01*
X31140Y-46250D01*
X31188Y-46226D01*
X30592Y-45726D02*
X30592Y-45226D01*
X30711Y-45226D01*
X30783Y-45250D01*
X30830Y-45297D01*
X30854Y-45345D01*
X30878Y-45440D01*
X30878Y-45511D01*
X30854Y-45607D01*
X30830Y-45654D01*
X30783Y-45702D01*
X30711Y-45726D01*
X30592Y-45726D01*
X31164Y-45440D02*
X31116Y-45416D01*
X31092Y-45392D01*
X31069Y-45345D01*
X31069Y-45321D01*
X31092Y-45273D01*
X31116Y-45250D01*
X31164Y-45226D01*
X31259Y-45226D01*
X31307Y-45250D01*
X31330Y-45273D01*
X31354Y-45321D01*
X31354Y-45345D01*
X31330Y-45392D01*
X31307Y-45416D01*
X31259Y-45440D01*
X31164Y-45440D01*
X31116Y-45464D01*
X31092Y-45488D01*
X31069Y-45535D01*
X31069Y-45630D01*
X31092Y-45678D01*
X31116Y-45702D01*
X31164Y-45726D01*
X31259Y-45726D01*
X31307Y-45702D01*
X31330Y-45678D01*
X31354Y-45630D01*
X31354Y-45535D01*
X31330Y-45488D01*
X31307Y-45464D01*
X31259Y-45440D01*
X30592Y-44726D02*
X30592Y-44226D01*
X30711Y-44226D01*
X30783Y-44250D01*
X30830Y-44297D01*
X30854Y-44345D01*
X30878Y-44440D01*
X30878Y-44511D01*
X30854Y-44607D01*
X30830Y-44654D01*
X30783Y-44702D01*
X30711Y-44726D01*
X30592Y-44726D01*
X31307Y-44226D02*
X31211Y-44226D01*
X31164Y-44250D01*
X31140Y-44273D01*
X31092Y-44345D01*
X31069Y-44440D01*
X31069Y-44630D01*
X31092Y-44678D01*
X31116Y-44702D01*
X31164Y-44726D01*
X31259Y-44726D01*
X31307Y-44702D01*
X31330Y-44678D01*
X31354Y-44630D01*
X31354Y-44511D01*
X31330Y-44464D01*
X31307Y-44440D01*
X31259Y-44416D01*
X31164Y-44416D01*
X31116Y-44440D01*
X31092Y-44464D01*
X31069Y-44511D01*
X30592Y-43726D02*
X30592Y-43226D01*
X30711Y-43226D01*
X30783Y-43250D01*
X30830Y-43297D01*
X30854Y-43345D01*
X30878Y-43440D01*
X30878Y-43511D01*
X30854Y-43607D01*
X30830Y-43654D01*
X30783Y-43702D01*
X30711Y-43726D01*
X30592Y-43726D01*
X31307Y-43392D02*
X31307Y-43726D01*
X31188Y-43202D02*
X31069Y-43559D01*
X31378Y-43559D01*
X30592Y-42726D02*
X30592Y-42226D01*
X30711Y-42226D01*
X30783Y-42250D01*
X30830Y-42297D01*
X30854Y-42345D01*
X30878Y-42440D01*
X30878Y-42511D01*
X30854Y-42607D01*
X30830Y-42654D01*
X30783Y-42702D01*
X30711Y-42726D01*
X30592Y-42726D01*
X31069Y-42273D02*
X31092Y-42250D01*
X31140Y-42226D01*
X31259Y-42226D01*
X31307Y-42250D01*
X31330Y-42273D01*
X31354Y-42321D01*
X31354Y-42369D01*
X31330Y-42440D01*
X31045Y-42726D01*
X31354Y-42726D01*
X30592Y-41726D02*
X30592Y-41226D01*
X30711Y-41226D01*
X30783Y-41250D01*
X30830Y-41297D01*
X30854Y-41345D01*
X30878Y-41440D01*
X30878Y-41511D01*
X30854Y-41607D01*
X30830Y-41654D01*
X30783Y-41702D01*
X30711Y-41726D01*
X30592Y-41726D01*
X31188Y-41226D02*
X31235Y-41226D01*
X31283Y-41250D01*
X31307Y-41273D01*
X31330Y-41321D01*
X31354Y-41416D01*
X31354Y-41535D01*
X31330Y-41630D01*
X31307Y-41678D01*
X31283Y-41702D01*
X31235Y-41726D01*
X31188Y-41726D01*
X31140Y-41702D01*
X31116Y-41678D01*
X31092Y-41630D01*
X31069Y-41535D01*
X31069Y-41416D01*
X31092Y-41321D01*
X31116Y-41273D01*
X31140Y-41250D01*
X31188Y-41226D01*
X49842Y-40657D02*
X49842Y-60342D01*
X49842Y-60342D02*
X30157Y-60342D01*
X30157Y-40657D02*
X30157Y-60342D01*
X30157Y-40657D02*
X49842Y-40657D01*
G54D13*
X33500Y-49000D02*
X33500Y-41000D01*
X31500Y-42000D02*
X31500Y-49000D01*
X33500Y-49000D02*
X31500Y-49000D01*
X33500Y-41000D02*
X32500Y-41000D01*
X31500Y-41000D02*
X31500Y-42000D01*
X32500Y-41000D02*
X32500Y-42000D01*
X32500Y-42000D02*
X31500Y-42000D01*
X31500Y-41000D02*
X32500Y-41000D01*
X48500Y-49000D02*
X48500Y-41000D01*
X46500Y-42000D02*
X46500Y-49000D01*
X48500Y-49000D02*
X46500Y-49000D01*
X48500Y-41000D02*
X47500Y-41000D01*
X46500Y-41000D02*
X46500Y-42000D01*
X47500Y-41000D02*
X47500Y-42000D01*
X47500Y-42000D02*
X46500Y-42000D01*
X46500Y-41000D02*
X47500Y-41000D01*
X40250Y-51250D02*
X38250Y-51250D01*
X38250Y-51250D02*
X38250Y-52250D01*
X38250Y-52250D02*
X40250Y-52250D01*
X41250Y-52250D02*
X40250Y-52250D01*
X40250Y-52250D02*
X40250Y-51250D01*
X41250Y-52250D02*
X41250Y-51250D01*
X41250Y-51250D02*
X40250Y-51250D01*
X36250Y-57750D02*
X49250Y-57750D01*
X37250Y-59750D02*
X49250Y-59750D01*
X49250Y-57750D02*
X49250Y-59750D01*
X36250Y-57750D02*
X36250Y-58750D01*
X36250Y-59750D02*
X37250Y-59750D01*
X36250Y-58750D02*
X37250Y-58750D01*
X37250Y-58750D02*
X37250Y-59750D01*
X36250Y-59750D02*
X36250Y-58750D01*
X36250Y-54750D02*
X49250Y-54750D01*
X37250Y-56750D02*
X49250Y-56750D01*
X49250Y-54750D02*
X49250Y-56750D01*
X36250Y-54750D02*
X36250Y-55750D01*
X36250Y-56750D02*
X37250Y-56750D01*
X36250Y-55750D02*
X37250Y-55750D01*
X37250Y-55750D02*
X37250Y-56750D01*
X36250Y-56750D02*
X36250Y-55750D01*
G54D14*
X49244Y-51886D02*
G75*
G03X49250Y-53610I-494J-863D01*
G74*
G01*
X49250Y-53610D02*
X49250Y-51880D01*
G54D13*
X30750Y-58750D02*
X30750Y-53750D01*
X30750Y-53750D02*
X31750Y-53750D01*
X31750Y-53750D02*
X31750Y-58750D01*
X30750Y-59750D02*
X30750Y-58750D01*
X30750Y-58750D02*
X31750Y-58750D01*
X30750Y-59750D02*
X31750Y-59750D01*
X31750Y-59750D02*
X31750Y-58750D01*
G54D15*
X33000Y-52719D02*
X33000Y-53119D01*
X33000Y-50719D02*
X33000Y-50319D01*
X32500Y-52719D02*
X32500Y-50719D01*
X32500Y-50719D02*
X33500Y-50719D01*
X33500Y-50719D02*
X33500Y-52719D01*
X33500Y-52719D02*
X32500Y-52719D01*
X33000Y-57969D02*
X33000Y-58369D01*
X33000Y-55969D02*
X33000Y-55569D01*
X32500Y-57969D02*
X32500Y-55969D01*
X32500Y-55969D02*
X33500Y-55969D01*
X33500Y-55969D02*
X33500Y-57969D01*
X33500Y-57969D02*
X32500Y-57969D01*
X34500Y-52719D02*
X34500Y-53119D01*
X34500Y-50719D02*
X34500Y-50319D01*
X34000Y-52719D02*
X34000Y-50719D01*
X34000Y-50719D02*
X35000Y-50719D01*
X35000Y-50719D02*
X35000Y-52719D01*
X35000Y-52719D02*
X34000Y-52719D01*
X34500Y-57969D02*
X34500Y-58369D01*
X34500Y-55969D02*
X34500Y-55569D01*
X34000Y-57969D02*
X34000Y-55969D01*
X34000Y-55969D02*
X35000Y-55969D01*
X35000Y-55969D02*
X35000Y-57969D01*
X35000Y-57969D02*
X34000Y-57969D01*
X47969Y-50250D02*
X48369Y-50250D01*
X45969Y-50250D02*
X45569Y-50250D01*
X47969Y-50750D02*
X45969Y-50750D01*
X45969Y-50750D02*
X45969Y-49750D01*
X45969Y-49750D02*
X47969Y-49750D01*
X47969Y-49750D02*
X47969Y-50750D01*
X43781Y-52750D02*
X43381Y-52750D01*
X45781Y-52750D02*
X46181Y-52750D01*
X43781Y-52250D02*
X45781Y-52250D01*
X45781Y-52250D02*
X45781Y-53250D01*
X45781Y-53250D02*
X43781Y-53250D01*
X43781Y-53250D02*
X43781Y-52250D01*
X40000Y-46969D02*
X40000Y-47369D01*
X40000Y-44969D02*
X40000Y-44569D01*
X39500Y-46969D02*
X39500Y-44969D01*
X39500Y-44969D02*
X40500Y-44969D01*
X40500Y-44969D02*
X40500Y-46969D01*
X40500Y-46969D02*
X39500Y-46969D01*
X44250Y-41500D02*
X44250Y-49500D01*
X42250Y-49500D02*
X42250Y-41500D01*
X42250Y-41500D02*
X44250Y-41500D01*
X43750Y-41500D02*
X43750Y-42000D01*
X43750Y-42000D02*
X42750Y-42000D01*
X42750Y-42000D02*
X42750Y-41500D01*
X44250Y-49500D02*
X42250Y-49500D01*
X37500Y-41500D02*
X37500Y-49500D01*
X35500Y-49500D02*
X35500Y-41500D01*
X35500Y-41500D02*
X37500Y-41500D01*
X37000Y-41500D02*
X37000Y-42000D01*
X37000Y-42000D02*
X36000Y-42000D01*
X36000Y-42000D02*
X36000Y-41500D01*
X37500Y-49500D02*
X35500Y-49500D01*
G54D16*
X37480Y-50750D02*
X35500Y-50750D01*
X35500Y-50750D02*
X35500Y-49750D01*
X35500Y-49750D02*
X37500Y-49750D01*
X37500Y-49750D02*
X37500Y-50750D01*
X37500Y-50500D02*
X37250Y-50750D01*
X44230Y-50750D02*
X42250Y-50750D01*
X42250Y-50750D02*
X42250Y-49750D01*
X42250Y-49750D02*
X44250Y-49750D01*
X44250Y-49750D02*
X44250Y-50750D01*
X44250Y-50500D02*
X44000Y-50750D01*
G54D17*
G36*
X39029Y-50248D02*
X39040Y-50243D01*
X39063Y-50228D01*
X39096Y-50206D01*
X39136Y-50179D01*
X39175Y-50153D01*
X39208Y-50131D01*
X39231Y-50116D01*
X39240Y-50111D01*
X39245Y-50113D01*
X39264Y-50122D01*
X39292Y-50136D01*
X39307Y-50144D01*
X39333Y-50155D01*
X39345Y-50157D01*
X39347Y-50154D01*
X39356Y-50135D01*
X39371Y-50102D01*
X39390Y-50059D01*
X39411Y-50008D01*
X39434Y-49953D01*
X39458Y-49897D01*
X39480Y-49844D01*
X39499Y-49796D01*
X39515Y-49757D01*
X39525Y-49730D01*
X39529Y-49718D01*
X39528Y-49716D01*
X39515Y-49704D01*
X39493Y-49687D01*
X39446Y-49649D01*
X39399Y-49591D01*
X39371Y-49524D01*
X39362Y-49451D01*
X39370Y-49383D01*
X39396Y-49318D01*
X39442Y-49259D01*
X39498Y-49215D01*
X39562Y-49187D01*
X39635Y-49178D01*
X39704Y-49186D01*
X39771Y-49212D01*
X39830Y-49257D01*
X39855Y-49286D01*
X39890Y-49346D01*
X39909Y-49409D01*
X39911Y-49426D01*
X39908Y-49496D01*
X39888Y-49563D01*
X39850Y-49623D01*
X39799Y-49673D01*
X39793Y-49677D01*
X39769Y-49695D01*
X39753Y-49707D01*
X39740Y-49718D01*
X39830Y-49933D01*
X39844Y-49967D01*
X39868Y-50026D01*
X39890Y-50077D01*
X39907Y-50117D01*
X39919Y-50144D01*
X39924Y-50155D01*
X39925Y-50155D01*
X39933Y-50157D01*
X39949Y-50151D01*
X39979Y-50136D01*
X39999Y-50126D01*
X40022Y-50115D01*
X40032Y-50111D01*
X40041Y-50116D01*
X40063Y-50130D01*
X40095Y-50151D01*
X40134Y-50177D01*
X40170Y-50202D01*
X40204Y-50225D01*
X40229Y-50240D01*
X40240Y-50247D01*
X40242Y-50247D01*
X40253Y-50241D01*
X40272Y-50225D01*
X40302Y-50197D01*
X40343Y-50156D01*
X40349Y-50150D01*
X40383Y-50115D01*
X40411Y-50086D01*
X40430Y-50065D01*
X40436Y-50056D01*
X40436Y-50056D01*
X40430Y-50044D01*
X40415Y-50020D01*
X40392Y-49985D01*
X40365Y-49945D01*
X40294Y-49842D01*
X40333Y-49744D01*
X40345Y-49714D01*
X40360Y-49678D01*
X40372Y-49652D01*
X40378Y-49641D01*
X40388Y-49637D01*
X40415Y-49630D01*
X40454Y-49622D01*
X40500Y-49614D01*
X40544Y-49606D01*
X40584Y-49598D01*
X40613Y-49593D01*
X40626Y-49590D01*
X40629Y-49588D01*
X40631Y-49582D01*
X40633Y-49568D01*
X40634Y-49544D01*
X40634Y-49506D01*
X40634Y-49451D01*
X40634Y-49445D01*
X40634Y-49392D01*
X40633Y-49350D01*
X40632Y-49324D01*
X40630Y-49313D01*
X40630Y-49313D01*
X40617Y-49310D01*
X40589Y-49304D01*
X40549Y-49296D01*
X40502Y-49287D01*
X40499Y-49286D01*
X40452Y-49277D01*
X40412Y-49269D01*
X40384Y-49262D01*
X40372Y-49259D01*
X40370Y-49255D01*
X40360Y-49237D01*
X40347Y-49208D01*
X40331Y-49172D01*
X40316Y-49135D01*
X40302Y-49101D01*
X40293Y-49076D01*
X40291Y-49065D01*
X40291Y-49065D01*
X40298Y-49053D01*
X40314Y-49029D01*
X40337Y-48995D01*
X40365Y-48955D01*
X40367Y-48952D01*
X40394Y-48912D01*
X40416Y-48878D01*
X40431Y-48854D01*
X40436Y-48843D01*
X40436Y-48842D01*
X40427Y-48830D01*
X40407Y-48808D01*
X40378Y-48777D01*
X40343Y-48742D01*
X40332Y-48731D01*
X40293Y-48693D01*
X40266Y-48668D01*
X40249Y-48655D01*
X40241Y-48652D01*
X40241Y-48652D01*
X40229Y-48659D01*
X40203Y-48676D01*
X40169Y-48699D01*
X40129Y-48727D01*
X40126Y-48729D01*
X40086Y-48756D01*
X40052Y-48778D01*
X40029Y-48794D01*
X40018Y-48800D01*
X40017Y-48800D01*
X40000Y-48795D01*
X39972Y-48785D01*
X39937Y-48772D01*
X39900Y-48757D01*
X39866Y-48743D01*
X39841Y-48731D01*
X39829Y-48725D01*
X39829Y-48724D01*
X39825Y-48710D01*
X39818Y-48680D01*
X39809Y-48639D01*
X39800Y-48590D01*
X39799Y-48582D01*
X39790Y-48534D01*
X39782Y-48495D01*
X39776Y-48468D01*
X39774Y-48456D01*
X39767Y-48455D01*
X39743Y-48453D01*
X39708Y-48452D01*
X39665Y-48452D01*
X39620Y-48452D01*
X39576Y-48453D01*
X39538Y-48454D01*
X39511Y-48456D01*
X39500Y-48458D01*
X39500Y-48459D01*
X39495Y-48474D01*
X39489Y-48504D01*
X39480Y-48545D01*
X39471Y-48594D01*
X39469Y-48603D01*
X39460Y-48650D01*
X39452Y-48689D01*
X39447Y-48716D01*
X39444Y-48727D01*
X39439Y-48729D01*
X39420Y-48738D01*
X39388Y-48751D01*
X39348Y-48767D01*
X39257Y-48804D01*
X39145Y-48727D01*
X39134Y-48720D01*
X39094Y-48692D01*
X39061Y-48670D01*
X39038Y-48655D01*
X39028Y-48650D01*
X39027Y-48650D01*
X39016Y-48660D01*
X38994Y-48681D01*
X38964Y-48711D01*
X38928Y-48746D01*
X38902Y-48772D01*
X38871Y-48803D01*
X38852Y-48825D01*
X38841Y-48838D01*
X38837Y-48846D01*
X38838Y-48852D01*
X38845Y-48863D01*
X38862Y-48888D01*
X38885Y-48922D01*
X38912Y-48962D01*
X38935Y-48995D01*
X38959Y-49033D01*
X38975Y-49060D01*
X38980Y-49073D01*
X38979Y-49078D01*
X38971Y-49100D01*
X38958Y-49133D01*
X38941Y-49173D01*
X38902Y-49262D01*
X38844Y-49273D01*
X38808Y-49280D01*
X38759Y-49289D01*
X38712Y-49298D01*
X38638Y-49313D01*
X38635Y-49583D01*
X38647Y-49588D01*
X38658Y-49591D01*
X38685Y-49597D01*
X38724Y-49605D01*
X38770Y-49613D01*
X38809Y-49621D01*
X38849Y-49628D01*
X38877Y-49634D01*
X38890Y-49636D01*
X38893Y-49641D01*
X38903Y-49660D01*
X38917Y-49690D01*
X38933Y-49727D01*
X38948Y-49765D01*
X38962Y-49800D01*
X38972Y-49826D01*
X38976Y-49840D01*
X38970Y-49851D01*
X38955Y-49874D01*
X38933Y-49907D01*
X38907Y-49946D01*
X38880Y-49985D01*
X38857Y-50019D01*
X38841Y-50043D01*
X38835Y-50054D01*
X38838Y-50062D01*
X38854Y-50081D01*
X38883Y-50111D01*
X38927Y-50155D01*
X38935Y-50162D01*
X38970Y-50196D01*
X38999Y-50223D01*
X39020Y-50241D01*
X39029Y-50248D01*
X39029Y-50248D01*
G37*
X39029Y-50248D02*
X39040Y-50243D01*
X39063Y-50228D01*
X39096Y-50206D01*
X39136Y-50179D01*
X39175Y-50153D01*
X39208Y-50131D01*
X39231Y-50116D01*
X39240Y-50111D01*
X39245Y-50113D01*
X39264Y-50122D01*
X39292Y-50136D01*
X39307Y-50144D01*
X39333Y-50155D01*
X39345Y-50157D01*
X39347Y-50154D01*
X39356Y-50135D01*
X39371Y-50102D01*
X39390Y-50059D01*
X39411Y-50008D01*
X39434Y-49953D01*
X39458Y-49897D01*
X39480Y-49844D01*
X39499Y-49796D01*
X39515Y-49757D01*
X39525Y-49730D01*
X39529Y-49718D01*
X39528Y-49716D01*
X39515Y-49704D01*
X39493Y-49687D01*
X39446Y-49649D01*
X39399Y-49591D01*
X39371Y-49524D01*
X39362Y-49451D01*
X39370Y-49383D01*
X39396Y-49318D01*
X39442Y-49259D01*
X39498Y-49215D01*
X39562Y-49187D01*
X39635Y-49178D01*
X39704Y-49186D01*
X39771Y-49212D01*
X39830Y-49257D01*
X39855Y-49286D01*
X39890Y-49346D01*
X39909Y-49409D01*
X39911Y-49426D01*
X39908Y-49496D01*
X39888Y-49563D01*
X39850Y-49623D01*
X39799Y-49673D01*
X39793Y-49677D01*
X39769Y-49695D01*
X39753Y-49707D01*
X39740Y-49718D01*
X39830Y-49933D01*
X39844Y-49967D01*
X39868Y-50026D01*
X39890Y-50077D01*
X39907Y-50117D01*
X39919Y-50144D01*
X39924Y-50155D01*
X39925Y-50155D01*
X39933Y-50157D01*
X39949Y-50151D01*
X39979Y-50136D01*
X39999Y-50126D01*
X40022Y-50115D01*
X40032Y-50111D01*
X40041Y-50116D01*
X40063Y-50130D01*
X40095Y-50151D01*
X40134Y-50177D01*
X40170Y-50202D01*
X40204Y-50225D01*
X40229Y-50240D01*
X40240Y-50247D01*
X40242Y-50247D01*
X40253Y-50241D01*
X40272Y-50225D01*
X40302Y-50197D01*
X40343Y-50156D01*
X40349Y-50150D01*
X40383Y-50115D01*
X40411Y-50086D01*
X40430Y-50065D01*
X40436Y-50056D01*
X40436Y-50056D01*
X40430Y-50044D01*
X40415Y-50020D01*
X40392Y-49985D01*
X40365Y-49945D01*
X40294Y-49842D01*
X40333Y-49744D01*
X40345Y-49714D01*
X40360Y-49678D01*
X40372Y-49652D01*
X40378Y-49641D01*
X40388Y-49637D01*
X40415Y-49630D01*
X40454Y-49622D01*
X40500Y-49614D01*
X40544Y-49606D01*
X40584Y-49598D01*
X40613Y-49593D01*
X40626Y-49590D01*
X40629Y-49588D01*
X40631Y-49582D01*
X40633Y-49568D01*
X40634Y-49544D01*
X40634Y-49506D01*
X40634Y-49451D01*
X40634Y-49445D01*
X40634Y-49392D01*
X40633Y-49350D01*
X40632Y-49324D01*
X40630Y-49313D01*
X40630Y-49313D01*
X40617Y-49310D01*
X40589Y-49304D01*
X40549Y-49296D01*
X40502Y-49287D01*
X40499Y-49286D01*
X40452Y-49277D01*
X40412Y-49269D01*
X40384Y-49262D01*
X40372Y-49259D01*
X40370Y-49255D01*
X40360Y-49237D01*
X40347Y-49208D01*
X40331Y-49172D01*
X40316Y-49135D01*
X40302Y-49101D01*
X40293Y-49076D01*
X40291Y-49065D01*
X40291Y-49065D01*
X40298Y-49053D01*
X40314Y-49029D01*
X40337Y-48995D01*
X40365Y-48955D01*
X40367Y-48952D01*
X40394Y-48912D01*
X40416Y-48878D01*
X40431Y-48854D01*
X40436Y-48843D01*
X40436Y-48842D01*
X40427Y-48830D01*
X40407Y-48808D01*
X40378Y-48777D01*
X40343Y-48742D01*
X40332Y-48731D01*
X40293Y-48693D01*
X40266Y-48668D01*
X40249Y-48655D01*
X40241Y-48652D01*
X40241Y-48652D01*
X40229Y-48659D01*
X40203Y-48676D01*
X40169Y-48699D01*
X40129Y-48727D01*
X40126Y-48729D01*
X40086Y-48756D01*
X40052Y-48778D01*
X40029Y-48794D01*
X40018Y-48800D01*
X40017Y-48800D01*
X40000Y-48795D01*
X39972Y-48785D01*
X39937Y-48772D01*
X39900Y-48757D01*
X39866Y-48743D01*
X39841Y-48731D01*
X39829Y-48725D01*
X39829Y-48724D01*
X39825Y-48710D01*
X39818Y-48680D01*
X39809Y-48639D01*
X39800Y-48590D01*
X39799Y-48582D01*
X39790Y-48534D01*
X39782Y-48495D01*
X39776Y-48468D01*
X39774Y-48456D01*
X39767Y-48455D01*
X39743Y-48453D01*
X39708Y-48452D01*
X39665Y-48452D01*
X39620Y-48452D01*
X39576Y-48453D01*
X39538Y-48454D01*
X39511Y-48456D01*
X39500Y-48458D01*
X39500Y-48459D01*
X39495Y-48474D01*
X39489Y-48504D01*
X39480Y-48545D01*
X39471Y-48594D01*
X39469Y-48603D01*
X39460Y-48650D01*
X39452Y-48689D01*
X39447Y-48716D01*
X39444Y-48727D01*
X39439Y-48729D01*
X39420Y-48738D01*
X39388Y-48751D01*
X39348Y-48767D01*
X39257Y-48804D01*
X39145Y-48727D01*
X39134Y-48720D01*
X39094Y-48692D01*
X39061Y-48670D01*
X39038Y-48655D01*
X39028Y-48650D01*
X39027Y-48650D01*
X39016Y-48660D01*
X38994Y-48681D01*
X38964Y-48711D01*
X38928Y-48746D01*
X38902Y-48772D01*
X38871Y-48803D01*
X38852Y-48825D01*
X38841Y-48838D01*
X38837Y-48846D01*
X38838Y-48852D01*
X38845Y-48863D01*
X38862Y-48888D01*
X38885Y-48922D01*
X38912Y-48962D01*
X38935Y-48995D01*
X38959Y-49033D01*
X38975Y-49060D01*
X38980Y-49073D01*
X38979Y-49078D01*
X38971Y-49100D01*
X38958Y-49133D01*
X38941Y-49173D01*
X38902Y-49262D01*
X38844Y-49273D01*
X38808Y-49280D01*
X38759Y-49289D01*
X38712Y-49298D01*
X38638Y-49313D01*
X38635Y-49583D01*
X38647Y-49588D01*
X38658Y-49591D01*
X38685Y-49597D01*
X38724Y-49605D01*
X38770Y-49613D01*
X38809Y-49621D01*
X38849Y-49628D01*
X38877Y-49634D01*
X38890Y-49636D01*
X38893Y-49641D01*
X38903Y-49660D01*
X38917Y-49690D01*
X38933Y-49727D01*
X38948Y-49765D01*
X38962Y-49800D01*
X38972Y-49826D01*
X38976Y-49840D01*
X38970Y-49851D01*
X38955Y-49874D01*
X38933Y-49907D01*
X38907Y-49946D01*
X38880Y-49985D01*
X38857Y-50019D01*
X38841Y-50043D01*
X38835Y-50054D01*
X38838Y-50062D01*
X38854Y-50081D01*
X38883Y-50111D01*
X38927Y-50155D01*
X38935Y-50162D01*
X38970Y-50196D01*
X38999Y-50223D01*
X39020Y-50241D01*
X39029Y-50248D01*
G54D11*
X39695Y-42180D02*
X39695Y-41780D01*
X39695Y-41971D02*
X39923Y-41971D01*
X39923Y-42180D02*
X39923Y-41780D01*
X40323Y-42180D02*
X40095Y-42180D01*
X40209Y-42180D02*
X40209Y-41780D01*
X40171Y-41838D01*
X40133Y-41876D01*
X40095Y-41895D01*
X31695Y-49680D02*
X31695Y-49280D01*
X31923Y-49680D01*
X31923Y-49280D01*
X32323Y-49680D02*
X32095Y-49680D01*
X32209Y-49680D02*
X32209Y-49280D01*
X32171Y-49338D01*
X32133Y-49376D01*
X32095Y-49395D01*
X45695Y-49430D02*
X45695Y-49030D01*
X45923Y-49430D01*
X45923Y-49030D01*
X46095Y-49069D02*
X46114Y-49050D01*
X46152Y-49030D01*
X46247Y-49030D01*
X46285Y-49050D01*
X46304Y-49069D01*
X46323Y-49107D01*
X46323Y-49145D01*
X46304Y-49202D01*
X46076Y-49430D01*
X46323Y-49430D01*
X37392Y-51982D02*
X37392Y-51582D01*
X37620Y-51982D01*
X37620Y-51582D01*
X37773Y-51582D02*
X38020Y-51582D01*
X37887Y-51734D01*
X37944Y-51734D01*
X37982Y-51753D01*
X38001Y-51772D01*
X38020Y-51810D01*
X38020Y-51905D01*
X38001Y-51944D01*
X37982Y-51963D01*
X37944Y-51982D01*
X37830Y-51982D01*
X37792Y-51963D01*
X37773Y-51944D01*
X35445Y-58180D02*
X35445Y-57780D01*
X35673Y-58180D01*
X35673Y-57780D01*
X36035Y-57914D02*
X36035Y-58180D01*
X35940Y-57761D02*
X35845Y-58047D01*
X36092Y-58047D01*
X35445Y-55680D02*
X35445Y-55280D01*
X35673Y-55680D01*
X35673Y-55280D01*
X36054Y-55280D02*
X35864Y-55280D01*
X35845Y-55471D01*
X35864Y-55452D01*
X35902Y-55433D01*
X35997Y-55433D01*
X36035Y-55452D01*
X36054Y-55471D01*
X36073Y-55509D01*
X36073Y-55604D01*
X36054Y-55642D01*
X36035Y-55661D01*
X35997Y-55680D01*
X35902Y-55680D01*
X35864Y-55661D01*
X35845Y-55642D01*
X47961Y-51719D02*
X47923Y-51700D01*
X47885Y-51661D01*
X47828Y-51604D01*
X47790Y-51585D01*
X47752Y-51585D01*
X47771Y-51680D02*
X47733Y-51661D01*
X47695Y-51623D01*
X47676Y-51547D01*
X47676Y-51414D01*
X47695Y-51338D01*
X47733Y-51300D01*
X47771Y-51280D01*
X47847Y-51280D01*
X47885Y-51300D01*
X47923Y-51338D01*
X47942Y-51414D01*
X47942Y-51547D01*
X47923Y-51623D01*
X47885Y-51661D01*
X47847Y-51680D01*
X47771Y-51680D01*
X48323Y-51680D02*
X48095Y-51680D01*
X48209Y-51680D02*
X48209Y-51280D01*
X48171Y-51338D01*
X48133Y-51376D01*
X48095Y-51395D01*
X30945Y-53430D02*
X30945Y-53030D01*
X31173Y-53430D01*
X31173Y-53030D01*
X31535Y-53030D02*
X31459Y-53030D01*
X31421Y-53050D01*
X31402Y-53069D01*
X31364Y-53126D01*
X31345Y-53202D01*
X31345Y-53354D01*
X31364Y-53392D01*
X31383Y-53411D01*
X31421Y-53430D01*
X31497Y-53430D01*
X31535Y-53411D01*
X31554Y-53392D01*
X31573Y-53354D01*
X31573Y-53259D01*
X31554Y-53221D01*
X31535Y-53202D01*
X31497Y-53183D01*
X31421Y-53183D01*
X31383Y-53202D01*
X31364Y-53221D01*
X31345Y-53259D01*
X32016Y-51942D02*
X31882Y-51752D01*
X31787Y-51942D02*
X31787Y-51542D01*
X31939Y-51542D01*
X31977Y-51561D01*
X31996Y-51580D01*
X32016Y-51618D01*
X32016Y-51676D01*
X31996Y-51714D01*
X31977Y-51733D01*
X31939Y-51752D01*
X31787Y-51752D01*
X32396Y-51942D02*
X32168Y-51942D01*
X32282Y-51942D02*
X32282Y-51542D01*
X32244Y-51599D01*
X32206Y-51638D01*
X32168Y-51657D01*
X32933Y-59930D02*
X32800Y-59740D01*
X32704Y-59930D02*
X32704Y-59530D01*
X32857Y-59530D01*
X32895Y-59550D01*
X32914Y-59569D01*
X32933Y-59607D01*
X32933Y-59664D01*
X32914Y-59702D01*
X32895Y-59721D01*
X32857Y-59740D01*
X32704Y-59740D01*
X33085Y-59569D02*
X33104Y-59550D01*
X33142Y-59530D01*
X33238Y-59530D01*
X33276Y-59550D01*
X33295Y-59569D01*
X33314Y-59607D01*
X33314Y-59645D01*
X33295Y-59702D01*
X33066Y-59930D01*
X33314Y-59930D01*
X35433Y-51930D02*
X35300Y-51740D01*
X35204Y-51930D02*
X35204Y-51530D01*
X35357Y-51530D01*
X35395Y-51550D01*
X35414Y-51569D01*
X35433Y-51607D01*
X35433Y-51664D01*
X35414Y-51702D01*
X35395Y-51721D01*
X35357Y-51740D01*
X35204Y-51740D01*
X35566Y-51530D02*
X35814Y-51530D01*
X35680Y-51683D01*
X35738Y-51683D01*
X35776Y-51702D01*
X35795Y-51721D01*
X35814Y-51759D01*
X35814Y-51854D01*
X35795Y-51892D01*
X35776Y-51911D01*
X35738Y-51930D01*
X35623Y-51930D01*
X35585Y-51911D01*
X35566Y-51892D01*
X34433Y-59930D02*
X34300Y-59740D01*
X34204Y-59930D02*
X34204Y-59530D01*
X34357Y-59530D01*
X34395Y-59550D01*
X34414Y-59569D01*
X34433Y-59607D01*
X34433Y-59664D01*
X34414Y-59702D01*
X34395Y-59721D01*
X34357Y-59740D01*
X34204Y-59740D01*
X34776Y-59664D02*
X34776Y-59930D01*
X34680Y-59511D02*
X34585Y-59797D01*
X34833Y-59797D01*
X46945Y-51348D02*
X46811Y-51157D01*
X46716Y-51348D02*
X46716Y-50948D01*
X46868Y-50948D01*
X46907Y-50967D01*
X46926Y-50986D01*
X46945Y-51024D01*
X46945Y-51081D01*
X46926Y-51119D01*
X46907Y-51138D01*
X46868Y-51157D01*
X46716Y-51157D01*
X47307Y-50948D02*
X47116Y-50948D01*
X47097Y-51138D01*
X47116Y-51119D01*
X47154Y-51100D01*
X47249Y-51100D01*
X47288Y-51119D01*
X47307Y-51138D01*
X47326Y-51176D01*
X47326Y-51272D01*
X47307Y-51310D01*
X47288Y-51329D01*
X47249Y-51348D01*
X47154Y-51348D01*
X47116Y-51329D01*
X47097Y-51310D01*
X44884Y-53832D02*
X44750Y-53642D01*
X44655Y-53832D02*
X44655Y-53432D01*
X44807Y-53432D01*
X44846Y-53451D01*
X44865Y-53470D01*
X44884Y-53508D01*
X44884Y-53565D01*
X44865Y-53603D01*
X44846Y-53623D01*
X44807Y-53642D01*
X44655Y-53642D01*
X45226Y-53432D02*
X45150Y-53432D01*
X45112Y-53451D01*
X45093Y-53470D01*
X45055Y-53527D01*
X45036Y-53603D01*
X45036Y-53756D01*
X45055Y-53794D01*
X45074Y-53813D01*
X45112Y-53832D01*
X45188Y-53832D01*
X45226Y-53813D01*
X45246Y-53794D01*
X45265Y-53756D01*
X45265Y-53661D01*
X45246Y-53623D01*
X45226Y-53603D01*
X45188Y-53584D01*
X45112Y-53584D01*
X45074Y-53603D01*
X45055Y-53623D01*
X45036Y-53661D01*
X39183Y-47680D02*
X39050Y-47490D01*
X38954Y-47680D02*
X38954Y-47280D01*
X39107Y-47280D01*
X39145Y-47300D01*
X39164Y-47319D01*
X39183Y-47357D01*
X39183Y-47414D01*
X39164Y-47452D01*
X39145Y-47471D01*
X39107Y-47490D01*
X38954Y-47490D01*
X39316Y-47280D02*
X39583Y-47280D01*
X39411Y-47680D01*
X41445Y-49280D02*
X41445Y-49604D01*
X41464Y-49642D01*
X41483Y-49661D01*
X41521Y-49680D01*
X41597Y-49680D01*
X41635Y-49661D01*
X41654Y-49642D01*
X41673Y-49604D01*
X41673Y-49280D01*
X42073Y-49680D02*
X41845Y-49680D01*
X41959Y-49680D02*
X41959Y-49280D01*
X41921Y-49338D01*
X41883Y-49376D01*
X41845Y-49395D01*
X37695Y-49280D02*
X37695Y-49604D01*
X37714Y-49642D01*
X37733Y-49661D01*
X37771Y-49680D01*
X37847Y-49680D01*
X37885Y-49661D01*
X37904Y-49642D01*
X37923Y-49604D01*
X37923Y-49280D01*
X38095Y-49319D02*
X38114Y-49300D01*
X38152Y-49280D01*
X38247Y-49280D01*
X38285Y-49300D01*
X38304Y-49319D01*
X38323Y-49357D01*
X38323Y-49395D01*
X38304Y-49452D01*
X38076Y-49680D01*
X38323Y-49680D01*
X36433Y-51392D02*
X36414Y-51411D01*
X36357Y-51430D01*
X36319Y-51430D01*
X36261Y-51411D01*
X36223Y-51373D01*
X36204Y-51335D01*
X36185Y-51259D01*
X36185Y-51202D01*
X36204Y-51126D01*
X36223Y-51088D01*
X36261Y-51050D01*
X36319Y-51030D01*
X36357Y-51030D01*
X36414Y-51050D01*
X36433Y-51069D01*
X36814Y-51430D02*
X36585Y-51430D01*
X36700Y-51430D02*
X36700Y-51030D01*
X36661Y-51088D01*
X36623Y-51126D01*
X36585Y-51145D01*
X41764Y-50388D02*
X41744Y-50407D01*
X41687Y-50427D01*
X41649Y-50427D01*
X41592Y-50407D01*
X41554Y-50369D01*
X41535Y-50331D01*
X41516Y-50255D01*
X41516Y-50198D01*
X41535Y-50122D01*
X41554Y-50084D01*
X41592Y-50046D01*
X41649Y-50027D01*
X41687Y-50027D01*
X41744Y-50046D01*
X41764Y-50065D01*
X41916Y-50065D02*
X41935Y-50046D01*
X41973Y-50027D01*
X42068Y-50027D01*
X42106Y-50046D01*
X42125Y-50065D01*
X42144Y-50103D01*
X42144Y-50141D01*
X42125Y-50198D01*
X41897Y-50427D01*
X42144Y-50427D01*
M02*
