M48
;DRILL file {kicad (2014-jan-25)-product} date Sun 13 Jul 2014 04:48:38 PM PDT
;FORMAT={2:4/ absolute / inch / suppress leading zeros}
FMAT,2
INCH,TZ
T1C0.025
T2C0.030
T3C0.032
T4C0.032
T5C0.039
T6C0.040
T7C0.125
%
G90
G05
M72
T1
X31500Y-46000
X33500Y-44000
X34500Y-47000
X36300Y-45550
X36300Y-46500
X36900Y-42150
X37000Y-50250
X40000Y-53250
X40750Y-53750
X41250Y-57500
X41750Y-53750
X45000Y-52250
X45500Y-44000
X45750Y-45000
X47250Y-51750
T2
X48250Y-52750
X49000Y-52250
X49000Y-53250
T3
X36000Y-50250
X37000Y-50250
X42750Y-50250
X43750Y-50250
T4
X35000Y-42500
X35000Y-43500
X35000Y-44500
X35000Y-45500
X35000Y-46500
X35000Y-47500
X35000Y-48500
X38000Y-42500
X38000Y-43500
X38000Y-44500
X38000Y-45500
X38000Y-46500
X38000Y-47500
X38000Y-48500
X41750Y-42500
X41750Y-43500
X41750Y-44500
X41750Y-45500
X41750Y-46500
X41750Y-47500
X41750Y-48500
X44750Y-42500
X44750Y-43500
X44750Y-44500
X44750Y-45500
X44750Y-46500
X44750Y-47500
X44750Y-48500
T5
X33000Y-49719
X33000Y-53719
X33000Y-54969
X33000Y-58969
X34500Y-49719
X34500Y-53719
X34500Y-54969
X34500Y-58969
X40500Y-43969
X40500Y-47969
X42781Y-52750
X44969Y-50250
X46781Y-52750
X48969Y-50250
T6
X31250Y-54250
X31250Y-55250
X31250Y-56250
X31250Y-57250
X31250Y-58250
X31250Y-59250
X32000Y-41500
X32000Y-42500
X32000Y-43500
X32000Y-44500
X32000Y-45500
X32000Y-46500
X32000Y-47500
X32000Y-48500
X33000Y-41500
X33000Y-42500
X33000Y-43500
X33000Y-44500
X33000Y-45500
X33000Y-46500
X33000Y-47500
X33000Y-48500
X36750Y-55000
X36750Y-56000
X36750Y-58250
X36750Y-59250
X37750Y-55000
X37750Y-56000
X37750Y-58250
X37750Y-59250
X38750Y-51750
X38750Y-55000
X38750Y-56000
X38750Y-58250
X38750Y-59250
X39750Y-51750
X39750Y-55000
X39750Y-56000
X39750Y-58250
X39750Y-59250
X40750Y-51750
X40750Y-55000
X40750Y-56000
X40750Y-58250
X40750Y-59250
X41750Y-55000
X41750Y-56000
X41750Y-58250
X41750Y-59250
X42750Y-55000
X42750Y-56000
X42750Y-58250
X42750Y-59250
X43750Y-55000
X43750Y-56000
X43750Y-58250
X43750Y-59250
X44750Y-55000
X44750Y-56000
X44750Y-58250
X44750Y-59250
X45750Y-55000
X45750Y-56000
X45750Y-58250
X45750Y-59250
X46750Y-55000
X46750Y-56000
X46750Y-58250
X46750Y-59250
X47000Y-41500
X47000Y-42500
X47000Y-43500
X47000Y-44500
X47000Y-45500
X47000Y-46500
X47000Y-47500
X47000Y-48500
X47750Y-55000
X47750Y-56000
X47750Y-58250
X47750Y-59250
X48000Y-41500
X48000Y-42500
X48000Y-43500
X48000Y-44500
X48000Y-45500
X48000Y-46500
X48000Y-47500
X48000Y-48500
X48750Y-55000
X48750Y-56000
X48750Y-58250
X48750Y-59250
T7
X40000Y-42000
T0
M30
