%FSLAX34Y34*%
G04 Gerber Fmt 3.4, Leading zero omitted, Abs format*
G04 (created by PCBNEW (2014-jan-25)-product) date Sun 13 Jul 2014 08:25:13 AM PDT*
%MOIN*%
G01*
G70*
G90*
G04 APERTURE LIST*
%ADD10C,0.003937*%
%ADD11R,0.068000X0.068000*%
%ADD12O,0.068000X0.068000*%
%ADD13C,0.060000*%
%ADD14C,0.068000*%
%ADD15C,0.078700*%
%ADD16R,0.055000X0.055000*%
%ADD17C,0.055000*%
%ADD18C,0.059100*%
%ADD19C,0.236220*%
%ADD20C,0.035000*%
%ADD21C,0.040000*%
%ADD22C,0.010000*%
G04 APERTURE END LIST*
G54D10*
G54D11*
X32000Y-41500D03*
G54D12*
X33000Y-41500D03*
X32000Y-42500D03*
X33000Y-42500D03*
X32000Y-43500D03*
X33000Y-43500D03*
X32000Y-44500D03*
X33000Y-44500D03*
X32000Y-45500D03*
X33000Y-45500D03*
X32000Y-46500D03*
X33000Y-46500D03*
X32000Y-47500D03*
X33000Y-47500D03*
X32000Y-48500D03*
X33000Y-48500D03*
G54D11*
X47000Y-41500D03*
G54D12*
X48000Y-41500D03*
X47000Y-42500D03*
X48000Y-42500D03*
X47000Y-43500D03*
X48000Y-43500D03*
X47000Y-44500D03*
X48000Y-44500D03*
X47000Y-45500D03*
X48000Y-45500D03*
X47000Y-46500D03*
X48000Y-46500D03*
X47000Y-47500D03*
X48000Y-47500D03*
X47000Y-48500D03*
X48000Y-48500D03*
G54D11*
X36750Y-59250D03*
G54D12*
X36750Y-58250D03*
X37750Y-59250D03*
X37750Y-58250D03*
X38750Y-59250D03*
X38750Y-58250D03*
X39750Y-59250D03*
X39750Y-58250D03*
X40750Y-59250D03*
X40750Y-58250D03*
X41750Y-59250D03*
X41750Y-58250D03*
X42750Y-59250D03*
X42750Y-58250D03*
X43750Y-59250D03*
X43750Y-58250D03*
X44750Y-59250D03*
X44750Y-58250D03*
X45750Y-59250D03*
X45750Y-58250D03*
X46750Y-59250D03*
X46750Y-58250D03*
X47750Y-59250D03*
X47750Y-58250D03*
X48750Y-59250D03*
X48750Y-58250D03*
G54D11*
X36750Y-56000D03*
G54D12*
X36750Y-55000D03*
X37750Y-56000D03*
X37750Y-55000D03*
X38750Y-56000D03*
X38750Y-55000D03*
X39750Y-56000D03*
X39750Y-55000D03*
X40750Y-56000D03*
X40750Y-55000D03*
X41750Y-56000D03*
X41750Y-55000D03*
X42750Y-56000D03*
X42750Y-55000D03*
X43750Y-56000D03*
X43750Y-55000D03*
X44750Y-56000D03*
X44750Y-55000D03*
X45750Y-56000D03*
X45750Y-55000D03*
X46750Y-56000D03*
X46750Y-55000D03*
X47750Y-56000D03*
X47750Y-55000D03*
X48750Y-56000D03*
X48750Y-55000D03*
G54D13*
X49000Y-53250D03*
X48250Y-52750D03*
X49000Y-52250D03*
G54D11*
X31250Y-59250D03*
G54D14*
X31250Y-58250D03*
X31250Y-57250D03*
X31250Y-56250D03*
X31250Y-55250D03*
X31250Y-54250D03*
G54D15*
X33000Y-53719D03*
X33000Y-49719D03*
X33000Y-58969D03*
X33000Y-54969D03*
X34500Y-53719D03*
X34500Y-49719D03*
X34500Y-58969D03*
X34500Y-54969D03*
X48969Y-50250D03*
X44969Y-50250D03*
X42781Y-52750D03*
X46781Y-52750D03*
X40500Y-47969D03*
X40500Y-43969D03*
G54D16*
X41750Y-42500D03*
G54D17*
X41750Y-43500D03*
X41750Y-44500D03*
X41750Y-45500D03*
X41750Y-46500D03*
X41750Y-47500D03*
X41750Y-48500D03*
X44750Y-48500D03*
X44750Y-47500D03*
X44750Y-46500D03*
X44750Y-45500D03*
X44750Y-44500D03*
X44750Y-43500D03*
X44750Y-42500D03*
G54D16*
X35000Y-42500D03*
G54D17*
X35000Y-43500D03*
X35000Y-44500D03*
X35000Y-45500D03*
X35000Y-46500D03*
X35000Y-47500D03*
X35000Y-48500D03*
X38000Y-48500D03*
X38000Y-47500D03*
X38000Y-46500D03*
X38000Y-45500D03*
X38000Y-44500D03*
X38000Y-43500D03*
X38000Y-42500D03*
G54D18*
X37000Y-50250D03*
X36000Y-50250D03*
X43750Y-50250D03*
X42750Y-50250D03*
G54D19*
X40000Y-42000D03*
G54D11*
X40750Y-51750D03*
G54D14*
X39750Y-51750D03*
X38750Y-51750D03*
G54D20*
X47250Y-51750D03*
X45500Y-44000D03*
X34500Y-47000D03*
X33500Y-44000D03*
X36300Y-45550D03*
X36300Y-46500D03*
X36900Y-42150D03*
X41250Y-57500D03*
X37000Y-50250D03*
X40000Y-53250D03*
X45000Y-52250D03*
X40750Y-53750D03*
X41750Y-53750D03*
X45750Y-45000D03*
X31500Y-46000D03*
G54D21*
X33000Y-48500D02*
X32000Y-48500D01*
X48000Y-41500D02*
X47000Y-41500D01*
X40750Y-51750D02*
X47250Y-51750D01*
X48000Y-48500D02*
X47000Y-48500D01*
G54D22*
X32500Y-42000D02*
X32000Y-41500D01*
X45500Y-44000D02*
X41500Y-44000D01*
X32500Y-44750D02*
X32750Y-45000D01*
X32750Y-45000D02*
X40500Y-45000D01*
X32500Y-42000D02*
X32500Y-44750D01*
X40500Y-45000D02*
X41500Y-44000D01*
X38250Y-47000D02*
X34500Y-47000D01*
X41750Y-47500D02*
X40750Y-46500D01*
X40750Y-46500D02*
X38750Y-46500D01*
X38750Y-46500D02*
X38250Y-47000D01*
X33500Y-44000D02*
X34000Y-43500D01*
X34000Y-43500D02*
X35000Y-43500D01*
X40500Y-45750D02*
X41750Y-44500D01*
X34500Y-46000D02*
X38250Y-46000D01*
X33000Y-47500D02*
X34500Y-46000D01*
X38500Y-45750D02*
X40500Y-45750D01*
X38250Y-46000D02*
X38500Y-45750D01*
X48250Y-51500D02*
X48250Y-50000D01*
X48250Y-50000D02*
X48750Y-49500D01*
X48750Y-49500D02*
X48750Y-45250D01*
X48750Y-45250D02*
X48000Y-44500D01*
X49000Y-52250D02*
X48250Y-51500D01*
G54D21*
X44000Y-56750D02*
X44750Y-56000D01*
X37500Y-56750D02*
X44000Y-56750D01*
X36750Y-56000D02*
X37500Y-56750D01*
X39100Y-41100D02*
X40000Y-42000D01*
X37950Y-41100D02*
X39100Y-41100D01*
X36900Y-42150D02*
X37950Y-41100D01*
X48000Y-43500D02*
X47000Y-43500D01*
X40750Y-59250D02*
X40750Y-60000D01*
X48750Y-59250D02*
X48750Y-60000D01*
X49500Y-59250D02*
X48750Y-59250D01*
X39750Y-51750D02*
X39250Y-51250D01*
X39250Y-52250D02*
X39750Y-51750D01*
X36000Y-50250D02*
X36500Y-50750D01*
X36500Y-49750D02*
X36000Y-50250D01*
X34500Y-48000D02*
X35000Y-48500D01*
X35000Y-48500D02*
X35500Y-48000D01*
X42750Y-50250D02*
X42250Y-50750D01*
X43250Y-50750D02*
X42750Y-50250D01*
X49000Y-43500D02*
X48000Y-43500D01*
X47000Y-43500D02*
X45750Y-43500D01*
X42781Y-52750D02*
X42781Y-52781D01*
X42781Y-52750D02*
X42750Y-52750D01*
X42781Y-52750D02*
X42750Y-52750D01*
X31250Y-59250D02*
X32000Y-59250D01*
X32969Y-58969D02*
X33000Y-58969D01*
X32500Y-58500D02*
X32969Y-58969D01*
X33500Y-59469D02*
X33500Y-59500D01*
X33000Y-58969D02*
X33500Y-59469D01*
X34531Y-58969D02*
X34500Y-58969D01*
X35000Y-58500D02*
X34531Y-58969D01*
X34000Y-59469D02*
X34000Y-59500D01*
X34500Y-58969D02*
X34000Y-59469D01*
X45750Y-57500D02*
X45750Y-58250D01*
X42750Y-57500D02*
X45750Y-57500D01*
X42750Y-58250D02*
X42750Y-57500D01*
X41250Y-57500D02*
X42750Y-57500D01*
X38750Y-57500D02*
X41250Y-57500D01*
X38750Y-58250D02*
X38750Y-57500D01*
X46500Y-56750D02*
X45750Y-57500D01*
X48750Y-56750D02*
X46500Y-56750D01*
X48750Y-56000D02*
X48750Y-56750D01*
X42750Y-54250D02*
X42750Y-55000D01*
X38750Y-54250D02*
X42750Y-54250D01*
X38750Y-55000D02*
X38750Y-54250D01*
X45750Y-54250D02*
X42750Y-54250D01*
X45750Y-55000D02*
X45750Y-54250D01*
X48000Y-54250D02*
X45750Y-54250D01*
X49000Y-53250D02*
X48000Y-54250D01*
X49500Y-56750D02*
X49500Y-59250D01*
X48750Y-56750D02*
X49500Y-56750D01*
X49500Y-53750D02*
X49000Y-53250D01*
X49500Y-56000D02*
X49500Y-53750D01*
X48750Y-56000D02*
X49500Y-56000D01*
X45000Y-46250D02*
X45500Y-46250D01*
X44750Y-46500D02*
X45000Y-46250D01*
X44500Y-46750D02*
X44000Y-46750D01*
X44750Y-46500D02*
X44500Y-46750D01*
X42000Y-48250D02*
X42500Y-48250D01*
X41750Y-48500D02*
X42000Y-48250D01*
X49250Y-53000D02*
X49500Y-53000D01*
X49000Y-53250D02*
X49250Y-53000D01*
X42531Y-52500D02*
X41750Y-52500D01*
X42781Y-52750D02*
X42531Y-52500D01*
X41500Y-48750D02*
X41000Y-48750D01*
X41750Y-48500D02*
X41500Y-48750D01*
X38750Y-51750D02*
X38500Y-51750D01*
X38500Y-51750D02*
X37000Y-50250D01*
X37750Y-58250D02*
X36750Y-58250D01*
X36000Y-57500D02*
X36750Y-58250D01*
X36000Y-55500D02*
X36000Y-57500D01*
X36500Y-55000D02*
X36000Y-55500D01*
X36750Y-55000D02*
X36500Y-55000D01*
X37750Y-55000D02*
X36750Y-55000D01*
X42000Y-49500D02*
X43000Y-49500D01*
X43000Y-49500D02*
X43750Y-50250D01*
X41250Y-50250D02*
X42000Y-49500D01*
X37000Y-50250D02*
X41250Y-50250D01*
G54D22*
X40000Y-53250D02*
X42000Y-53250D01*
X42000Y-53250D02*
X42250Y-53500D01*
X42250Y-53500D02*
X43750Y-53500D01*
X43750Y-53500D02*
X45000Y-52250D01*
X33000Y-53500D02*
X33000Y-53719D01*
X40750Y-53750D02*
X38250Y-53750D01*
X38250Y-53750D02*
X37500Y-53000D01*
X37500Y-53000D02*
X33500Y-53000D01*
X33500Y-53000D02*
X33000Y-53500D01*
X41750Y-53750D02*
X44149Y-53750D01*
X45149Y-52750D02*
X44149Y-53750D01*
X46781Y-52750D02*
X45149Y-52750D01*
X38000Y-54500D02*
X36000Y-54500D01*
X38250Y-54750D02*
X38000Y-54500D01*
X38250Y-55250D02*
X38250Y-54750D01*
X38500Y-55500D02*
X38250Y-55250D01*
X46250Y-55500D02*
X38500Y-55500D01*
X46750Y-56000D02*
X46250Y-55500D01*
X35750Y-54750D02*
X36000Y-54500D01*
X34719Y-54750D02*
X35750Y-54750D01*
X34500Y-54969D02*
X34719Y-54750D01*
X45750Y-45000D02*
X42250Y-45000D01*
X42250Y-45000D02*
X41750Y-45500D01*
X33750Y-46000D02*
X34250Y-45500D01*
X34250Y-45500D02*
X35000Y-45500D01*
X31500Y-46000D02*
X33750Y-46000D01*
G36*
X37514Y-45700D02*
X35485Y-45700D01*
X35524Y-45604D01*
X35525Y-45396D01*
X35485Y-45300D01*
X37514Y-45300D01*
X37475Y-45395D01*
X37474Y-45603D01*
X37514Y-45700D01*
X37514Y-45700D01*
G37*
X37514Y-45700D02*
X35485Y-45700D01*
X35524Y-45604D01*
X35525Y-45396D01*
X35485Y-45300D01*
X37514Y-45300D01*
X37475Y-45395D01*
X37474Y-45603D01*
X37514Y-45700D01*
G36*
X37514Y-46700D02*
X35485Y-46700D01*
X35524Y-46604D01*
X35525Y-46396D01*
X35485Y-46300D01*
X37514Y-46300D01*
X37475Y-46395D01*
X37474Y-46603D01*
X37514Y-46700D01*
X37514Y-46700D01*
G37*
X37514Y-46700D02*
X35485Y-46700D01*
X35524Y-46604D01*
X35525Y-46396D01*
X35485Y-46300D01*
X37514Y-46300D01*
X37475Y-46395D01*
X37474Y-46603D01*
X37514Y-46700D01*
G36*
X38950Y-40965D02*
X38731Y-41090D01*
X38479Y-41645D01*
X38460Y-42239D01*
X38445Y-42203D01*
X38297Y-42055D01*
X38104Y-41975D01*
X37896Y-41974D01*
X37703Y-42054D01*
X37555Y-42202D01*
X37475Y-42395D01*
X37474Y-42603D01*
X37554Y-42797D01*
X37702Y-42944D01*
X37835Y-43000D01*
X37703Y-43054D01*
X37555Y-43202D01*
X37475Y-43395D01*
X37474Y-43603D01*
X37554Y-43797D01*
X37702Y-43944D01*
X37835Y-44000D01*
X37703Y-44054D01*
X37555Y-44202D01*
X37475Y-44395D01*
X37474Y-44603D01*
X37514Y-44700D01*
X35485Y-44700D01*
X35524Y-44604D01*
X35525Y-44396D01*
X35445Y-44203D01*
X35297Y-44055D01*
X35164Y-43999D01*
X35297Y-43945D01*
X35444Y-43797D01*
X35524Y-43604D01*
X35525Y-43396D01*
X35445Y-43203D01*
X35297Y-43055D01*
X35225Y-43025D01*
X35324Y-43025D01*
X35416Y-42986D01*
X35486Y-42916D01*
X35525Y-42824D01*
X35525Y-42725D01*
X35525Y-42175D01*
X35486Y-42083D01*
X35416Y-42013D01*
X35324Y-41975D01*
X35225Y-41975D01*
X34675Y-41975D01*
X34583Y-42013D01*
X34513Y-42083D01*
X34475Y-42175D01*
X34475Y-42274D01*
X34475Y-42824D01*
X34513Y-42916D01*
X34583Y-42986D01*
X34675Y-43025D01*
X34774Y-43025D01*
X34774Y-43025D01*
X34703Y-43054D01*
X34557Y-43200D01*
X34000Y-43200D01*
X33885Y-43222D01*
X33787Y-43287D01*
X33589Y-43486D01*
X33545Y-43262D01*
X33417Y-43071D01*
X33310Y-43000D01*
X33417Y-42928D01*
X33545Y-42737D01*
X33590Y-42511D01*
X33590Y-42488D01*
X33545Y-42262D01*
X33417Y-42071D01*
X33310Y-42000D01*
X33417Y-41928D01*
X33545Y-41737D01*
X33590Y-41511D01*
X33590Y-41488D01*
X33545Y-41262D01*
X33417Y-41071D01*
X33225Y-40943D01*
X33144Y-40927D01*
X38913Y-40927D01*
X38950Y-40965D01*
X38950Y-40965D01*
G37*
X38950Y-40965D02*
X38731Y-41090D01*
X38479Y-41645D01*
X38460Y-42239D01*
X38445Y-42203D01*
X38297Y-42055D01*
X38104Y-41975D01*
X37896Y-41974D01*
X37703Y-42054D01*
X37555Y-42202D01*
X37475Y-42395D01*
X37474Y-42603D01*
X37554Y-42797D01*
X37702Y-42944D01*
X37835Y-43000D01*
X37703Y-43054D01*
X37555Y-43202D01*
X37475Y-43395D01*
X37474Y-43603D01*
X37554Y-43797D01*
X37702Y-43944D01*
X37835Y-44000D01*
X37703Y-44054D01*
X37555Y-44202D01*
X37475Y-44395D01*
X37474Y-44603D01*
X37514Y-44700D01*
X35485Y-44700D01*
X35524Y-44604D01*
X35525Y-44396D01*
X35445Y-44203D01*
X35297Y-44055D01*
X35164Y-43999D01*
X35297Y-43945D01*
X35444Y-43797D01*
X35524Y-43604D01*
X35525Y-43396D01*
X35445Y-43203D01*
X35297Y-43055D01*
X35225Y-43025D01*
X35324Y-43025D01*
X35416Y-42986D01*
X35486Y-42916D01*
X35525Y-42824D01*
X35525Y-42725D01*
X35525Y-42175D01*
X35486Y-42083D01*
X35416Y-42013D01*
X35324Y-41975D01*
X35225Y-41975D01*
X34675Y-41975D01*
X34583Y-42013D01*
X34513Y-42083D01*
X34475Y-42175D01*
X34475Y-42274D01*
X34475Y-42824D01*
X34513Y-42916D01*
X34583Y-42986D01*
X34675Y-43025D01*
X34774Y-43025D01*
X34774Y-43025D01*
X34703Y-43054D01*
X34557Y-43200D01*
X34000Y-43200D01*
X33885Y-43222D01*
X33787Y-43287D01*
X33589Y-43486D01*
X33545Y-43262D01*
X33417Y-43071D01*
X33310Y-43000D01*
X33417Y-42928D01*
X33545Y-42737D01*
X33590Y-42511D01*
X33590Y-42488D01*
X33545Y-42262D01*
X33417Y-42071D01*
X33310Y-42000D01*
X33417Y-41928D01*
X33545Y-41737D01*
X33590Y-41511D01*
X33590Y-41488D01*
X33545Y-41262D01*
X33417Y-41071D01*
X33225Y-40943D01*
X33144Y-40927D01*
X38913Y-40927D01*
X38950Y-40965D01*
G36*
X40767Y-56010D02*
X40760Y-56010D01*
X40760Y-56017D01*
X40740Y-56017D01*
X40740Y-56010D01*
X40732Y-56010D01*
X40732Y-55990D01*
X40740Y-55990D01*
X40740Y-55982D01*
X40760Y-55982D01*
X40760Y-55990D01*
X40767Y-55990D01*
X40767Y-56010D01*
X40767Y-56010D01*
G37*
X40767Y-56010D02*
X40760Y-56010D01*
X40760Y-56017D01*
X40740Y-56017D01*
X40740Y-56010D01*
X40732Y-56010D01*
X40732Y-55990D01*
X40740Y-55990D01*
X40740Y-55982D01*
X40760Y-55982D01*
X40760Y-55990D01*
X40767Y-55990D01*
X40767Y-56010D01*
G36*
X41524Y-43025D02*
X41453Y-43054D01*
X41305Y-43202D01*
X41225Y-43395D01*
X41224Y-43603D01*
X41298Y-43781D01*
X41298Y-43781D01*
X41287Y-43787D01*
X41143Y-43932D01*
X41143Y-43841D01*
X41045Y-43604D01*
X40864Y-43423D01*
X40721Y-43364D01*
X40824Y-43325D01*
X40909Y-43268D01*
X41034Y-43049D01*
X40000Y-42014D01*
X38965Y-43049D01*
X39090Y-43268D01*
X39645Y-43520D01*
X40026Y-43532D01*
X39954Y-43604D01*
X39856Y-43840D01*
X39856Y-44096D01*
X39954Y-44333D01*
X40135Y-44514D01*
X40371Y-44612D01*
X40463Y-44612D01*
X40375Y-44700D01*
X38485Y-44700D01*
X38524Y-44604D01*
X38525Y-44396D01*
X38445Y-44203D01*
X38297Y-44055D01*
X38164Y-43999D01*
X38297Y-43945D01*
X38444Y-43797D01*
X38524Y-43604D01*
X38525Y-43396D01*
X38445Y-43203D01*
X38297Y-43055D01*
X38164Y-42999D01*
X38297Y-42945D01*
X38444Y-42797D01*
X38524Y-42604D01*
X38525Y-42427D01*
X38674Y-42824D01*
X38731Y-42909D01*
X38950Y-43034D01*
X39985Y-42000D01*
X39980Y-41994D01*
X39994Y-41980D01*
X40000Y-41985D01*
X40005Y-41980D01*
X40019Y-41994D01*
X40014Y-42000D01*
X41049Y-43034D01*
X41261Y-42913D01*
X41263Y-42916D01*
X41333Y-42986D01*
X41425Y-43025D01*
X41524Y-43025D01*
X41524Y-43025D01*
X41524Y-43025D01*
G37*
X41524Y-43025D02*
X41453Y-43054D01*
X41305Y-43202D01*
X41225Y-43395D01*
X41224Y-43603D01*
X41298Y-43781D01*
X41298Y-43781D01*
X41287Y-43787D01*
X41143Y-43932D01*
X41143Y-43841D01*
X41045Y-43604D01*
X40864Y-43423D01*
X40721Y-43364D01*
X40824Y-43325D01*
X40909Y-43268D01*
X41034Y-43049D01*
X40000Y-42014D01*
X38965Y-43049D01*
X39090Y-43268D01*
X39645Y-43520D01*
X40026Y-43532D01*
X39954Y-43604D01*
X39856Y-43840D01*
X39856Y-44096D01*
X39954Y-44333D01*
X40135Y-44514D01*
X40371Y-44612D01*
X40463Y-44612D01*
X40375Y-44700D01*
X38485Y-44700D01*
X38524Y-44604D01*
X38525Y-44396D01*
X38445Y-44203D01*
X38297Y-44055D01*
X38164Y-43999D01*
X38297Y-43945D01*
X38444Y-43797D01*
X38524Y-43604D01*
X38525Y-43396D01*
X38445Y-43203D01*
X38297Y-43055D01*
X38164Y-42999D01*
X38297Y-42945D01*
X38444Y-42797D01*
X38524Y-42604D01*
X38525Y-42427D01*
X38674Y-42824D01*
X38731Y-42909D01*
X38950Y-43034D01*
X39985Y-42000D01*
X39980Y-41994D01*
X39994Y-41980D01*
X40000Y-41985D01*
X40005Y-41980D01*
X40019Y-41994D01*
X40014Y-42000D01*
X41049Y-43034D01*
X41261Y-42913D01*
X41263Y-42916D01*
X41333Y-42986D01*
X41425Y-43025D01*
X41524Y-43025D01*
X41524Y-43025D01*
G36*
X49572Y-60072D02*
X49429Y-60072D01*
X49429Y-59367D01*
X49429Y-59132D01*
X49429Y-56117D01*
X49352Y-56010D01*
X48760Y-56010D01*
X48760Y-56602D01*
X48867Y-56679D01*
X49119Y-56583D01*
X49314Y-56397D01*
X49423Y-56151D01*
X49429Y-56117D01*
X49429Y-59132D01*
X49423Y-59098D01*
X49314Y-58852D01*
X49143Y-58690D01*
X49178Y-58667D01*
X49306Y-58475D01*
X49351Y-58250D01*
X49306Y-58024D01*
X49178Y-57832D01*
X48987Y-57704D01*
X48761Y-57660D01*
X48738Y-57660D01*
X48512Y-57704D01*
X48321Y-57832D01*
X48250Y-57939D01*
X48178Y-57832D01*
X47987Y-57704D01*
X47761Y-57660D01*
X47738Y-57660D01*
X47512Y-57704D01*
X47321Y-57832D01*
X47250Y-57939D01*
X47178Y-57832D01*
X46987Y-57704D01*
X46761Y-57660D01*
X46738Y-57660D01*
X46512Y-57704D01*
X46321Y-57832D01*
X46310Y-57849D01*
X46119Y-57666D01*
X45867Y-57570D01*
X45760Y-57647D01*
X45760Y-58240D01*
X45767Y-58240D01*
X45767Y-58260D01*
X45760Y-58260D01*
X45760Y-58267D01*
X45740Y-58267D01*
X45740Y-58260D01*
X45732Y-58260D01*
X45732Y-58240D01*
X45740Y-58240D01*
X45740Y-57647D01*
X45632Y-57570D01*
X45380Y-57666D01*
X45189Y-57849D01*
X45178Y-57832D01*
X44987Y-57704D01*
X44761Y-57660D01*
X44738Y-57660D01*
X44512Y-57704D01*
X44321Y-57832D01*
X44250Y-57939D01*
X44178Y-57832D01*
X43987Y-57704D01*
X43761Y-57660D01*
X43738Y-57660D01*
X43512Y-57704D01*
X43321Y-57832D01*
X43310Y-57849D01*
X43119Y-57666D01*
X42867Y-57570D01*
X42760Y-57647D01*
X42760Y-58240D01*
X42767Y-58240D01*
X42767Y-58260D01*
X42760Y-58260D01*
X42760Y-58267D01*
X42740Y-58267D01*
X42740Y-58260D01*
X42732Y-58260D01*
X42732Y-58240D01*
X42740Y-58240D01*
X42740Y-57647D01*
X42632Y-57570D01*
X42380Y-57666D01*
X42189Y-57849D01*
X42178Y-57832D01*
X41987Y-57704D01*
X41761Y-57660D01*
X41738Y-57660D01*
X41512Y-57704D01*
X41321Y-57832D01*
X41250Y-57939D01*
X41178Y-57832D01*
X40987Y-57704D01*
X40761Y-57660D01*
X40738Y-57660D01*
X40512Y-57704D01*
X40321Y-57832D01*
X40250Y-57939D01*
X40178Y-57832D01*
X39987Y-57704D01*
X39761Y-57660D01*
X39738Y-57660D01*
X39512Y-57704D01*
X39321Y-57832D01*
X39310Y-57849D01*
X39119Y-57666D01*
X38867Y-57570D01*
X38760Y-57647D01*
X38760Y-58240D01*
X38767Y-58240D01*
X38767Y-58260D01*
X38760Y-58260D01*
X38760Y-58267D01*
X38740Y-58267D01*
X38740Y-58260D01*
X38732Y-58260D01*
X38732Y-58240D01*
X38740Y-58240D01*
X38740Y-57647D01*
X38632Y-57570D01*
X38380Y-57666D01*
X38189Y-57849D01*
X38178Y-57832D01*
X37987Y-57704D01*
X37761Y-57660D01*
X37738Y-57660D01*
X37512Y-57704D01*
X37370Y-57800D01*
X37129Y-57800D01*
X36987Y-57704D01*
X36805Y-57668D01*
X36450Y-57313D01*
X36450Y-56590D01*
X36459Y-56590D01*
X36703Y-56590D01*
X37181Y-57068D01*
X37327Y-57165D01*
X37500Y-57200D01*
X44000Y-57200D01*
X44172Y-57165D01*
X44318Y-57068D01*
X44805Y-56581D01*
X44987Y-56545D01*
X45178Y-56417D01*
X45250Y-56310D01*
X45321Y-56417D01*
X45512Y-56545D01*
X45738Y-56590D01*
X45761Y-56590D01*
X45987Y-56545D01*
X46178Y-56417D01*
X46250Y-56310D01*
X46321Y-56417D01*
X46512Y-56545D01*
X46738Y-56590D01*
X46761Y-56590D01*
X46987Y-56545D01*
X47178Y-56417D01*
X47250Y-56310D01*
X47321Y-56417D01*
X47512Y-56545D01*
X47738Y-56590D01*
X47761Y-56590D01*
X47987Y-56545D01*
X48178Y-56417D01*
X48189Y-56400D01*
X48380Y-56583D01*
X48632Y-56679D01*
X48740Y-56602D01*
X48740Y-56010D01*
X48732Y-56010D01*
X48732Y-55990D01*
X48740Y-55990D01*
X48740Y-55982D01*
X48760Y-55982D01*
X48760Y-55990D01*
X49352Y-55990D01*
X49429Y-55882D01*
X49423Y-55848D01*
X49399Y-55795D01*
X49399Y-53663D01*
X49000Y-53264D01*
X48600Y-53663D01*
X48618Y-53791D01*
X48855Y-53896D01*
X49113Y-53902D01*
X49354Y-53809D01*
X49381Y-53791D01*
X49399Y-53663D01*
X49399Y-55795D01*
X49314Y-55602D01*
X49143Y-55440D01*
X49178Y-55417D01*
X49306Y-55225D01*
X49351Y-55000D01*
X49306Y-54774D01*
X49178Y-54582D01*
X48987Y-54454D01*
X48761Y-54410D01*
X48738Y-54410D01*
X48512Y-54454D01*
X48321Y-54582D01*
X48250Y-54689D01*
X48178Y-54582D01*
X47987Y-54454D01*
X47761Y-54410D01*
X47738Y-54410D01*
X47512Y-54454D01*
X47321Y-54582D01*
X47250Y-54689D01*
X47178Y-54582D01*
X46987Y-54454D01*
X46761Y-54410D01*
X46738Y-54410D01*
X46512Y-54454D01*
X46321Y-54582D01*
X46310Y-54599D01*
X46119Y-54416D01*
X45867Y-54320D01*
X45760Y-54397D01*
X45760Y-54990D01*
X45767Y-54990D01*
X45767Y-55010D01*
X45760Y-55010D01*
X45760Y-55017D01*
X45740Y-55017D01*
X45740Y-55010D01*
X45732Y-55010D01*
X45732Y-54990D01*
X45740Y-54990D01*
X45740Y-54397D01*
X45632Y-54320D01*
X45380Y-54416D01*
X45189Y-54599D01*
X45178Y-54582D01*
X44987Y-54454D01*
X44761Y-54410D01*
X44738Y-54410D01*
X44512Y-54454D01*
X44321Y-54582D01*
X44250Y-54689D01*
X44178Y-54582D01*
X43987Y-54454D01*
X43761Y-54410D01*
X43738Y-54410D01*
X43512Y-54454D01*
X43321Y-54582D01*
X43310Y-54599D01*
X43119Y-54416D01*
X42867Y-54320D01*
X42760Y-54397D01*
X42760Y-54990D01*
X42767Y-54990D01*
X42767Y-55010D01*
X42760Y-55010D01*
X42760Y-55017D01*
X42740Y-55017D01*
X42740Y-55010D01*
X42732Y-55010D01*
X42732Y-54990D01*
X42740Y-54990D01*
X42740Y-54397D01*
X42632Y-54320D01*
X42380Y-54416D01*
X42189Y-54599D01*
X42178Y-54582D01*
X41987Y-54454D01*
X41761Y-54410D01*
X41738Y-54410D01*
X41512Y-54454D01*
X41321Y-54582D01*
X41250Y-54689D01*
X41178Y-54582D01*
X40987Y-54454D01*
X40761Y-54410D01*
X40738Y-54410D01*
X40512Y-54454D01*
X40321Y-54582D01*
X40250Y-54689D01*
X40178Y-54582D01*
X39987Y-54454D01*
X39761Y-54410D01*
X39738Y-54410D01*
X39512Y-54454D01*
X39321Y-54582D01*
X39310Y-54599D01*
X39119Y-54416D01*
X38867Y-54320D01*
X38760Y-54397D01*
X38760Y-54990D01*
X38767Y-54990D01*
X38767Y-55010D01*
X38760Y-55010D01*
X38760Y-55017D01*
X38740Y-55017D01*
X38740Y-55010D01*
X38732Y-55010D01*
X38732Y-54990D01*
X38740Y-54990D01*
X38740Y-54397D01*
X38632Y-54320D01*
X38380Y-54416D01*
X38360Y-54436D01*
X38212Y-54287D01*
X38114Y-54222D01*
X38000Y-54200D01*
X36000Y-54200D01*
X35885Y-54222D01*
X35846Y-54248D01*
X35787Y-54287D01*
X35625Y-54450D01*
X34891Y-54450D01*
X34864Y-54423D01*
X34672Y-54343D01*
X34864Y-54264D01*
X35045Y-54083D01*
X35143Y-53847D01*
X35143Y-53591D01*
X35045Y-53354D01*
X34990Y-53300D01*
X37375Y-53300D01*
X38037Y-53962D01*
X38135Y-54027D01*
X38135Y-54027D01*
X38250Y-54050D01*
X40448Y-54050D01*
X40508Y-54110D01*
X40665Y-54174D01*
X40834Y-54175D01*
X40990Y-54110D01*
X41110Y-53991D01*
X41174Y-53834D01*
X41175Y-53665D01*
X41127Y-53550D01*
X41372Y-53550D01*
X41325Y-53665D01*
X41324Y-53834D01*
X41389Y-53990D01*
X41508Y-54110D01*
X41665Y-54174D01*
X41834Y-54175D01*
X41990Y-54110D01*
X42051Y-54050D01*
X44149Y-54050D01*
X44149Y-54049D01*
X44264Y-54027D01*
X44264Y-54027D01*
X44362Y-53962D01*
X45274Y-53050D01*
X46208Y-53050D01*
X46235Y-53114D01*
X46416Y-53295D01*
X46652Y-53393D01*
X46908Y-53393D01*
X47145Y-53295D01*
X47326Y-53114D01*
X47424Y-52878D01*
X47424Y-52622D01*
X47326Y-52385D01*
X47145Y-52204D01*
X47134Y-52200D01*
X47250Y-52200D01*
X47422Y-52165D01*
X47568Y-52068D01*
X47665Y-51922D01*
X47700Y-51750D01*
X47665Y-51577D01*
X47568Y-51431D01*
X47422Y-51334D01*
X47250Y-51300D01*
X45612Y-51300D01*
X45612Y-50122D01*
X45514Y-49885D01*
X45377Y-49748D01*
X45377Y-46390D01*
X45288Y-46158D01*
X45271Y-46133D01*
X45145Y-46118D01*
X44764Y-46500D01*
X45145Y-46881D01*
X45271Y-46866D01*
X45371Y-46639D01*
X45377Y-46390D01*
X45377Y-49748D01*
X45333Y-49704D01*
X45275Y-49680D01*
X45275Y-48396D01*
X45195Y-48203D01*
X45047Y-48055D01*
X44914Y-47999D01*
X45047Y-47945D01*
X45194Y-47797D01*
X45274Y-47604D01*
X45275Y-47396D01*
X45195Y-47203D01*
X45047Y-47055D01*
X45047Y-47055D01*
X45091Y-47038D01*
X45116Y-47021D01*
X45131Y-46895D01*
X44750Y-46514D01*
X44735Y-46528D01*
X44735Y-46500D01*
X44354Y-46118D01*
X44228Y-46133D01*
X44128Y-46360D01*
X44122Y-46609D01*
X44211Y-46841D01*
X44228Y-46866D01*
X44354Y-46881D01*
X44735Y-46500D01*
X44735Y-46528D01*
X44368Y-46895D01*
X44383Y-47021D01*
X44456Y-47053D01*
X44453Y-47054D01*
X44305Y-47202D01*
X44225Y-47395D01*
X44224Y-47603D01*
X44304Y-47797D01*
X44452Y-47944D01*
X44585Y-48000D01*
X44453Y-48054D01*
X44305Y-48202D01*
X44225Y-48395D01*
X44224Y-48603D01*
X44304Y-48797D01*
X44452Y-48944D01*
X44645Y-49024D01*
X44853Y-49025D01*
X45047Y-48945D01*
X45194Y-48797D01*
X45274Y-48604D01*
X45275Y-48396D01*
X45275Y-49680D01*
X45097Y-49606D01*
X44841Y-49606D01*
X44604Y-49704D01*
X44423Y-49885D01*
X44325Y-50121D01*
X44325Y-50377D01*
X44423Y-50614D01*
X44604Y-50795D01*
X44840Y-50893D01*
X45096Y-50893D01*
X45333Y-50795D01*
X45514Y-50614D01*
X45612Y-50378D01*
X45612Y-50122D01*
X45612Y-51300D01*
X44295Y-51300D01*
X44295Y-50141D01*
X44212Y-49941D01*
X44059Y-49787D01*
X43858Y-49704D01*
X43840Y-49704D01*
X43318Y-49181D01*
X43172Y-49084D01*
X43000Y-49050D01*
X42377Y-49050D01*
X42377Y-48390D01*
X42288Y-48158D01*
X42271Y-48133D01*
X42145Y-48118D01*
X41764Y-48500D01*
X42145Y-48881D01*
X42271Y-48866D01*
X42371Y-48639D01*
X42377Y-48390D01*
X42377Y-49050D01*
X42060Y-49050D01*
X42091Y-49038D01*
X42116Y-49021D01*
X42131Y-48895D01*
X41750Y-48514D01*
X41735Y-48528D01*
X41735Y-48500D01*
X41354Y-48118D01*
X41228Y-48133D01*
X41143Y-48325D01*
X41143Y-47841D01*
X41045Y-47604D01*
X40864Y-47423D01*
X40628Y-47325D01*
X40372Y-47325D01*
X40135Y-47423D01*
X39954Y-47604D01*
X39856Y-47840D01*
X39856Y-48096D01*
X39954Y-48333D01*
X40135Y-48514D01*
X40371Y-48612D01*
X40627Y-48612D01*
X40864Y-48514D01*
X41045Y-48333D01*
X41143Y-48097D01*
X41143Y-47841D01*
X41143Y-48325D01*
X41128Y-48360D01*
X41122Y-48609D01*
X41211Y-48841D01*
X41228Y-48866D01*
X41354Y-48881D01*
X41735Y-48500D01*
X41735Y-48528D01*
X41368Y-48895D01*
X41383Y-49021D01*
X41610Y-49121D01*
X41765Y-49125D01*
X41681Y-49181D01*
X41063Y-49800D01*
X37321Y-49800D01*
X37309Y-49787D01*
X37108Y-49704D01*
X36891Y-49704D01*
X36691Y-49787D01*
X36562Y-49915D01*
X36555Y-49897D01*
X36538Y-49871D01*
X36410Y-49853D01*
X36396Y-49867D01*
X36396Y-49839D01*
X36378Y-49711D01*
X36143Y-49607D01*
X35887Y-49601D01*
X35647Y-49694D01*
X35627Y-49707D01*
X35627Y-48390D01*
X35538Y-48158D01*
X35521Y-48133D01*
X35395Y-48118D01*
X35014Y-48500D01*
X35395Y-48881D01*
X35521Y-48866D01*
X35621Y-48639D01*
X35627Y-48390D01*
X35627Y-49707D01*
X35621Y-49711D01*
X35603Y-49839D01*
X36000Y-50235D01*
X36396Y-49839D01*
X36396Y-49867D01*
X36014Y-50250D01*
X36410Y-50646D01*
X36538Y-50628D01*
X36559Y-50580D01*
X36690Y-50712D01*
X36891Y-50795D01*
X36909Y-50795D01*
X38181Y-52068D01*
X38327Y-52165D01*
X38332Y-52166D01*
X38415Y-52249D01*
X38632Y-52339D01*
X38866Y-52340D01*
X39083Y-52250D01*
X39178Y-52155D01*
X39307Y-52178D01*
X39735Y-51750D01*
X39307Y-51321D01*
X39178Y-51344D01*
X39084Y-51250D01*
X38867Y-51160D01*
X38633Y-51159D01*
X38571Y-51185D01*
X38086Y-50700D01*
X41250Y-50700D01*
X41422Y-50665D01*
X41568Y-50568D01*
X42169Y-49967D01*
X42107Y-50106D01*
X42101Y-50362D01*
X42194Y-50602D01*
X42211Y-50628D01*
X42339Y-50646D01*
X42735Y-50250D01*
X42730Y-50244D01*
X42744Y-50230D01*
X42750Y-50235D01*
X42755Y-50230D01*
X42769Y-50244D01*
X42764Y-50250D01*
X43160Y-50646D01*
X43288Y-50628D01*
X43309Y-50580D01*
X43440Y-50712D01*
X43641Y-50795D01*
X43858Y-50795D01*
X44058Y-50712D01*
X44212Y-50559D01*
X44295Y-50358D01*
X44295Y-50141D01*
X44295Y-51300D01*
X43146Y-51300D01*
X43146Y-50660D01*
X42750Y-50264D01*
X42353Y-50660D01*
X42371Y-50788D01*
X42606Y-50892D01*
X42862Y-50898D01*
X43102Y-50805D01*
X43128Y-50788D01*
X43146Y-50660D01*
X43146Y-51300D01*
X41315Y-51300D01*
X41301Y-51268D01*
X41231Y-51198D01*
X41139Y-51160D01*
X41040Y-51160D01*
X40360Y-51160D01*
X40268Y-51198D01*
X40198Y-51268D01*
X40184Y-51301D01*
X40178Y-51307D01*
X40155Y-51175D01*
X39904Y-51063D01*
X39630Y-51056D01*
X39373Y-51155D01*
X39344Y-51175D01*
X39321Y-51307D01*
X39750Y-51735D01*
X39755Y-51730D01*
X39769Y-51744D01*
X39764Y-51750D01*
X39769Y-51755D01*
X39755Y-51769D01*
X39750Y-51764D01*
X39321Y-52192D01*
X39344Y-52324D01*
X39595Y-52436D01*
X39869Y-52443D01*
X40126Y-52344D01*
X40155Y-52324D01*
X40178Y-52192D01*
X40178Y-52192D01*
X40184Y-52198D01*
X40198Y-52231D01*
X40268Y-52301D01*
X40360Y-52340D01*
X40459Y-52340D01*
X41139Y-52340D01*
X41231Y-52301D01*
X41301Y-52231D01*
X41315Y-52200D01*
X42328Y-52200D01*
X42313Y-52268D01*
X42781Y-52735D01*
X43248Y-52268D01*
X43233Y-52200D01*
X44575Y-52200D01*
X44574Y-52250D01*
X43625Y-53200D01*
X43341Y-53200D01*
X43400Y-53187D01*
X43520Y-52917D01*
X43528Y-52621D01*
X43422Y-52345D01*
X43400Y-52312D01*
X43262Y-52282D01*
X42795Y-52750D01*
X42800Y-52755D01*
X42786Y-52769D01*
X42781Y-52764D01*
X42775Y-52769D01*
X42761Y-52755D01*
X42766Y-52750D01*
X42299Y-52282D01*
X42161Y-52312D01*
X42041Y-52582D01*
X42033Y-52878D01*
X42066Y-52963D01*
X42000Y-52950D01*
X40301Y-52950D01*
X40241Y-52889D01*
X40178Y-52863D01*
X40084Y-52825D01*
X39915Y-52824D01*
X39759Y-52889D01*
X39639Y-53008D01*
X39575Y-53165D01*
X39574Y-53334D01*
X39622Y-53450D01*
X38374Y-53450D01*
X37712Y-52787D01*
X37614Y-52722D01*
X37500Y-52700D01*
X36396Y-52700D01*
X36396Y-50660D01*
X36000Y-50264D01*
X35985Y-50278D01*
X35985Y-50250D01*
X35589Y-49853D01*
X35461Y-49871D01*
X35381Y-50052D01*
X35381Y-48895D01*
X35000Y-48514D01*
X34985Y-48528D01*
X34985Y-48500D01*
X34604Y-48118D01*
X34478Y-48133D01*
X34378Y-48360D01*
X34372Y-48609D01*
X34461Y-48841D01*
X34478Y-48866D01*
X34604Y-48881D01*
X34985Y-48500D01*
X34985Y-48528D01*
X34618Y-48895D01*
X34633Y-49021D01*
X34860Y-49121D01*
X35109Y-49127D01*
X35341Y-49038D01*
X35366Y-49021D01*
X35381Y-48895D01*
X35381Y-50052D01*
X35357Y-50106D01*
X35351Y-50362D01*
X35444Y-50602D01*
X35461Y-50628D01*
X35589Y-50646D01*
X35985Y-50250D01*
X35985Y-50278D01*
X35603Y-50660D01*
X35621Y-50788D01*
X35856Y-50892D01*
X36112Y-50898D01*
X36352Y-50805D01*
X36378Y-50788D01*
X36396Y-50660D01*
X36396Y-52700D01*
X35143Y-52700D01*
X35143Y-49591D01*
X35045Y-49354D01*
X34864Y-49173D01*
X34628Y-49075D01*
X34372Y-49075D01*
X34135Y-49173D01*
X33954Y-49354D01*
X33856Y-49590D01*
X33856Y-49846D01*
X33954Y-50083D01*
X34135Y-50264D01*
X34371Y-50362D01*
X34627Y-50362D01*
X34864Y-50264D01*
X35045Y-50083D01*
X35143Y-49847D01*
X35143Y-49591D01*
X35143Y-52700D01*
X33500Y-52700D01*
X33385Y-52722D01*
X33287Y-52787D01*
X33000Y-53075D01*
X32872Y-53075D01*
X32635Y-53173D01*
X32454Y-53354D01*
X32356Y-53590D01*
X32356Y-53846D01*
X32454Y-54083D01*
X32635Y-54264D01*
X32827Y-54344D01*
X32635Y-54423D01*
X32454Y-54604D01*
X32356Y-54840D01*
X32356Y-55096D01*
X32454Y-55333D01*
X32635Y-55514D01*
X32871Y-55612D01*
X33127Y-55612D01*
X33364Y-55514D01*
X33545Y-55333D01*
X33643Y-55097D01*
X33643Y-54841D01*
X33545Y-54604D01*
X33364Y-54423D01*
X33172Y-54343D01*
X33364Y-54264D01*
X33545Y-54083D01*
X33643Y-53847D01*
X33643Y-53591D01*
X33552Y-53371D01*
X33624Y-53300D01*
X34008Y-53300D01*
X33954Y-53354D01*
X33856Y-53590D01*
X33856Y-53846D01*
X33954Y-54083D01*
X34135Y-54264D01*
X34327Y-54344D01*
X34135Y-54423D01*
X33954Y-54604D01*
X33856Y-54840D01*
X33856Y-55096D01*
X33954Y-55333D01*
X34135Y-55514D01*
X34371Y-55612D01*
X34627Y-55612D01*
X34864Y-55514D01*
X35045Y-55333D01*
X35143Y-55097D01*
X35143Y-55050D01*
X35750Y-55050D01*
X35750Y-55049D01*
X35829Y-55034D01*
X35681Y-55181D01*
X35584Y-55327D01*
X35550Y-55500D01*
X35550Y-57500D01*
X35584Y-57672D01*
X35681Y-57818D01*
X36157Y-58293D01*
X36193Y-58475D01*
X36321Y-58667D01*
X36329Y-58672D01*
X36268Y-58698D01*
X36198Y-58768D01*
X36160Y-58860D01*
X36160Y-58959D01*
X36160Y-59639D01*
X36198Y-59731D01*
X36268Y-59801D01*
X36360Y-59840D01*
X36459Y-59840D01*
X37139Y-59840D01*
X37231Y-59801D01*
X37301Y-59731D01*
X37327Y-59671D01*
X37512Y-59795D01*
X37738Y-59840D01*
X37761Y-59840D01*
X37987Y-59795D01*
X38178Y-59667D01*
X38250Y-59560D01*
X38321Y-59667D01*
X38512Y-59795D01*
X38738Y-59840D01*
X38761Y-59840D01*
X38987Y-59795D01*
X39178Y-59667D01*
X39250Y-59560D01*
X39321Y-59667D01*
X39512Y-59795D01*
X39738Y-59840D01*
X39761Y-59840D01*
X39987Y-59795D01*
X40178Y-59667D01*
X40189Y-59650D01*
X40380Y-59833D01*
X40632Y-59929D01*
X40740Y-59852D01*
X40740Y-59260D01*
X40732Y-59260D01*
X40732Y-59240D01*
X40740Y-59240D01*
X40740Y-59232D01*
X40760Y-59232D01*
X40760Y-59240D01*
X40767Y-59240D01*
X40767Y-59260D01*
X40760Y-59260D01*
X40760Y-59852D01*
X40867Y-59929D01*
X41119Y-59833D01*
X41310Y-59650D01*
X41321Y-59667D01*
X41512Y-59795D01*
X41738Y-59840D01*
X41761Y-59840D01*
X41987Y-59795D01*
X42178Y-59667D01*
X42250Y-59560D01*
X42321Y-59667D01*
X42512Y-59795D01*
X42738Y-59840D01*
X42761Y-59840D01*
X42987Y-59795D01*
X43178Y-59667D01*
X43250Y-59560D01*
X43321Y-59667D01*
X43512Y-59795D01*
X43738Y-59840D01*
X43761Y-59840D01*
X43987Y-59795D01*
X44178Y-59667D01*
X44250Y-59560D01*
X44321Y-59667D01*
X44512Y-59795D01*
X44738Y-59840D01*
X44761Y-59840D01*
X44987Y-59795D01*
X45178Y-59667D01*
X45250Y-59560D01*
X45321Y-59667D01*
X45512Y-59795D01*
X45738Y-59840D01*
X45761Y-59840D01*
X45987Y-59795D01*
X46178Y-59667D01*
X46250Y-59560D01*
X46321Y-59667D01*
X46512Y-59795D01*
X46738Y-59840D01*
X46761Y-59840D01*
X46987Y-59795D01*
X47178Y-59667D01*
X47250Y-59560D01*
X47321Y-59667D01*
X47512Y-59795D01*
X47738Y-59840D01*
X47761Y-59840D01*
X47987Y-59795D01*
X48178Y-59667D01*
X48189Y-59650D01*
X48380Y-59833D01*
X48632Y-59929D01*
X48740Y-59852D01*
X48740Y-59260D01*
X48732Y-59260D01*
X48732Y-59240D01*
X48740Y-59240D01*
X48740Y-59232D01*
X48760Y-59232D01*
X48760Y-59240D01*
X49352Y-59240D01*
X49429Y-59132D01*
X49429Y-59367D01*
X49352Y-59260D01*
X48760Y-59260D01*
X48760Y-59852D01*
X48867Y-59929D01*
X49119Y-59833D01*
X49314Y-59647D01*
X49423Y-59401D01*
X49429Y-59367D01*
X49429Y-60072D01*
X35247Y-60072D01*
X35247Y-58840D01*
X35141Y-58564D01*
X35119Y-58531D01*
X34981Y-58501D01*
X34967Y-58516D01*
X34967Y-58487D01*
X34937Y-58349D01*
X34667Y-58229D01*
X34371Y-58221D01*
X34095Y-58327D01*
X34062Y-58349D01*
X34032Y-58487D01*
X34500Y-58954D01*
X34967Y-58487D01*
X34967Y-58516D01*
X34514Y-58969D01*
X34981Y-59436D01*
X35119Y-59406D01*
X35239Y-59136D01*
X35247Y-58840D01*
X35247Y-60072D01*
X34967Y-60072D01*
X34967Y-59450D01*
X34500Y-58983D01*
X34485Y-58997D01*
X34485Y-58969D01*
X34018Y-58501D01*
X33880Y-58531D01*
X33760Y-58801D01*
X33752Y-59097D01*
X33858Y-59373D01*
X33880Y-59406D01*
X34018Y-59436D01*
X34485Y-58969D01*
X34485Y-58997D01*
X34032Y-59450D01*
X34062Y-59588D01*
X34332Y-59708D01*
X34628Y-59716D01*
X34904Y-59610D01*
X34937Y-59588D01*
X34967Y-59450D01*
X34967Y-60072D01*
X33747Y-60072D01*
X33747Y-58840D01*
X33641Y-58564D01*
X33619Y-58531D01*
X33481Y-58501D01*
X33467Y-58516D01*
X33467Y-58487D01*
X33437Y-58349D01*
X33167Y-58229D01*
X32871Y-58221D01*
X32595Y-58327D01*
X32562Y-58349D01*
X32532Y-58487D01*
X33000Y-58954D01*
X33467Y-58487D01*
X33467Y-58516D01*
X33014Y-58969D01*
X33481Y-59436D01*
X33619Y-59406D01*
X33739Y-59136D01*
X33747Y-58840D01*
X33747Y-60072D01*
X33467Y-60072D01*
X33467Y-59450D01*
X33000Y-58983D01*
X32985Y-58997D01*
X32985Y-58969D01*
X32518Y-58501D01*
X32380Y-58531D01*
X32260Y-58801D01*
X32252Y-59097D01*
X32358Y-59373D01*
X32380Y-59406D01*
X32518Y-59436D01*
X32985Y-58969D01*
X32985Y-58997D01*
X32532Y-59450D01*
X32562Y-59588D01*
X32832Y-59708D01*
X33128Y-59716D01*
X33404Y-59610D01*
X33437Y-59588D01*
X33467Y-59450D01*
X33467Y-60072D01*
X31940Y-60072D01*
X31940Y-59659D01*
X31940Y-59347D01*
X31940Y-59152D01*
X31940Y-58840D01*
X31886Y-58711D01*
X31788Y-58613D01*
X31740Y-58593D01*
X31749Y-58584D01*
X31839Y-58367D01*
X31840Y-58133D01*
X31750Y-57916D01*
X31584Y-57750D01*
X31584Y-57749D01*
X31749Y-57584D01*
X31839Y-57367D01*
X31840Y-57133D01*
X31750Y-56916D01*
X31584Y-56750D01*
X31584Y-56749D01*
X31749Y-56584D01*
X31839Y-56367D01*
X31840Y-56133D01*
X31750Y-55916D01*
X31584Y-55750D01*
X31584Y-55749D01*
X31749Y-55584D01*
X31839Y-55367D01*
X31840Y-55133D01*
X31750Y-54916D01*
X31584Y-54750D01*
X31584Y-54749D01*
X31749Y-54584D01*
X31839Y-54367D01*
X31840Y-54133D01*
X31750Y-53916D01*
X31584Y-53750D01*
X31367Y-53660D01*
X31133Y-53659D01*
X30916Y-53749D01*
X30750Y-53915D01*
X30660Y-54132D01*
X30659Y-54366D01*
X30749Y-54583D01*
X30915Y-54749D01*
X30915Y-54750D01*
X30750Y-54915D01*
X30660Y-55132D01*
X30659Y-55366D01*
X30749Y-55583D01*
X30915Y-55749D01*
X30915Y-55750D01*
X30750Y-55915D01*
X30660Y-56132D01*
X30659Y-56366D01*
X30749Y-56583D01*
X30915Y-56749D01*
X30915Y-56750D01*
X30750Y-56915D01*
X30660Y-57132D01*
X30659Y-57366D01*
X30749Y-57583D01*
X30915Y-57749D01*
X30915Y-57750D01*
X30750Y-57915D01*
X30660Y-58132D01*
X30659Y-58366D01*
X30749Y-58583D01*
X30759Y-58593D01*
X30711Y-58613D01*
X30613Y-58711D01*
X30560Y-58840D01*
X30560Y-59152D01*
X30647Y-59240D01*
X31240Y-59240D01*
X31240Y-59232D01*
X31260Y-59232D01*
X31260Y-59240D01*
X31852Y-59240D01*
X31940Y-59152D01*
X31940Y-59347D01*
X31852Y-59260D01*
X31260Y-59260D01*
X31260Y-59852D01*
X31347Y-59940D01*
X31520Y-59940D01*
X31659Y-59940D01*
X31788Y-59886D01*
X31886Y-59788D01*
X31940Y-59659D01*
X31940Y-60072D01*
X31240Y-60072D01*
X31240Y-59852D01*
X31240Y-59260D01*
X30647Y-59260D01*
X30560Y-59347D01*
X30560Y-59659D01*
X30613Y-59788D01*
X30711Y-59886D01*
X30840Y-59940D01*
X30979Y-59940D01*
X31152Y-59940D01*
X31240Y-59852D01*
X31240Y-60072D01*
X30427Y-60072D01*
X30427Y-40927D01*
X31568Y-40927D01*
X31518Y-40948D01*
X31448Y-41018D01*
X31410Y-41110D01*
X31410Y-41209D01*
X31410Y-41889D01*
X31448Y-41981D01*
X31518Y-42051D01*
X31578Y-42077D01*
X31454Y-42262D01*
X31410Y-42488D01*
X31410Y-42511D01*
X31454Y-42737D01*
X31582Y-42928D01*
X31689Y-43000D01*
X31582Y-43071D01*
X31454Y-43262D01*
X31410Y-43488D01*
X31410Y-43511D01*
X31454Y-43737D01*
X31582Y-43928D01*
X31689Y-44000D01*
X31582Y-44071D01*
X31454Y-44262D01*
X31410Y-44488D01*
X31410Y-44511D01*
X31454Y-44737D01*
X31582Y-44928D01*
X31689Y-45000D01*
X31582Y-45071D01*
X31454Y-45262D01*
X31410Y-45488D01*
X31410Y-45511D01*
X31422Y-45574D01*
X31415Y-45574D01*
X31259Y-45639D01*
X31139Y-45758D01*
X31075Y-45915D01*
X31074Y-46084D01*
X31139Y-46240D01*
X31258Y-46360D01*
X31415Y-46424D01*
X31422Y-46424D01*
X31410Y-46488D01*
X31410Y-46511D01*
X31454Y-46737D01*
X31582Y-46928D01*
X31689Y-47000D01*
X31582Y-47071D01*
X31454Y-47262D01*
X31410Y-47488D01*
X31410Y-47511D01*
X31454Y-47737D01*
X31582Y-47928D01*
X31689Y-48000D01*
X31582Y-48071D01*
X31454Y-48262D01*
X31410Y-48488D01*
X31410Y-48511D01*
X31454Y-48737D01*
X31582Y-48928D01*
X31774Y-49056D01*
X32000Y-49101D01*
X32225Y-49056D01*
X32385Y-48950D01*
X32614Y-48950D01*
X32774Y-49056D01*
X32871Y-49075D01*
X32635Y-49173D01*
X32454Y-49354D01*
X32356Y-49590D01*
X32356Y-49846D01*
X32454Y-50083D01*
X32635Y-50264D01*
X32871Y-50362D01*
X33127Y-50362D01*
X33364Y-50264D01*
X33545Y-50083D01*
X33643Y-49847D01*
X33643Y-49591D01*
X33545Y-49354D01*
X33364Y-49173D01*
X33129Y-49075D01*
X33225Y-49056D01*
X33417Y-48928D01*
X33545Y-48737D01*
X33590Y-48511D01*
X33590Y-48488D01*
X33545Y-48262D01*
X33417Y-48071D01*
X33310Y-48000D01*
X33417Y-47928D01*
X33545Y-47737D01*
X33590Y-47511D01*
X33590Y-47488D01*
X33564Y-47359D01*
X34121Y-46802D01*
X34075Y-46915D01*
X34074Y-47084D01*
X34139Y-47240D01*
X34258Y-47360D01*
X34415Y-47424D01*
X34475Y-47424D01*
X34474Y-47603D01*
X34554Y-47797D01*
X34702Y-47944D01*
X34702Y-47944D01*
X34658Y-47961D01*
X34633Y-47978D01*
X34618Y-48104D01*
X35000Y-48485D01*
X35381Y-48104D01*
X35366Y-47978D01*
X35293Y-47946D01*
X35297Y-47945D01*
X35444Y-47797D01*
X35524Y-47604D01*
X35525Y-47396D01*
X35485Y-47300D01*
X37514Y-47300D01*
X37475Y-47395D01*
X37474Y-47603D01*
X37554Y-47797D01*
X37702Y-47944D01*
X37835Y-48000D01*
X37703Y-48054D01*
X37555Y-48202D01*
X37475Y-48395D01*
X37474Y-48603D01*
X37554Y-48797D01*
X37702Y-48944D01*
X37895Y-49024D01*
X38103Y-49025D01*
X38297Y-48945D01*
X38444Y-48797D01*
X38524Y-48604D01*
X38525Y-48396D01*
X38445Y-48203D01*
X38297Y-48055D01*
X38164Y-47999D01*
X38297Y-47945D01*
X38444Y-47797D01*
X38524Y-47604D01*
X38525Y-47396D01*
X38451Y-47218D01*
X38462Y-47212D01*
X38874Y-46800D01*
X40625Y-46800D01*
X41225Y-47399D01*
X41224Y-47603D01*
X41304Y-47797D01*
X41452Y-47944D01*
X41452Y-47944D01*
X41408Y-47961D01*
X41383Y-47978D01*
X41368Y-48104D01*
X41750Y-48485D01*
X42131Y-48104D01*
X42116Y-47978D01*
X42043Y-47946D01*
X42047Y-47945D01*
X42194Y-47797D01*
X42274Y-47604D01*
X42275Y-47396D01*
X42195Y-47203D01*
X42047Y-47055D01*
X41914Y-46999D01*
X42047Y-46945D01*
X42194Y-46797D01*
X42274Y-46604D01*
X42275Y-46396D01*
X42195Y-46203D01*
X42047Y-46055D01*
X41914Y-45999D01*
X42047Y-45945D01*
X42194Y-45797D01*
X42274Y-45604D01*
X42275Y-45399D01*
X42374Y-45300D01*
X44264Y-45300D01*
X44225Y-45395D01*
X44224Y-45603D01*
X44304Y-45797D01*
X44452Y-45944D01*
X44452Y-45944D01*
X44408Y-45961D01*
X44383Y-45978D01*
X44368Y-46104D01*
X44750Y-46485D01*
X45131Y-46104D01*
X45116Y-45978D01*
X45043Y-45946D01*
X45047Y-45945D01*
X45194Y-45797D01*
X45274Y-45604D01*
X45275Y-45396D01*
X45235Y-45300D01*
X45448Y-45300D01*
X45508Y-45360D01*
X45665Y-45424D01*
X45834Y-45425D01*
X45990Y-45360D01*
X46110Y-45241D01*
X46174Y-45084D01*
X46175Y-44915D01*
X46110Y-44759D01*
X45991Y-44639D01*
X45834Y-44575D01*
X45665Y-44574D01*
X45509Y-44639D01*
X45448Y-44700D01*
X45235Y-44700D01*
X45274Y-44604D01*
X45275Y-44396D01*
X45260Y-44360D01*
X45415Y-44424D01*
X45584Y-44425D01*
X45740Y-44360D01*
X45860Y-44241D01*
X45924Y-44084D01*
X45925Y-43915D01*
X45860Y-43759D01*
X45741Y-43639D01*
X45584Y-43575D01*
X45415Y-43574D01*
X45260Y-43639D01*
X45274Y-43604D01*
X45275Y-43396D01*
X45195Y-43203D01*
X45047Y-43055D01*
X44914Y-42999D01*
X45047Y-42945D01*
X45194Y-42797D01*
X45274Y-42604D01*
X45275Y-42396D01*
X45195Y-42203D01*
X45047Y-42055D01*
X44854Y-41975D01*
X44646Y-41974D01*
X44453Y-42054D01*
X44305Y-42202D01*
X44225Y-42395D01*
X44224Y-42603D01*
X44304Y-42797D01*
X44452Y-42944D01*
X44585Y-43000D01*
X44453Y-43054D01*
X44305Y-43202D01*
X44225Y-43395D01*
X44224Y-43603D01*
X44264Y-43700D01*
X42235Y-43700D01*
X42274Y-43604D01*
X42275Y-43396D01*
X42195Y-43203D01*
X42047Y-43055D01*
X41975Y-43025D01*
X42074Y-43025D01*
X42166Y-42986D01*
X42236Y-42916D01*
X42275Y-42824D01*
X42275Y-42725D01*
X42275Y-42175D01*
X42236Y-42083D01*
X42166Y-42013D01*
X42074Y-41975D01*
X41975Y-41975D01*
X41532Y-41975D01*
X41540Y-41745D01*
X41325Y-41175D01*
X41268Y-41090D01*
X41049Y-40965D01*
X41086Y-40927D01*
X46568Y-40927D01*
X46518Y-40948D01*
X46448Y-41018D01*
X46410Y-41110D01*
X46410Y-41209D01*
X46410Y-41889D01*
X46448Y-41981D01*
X46518Y-42051D01*
X46578Y-42077D01*
X46454Y-42262D01*
X46410Y-42488D01*
X46410Y-42511D01*
X46454Y-42737D01*
X46582Y-42928D01*
X46599Y-42939D01*
X46416Y-43130D01*
X46320Y-43382D01*
X46397Y-43490D01*
X46990Y-43490D01*
X46990Y-43482D01*
X47010Y-43482D01*
X47010Y-43490D01*
X47397Y-43490D01*
X47602Y-43490D01*
X47990Y-43490D01*
X47990Y-43482D01*
X48010Y-43482D01*
X48010Y-43490D01*
X48602Y-43490D01*
X48679Y-43382D01*
X48583Y-43130D01*
X48400Y-42939D01*
X48417Y-42928D01*
X48545Y-42737D01*
X48590Y-42511D01*
X48590Y-42488D01*
X48545Y-42262D01*
X48417Y-42071D01*
X48310Y-42000D01*
X48417Y-41928D01*
X48545Y-41737D01*
X48590Y-41511D01*
X48590Y-41488D01*
X48545Y-41262D01*
X48417Y-41071D01*
X48225Y-40943D01*
X48144Y-40927D01*
X49572Y-40927D01*
X49572Y-50026D01*
X49514Y-49885D01*
X49333Y-49704D01*
X49097Y-49606D01*
X49028Y-49606D01*
X49049Y-49500D01*
X49050Y-49500D01*
X49050Y-45250D01*
X49027Y-45135D01*
X49027Y-45135D01*
X48962Y-45037D01*
X48564Y-44640D01*
X48590Y-44511D01*
X48590Y-44488D01*
X48545Y-44262D01*
X48417Y-44071D01*
X48400Y-44060D01*
X48583Y-43869D01*
X48679Y-43617D01*
X48602Y-43510D01*
X48010Y-43510D01*
X48010Y-43517D01*
X47990Y-43517D01*
X47990Y-43510D01*
X47602Y-43510D01*
X47397Y-43510D01*
X47010Y-43510D01*
X47010Y-43517D01*
X46990Y-43517D01*
X46990Y-43510D01*
X46397Y-43510D01*
X46320Y-43617D01*
X46416Y-43869D01*
X46599Y-44060D01*
X46582Y-44071D01*
X46454Y-44262D01*
X46410Y-44488D01*
X46410Y-44511D01*
X46454Y-44737D01*
X46582Y-44928D01*
X46689Y-45000D01*
X46582Y-45071D01*
X46454Y-45262D01*
X46410Y-45488D01*
X46410Y-45511D01*
X46454Y-45737D01*
X46582Y-45928D01*
X46689Y-46000D01*
X46582Y-46071D01*
X46454Y-46262D01*
X46410Y-46488D01*
X46410Y-46511D01*
X46454Y-46737D01*
X46582Y-46928D01*
X46689Y-47000D01*
X46582Y-47071D01*
X46454Y-47262D01*
X46410Y-47488D01*
X46410Y-47511D01*
X46454Y-47737D01*
X46582Y-47928D01*
X46689Y-48000D01*
X46582Y-48071D01*
X46454Y-48262D01*
X46410Y-48488D01*
X46410Y-48511D01*
X46454Y-48737D01*
X46582Y-48928D01*
X46774Y-49056D01*
X47000Y-49101D01*
X47225Y-49056D01*
X47385Y-48950D01*
X47614Y-48950D01*
X47774Y-49056D01*
X48000Y-49101D01*
X48225Y-49056D01*
X48417Y-48928D01*
X48450Y-48879D01*
X48450Y-49375D01*
X48037Y-49787D01*
X47972Y-49885D01*
X47950Y-50000D01*
X47950Y-51500D01*
X47972Y-51614D01*
X48037Y-51712D01*
X48454Y-52128D01*
X48450Y-52140D01*
X48450Y-52237D01*
X48359Y-52200D01*
X48141Y-52199D01*
X47938Y-52283D01*
X47784Y-52438D01*
X47700Y-52640D01*
X47699Y-52858D01*
X47783Y-53061D01*
X47938Y-53215D01*
X48140Y-53299D01*
X48348Y-53300D01*
X48347Y-53363D01*
X48440Y-53604D01*
X48458Y-53631D01*
X48586Y-53649D01*
X48985Y-53250D01*
X48980Y-53244D01*
X48994Y-53230D01*
X49000Y-53235D01*
X49399Y-52836D01*
X49381Y-52708D01*
X49338Y-52689D01*
X49465Y-52561D01*
X49549Y-52359D01*
X49550Y-52141D01*
X49466Y-51938D01*
X49311Y-51784D01*
X49109Y-51700D01*
X48891Y-51699D01*
X48879Y-51704D01*
X48550Y-51375D01*
X48550Y-50741D01*
X48604Y-50795D01*
X48840Y-50893D01*
X49096Y-50893D01*
X49333Y-50795D01*
X49514Y-50614D01*
X49572Y-50473D01*
X49572Y-52929D01*
X49559Y-52895D01*
X49541Y-52868D01*
X49413Y-52850D01*
X49014Y-53250D01*
X49413Y-53649D01*
X49541Y-53631D01*
X49572Y-53561D01*
X49572Y-60072D01*
X49572Y-60072D01*
G37*
X49572Y-60072D02*
X49429Y-60072D01*
X49429Y-59367D01*
X49429Y-59132D01*
X49429Y-56117D01*
X49352Y-56010D01*
X48760Y-56010D01*
X48760Y-56602D01*
X48867Y-56679D01*
X49119Y-56583D01*
X49314Y-56397D01*
X49423Y-56151D01*
X49429Y-56117D01*
X49429Y-59132D01*
X49423Y-59098D01*
X49314Y-58852D01*
X49143Y-58690D01*
X49178Y-58667D01*
X49306Y-58475D01*
X49351Y-58250D01*
X49306Y-58024D01*
X49178Y-57832D01*
X48987Y-57704D01*
X48761Y-57660D01*
X48738Y-57660D01*
X48512Y-57704D01*
X48321Y-57832D01*
X48250Y-57939D01*
X48178Y-57832D01*
X47987Y-57704D01*
X47761Y-57660D01*
X47738Y-57660D01*
X47512Y-57704D01*
X47321Y-57832D01*
X47250Y-57939D01*
X47178Y-57832D01*
X46987Y-57704D01*
X46761Y-57660D01*
X46738Y-57660D01*
X46512Y-57704D01*
X46321Y-57832D01*
X46310Y-57849D01*
X46119Y-57666D01*
X45867Y-57570D01*
X45760Y-57647D01*
X45760Y-58240D01*
X45767Y-58240D01*
X45767Y-58260D01*
X45760Y-58260D01*
X45760Y-58267D01*
X45740Y-58267D01*
X45740Y-58260D01*
X45732Y-58260D01*
X45732Y-58240D01*
X45740Y-58240D01*
X45740Y-57647D01*
X45632Y-57570D01*
X45380Y-57666D01*
X45189Y-57849D01*
X45178Y-57832D01*
X44987Y-57704D01*
X44761Y-57660D01*
X44738Y-57660D01*
X44512Y-57704D01*
X44321Y-57832D01*
X44250Y-57939D01*
X44178Y-57832D01*
X43987Y-57704D01*
X43761Y-57660D01*
X43738Y-57660D01*
X43512Y-57704D01*
X43321Y-57832D01*
X43310Y-57849D01*
X43119Y-57666D01*
X42867Y-57570D01*
X42760Y-57647D01*
X42760Y-58240D01*
X42767Y-58240D01*
X42767Y-58260D01*
X42760Y-58260D01*
X42760Y-58267D01*
X42740Y-58267D01*
X42740Y-58260D01*
X42732Y-58260D01*
X42732Y-58240D01*
X42740Y-58240D01*
X42740Y-57647D01*
X42632Y-57570D01*
X42380Y-57666D01*
X42189Y-57849D01*
X42178Y-57832D01*
X41987Y-57704D01*
X41761Y-57660D01*
X41738Y-57660D01*
X41512Y-57704D01*
X41321Y-57832D01*
X41250Y-57939D01*
X41178Y-57832D01*
X40987Y-57704D01*
X40761Y-57660D01*
X40738Y-57660D01*
X40512Y-57704D01*
X40321Y-57832D01*
X40250Y-57939D01*
X40178Y-57832D01*
X39987Y-57704D01*
X39761Y-57660D01*
X39738Y-57660D01*
X39512Y-57704D01*
X39321Y-57832D01*
X39310Y-57849D01*
X39119Y-57666D01*
X38867Y-57570D01*
X38760Y-57647D01*
X38760Y-58240D01*
X38767Y-58240D01*
X38767Y-58260D01*
X38760Y-58260D01*
X38760Y-58267D01*
X38740Y-58267D01*
X38740Y-58260D01*
X38732Y-58260D01*
X38732Y-58240D01*
X38740Y-58240D01*
X38740Y-57647D01*
X38632Y-57570D01*
X38380Y-57666D01*
X38189Y-57849D01*
X38178Y-57832D01*
X37987Y-57704D01*
X37761Y-57660D01*
X37738Y-57660D01*
X37512Y-57704D01*
X37370Y-57800D01*
X37129Y-57800D01*
X36987Y-57704D01*
X36805Y-57668D01*
X36450Y-57313D01*
X36450Y-56590D01*
X36459Y-56590D01*
X36703Y-56590D01*
X37181Y-57068D01*
X37327Y-57165D01*
X37500Y-57200D01*
X44000Y-57200D01*
X44172Y-57165D01*
X44318Y-57068D01*
X44805Y-56581D01*
X44987Y-56545D01*
X45178Y-56417D01*
X45250Y-56310D01*
X45321Y-56417D01*
X45512Y-56545D01*
X45738Y-56590D01*
X45761Y-56590D01*
X45987Y-56545D01*
X46178Y-56417D01*
X46250Y-56310D01*
X46321Y-56417D01*
X46512Y-56545D01*
X46738Y-56590D01*
X46761Y-56590D01*
X46987Y-56545D01*
X47178Y-56417D01*
X47250Y-56310D01*
X47321Y-56417D01*
X47512Y-56545D01*
X47738Y-56590D01*
X47761Y-56590D01*
X47987Y-56545D01*
X48178Y-56417D01*
X48189Y-56400D01*
X48380Y-56583D01*
X48632Y-56679D01*
X48740Y-56602D01*
X48740Y-56010D01*
X48732Y-56010D01*
X48732Y-55990D01*
X48740Y-55990D01*
X48740Y-55982D01*
X48760Y-55982D01*
X48760Y-55990D01*
X49352Y-55990D01*
X49429Y-55882D01*
X49423Y-55848D01*
X49399Y-55795D01*
X49399Y-53663D01*
X49000Y-53264D01*
X48600Y-53663D01*
X48618Y-53791D01*
X48855Y-53896D01*
X49113Y-53902D01*
X49354Y-53809D01*
X49381Y-53791D01*
X49399Y-53663D01*
X49399Y-55795D01*
X49314Y-55602D01*
X49143Y-55440D01*
X49178Y-55417D01*
X49306Y-55225D01*
X49351Y-55000D01*
X49306Y-54774D01*
X49178Y-54582D01*
X48987Y-54454D01*
X48761Y-54410D01*
X48738Y-54410D01*
X48512Y-54454D01*
X48321Y-54582D01*
X48250Y-54689D01*
X48178Y-54582D01*
X47987Y-54454D01*
X47761Y-54410D01*
X47738Y-54410D01*
X47512Y-54454D01*
X47321Y-54582D01*
X47250Y-54689D01*
X47178Y-54582D01*
X46987Y-54454D01*
X46761Y-54410D01*
X46738Y-54410D01*
X46512Y-54454D01*
X46321Y-54582D01*
X46310Y-54599D01*
X46119Y-54416D01*
X45867Y-54320D01*
X45760Y-54397D01*
X45760Y-54990D01*
X45767Y-54990D01*
X45767Y-55010D01*
X45760Y-55010D01*
X45760Y-55017D01*
X45740Y-55017D01*
X45740Y-55010D01*
X45732Y-55010D01*
X45732Y-54990D01*
X45740Y-54990D01*
X45740Y-54397D01*
X45632Y-54320D01*
X45380Y-54416D01*
X45189Y-54599D01*
X45178Y-54582D01*
X44987Y-54454D01*
X44761Y-54410D01*
X44738Y-54410D01*
X44512Y-54454D01*
X44321Y-54582D01*
X44250Y-54689D01*
X44178Y-54582D01*
X43987Y-54454D01*
X43761Y-54410D01*
X43738Y-54410D01*
X43512Y-54454D01*
X43321Y-54582D01*
X43310Y-54599D01*
X43119Y-54416D01*
X42867Y-54320D01*
X42760Y-54397D01*
X42760Y-54990D01*
X42767Y-54990D01*
X42767Y-55010D01*
X42760Y-55010D01*
X42760Y-55017D01*
X42740Y-55017D01*
X42740Y-55010D01*
X42732Y-55010D01*
X42732Y-54990D01*
X42740Y-54990D01*
X42740Y-54397D01*
X42632Y-54320D01*
X42380Y-54416D01*
X42189Y-54599D01*
X42178Y-54582D01*
X41987Y-54454D01*
X41761Y-54410D01*
X41738Y-54410D01*
X41512Y-54454D01*
X41321Y-54582D01*
X41250Y-54689D01*
X41178Y-54582D01*
X40987Y-54454D01*
X40761Y-54410D01*
X40738Y-54410D01*
X40512Y-54454D01*
X40321Y-54582D01*
X40250Y-54689D01*
X40178Y-54582D01*
X39987Y-54454D01*
X39761Y-54410D01*
X39738Y-54410D01*
X39512Y-54454D01*
X39321Y-54582D01*
X39310Y-54599D01*
X39119Y-54416D01*
X38867Y-54320D01*
X38760Y-54397D01*
X38760Y-54990D01*
X38767Y-54990D01*
X38767Y-55010D01*
X38760Y-55010D01*
X38760Y-55017D01*
X38740Y-55017D01*
X38740Y-55010D01*
X38732Y-55010D01*
X38732Y-54990D01*
X38740Y-54990D01*
X38740Y-54397D01*
X38632Y-54320D01*
X38380Y-54416D01*
X38360Y-54436D01*
X38212Y-54287D01*
X38114Y-54222D01*
X38000Y-54200D01*
X36000Y-54200D01*
X35885Y-54222D01*
X35846Y-54248D01*
X35787Y-54287D01*
X35625Y-54450D01*
X34891Y-54450D01*
X34864Y-54423D01*
X34672Y-54343D01*
X34864Y-54264D01*
X35045Y-54083D01*
X35143Y-53847D01*
X35143Y-53591D01*
X35045Y-53354D01*
X34990Y-53300D01*
X37375Y-53300D01*
X38037Y-53962D01*
X38135Y-54027D01*
X38135Y-54027D01*
X38250Y-54050D01*
X40448Y-54050D01*
X40508Y-54110D01*
X40665Y-54174D01*
X40834Y-54175D01*
X40990Y-54110D01*
X41110Y-53991D01*
X41174Y-53834D01*
X41175Y-53665D01*
X41127Y-53550D01*
X41372Y-53550D01*
X41325Y-53665D01*
X41324Y-53834D01*
X41389Y-53990D01*
X41508Y-54110D01*
X41665Y-54174D01*
X41834Y-54175D01*
X41990Y-54110D01*
X42051Y-54050D01*
X44149Y-54050D01*
X44149Y-54049D01*
X44264Y-54027D01*
X44264Y-54027D01*
X44362Y-53962D01*
X45274Y-53050D01*
X46208Y-53050D01*
X46235Y-53114D01*
X46416Y-53295D01*
X46652Y-53393D01*
X46908Y-53393D01*
X47145Y-53295D01*
X47326Y-53114D01*
X47424Y-52878D01*
X47424Y-52622D01*
X47326Y-52385D01*
X47145Y-52204D01*
X47134Y-52200D01*
X47250Y-52200D01*
X47422Y-52165D01*
X47568Y-52068D01*
X47665Y-51922D01*
X47700Y-51750D01*
X47665Y-51577D01*
X47568Y-51431D01*
X47422Y-51334D01*
X47250Y-51300D01*
X45612Y-51300D01*
X45612Y-50122D01*
X45514Y-49885D01*
X45377Y-49748D01*
X45377Y-46390D01*
X45288Y-46158D01*
X45271Y-46133D01*
X45145Y-46118D01*
X44764Y-46500D01*
X45145Y-46881D01*
X45271Y-46866D01*
X45371Y-46639D01*
X45377Y-46390D01*
X45377Y-49748D01*
X45333Y-49704D01*
X45275Y-49680D01*
X45275Y-48396D01*
X45195Y-48203D01*
X45047Y-48055D01*
X44914Y-47999D01*
X45047Y-47945D01*
X45194Y-47797D01*
X45274Y-47604D01*
X45275Y-47396D01*
X45195Y-47203D01*
X45047Y-47055D01*
X45047Y-47055D01*
X45091Y-47038D01*
X45116Y-47021D01*
X45131Y-46895D01*
X44750Y-46514D01*
X44735Y-46528D01*
X44735Y-46500D01*
X44354Y-46118D01*
X44228Y-46133D01*
X44128Y-46360D01*
X44122Y-46609D01*
X44211Y-46841D01*
X44228Y-46866D01*
X44354Y-46881D01*
X44735Y-46500D01*
X44735Y-46528D01*
X44368Y-46895D01*
X44383Y-47021D01*
X44456Y-47053D01*
X44453Y-47054D01*
X44305Y-47202D01*
X44225Y-47395D01*
X44224Y-47603D01*
X44304Y-47797D01*
X44452Y-47944D01*
X44585Y-48000D01*
X44453Y-48054D01*
X44305Y-48202D01*
X44225Y-48395D01*
X44224Y-48603D01*
X44304Y-48797D01*
X44452Y-48944D01*
X44645Y-49024D01*
X44853Y-49025D01*
X45047Y-48945D01*
X45194Y-48797D01*
X45274Y-48604D01*
X45275Y-48396D01*
X45275Y-49680D01*
X45097Y-49606D01*
X44841Y-49606D01*
X44604Y-49704D01*
X44423Y-49885D01*
X44325Y-50121D01*
X44325Y-50377D01*
X44423Y-50614D01*
X44604Y-50795D01*
X44840Y-50893D01*
X45096Y-50893D01*
X45333Y-50795D01*
X45514Y-50614D01*
X45612Y-50378D01*
X45612Y-50122D01*
X45612Y-51300D01*
X44295Y-51300D01*
X44295Y-50141D01*
X44212Y-49941D01*
X44059Y-49787D01*
X43858Y-49704D01*
X43840Y-49704D01*
X43318Y-49181D01*
X43172Y-49084D01*
X43000Y-49050D01*
X42377Y-49050D01*
X42377Y-48390D01*
X42288Y-48158D01*
X42271Y-48133D01*
X42145Y-48118D01*
X41764Y-48500D01*
X42145Y-48881D01*
X42271Y-48866D01*
X42371Y-48639D01*
X42377Y-48390D01*
X42377Y-49050D01*
X42060Y-49050D01*
X42091Y-49038D01*
X42116Y-49021D01*
X42131Y-48895D01*
X41750Y-48514D01*
X41735Y-48528D01*
X41735Y-48500D01*
X41354Y-48118D01*
X41228Y-48133D01*
X41143Y-48325D01*
X41143Y-47841D01*
X41045Y-47604D01*
X40864Y-47423D01*
X40628Y-47325D01*
X40372Y-47325D01*
X40135Y-47423D01*
X39954Y-47604D01*
X39856Y-47840D01*
X39856Y-48096D01*
X39954Y-48333D01*
X40135Y-48514D01*
X40371Y-48612D01*
X40627Y-48612D01*
X40864Y-48514D01*
X41045Y-48333D01*
X41143Y-48097D01*
X41143Y-47841D01*
X41143Y-48325D01*
X41128Y-48360D01*
X41122Y-48609D01*
X41211Y-48841D01*
X41228Y-48866D01*
X41354Y-48881D01*
X41735Y-48500D01*
X41735Y-48528D01*
X41368Y-48895D01*
X41383Y-49021D01*
X41610Y-49121D01*
X41765Y-49125D01*
X41681Y-49181D01*
X41063Y-49800D01*
X37321Y-49800D01*
X37309Y-49787D01*
X37108Y-49704D01*
X36891Y-49704D01*
X36691Y-49787D01*
X36562Y-49915D01*
X36555Y-49897D01*
X36538Y-49871D01*
X36410Y-49853D01*
X36396Y-49867D01*
X36396Y-49839D01*
X36378Y-49711D01*
X36143Y-49607D01*
X35887Y-49601D01*
X35647Y-49694D01*
X35627Y-49707D01*
X35627Y-48390D01*
X35538Y-48158D01*
X35521Y-48133D01*
X35395Y-48118D01*
X35014Y-48500D01*
X35395Y-48881D01*
X35521Y-48866D01*
X35621Y-48639D01*
X35627Y-48390D01*
X35627Y-49707D01*
X35621Y-49711D01*
X35603Y-49839D01*
X36000Y-50235D01*
X36396Y-49839D01*
X36396Y-49867D01*
X36014Y-50250D01*
X36410Y-50646D01*
X36538Y-50628D01*
X36559Y-50580D01*
X36690Y-50712D01*
X36891Y-50795D01*
X36909Y-50795D01*
X38181Y-52068D01*
X38327Y-52165D01*
X38332Y-52166D01*
X38415Y-52249D01*
X38632Y-52339D01*
X38866Y-52340D01*
X39083Y-52250D01*
X39178Y-52155D01*
X39307Y-52178D01*
X39735Y-51750D01*
X39307Y-51321D01*
X39178Y-51344D01*
X39084Y-51250D01*
X38867Y-51160D01*
X38633Y-51159D01*
X38571Y-51185D01*
X38086Y-50700D01*
X41250Y-50700D01*
X41422Y-50665D01*
X41568Y-50568D01*
X42169Y-49967D01*
X42107Y-50106D01*
X42101Y-50362D01*
X42194Y-50602D01*
X42211Y-50628D01*
X42339Y-50646D01*
X42735Y-50250D01*
X42730Y-50244D01*
X42744Y-50230D01*
X42750Y-50235D01*
X42755Y-50230D01*
X42769Y-50244D01*
X42764Y-50250D01*
X43160Y-50646D01*
X43288Y-50628D01*
X43309Y-50580D01*
X43440Y-50712D01*
X43641Y-50795D01*
X43858Y-50795D01*
X44058Y-50712D01*
X44212Y-50559D01*
X44295Y-50358D01*
X44295Y-50141D01*
X44295Y-51300D01*
X43146Y-51300D01*
X43146Y-50660D01*
X42750Y-50264D01*
X42353Y-50660D01*
X42371Y-50788D01*
X42606Y-50892D01*
X42862Y-50898D01*
X43102Y-50805D01*
X43128Y-50788D01*
X43146Y-50660D01*
X43146Y-51300D01*
X41315Y-51300D01*
X41301Y-51268D01*
X41231Y-51198D01*
X41139Y-51160D01*
X41040Y-51160D01*
X40360Y-51160D01*
X40268Y-51198D01*
X40198Y-51268D01*
X40184Y-51301D01*
X40178Y-51307D01*
X40155Y-51175D01*
X39904Y-51063D01*
X39630Y-51056D01*
X39373Y-51155D01*
X39344Y-51175D01*
X39321Y-51307D01*
X39750Y-51735D01*
X39755Y-51730D01*
X39769Y-51744D01*
X39764Y-51750D01*
X39769Y-51755D01*
X39755Y-51769D01*
X39750Y-51764D01*
X39321Y-52192D01*
X39344Y-52324D01*
X39595Y-52436D01*
X39869Y-52443D01*
X40126Y-52344D01*
X40155Y-52324D01*
X40178Y-52192D01*
X40178Y-52192D01*
X40184Y-52198D01*
X40198Y-52231D01*
X40268Y-52301D01*
X40360Y-52340D01*
X40459Y-52340D01*
X41139Y-52340D01*
X41231Y-52301D01*
X41301Y-52231D01*
X41315Y-52200D01*
X42328Y-52200D01*
X42313Y-52268D01*
X42781Y-52735D01*
X43248Y-52268D01*
X43233Y-52200D01*
X44575Y-52200D01*
X44574Y-52250D01*
X43625Y-53200D01*
X43341Y-53200D01*
X43400Y-53187D01*
X43520Y-52917D01*
X43528Y-52621D01*
X43422Y-52345D01*
X43400Y-52312D01*
X43262Y-52282D01*
X42795Y-52750D01*
X42800Y-52755D01*
X42786Y-52769D01*
X42781Y-52764D01*
X42775Y-52769D01*
X42761Y-52755D01*
X42766Y-52750D01*
X42299Y-52282D01*
X42161Y-52312D01*
X42041Y-52582D01*
X42033Y-52878D01*
X42066Y-52963D01*
X42000Y-52950D01*
X40301Y-52950D01*
X40241Y-52889D01*
X40178Y-52863D01*
X40084Y-52825D01*
X39915Y-52824D01*
X39759Y-52889D01*
X39639Y-53008D01*
X39575Y-53165D01*
X39574Y-53334D01*
X39622Y-53450D01*
X38374Y-53450D01*
X37712Y-52787D01*
X37614Y-52722D01*
X37500Y-52700D01*
X36396Y-52700D01*
X36396Y-50660D01*
X36000Y-50264D01*
X35985Y-50278D01*
X35985Y-50250D01*
X35589Y-49853D01*
X35461Y-49871D01*
X35381Y-50052D01*
X35381Y-48895D01*
X35000Y-48514D01*
X34985Y-48528D01*
X34985Y-48500D01*
X34604Y-48118D01*
X34478Y-48133D01*
X34378Y-48360D01*
X34372Y-48609D01*
X34461Y-48841D01*
X34478Y-48866D01*
X34604Y-48881D01*
X34985Y-48500D01*
X34985Y-48528D01*
X34618Y-48895D01*
X34633Y-49021D01*
X34860Y-49121D01*
X35109Y-49127D01*
X35341Y-49038D01*
X35366Y-49021D01*
X35381Y-48895D01*
X35381Y-50052D01*
X35357Y-50106D01*
X35351Y-50362D01*
X35444Y-50602D01*
X35461Y-50628D01*
X35589Y-50646D01*
X35985Y-50250D01*
X35985Y-50278D01*
X35603Y-50660D01*
X35621Y-50788D01*
X35856Y-50892D01*
X36112Y-50898D01*
X36352Y-50805D01*
X36378Y-50788D01*
X36396Y-50660D01*
X36396Y-52700D01*
X35143Y-52700D01*
X35143Y-49591D01*
X35045Y-49354D01*
X34864Y-49173D01*
X34628Y-49075D01*
X34372Y-49075D01*
X34135Y-49173D01*
X33954Y-49354D01*
X33856Y-49590D01*
X33856Y-49846D01*
X33954Y-50083D01*
X34135Y-50264D01*
X34371Y-50362D01*
X34627Y-50362D01*
X34864Y-50264D01*
X35045Y-50083D01*
X35143Y-49847D01*
X35143Y-49591D01*
X35143Y-52700D01*
X33500Y-52700D01*
X33385Y-52722D01*
X33287Y-52787D01*
X33000Y-53075D01*
X32872Y-53075D01*
X32635Y-53173D01*
X32454Y-53354D01*
X32356Y-53590D01*
X32356Y-53846D01*
X32454Y-54083D01*
X32635Y-54264D01*
X32827Y-54344D01*
X32635Y-54423D01*
X32454Y-54604D01*
X32356Y-54840D01*
X32356Y-55096D01*
X32454Y-55333D01*
X32635Y-55514D01*
X32871Y-55612D01*
X33127Y-55612D01*
X33364Y-55514D01*
X33545Y-55333D01*
X33643Y-55097D01*
X33643Y-54841D01*
X33545Y-54604D01*
X33364Y-54423D01*
X33172Y-54343D01*
X33364Y-54264D01*
X33545Y-54083D01*
X33643Y-53847D01*
X33643Y-53591D01*
X33552Y-53371D01*
X33624Y-53300D01*
X34008Y-53300D01*
X33954Y-53354D01*
X33856Y-53590D01*
X33856Y-53846D01*
X33954Y-54083D01*
X34135Y-54264D01*
X34327Y-54344D01*
X34135Y-54423D01*
X33954Y-54604D01*
X33856Y-54840D01*
X33856Y-55096D01*
X33954Y-55333D01*
X34135Y-55514D01*
X34371Y-55612D01*
X34627Y-55612D01*
X34864Y-55514D01*
X35045Y-55333D01*
X35143Y-55097D01*
X35143Y-55050D01*
X35750Y-55050D01*
X35750Y-55049D01*
X35829Y-55034D01*
X35681Y-55181D01*
X35584Y-55327D01*
X35550Y-55500D01*
X35550Y-57500D01*
X35584Y-57672D01*
X35681Y-57818D01*
X36157Y-58293D01*
X36193Y-58475D01*
X36321Y-58667D01*
X36329Y-58672D01*
X36268Y-58698D01*
X36198Y-58768D01*
X36160Y-58860D01*
X36160Y-58959D01*
X36160Y-59639D01*
X36198Y-59731D01*
X36268Y-59801D01*
X36360Y-59840D01*
X36459Y-59840D01*
X37139Y-59840D01*
X37231Y-59801D01*
X37301Y-59731D01*
X37327Y-59671D01*
X37512Y-59795D01*
X37738Y-59840D01*
X37761Y-59840D01*
X37987Y-59795D01*
X38178Y-59667D01*
X38250Y-59560D01*
X38321Y-59667D01*
X38512Y-59795D01*
X38738Y-59840D01*
X38761Y-59840D01*
X38987Y-59795D01*
X39178Y-59667D01*
X39250Y-59560D01*
X39321Y-59667D01*
X39512Y-59795D01*
X39738Y-59840D01*
X39761Y-59840D01*
X39987Y-59795D01*
X40178Y-59667D01*
X40189Y-59650D01*
X40380Y-59833D01*
X40632Y-59929D01*
X40740Y-59852D01*
X40740Y-59260D01*
X40732Y-59260D01*
X40732Y-59240D01*
X40740Y-59240D01*
X40740Y-59232D01*
X40760Y-59232D01*
X40760Y-59240D01*
X40767Y-59240D01*
X40767Y-59260D01*
X40760Y-59260D01*
X40760Y-59852D01*
X40867Y-59929D01*
X41119Y-59833D01*
X41310Y-59650D01*
X41321Y-59667D01*
X41512Y-59795D01*
X41738Y-59840D01*
X41761Y-59840D01*
X41987Y-59795D01*
X42178Y-59667D01*
X42250Y-59560D01*
X42321Y-59667D01*
X42512Y-59795D01*
X42738Y-59840D01*
X42761Y-59840D01*
X42987Y-59795D01*
X43178Y-59667D01*
X43250Y-59560D01*
X43321Y-59667D01*
X43512Y-59795D01*
X43738Y-59840D01*
X43761Y-59840D01*
X43987Y-59795D01*
X44178Y-59667D01*
X44250Y-59560D01*
X44321Y-59667D01*
X44512Y-59795D01*
X44738Y-59840D01*
X44761Y-59840D01*
X44987Y-59795D01*
X45178Y-59667D01*
X45250Y-59560D01*
X45321Y-59667D01*
X45512Y-59795D01*
X45738Y-59840D01*
X45761Y-59840D01*
X45987Y-59795D01*
X46178Y-59667D01*
X46250Y-59560D01*
X46321Y-59667D01*
X46512Y-59795D01*
X46738Y-59840D01*
X46761Y-59840D01*
X46987Y-59795D01*
X47178Y-59667D01*
X47250Y-59560D01*
X47321Y-59667D01*
X47512Y-59795D01*
X47738Y-59840D01*
X47761Y-59840D01*
X47987Y-59795D01*
X48178Y-59667D01*
X48189Y-59650D01*
X48380Y-59833D01*
X48632Y-59929D01*
X48740Y-59852D01*
X48740Y-59260D01*
X48732Y-59260D01*
X48732Y-59240D01*
X48740Y-59240D01*
X48740Y-59232D01*
X48760Y-59232D01*
X48760Y-59240D01*
X49352Y-59240D01*
X49429Y-59132D01*
X49429Y-59367D01*
X49352Y-59260D01*
X48760Y-59260D01*
X48760Y-59852D01*
X48867Y-59929D01*
X49119Y-59833D01*
X49314Y-59647D01*
X49423Y-59401D01*
X49429Y-59367D01*
X49429Y-60072D01*
X35247Y-60072D01*
X35247Y-58840D01*
X35141Y-58564D01*
X35119Y-58531D01*
X34981Y-58501D01*
X34967Y-58516D01*
X34967Y-58487D01*
X34937Y-58349D01*
X34667Y-58229D01*
X34371Y-58221D01*
X34095Y-58327D01*
X34062Y-58349D01*
X34032Y-58487D01*
X34500Y-58954D01*
X34967Y-58487D01*
X34967Y-58516D01*
X34514Y-58969D01*
X34981Y-59436D01*
X35119Y-59406D01*
X35239Y-59136D01*
X35247Y-58840D01*
X35247Y-60072D01*
X34967Y-60072D01*
X34967Y-59450D01*
X34500Y-58983D01*
X34485Y-58997D01*
X34485Y-58969D01*
X34018Y-58501D01*
X33880Y-58531D01*
X33760Y-58801D01*
X33752Y-59097D01*
X33858Y-59373D01*
X33880Y-59406D01*
X34018Y-59436D01*
X34485Y-58969D01*
X34485Y-58997D01*
X34032Y-59450D01*
X34062Y-59588D01*
X34332Y-59708D01*
X34628Y-59716D01*
X34904Y-59610D01*
X34937Y-59588D01*
X34967Y-59450D01*
X34967Y-60072D01*
X33747Y-60072D01*
X33747Y-58840D01*
X33641Y-58564D01*
X33619Y-58531D01*
X33481Y-58501D01*
X33467Y-58516D01*
X33467Y-58487D01*
X33437Y-58349D01*
X33167Y-58229D01*
X32871Y-58221D01*
X32595Y-58327D01*
X32562Y-58349D01*
X32532Y-58487D01*
X33000Y-58954D01*
X33467Y-58487D01*
X33467Y-58516D01*
X33014Y-58969D01*
X33481Y-59436D01*
X33619Y-59406D01*
X33739Y-59136D01*
X33747Y-58840D01*
X33747Y-60072D01*
X33467Y-60072D01*
X33467Y-59450D01*
X33000Y-58983D01*
X32985Y-58997D01*
X32985Y-58969D01*
X32518Y-58501D01*
X32380Y-58531D01*
X32260Y-58801D01*
X32252Y-59097D01*
X32358Y-59373D01*
X32380Y-59406D01*
X32518Y-59436D01*
X32985Y-58969D01*
X32985Y-58997D01*
X32532Y-59450D01*
X32562Y-59588D01*
X32832Y-59708D01*
X33128Y-59716D01*
X33404Y-59610D01*
X33437Y-59588D01*
X33467Y-59450D01*
X33467Y-60072D01*
X31940Y-60072D01*
X31940Y-59659D01*
X31940Y-59347D01*
X31940Y-59152D01*
X31940Y-58840D01*
X31886Y-58711D01*
X31788Y-58613D01*
X31740Y-58593D01*
X31749Y-58584D01*
X31839Y-58367D01*
X31840Y-58133D01*
X31750Y-57916D01*
X31584Y-57750D01*
X31584Y-57749D01*
X31749Y-57584D01*
X31839Y-57367D01*
X31840Y-57133D01*
X31750Y-56916D01*
X31584Y-56750D01*
X31584Y-56749D01*
X31749Y-56584D01*
X31839Y-56367D01*
X31840Y-56133D01*
X31750Y-55916D01*
X31584Y-55750D01*
X31584Y-55749D01*
X31749Y-55584D01*
X31839Y-55367D01*
X31840Y-55133D01*
X31750Y-54916D01*
X31584Y-54750D01*
X31584Y-54749D01*
X31749Y-54584D01*
X31839Y-54367D01*
X31840Y-54133D01*
X31750Y-53916D01*
X31584Y-53750D01*
X31367Y-53660D01*
X31133Y-53659D01*
X30916Y-53749D01*
X30750Y-53915D01*
X30660Y-54132D01*
X30659Y-54366D01*
X30749Y-54583D01*
X30915Y-54749D01*
X30915Y-54750D01*
X30750Y-54915D01*
X30660Y-55132D01*
X30659Y-55366D01*
X30749Y-55583D01*
X30915Y-55749D01*
X30915Y-55750D01*
X30750Y-55915D01*
X30660Y-56132D01*
X30659Y-56366D01*
X30749Y-56583D01*
X30915Y-56749D01*
X30915Y-56750D01*
X30750Y-56915D01*
X30660Y-57132D01*
X30659Y-57366D01*
X30749Y-57583D01*
X30915Y-57749D01*
X30915Y-57750D01*
X30750Y-57915D01*
X30660Y-58132D01*
X30659Y-58366D01*
X30749Y-58583D01*
X30759Y-58593D01*
X30711Y-58613D01*
X30613Y-58711D01*
X30560Y-58840D01*
X30560Y-59152D01*
X30647Y-59240D01*
X31240Y-59240D01*
X31240Y-59232D01*
X31260Y-59232D01*
X31260Y-59240D01*
X31852Y-59240D01*
X31940Y-59152D01*
X31940Y-59347D01*
X31852Y-59260D01*
X31260Y-59260D01*
X31260Y-59852D01*
X31347Y-59940D01*
X31520Y-59940D01*
X31659Y-59940D01*
X31788Y-59886D01*
X31886Y-59788D01*
X31940Y-59659D01*
X31940Y-60072D01*
X31240Y-60072D01*
X31240Y-59852D01*
X31240Y-59260D01*
X30647Y-59260D01*
X30560Y-59347D01*
X30560Y-59659D01*
X30613Y-59788D01*
X30711Y-59886D01*
X30840Y-59940D01*
X30979Y-59940D01*
X31152Y-59940D01*
X31240Y-59852D01*
X31240Y-60072D01*
X30427Y-60072D01*
X30427Y-40927D01*
X31568Y-40927D01*
X31518Y-40948D01*
X31448Y-41018D01*
X31410Y-41110D01*
X31410Y-41209D01*
X31410Y-41889D01*
X31448Y-41981D01*
X31518Y-42051D01*
X31578Y-42077D01*
X31454Y-42262D01*
X31410Y-42488D01*
X31410Y-42511D01*
X31454Y-42737D01*
X31582Y-42928D01*
X31689Y-43000D01*
X31582Y-43071D01*
X31454Y-43262D01*
X31410Y-43488D01*
X31410Y-43511D01*
X31454Y-43737D01*
X31582Y-43928D01*
X31689Y-44000D01*
X31582Y-44071D01*
X31454Y-44262D01*
X31410Y-44488D01*
X31410Y-44511D01*
X31454Y-44737D01*
X31582Y-44928D01*
X31689Y-45000D01*
X31582Y-45071D01*
X31454Y-45262D01*
X31410Y-45488D01*
X31410Y-45511D01*
X31422Y-45574D01*
X31415Y-45574D01*
X31259Y-45639D01*
X31139Y-45758D01*
X31075Y-45915D01*
X31074Y-46084D01*
X31139Y-46240D01*
X31258Y-46360D01*
X31415Y-46424D01*
X31422Y-46424D01*
X31410Y-46488D01*
X31410Y-46511D01*
X31454Y-46737D01*
X31582Y-46928D01*
X31689Y-47000D01*
X31582Y-47071D01*
X31454Y-47262D01*
X31410Y-47488D01*
X31410Y-47511D01*
X31454Y-47737D01*
X31582Y-47928D01*
X31689Y-48000D01*
X31582Y-48071D01*
X31454Y-48262D01*
X31410Y-48488D01*
X31410Y-48511D01*
X31454Y-48737D01*
X31582Y-48928D01*
X31774Y-49056D01*
X32000Y-49101D01*
X32225Y-49056D01*
X32385Y-48950D01*
X32614Y-48950D01*
X32774Y-49056D01*
X32871Y-49075D01*
X32635Y-49173D01*
X32454Y-49354D01*
X32356Y-49590D01*
X32356Y-49846D01*
X32454Y-50083D01*
X32635Y-50264D01*
X32871Y-50362D01*
X33127Y-50362D01*
X33364Y-50264D01*
X33545Y-50083D01*
X33643Y-49847D01*
X33643Y-49591D01*
X33545Y-49354D01*
X33364Y-49173D01*
X33129Y-49075D01*
X33225Y-49056D01*
X33417Y-48928D01*
X33545Y-48737D01*
X33590Y-48511D01*
X33590Y-48488D01*
X33545Y-48262D01*
X33417Y-48071D01*
X33310Y-48000D01*
X33417Y-47928D01*
X33545Y-47737D01*
X33590Y-47511D01*
X33590Y-47488D01*
X33564Y-47359D01*
X34121Y-46802D01*
X34075Y-46915D01*
X34074Y-47084D01*
X34139Y-47240D01*
X34258Y-47360D01*
X34415Y-47424D01*
X34475Y-47424D01*
X34474Y-47603D01*
X34554Y-47797D01*
X34702Y-47944D01*
X34702Y-47944D01*
X34658Y-47961D01*
X34633Y-47978D01*
X34618Y-48104D01*
X35000Y-48485D01*
X35381Y-48104D01*
X35366Y-47978D01*
X35293Y-47946D01*
X35297Y-47945D01*
X35444Y-47797D01*
X35524Y-47604D01*
X35525Y-47396D01*
X35485Y-47300D01*
X37514Y-47300D01*
X37475Y-47395D01*
X37474Y-47603D01*
X37554Y-47797D01*
X37702Y-47944D01*
X37835Y-48000D01*
X37703Y-48054D01*
X37555Y-48202D01*
X37475Y-48395D01*
X37474Y-48603D01*
X37554Y-48797D01*
X37702Y-48944D01*
X37895Y-49024D01*
X38103Y-49025D01*
X38297Y-48945D01*
X38444Y-48797D01*
X38524Y-48604D01*
X38525Y-48396D01*
X38445Y-48203D01*
X38297Y-48055D01*
X38164Y-47999D01*
X38297Y-47945D01*
X38444Y-47797D01*
X38524Y-47604D01*
X38525Y-47396D01*
X38451Y-47218D01*
X38462Y-47212D01*
X38874Y-46800D01*
X40625Y-46800D01*
X41225Y-47399D01*
X41224Y-47603D01*
X41304Y-47797D01*
X41452Y-47944D01*
X41452Y-47944D01*
X41408Y-47961D01*
X41383Y-47978D01*
X41368Y-48104D01*
X41750Y-48485D01*
X42131Y-48104D01*
X42116Y-47978D01*
X42043Y-47946D01*
X42047Y-47945D01*
X42194Y-47797D01*
X42274Y-47604D01*
X42275Y-47396D01*
X42195Y-47203D01*
X42047Y-47055D01*
X41914Y-46999D01*
X42047Y-46945D01*
X42194Y-46797D01*
X42274Y-46604D01*
X42275Y-46396D01*
X42195Y-46203D01*
X42047Y-46055D01*
X41914Y-45999D01*
X42047Y-45945D01*
X42194Y-45797D01*
X42274Y-45604D01*
X42275Y-45399D01*
X42374Y-45300D01*
X44264Y-45300D01*
X44225Y-45395D01*
X44224Y-45603D01*
X44304Y-45797D01*
X44452Y-45944D01*
X44452Y-45944D01*
X44408Y-45961D01*
X44383Y-45978D01*
X44368Y-46104D01*
X44750Y-46485D01*
X45131Y-46104D01*
X45116Y-45978D01*
X45043Y-45946D01*
X45047Y-45945D01*
X45194Y-45797D01*
X45274Y-45604D01*
X45275Y-45396D01*
X45235Y-45300D01*
X45448Y-45300D01*
X45508Y-45360D01*
X45665Y-45424D01*
X45834Y-45425D01*
X45990Y-45360D01*
X46110Y-45241D01*
X46174Y-45084D01*
X46175Y-44915D01*
X46110Y-44759D01*
X45991Y-44639D01*
X45834Y-44575D01*
X45665Y-44574D01*
X45509Y-44639D01*
X45448Y-44700D01*
X45235Y-44700D01*
X45274Y-44604D01*
X45275Y-44396D01*
X45260Y-44360D01*
X45415Y-44424D01*
X45584Y-44425D01*
X45740Y-44360D01*
X45860Y-44241D01*
X45924Y-44084D01*
X45925Y-43915D01*
X45860Y-43759D01*
X45741Y-43639D01*
X45584Y-43575D01*
X45415Y-43574D01*
X45260Y-43639D01*
X45274Y-43604D01*
X45275Y-43396D01*
X45195Y-43203D01*
X45047Y-43055D01*
X44914Y-42999D01*
X45047Y-42945D01*
X45194Y-42797D01*
X45274Y-42604D01*
X45275Y-42396D01*
X45195Y-42203D01*
X45047Y-42055D01*
X44854Y-41975D01*
X44646Y-41974D01*
X44453Y-42054D01*
X44305Y-42202D01*
X44225Y-42395D01*
X44224Y-42603D01*
X44304Y-42797D01*
X44452Y-42944D01*
X44585Y-43000D01*
X44453Y-43054D01*
X44305Y-43202D01*
X44225Y-43395D01*
X44224Y-43603D01*
X44264Y-43700D01*
X42235Y-43700D01*
X42274Y-43604D01*
X42275Y-43396D01*
X42195Y-43203D01*
X42047Y-43055D01*
X41975Y-43025D01*
X42074Y-43025D01*
X42166Y-42986D01*
X42236Y-42916D01*
X42275Y-42824D01*
X42275Y-42725D01*
X42275Y-42175D01*
X42236Y-42083D01*
X42166Y-42013D01*
X42074Y-41975D01*
X41975Y-41975D01*
X41532Y-41975D01*
X41540Y-41745D01*
X41325Y-41175D01*
X41268Y-41090D01*
X41049Y-40965D01*
X41086Y-40927D01*
X46568Y-40927D01*
X46518Y-40948D01*
X46448Y-41018D01*
X46410Y-41110D01*
X46410Y-41209D01*
X46410Y-41889D01*
X46448Y-41981D01*
X46518Y-42051D01*
X46578Y-42077D01*
X46454Y-42262D01*
X46410Y-42488D01*
X46410Y-42511D01*
X46454Y-42737D01*
X46582Y-42928D01*
X46599Y-42939D01*
X46416Y-43130D01*
X46320Y-43382D01*
X46397Y-43490D01*
X46990Y-43490D01*
X46990Y-43482D01*
X47010Y-43482D01*
X47010Y-43490D01*
X47397Y-43490D01*
X47602Y-43490D01*
X47990Y-43490D01*
X47990Y-43482D01*
X48010Y-43482D01*
X48010Y-43490D01*
X48602Y-43490D01*
X48679Y-43382D01*
X48583Y-43130D01*
X48400Y-42939D01*
X48417Y-42928D01*
X48545Y-42737D01*
X48590Y-42511D01*
X48590Y-42488D01*
X48545Y-42262D01*
X48417Y-42071D01*
X48310Y-42000D01*
X48417Y-41928D01*
X48545Y-41737D01*
X48590Y-41511D01*
X48590Y-41488D01*
X48545Y-41262D01*
X48417Y-41071D01*
X48225Y-40943D01*
X48144Y-40927D01*
X49572Y-40927D01*
X49572Y-50026D01*
X49514Y-49885D01*
X49333Y-49704D01*
X49097Y-49606D01*
X49028Y-49606D01*
X49049Y-49500D01*
X49050Y-49500D01*
X49050Y-45250D01*
X49027Y-45135D01*
X49027Y-45135D01*
X48962Y-45037D01*
X48564Y-44640D01*
X48590Y-44511D01*
X48590Y-44488D01*
X48545Y-44262D01*
X48417Y-44071D01*
X48400Y-44060D01*
X48583Y-43869D01*
X48679Y-43617D01*
X48602Y-43510D01*
X48010Y-43510D01*
X48010Y-43517D01*
X47990Y-43517D01*
X47990Y-43510D01*
X47602Y-43510D01*
X47397Y-43510D01*
X47010Y-43510D01*
X47010Y-43517D01*
X46990Y-43517D01*
X46990Y-43510D01*
X46397Y-43510D01*
X46320Y-43617D01*
X46416Y-43869D01*
X46599Y-44060D01*
X46582Y-44071D01*
X46454Y-44262D01*
X46410Y-44488D01*
X46410Y-44511D01*
X46454Y-44737D01*
X46582Y-44928D01*
X46689Y-45000D01*
X46582Y-45071D01*
X46454Y-45262D01*
X46410Y-45488D01*
X46410Y-45511D01*
X46454Y-45737D01*
X46582Y-45928D01*
X46689Y-46000D01*
X46582Y-46071D01*
X46454Y-46262D01*
X46410Y-46488D01*
X46410Y-46511D01*
X46454Y-46737D01*
X46582Y-46928D01*
X46689Y-47000D01*
X46582Y-47071D01*
X46454Y-47262D01*
X46410Y-47488D01*
X46410Y-47511D01*
X46454Y-47737D01*
X46582Y-47928D01*
X46689Y-48000D01*
X46582Y-48071D01*
X46454Y-48262D01*
X46410Y-48488D01*
X46410Y-48511D01*
X46454Y-48737D01*
X46582Y-48928D01*
X46774Y-49056D01*
X47000Y-49101D01*
X47225Y-49056D01*
X47385Y-48950D01*
X47614Y-48950D01*
X47774Y-49056D01*
X48000Y-49101D01*
X48225Y-49056D01*
X48417Y-48928D01*
X48450Y-48879D01*
X48450Y-49375D01*
X48037Y-49787D01*
X47972Y-49885D01*
X47950Y-50000D01*
X47950Y-51500D01*
X47972Y-51614D01*
X48037Y-51712D01*
X48454Y-52128D01*
X48450Y-52140D01*
X48450Y-52237D01*
X48359Y-52200D01*
X48141Y-52199D01*
X47938Y-52283D01*
X47784Y-52438D01*
X47700Y-52640D01*
X47699Y-52858D01*
X47783Y-53061D01*
X47938Y-53215D01*
X48140Y-53299D01*
X48348Y-53300D01*
X48347Y-53363D01*
X48440Y-53604D01*
X48458Y-53631D01*
X48586Y-53649D01*
X48985Y-53250D01*
X48980Y-53244D01*
X48994Y-53230D01*
X49000Y-53235D01*
X49399Y-52836D01*
X49381Y-52708D01*
X49338Y-52689D01*
X49465Y-52561D01*
X49549Y-52359D01*
X49550Y-52141D01*
X49466Y-51938D01*
X49311Y-51784D01*
X49109Y-51700D01*
X48891Y-51699D01*
X48879Y-51704D01*
X48550Y-51375D01*
X48550Y-50741D01*
X48604Y-50795D01*
X48840Y-50893D01*
X49096Y-50893D01*
X49333Y-50795D01*
X49514Y-50614D01*
X49572Y-50473D01*
X49572Y-52929D01*
X49559Y-52895D01*
X49541Y-52868D01*
X49413Y-52850D01*
X49014Y-53250D01*
X49413Y-53649D01*
X49541Y-53631D01*
X49572Y-53561D01*
X49572Y-60072D01*
M02*
