M48
;DRILL file {kicad (2014-jan-25)-product} date Fri 11 Jul 2014 09:44:31 PM PDT
;FORMAT={-:-/ absolute / metric / decimal}
FMAT,2
METRIC,TZ
T1C0.635
T2C0.762
T3C0.800
T4C0.813
T5C1.001
T6C1.016
T7C3.175
%
G90
G05
M71
T1
X80.01Y-116.84
X85.09Y-111.76
X87.63Y-119.38
X93.98Y-127.635
X101.6Y-135.255
X103.505Y-136.525
X104.775Y-146.05
X106.045Y-136.525
X114.3Y-132.715
X115.57Y-111.76
X116.205Y-114.3
X120.015Y-131.445
T2
X122.555Y-133.985
X124.46Y-132.715
X124.46Y-135.255
T3
X91.44Y-127.635
X93.98Y-127.635
X108.585Y-127.635
X111.125Y-127.635
T4
X88.9Y-107.95
X88.9Y-110.49
X88.9Y-113.03
X88.9Y-115.57
X88.9Y-118.11
X88.9Y-120.65
X88.9Y-123.19
X96.52Y-107.95
X96.52Y-110.49
X96.52Y-113.03
X96.52Y-115.57
X96.52Y-118.11
X96.52Y-120.65
X96.52Y-123.19
X106.045Y-107.95
X106.045Y-110.49
X106.045Y-113.03
X106.045Y-115.57
X106.045Y-118.11
X106.045Y-120.65
X106.045Y-123.19
X113.665Y-107.95
X113.665Y-110.49
X113.665Y-113.03
X113.665Y-115.57
X113.665Y-118.11
X113.665Y-120.65
X113.665Y-123.19
T5
X83.82Y-126.286
X83.82Y-136.446
X83.82Y-139.621
X83.82Y-149.781
X87.63Y-126.286
X87.63Y-136.446
X87.63Y-139.621
X87.63Y-149.781
X102.87Y-111.681
X102.87Y-121.841
X108.664Y-133.985
X114.221Y-127.635
X118.824Y-133.985
X124.381Y-127.635
T6
X79.375Y-137.795
X79.375Y-140.335
X79.375Y-142.875
X79.375Y-145.415
X79.375Y-147.955
X79.375Y-150.495
X81.28Y-105.41
X81.28Y-107.95
X81.28Y-110.49
X81.28Y-113.03
X81.28Y-115.57
X81.28Y-118.11
X81.28Y-120.65
X81.28Y-123.19
X83.82Y-105.41
X83.82Y-107.95
X83.82Y-110.49
X83.82Y-113.03
X83.82Y-115.57
X83.82Y-118.11
X83.82Y-120.65
X83.82Y-123.19
X93.345Y-139.7
X93.345Y-142.24
X93.345Y-147.955
X93.345Y-150.495
X95.885Y-139.7
X95.885Y-142.24
X95.885Y-147.955
X95.885Y-150.495
X98.425Y-131.445
X98.425Y-139.7
X98.425Y-142.24
X98.425Y-147.955
X98.425Y-150.495
X100.965Y-131.445
X100.965Y-139.7
X100.965Y-142.24
X100.965Y-147.955
X100.965Y-150.495
X103.505Y-131.445
X103.505Y-139.7
X103.505Y-142.24
X103.505Y-147.955
X103.505Y-150.495
X106.045Y-139.7
X106.045Y-142.24
X106.045Y-147.955
X106.045Y-150.495
X108.585Y-139.7
X108.585Y-142.24
X108.585Y-147.955
X108.585Y-150.495
X111.125Y-139.7
X111.125Y-142.24
X111.125Y-147.955
X111.125Y-150.495
X113.665Y-139.7
X113.665Y-142.24
X113.665Y-147.955
X113.665Y-150.495
X116.205Y-139.7
X116.205Y-142.24
X116.205Y-147.955
X116.205Y-150.495
X118.745Y-139.7
X118.745Y-142.24
X118.745Y-147.955
X118.745Y-150.495
X119.38Y-105.41
X119.38Y-107.95
X119.38Y-110.49
X119.38Y-113.03
X119.38Y-115.57
X119.38Y-118.11
X119.38Y-120.65
X119.38Y-123.19
X121.285Y-139.7
X121.285Y-142.24
X121.285Y-147.955
X121.285Y-150.495
X121.92Y-105.41
X121.92Y-107.95
X121.92Y-110.49
X121.92Y-113.03
X121.92Y-115.57
X121.92Y-118.11
X121.92Y-120.65
X121.92Y-123.19
X123.825Y-139.7
X123.825Y-142.24
X123.825Y-147.955
X123.825Y-150.495
T7
X101.6Y-106.68
T0
M30
