%FSLAX34Y34*%
G04 Gerber Fmt 3.4, Leading zero omitted, Abs format*
G04 (created by PCBNEW (2014-jan-25)-product) date Sun 13 Jul 2014 04:36:42 PM PDT*
%MOIN*%
G01*
G70*
G90*
G04 APERTURE LIST*
%ADD10C,0.003937*%
%ADD11R,0.068000X0.068000*%
%ADD12O,0.068000X0.068000*%
%ADD13C,0.060000*%
%ADD14C,0.068000*%
%ADD15C,0.078700*%
%ADD16R,0.055000X0.055000*%
%ADD17C,0.055000*%
%ADD18C,0.059100*%
%ADD19C,0.236220*%
%ADD20C,0.035000*%
%ADD21C,0.040000*%
%ADD22C,0.010000*%
G04 APERTURE END LIST*
G54D10*
G54D11*
X32000Y-41500D03*
G54D12*
X33000Y-41500D03*
X32000Y-42500D03*
X33000Y-42500D03*
X32000Y-43500D03*
X33000Y-43500D03*
X32000Y-44500D03*
X33000Y-44500D03*
X32000Y-45500D03*
X33000Y-45500D03*
X32000Y-46500D03*
X33000Y-46500D03*
X32000Y-47500D03*
X33000Y-47500D03*
X32000Y-48500D03*
X33000Y-48500D03*
G54D11*
X47000Y-41500D03*
G54D12*
X48000Y-41500D03*
X47000Y-42500D03*
X48000Y-42500D03*
X47000Y-43500D03*
X48000Y-43500D03*
X47000Y-44500D03*
X48000Y-44500D03*
X47000Y-45500D03*
X48000Y-45500D03*
X47000Y-46500D03*
X48000Y-46500D03*
X47000Y-47500D03*
X48000Y-47500D03*
X47000Y-48500D03*
X48000Y-48500D03*
G54D11*
X36750Y-59250D03*
G54D12*
X36750Y-58250D03*
X37750Y-59250D03*
X37750Y-58250D03*
X38750Y-59250D03*
X38750Y-58250D03*
X39750Y-59250D03*
X39750Y-58250D03*
X40750Y-59250D03*
X40750Y-58250D03*
X41750Y-59250D03*
X41750Y-58250D03*
X42750Y-59250D03*
X42750Y-58250D03*
X43750Y-59250D03*
X43750Y-58250D03*
X44750Y-59250D03*
X44750Y-58250D03*
X45750Y-59250D03*
X45750Y-58250D03*
X46750Y-59250D03*
X46750Y-58250D03*
X47750Y-59250D03*
X47750Y-58250D03*
X48750Y-59250D03*
X48750Y-58250D03*
G54D11*
X36750Y-56000D03*
G54D12*
X36750Y-55000D03*
X37750Y-56000D03*
X37750Y-55000D03*
X38750Y-56000D03*
X38750Y-55000D03*
X39750Y-56000D03*
X39750Y-55000D03*
X40750Y-56000D03*
X40750Y-55000D03*
X41750Y-56000D03*
X41750Y-55000D03*
X42750Y-56000D03*
X42750Y-55000D03*
X43750Y-56000D03*
X43750Y-55000D03*
X44750Y-56000D03*
X44750Y-55000D03*
X45750Y-56000D03*
X45750Y-55000D03*
X46750Y-56000D03*
X46750Y-55000D03*
X47750Y-56000D03*
X47750Y-55000D03*
X48750Y-56000D03*
X48750Y-55000D03*
G54D13*
X49000Y-53250D03*
X48250Y-52750D03*
X49000Y-52250D03*
G54D11*
X31250Y-59250D03*
G54D14*
X31250Y-58250D03*
X31250Y-57250D03*
X31250Y-56250D03*
X31250Y-55250D03*
X31250Y-54250D03*
G54D15*
X33000Y-53719D03*
X33000Y-49719D03*
X33000Y-58969D03*
X33000Y-54969D03*
X34500Y-53719D03*
X34500Y-49719D03*
X34500Y-58969D03*
X34500Y-54969D03*
X48969Y-50250D03*
X44969Y-50250D03*
X42781Y-52750D03*
X46781Y-52750D03*
X40500Y-47969D03*
X40500Y-43969D03*
G54D16*
X41750Y-42500D03*
G54D17*
X41750Y-43500D03*
X41750Y-44500D03*
X41750Y-45500D03*
X41750Y-46500D03*
X41750Y-47500D03*
X41750Y-48500D03*
X44750Y-48500D03*
X44750Y-47500D03*
X44750Y-46500D03*
X44750Y-45500D03*
X44750Y-44500D03*
X44750Y-43500D03*
X44750Y-42500D03*
G54D16*
X35000Y-42500D03*
G54D17*
X35000Y-43500D03*
X35000Y-44500D03*
X35000Y-45500D03*
X35000Y-46500D03*
X35000Y-47500D03*
X35000Y-48500D03*
X38000Y-48500D03*
X38000Y-47500D03*
X38000Y-46500D03*
X38000Y-45500D03*
X38000Y-44500D03*
X38000Y-43500D03*
X38000Y-42500D03*
G54D18*
X37000Y-50250D03*
X36000Y-50250D03*
X43750Y-50250D03*
X42750Y-50250D03*
G54D19*
X40000Y-42000D03*
G54D11*
X40750Y-51750D03*
G54D14*
X39750Y-51750D03*
X38750Y-51750D03*
G54D20*
X47250Y-51750D03*
X45500Y-44000D03*
X34500Y-47000D03*
X33500Y-44000D03*
X41250Y-57500D03*
X36900Y-42150D03*
X36300Y-46500D03*
X36300Y-45550D03*
X37000Y-50250D03*
X45000Y-52250D03*
X40000Y-53250D03*
X40750Y-53750D03*
X41750Y-53750D03*
X45750Y-45000D03*
X31500Y-46000D03*
G54D21*
X48750Y-41500D02*
X48000Y-41500D01*
X49250Y-42000D02*
X48750Y-41500D01*
X49250Y-48750D02*
X49250Y-42000D01*
X48000Y-50000D02*
X49250Y-48750D01*
X48000Y-51000D02*
X48000Y-50000D01*
X47250Y-51750D02*
X48000Y-51000D01*
G54D22*
X44750Y-48500D02*
X45250Y-48000D01*
X45250Y-44250D02*
X45500Y-44000D01*
X45250Y-48000D02*
X45250Y-44250D01*
X31250Y-55250D02*
X31750Y-54750D01*
X31750Y-53500D02*
X31000Y-52750D01*
X31750Y-53799D02*
X31750Y-53500D01*
X31750Y-54750D02*
X31750Y-53799D01*
X30750Y-45750D02*
X31500Y-45000D01*
X31500Y-45000D02*
X31500Y-42000D01*
X31000Y-46500D02*
X30750Y-46250D01*
X31000Y-52750D02*
X31000Y-46500D01*
X31500Y-42000D02*
X32000Y-41500D01*
X30750Y-46250D02*
X30750Y-45750D01*
X35000Y-46500D02*
X35500Y-46000D01*
X34250Y-42750D02*
X33000Y-41500D01*
X34250Y-44500D02*
X34250Y-42750D01*
X34750Y-45000D02*
X34250Y-44500D01*
X35250Y-45000D02*
X34750Y-45000D01*
X35500Y-45250D02*
X35250Y-45000D01*
X35500Y-46000D02*
X35500Y-45250D01*
X33000Y-46500D02*
X34000Y-46500D01*
X34000Y-46500D02*
X34500Y-47000D01*
X32000Y-47500D02*
X32500Y-47000D01*
X32750Y-44000D02*
X33500Y-44000D01*
X32500Y-44250D02*
X32750Y-44000D01*
X32500Y-47000D02*
X32500Y-44250D01*
X35000Y-43500D02*
X35000Y-42500D01*
G54D21*
X39000Y-45000D02*
X40031Y-43969D01*
X40031Y-43969D02*
X40500Y-43969D01*
X36750Y-56000D02*
X36000Y-55250D01*
X36000Y-55250D02*
X36000Y-52750D01*
X36750Y-59250D02*
X36000Y-58500D01*
X36000Y-58500D02*
X36000Y-56750D01*
X36000Y-56750D02*
X36750Y-56000D01*
X44000Y-60000D02*
X37250Y-60000D01*
X37250Y-60000D02*
X36750Y-59500D01*
X36750Y-59500D02*
X36750Y-59250D01*
X44750Y-59250D02*
X44000Y-60000D01*
X36750Y-59250D02*
X36000Y-58500D01*
X36000Y-52750D02*
X39000Y-49750D01*
X39000Y-49750D02*
X39000Y-45000D01*
X39000Y-45000D02*
X39000Y-44969D01*
G54D22*
X41750Y-59250D02*
X42250Y-58750D01*
X42250Y-58750D02*
X42250Y-57500D01*
X42250Y-57500D02*
X41750Y-57000D01*
X41750Y-57000D02*
X41750Y-56000D01*
X42750Y-59250D02*
X43250Y-58750D01*
X43250Y-58750D02*
X43250Y-57500D01*
X43250Y-57500D02*
X42750Y-57000D01*
X42750Y-57000D02*
X42750Y-56000D01*
X43750Y-59250D02*
X44250Y-58750D01*
X44250Y-58750D02*
X44250Y-57500D01*
X44250Y-57500D02*
X43750Y-57000D01*
X43750Y-57000D02*
X43750Y-56000D01*
X43750Y-58250D02*
X43750Y-57500D01*
X43750Y-57500D02*
X43250Y-57000D01*
X43250Y-57000D02*
X43250Y-55500D01*
X43250Y-55500D02*
X43750Y-55000D01*
X44750Y-58250D02*
X44750Y-57500D01*
X44750Y-57500D02*
X44250Y-57000D01*
X44250Y-57000D02*
X44250Y-55500D01*
X44250Y-55500D02*
X44750Y-55000D01*
X46750Y-58250D02*
X46750Y-57500D01*
X46750Y-57500D02*
X46250Y-57000D01*
X46250Y-57000D02*
X46250Y-55500D01*
X46250Y-55500D02*
X46750Y-55000D01*
X39750Y-59250D02*
X40250Y-58750D01*
X40250Y-58750D02*
X40250Y-57750D01*
X40250Y-57750D02*
X39750Y-57250D01*
X39750Y-57250D02*
X39750Y-56000D01*
G54D21*
X48000Y-43500D02*
X48749Y-43500D01*
X47000Y-43500D02*
X48000Y-43500D01*
X46000Y-43500D02*
X47000Y-43500D01*
X40750Y-56000D02*
X40750Y-57000D01*
X40750Y-57000D02*
X41250Y-57500D01*
X36300Y-45550D02*
X36300Y-42750D01*
X36300Y-46500D02*
X36300Y-45550D01*
X36300Y-49950D02*
X36300Y-46500D01*
X36300Y-42750D02*
X36900Y-42150D01*
X36000Y-50250D02*
X36300Y-49950D01*
X37750Y-55000D02*
X37750Y-54000D01*
X37750Y-54000D02*
X38750Y-53000D01*
X38750Y-53000D02*
X38750Y-51750D01*
X43750Y-50250D02*
X43750Y-43500D01*
X43750Y-43500D02*
X44750Y-42500D01*
X37000Y-50250D02*
X37000Y-43500D01*
X37000Y-43500D02*
X38000Y-42500D01*
G54D22*
X37750Y-59250D02*
X38250Y-58750D01*
X38250Y-58750D02*
X38250Y-57850D01*
X38250Y-57850D02*
X37750Y-57350D01*
X37750Y-57350D02*
X37750Y-56000D01*
X38750Y-59250D02*
X39250Y-58750D01*
X39250Y-58750D02*
X39250Y-57850D01*
X39250Y-57850D02*
X38750Y-57350D01*
X38750Y-57350D02*
X38750Y-56000D01*
X39750Y-55000D02*
X39750Y-53500D01*
X44250Y-48000D02*
X44750Y-47500D01*
X44250Y-51500D02*
X44250Y-48000D01*
X45000Y-52250D02*
X44250Y-51500D01*
X39750Y-53500D02*
X40000Y-53250D01*
X39750Y-58250D02*
X39750Y-57750D01*
X39750Y-57750D02*
X39250Y-57250D01*
X39250Y-57250D02*
X39250Y-55500D01*
X39250Y-55500D02*
X39750Y-55000D01*
X39750Y-58250D02*
X39750Y-57950D01*
X40750Y-55000D02*
X40750Y-53750D01*
X40750Y-58250D02*
X40750Y-57750D01*
X40750Y-57750D02*
X40250Y-57250D01*
X40250Y-57250D02*
X40250Y-55500D01*
X40250Y-55500D02*
X40750Y-55000D01*
X33000Y-54969D02*
X33000Y-53719D01*
X46781Y-52750D02*
X44969Y-50938D01*
X44969Y-50938D02*
X44969Y-50250D01*
X41750Y-55000D02*
X41750Y-53750D01*
X41750Y-58250D02*
X41750Y-57500D01*
X41750Y-57500D02*
X41250Y-57000D01*
X41750Y-58250D02*
X41750Y-58000D01*
X41250Y-57000D02*
X41250Y-55500D01*
X41250Y-55500D02*
X41750Y-55000D01*
X41750Y-46500D02*
X42250Y-47000D01*
X45250Y-55500D02*
X45750Y-56000D01*
X45250Y-53750D02*
X45250Y-55500D01*
X42250Y-50750D02*
X45250Y-53750D01*
X42250Y-47000D02*
X42250Y-50750D01*
X45750Y-59250D02*
X46250Y-58750D01*
X46250Y-58750D02*
X46250Y-57500D01*
X46250Y-57500D02*
X45750Y-57000D01*
X45750Y-57000D02*
X45750Y-56000D01*
X45750Y-56250D02*
X45750Y-56000D01*
X46750Y-59250D02*
X47250Y-58750D01*
X47250Y-58750D02*
X47250Y-57500D01*
X47250Y-57500D02*
X46750Y-57000D01*
X46750Y-57000D02*
X46750Y-56000D01*
X34500Y-54969D02*
X34500Y-53719D01*
X47750Y-56000D02*
X48250Y-55500D01*
X43250Y-45000D02*
X41750Y-43500D01*
X43250Y-51000D02*
X43250Y-45000D01*
X46750Y-54500D02*
X43250Y-51000D01*
X48000Y-54500D02*
X46750Y-54500D01*
X48250Y-54750D02*
X48000Y-54500D01*
X48250Y-55500D02*
X48250Y-54750D01*
X47750Y-59250D02*
X48250Y-58750D01*
X48250Y-58750D02*
X48250Y-57500D01*
X48250Y-57500D02*
X47750Y-57000D01*
X47750Y-57000D02*
X47750Y-56000D01*
X47750Y-58250D02*
X47750Y-57500D01*
X47750Y-57500D02*
X47250Y-57000D01*
X47250Y-57000D02*
X47250Y-55500D01*
X47250Y-55500D02*
X47750Y-55000D01*
X41750Y-45500D02*
X41250Y-46000D01*
X41250Y-47219D02*
X40500Y-47969D01*
X41250Y-46000D02*
X41250Y-47219D01*
X47500Y-52500D02*
X46500Y-51500D01*
X46500Y-46250D02*
X45750Y-45500D01*
X46500Y-51000D02*
X46500Y-46250D01*
X46500Y-51500D02*
X46500Y-51000D01*
X45750Y-45500D02*
X45750Y-45000D01*
X48750Y-55000D02*
X48750Y-54500D01*
X47500Y-53250D02*
X47500Y-52500D01*
X48750Y-54500D02*
X47500Y-53250D01*
X48750Y-57500D02*
X49250Y-57000D01*
X49250Y-55500D02*
X48750Y-55000D01*
X49250Y-57000D02*
X49250Y-55500D01*
X48750Y-58250D02*
X48750Y-57500D01*
X41750Y-45500D02*
X41250Y-45000D01*
X41250Y-45000D02*
X41250Y-43000D01*
X41250Y-43000D02*
X41750Y-42500D01*
X32000Y-55500D02*
X32000Y-53250D01*
X32000Y-53250D02*
X31250Y-52500D01*
X31250Y-56250D02*
X32000Y-55500D01*
X31250Y-46250D02*
X31500Y-46000D01*
X31250Y-52500D02*
X31250Y-46250D01*
X48250Y-52750D02*
X48250Y-52000D01*
X48969Y-51281D02*
X48969Y-50250D01*
X48250Y-52000D02*
X48969Y-51281D01*
X35000Y-44500D02*
X35500Y-44500D01*
X35750Y-44750D02*
X35750Y-49000D01*
X35500Y-44500D02*
X35750Y-44750D01*
X34500Y-49719D02*
X35031Y-49719D01*
X35031Y-49719D02*
X35750Y-49000D01*
X35000Y-47500D02*
X34000Y-47500D01*
X33500Y-48000D02*
X33500Y-49000D01*
X34000Y-47500D02*
X33500Y-48000D01*
X33000Y-49719D02*
X33000Y-49500D01*
X33000Y-49500D02*
X33500Y-49000D01*
G36*
X38767Y-58260D02*
X38760Y-58260D01*
X38760Y-58267D01*
X38740Y-58267D01*
X38740Y-58260D01*
X38732Y-58260D01*
X38732Y-58240D01*
X38740Y-58240D01*
X38740Y-58232D01*
X38760Y-58232D01*
X38760Y-58240D01*
X38767Y-58240D01*
X38767Y-58260D01*
X38767Y-58260D01*
G37*
X38767Y-58260D02*
X38760Y-58260D01*
X38760Y-58267D01*
X38740Y-58267D01*
X38740Y-58260D01*
X38732Y-58260D01*
X38732Y-58240D01*
X38740Y-58240D01*
X38740Y-58232D01*
X38760Y-58232D01*
X38760Y-58240D01*
X38767Y-58240D01*
X38767Y-58260D01*
G36*
X40019Y-42005D02*
X40005Y-42019D01*
X40000Y-42014D01*
X39985Y-42028D01*
X38965Y-43049D01*
X39090Y-43268D01*
X39645Y-43520D01*
X39970Y-43530D01*
X39858Y-43553D01*
X39712Y-43650D01*
X38775Y-44588D01*
X38681Y-44650D01*
X38584Y-44796D01*
X38550Y-44969D01*
X38550Y-45000D01*
X38550Y-49563D01*
X36396Y-51717D01*
X36396Y-50660D01*
X36000Y-50264D01*
X35985Y-50278D01*
X35985Y-50250D01*
X35589Y-49853D01*
X35461Y-49871D01*
X35357Y-50106D01*
X35351Y-50362D01*
X35444Y-50602D01*
X35461Y-50628D01*
X35589Y-50646D01*
X35985Y-50250D01*
X35985Y-50278D01*
X35603Y-50660D01*
X35621Y-50788D01*
X35856Y-50892D01*
X36112Y-50898D01*
X36352Y-50805D01*
X36378Y-50788D01*
X36396Y-50660D01*
X36396Y-51717D01*
X35681Y-52431D01*
X35584Y-52577D01*
X35550Y-52750D01*
X35550Y-55250D01*
X35584Y-55422D01*
X35681Y-55568D01*
X36113Y-55999D01*
X35681Y-56431D01*
X35584Y-56577D01*
X35550Y-56750D01*
X35550Y-58500D01*
X35584Y-58672D01*
X35681Y-58818D01*
X36160Y-59296D01*
X36160Y-59639D01*
X36198Y-59731D01*
X36268Y-59801D01*
X36360Y-59840D01*
X36453Y-59840D01*
X36686Y-60072D01*
X35247Y-60072D01*
X35247Y-58840D01*
X35143Y-58571D01*
X35143Y-54841D01*
X35045Y-54604D01*
X34864Y-54423D01*
X34800Y-54396D01*
X34800Y-54291D01*
X34864Y-54264D01*
X35045Y-54083D01*
X35143Y-53847D01*
X35143Y-53591D01*
X35045Y-53354D01*
X34864Y-53173D01*
X34628Y-53075D01*
X34372Y-53075D01*
X34135Y-53173D01*
X33954Y-53354D01*
X33856Y-53590D01*
X33856Y-53846D01*
X33954Y-54083D01*
X34135Y-54264D01*
X34200Y-54291D01*
X34200Y-54396D01*
X34135Y-54423D01*
X33954Y-54604D01*
X33856Y-54840D01*
X33856Y-55096D01*
X33954Y-55333D01*
X34135Y-55514D01*
X34371Y-55612D01*
X34627Y-55612D01*
X34864Y-55514D01*
X35045Y-55333D01*
X35143Y-55097D01*
X35143Y-54841D01*
X35143Y-58571D01*
X35141Y-58564D01*
X35119Y-58531D01*
X34981Y-58501D01*
X34967Y-58516D01*
X34967Y-58487D01*
X34937Y-58349D01*
X34667Y-58229D01*
X34371Y-58221D01*
X34095Y-58327D01*
X34062Y-58349D01*
X34032Y-58487D01*
X34500Y-58954D01*
X34967Y-58487D01*
X34967Y-58516D01*
X34514Y-58969D01*
X34981Y-59436D01*
X35119Y-59406D01*
X35239Y-59136D01*
X35247Y-58840D01*
X35247Y-60072D01*
X34967Y-60072D01*
X34967Y-59450D01*
X34500Y-58983D01*
X34485Y-58997D01*
X34485Y-58969D01*
X34018Y-58501D01*
X33880Y-58531D01*
X33760Y-58801D01*
X33752Y-59097D01*
X33858Y-59373D01*
X33880Y-59406D01*
X34018Y-59436D01*
X34485Y-58969D01*
X34485Y-58997D01*
X34032Y-59450D01*
X34062Y-59588D01*
X34332Y-59708D01*
X34628Y-59716D01*
X34904Y-59610D01*
X34937Y-59588D01*
X34967Y-59450D01*
X34967Y-60072D01*
X33747Y-60072D01*
X33747Y-58840D01*
X33643Y-58571D01*
X33643Y-54841D01*
X33545Y-54604D01*
X33364Y-54423D01*
X33300Y-54396D01*
X33300Y-54291D01*
X33364Y-54264D01*
X33545Y-54083D01*
X33643Y-53847D01*
X33643Y-53591D01*
X33545Y-53354D01*
X33364Y-53173D01*
X33128Y-53075D01*
X32872Y-53075D01*
X32635Y-53173D01*
X32454Y-53354D01*
X32356Y-53590D01*
X32356Y-53846D01*
X32454Y-54083D01*
X32635Y-54264D01*
X32700Y-54291D01*
X32700Y-54396D01*
X32635Y-54423D01*
X32454Y-54604D01*
X32356Y-54840D01*
X32356Y-55096D01*
X32454Y-55333D01*
X32635Y-55514D01*
X32871Y-55612D01*
X33127Y-55612D01*
X33364Y-55514D01*
X33545Y-55333D01*
X33643Y-55097D01*
X33643Y-54841D01*
X33643Y-58571D01*
X33641Y-58564D01*
X33619Y-58531D01*
X33481Y-58501D01*
X33467Y-58516D01*
X33467Y-58487D01*
X33437Y-58349D01*
X33167Y-58229D01*
X32871Y-58221D01*
X32595Y-58327D01*
X32562Y-58349D01*
X32532Y-58487D01*
X33000Y-58954D01*
X33467Y-58487D01*
X33467Y-58516D01*
X33014Y-58969D01*
X33481Y-59436D01*
X33619Y-59406D01*
X33739Y-59136D01*
X33747Y-58840D01*
X33747Y-60072D01*
X33467Y-60072D01*
X33467Y-59450D01*
X33000Y-58983D01*
X32985Y-58997D01*
X32985Y-58969D01*
X32518Y-58501D01*
X32380Y-58531D01*
X32260Y-58801D01*
X32252Y-59097D01*
X32358Y-59373D01*
X32380Y-59406D01*
X32518Y-59436D01*
X32985Y-58969D01*
X32985Y-58997D01*
X32532Y-59450D01*
X32562Y-59588D01*
X32832Y-59708D01*
X33128Y-59716D01*
X33404Y-59610D01*
X33437Y-59588D01*
X33467Y-59450D01*
X33467Y-60072D01*
X31940Y-60072D01*
X31940Y-59659D01*
X31940Y-59347D01*
X31852Y-59260D01*
X31260Y-59260D01*
X31260Y-59852D01*
X31347Y-59940D01*
X31520Y-59940D01*
X31659Y-59940D01*
X31788Y-59886D01*
X31886Y-59788D01*
X31940Y-59659D01*
X31940Y-60072D01*
X31240Y-60072D01*
X31240Y-59852D01*
X31240Y-59260D01*
X30647Y-59260D01*
X30560Y-59347D01*
X30560Y-59659D01*
X30613Y-59788D01*
X30711Y-59886D01*
X30840Y-59940D01*
X30979Y-59940D01*
X31152Y-59940D01*
X31240Y-59852D01*
X31240Y-60072D01*
X30427Y-60072D01*
X30427Y-40927D01*
X31568Y-40927D01*
X31518Y-40948D01*
X31448Y-41018D01*
X31410Y-41110D01*
X31410Y-41209D01*
X31410Y-41665D01*
X31287Y-41787D01*
X31222Y-41885D01*
X31200Y-42000D01*
X31200Y-44875D01*
X30537Y-45537D01*
X30472Y-45635D01*
X30450Y-45750D01*
X30450Y-46250D01*
X30472Y-46364D01*
X30537Y-46462D01*
X30700Y-46624D01*
X30700Y-52750D01*
X30722Y-52864D01*
X30787Y-52962D01*
X31450Y-53624D01*
X31450Y-53694D01*
X31367Y-53660D01*
X31133Y-53659D01*
X30916Y-53749D01*
X30750Y-53915D01*
X30660Y-54132D01*
X30659Y-54366D01*
X30749Y-54583D01*
X30915Y-54749D01*
X30915Y-54750D01*
X30750Y-54915D01*
X30660Y-55132D01*
X30659Y-55366D01*
X30749Y-55583D01*
X30915Y-55749D01*
X30915Y-55750D01*
X30750Y-55915D01*
X30660Y-56132D01*
X30659Y-56366D01*
X30749Y-56583D01*
X30915Y-56749D01*
X30915Y-56750D01*
X30750Y-56915D01*
X30660Y-57132D01*
X30659Y-57366D01*
X30749Y-57583D01*
X30915Y-57749D01*
X30915Y-57750D01*
X30750Y-57915D01*
X30660Y-58132D01*
X30659Y-58366D01*
X30749Y-58583D01*
X30759Y-58593D01*
X30711Y-58613D01*
X30613Y-58711D01*
X30560Y-58840D01*
X30560Y-59152D01*
X30647Y-59240D01*
X31240Y-59240D01*
X31240Y-59232D01*
X31260Y-59232D01*
X31260Y-59240D01*
X31852Y-59240D01*
X31940Y-59152D01*
X31940Y-58840D01*
X31886Y-58711D01*
X31788Y-58613D01*
X31740Y-58593D01*
X31749Y-58584D01*
X31839Y-58367D01*
X31840Y-58133D01*
X31750Y-57916D01*
X31584Y-57750D01*
X31584Y-57749D01*
X31749Y-57584D01*
X31839Y-57367D01*
X31840Y-57133D01*
X31750Y-56916D01*
X31584Y-56750D01*
X31584Y-56749D01*
X31749Y-56584D01*
X31839Y-56367D01*
X31840Y-56133D01*
X31825Y-56098D01*
X32212Y-55712D01*
X32277Y-55614D01*
X32277Y-55614D01*
X32300Y-55500D01*
X32300Y-53250D01*
X32277Y-53135D01*
X32277Y-53135D01*
X32212Y-53037D01*
X31550Y-52375D01*
X31550Y-48879D01*
X31582Y-48928D01*
X31774Y-49056D01*
X32000Y-49101D01*
X32225Y-49056D01*
X32417Y-48928D01*
X32500Y-48804D01*
X32582Y-48928D01*
X32774Y-49056D01*
X32871Y-49075D01*
X32635Y-49173D01*
X32454Y-49354D01*
X32356Y-49590D01*
X32356Y-49846D01*
X32454Y-50083D01*
X32635Y-50264D01*
X32871Y-50362D01*
X33127Y-50362D01*
X33364Y-50264D01*
X33545Y-50083D01*
X33643Y-49847D01*
X33643Y-49591D01*
X33552Y-49371D01*
X33712Y-49212D01*
X33712Y-49212D01*
X33777Y-49114D01*
X33799Y-49000D01*
X33800Y-49000D01*
X33800Y-48124D01*
X34124Y-47800D01*
X34557Y-47800D01*
X34702Y-47944D01*
X34702Y-47944D01*
X34658Y-47961D01*
X34633Y-47978D01*
X34618Y-48104D01*
X35000Y-48485D01*
X35381Y-48104D01*
X35366Y-47978D01*
X35293Y-47946D01*
X35297Y-47945D01*
X35444Y-47797D01*
X35450Y-47785D01*
X35450Y-48124D01*
X35395Y-48118D01*
X35014Y-48500D01*
X35019Y-48505D01*
X35005Y-48519D01*
X35000Y-48514D01*
X34985Y-48528D01*
X34985Y-48500D01*
X34604Y-48118D01*
X34478Y-48133D01*
X34378Y-48360D01*
X34372Y-48609D01*
X34461Y-48841D01*
X34478Y-48866D01*
X34604Y-48881D01*
X34985Y-48500D01*
X34985Y-48528D01*
X34618Y-48895D01*
X34633Y-49021D01*
X34860Y-49121D01*
X35109Y-49127D01*
X35253Y-49071D01*
X35008Y-49317D01*
X34864Y-49173D01*
X34628Y-49075D01*
X34372Y-49075D01*
X34135Y-49173D01*
X33954Y-49354D01*
X33856Y-49590D01*
X33856Y-49846D01*
X33954Y-50083D01*
X34135Y-50264D01*
X34371Y-50362D01*
X34627Y-50362D01*
X34864Y-50264D01*
X35045Y-50083D01*
X35075Y-50010D01*
X35145Y-49996D01*
X35145Y-49996D01*
X35243Y-49931D01*
X35962Y-49212D01*
X35962Y-49212D01*
X36001Y-49153D01*
X36027Y-49114D01*
X36027Y-49114D01*
X36050Y-49000D01*
X36050Y-44750D01*
X36027Y-44635D01*
X36027Y-44635D01*
X36001Y-44596D01*
X35962Y-44537D01*
X35712Y-44287D01*
X35614Y-44222D01*
X35500Y-44200D01*
X35442Y-44200D01*
X35297Y-44055D01*
X35164Y-43999D01*
X35297Y-43945D01*
X35444Y-43797D01*
X35524Y-43604D01*
X35525Y-43396D01*
X35445Y-43203D01*
X35300Y-43057D01*
X35300Y-43025D01*
X35324Y-43025D01*
X35416Y-42986D01*
X35486Y-42916D01*
X35525Y-42824D01*
X35525Y-42725D01*
X35525Y-42175D01*
X35486Y-42083D01*
X35416Y-42013D01*
X35324Y-41975D01*
X35225Y-41975D01*
X34675Y-41975D01*
X34583Y-42013D01*
X34513Y-42083D01*
X34475Y-42175D01*
X34475Y-42274D01*
X34475Y-42557D01*
X34462Y-42537D01*
X33564Y-41640D01*
X33590Y-41511D01*
X33590Y-41488D01*
X33545Y-41262D01*
X33417Y-41071D01*
X33225Y-40943D01*
X33144Y-40927D01*
X38913Y-40927D01*
X38950Y-40965D01*
X38731Y-41090D01*
X38479Y-41645D01*
X38460Y-42239D01*
X38445Y-42203D01*
X38297Y-42055D01*
X38104Y-41975D01*
X37896Y-41974D01*
X37703Y-42054D01*
X37555Y-42202D01*
X37479Y-42383D01*
X36681Y-43181D01*
X36584Y-43327D01*
X36550Y-43500D01*
X36550Y-49888D01*
X36538Y-49871D01*
X36410Y-49853D01*
X36396Y-49867D01*
X36396Y-49839D01*
X36378Y-49711D01*
X36143Y-49607D01*
X35887Y-49601D01*
X35647Y-49694D01*
X35621Y-49711D01*
X35603Y-49839D01*
X36000Y-50235D01*
X36396Y-49839D01*
X36396Y-49867D01*
X36014Y-50250D01*
X36410Y-50646D01*
X36538Y-50628D01*
X36559Y-50580D01*
X36690Y-50712D01*
X36891Y-50795D01*
X37108Y-50795D01*
X37308Y-50712D01*
X37462Y-50559D01*
X37545Y-50358D01*
X37545Y-50141D01*
X37462Y-49941D01*
X37450Y-49928D01*
X37450Y-43686D01*
X37491Y-43644D01*
X37554Y-43797D01*
X37702Y-43944D01*
X37835Y-44000D01*
X37703Y-44054D01*
X37555Y-44202D01*
X37475Y-44395D01*
X37474Y-44603D01*
X37554Y-44797D01*
X37702Y-44944D01*
X37835Y-45000D01*
X37703Y-45054D01*
X37555Y-45202D01*
X37475Y-45395D01*
X37474Y-45603D01*
X37554Y-45797D01*
X37702Y-45944D01*
X37835Y-46000D01*
X37703Y-46054D01*
X37555Y-46202D01*
X37475Y-46395D01*
X37474Y-46603D01*
X37554Y-46797D01*
X37702Y-46944D01*
X37835Y-47000D01*
X37703Y-47054D01*
X37555Y-47202D01*
X37475Y-47395D01*
X37474Y-47603D01*
X37554Y-47797D01*
X37702Y-47944D01*
X37835Y-48000D01*
X37703Y-48054D01*
X37555Y-48202D01*
X37475Y-48395D01*
X37474Y-48603D01*
X37554Y-48797D01*
X37702Y-48944D01*
X37895Y-49024D01*
X38103Y-49025D01*
X38297Y-48945D01*
X38444Y-48797D01*
X38524Y-48604D01*
X38525Y-48396D01*
X38445Y-48203D01*
X38297Y-48055D01*
X38164Y-47999D01*
X38297Y-47945D01*
X38444Y-47797D01*
X38524Y-47604D01*
X38525Y-47396D01*
X38445Y-47203D01*
X38297Y-47055D01*
X38164Y-46999D01*
X38297Y-46945D01*
X38444Y-46797D01*
X38524Y-46604D01*
X38525Y-46396D01*
X38445Y-46203D01*
X38297Y-46055D01*
X38164Y-45999D01*
X38297Y-45945D01*
X38444Y-45797D01*
X38524Y-45604D01*
X38525Y-45396D01*
X38445Y-45203D01*
X38297Y-45055D01*
X38164Y-44999D01*
X38297Y-44945D01*
X38444Y-44797D01*
X38524Y-44604D01*
X38525Y-44396D01*
X38445Y-44203D01*
X38297Y-44055D01*
X38164Y-43999D01*
X38297Y-43945D01*
X38444Y-43797D01*
X38524Y-43604D01*
X38525Y-43396D01*
X38445Y-43203D01*
X38297Y-43055D01*
X38164Y-42999D01*
X38297Y-42945D01*
X38444Y-42797D01*
X38524Y-42604D01*
X38525Y-42427D01*
X38674Y-42824D01*
X38731Y-42909D01*
X38950Y-43034D01*
X39985Y-42000D01*
X39980Y-41994D01*
X39994Y-41980D01*
X40000Y-41985D01*
X40005Y-41980D01*
X40019Y-41994D01*
X40014Y-42000D01*
X40019Y-42005D01*
X40019Y-42005D01*
G37*
X40019Y-42005D02*
X40005Y-42019D01*
X40000Y-42014D01*
X39985Y-42028D01*
X38965Y-43049D01*
X39090Y-43268D01*
X39645Y-43520D01*
X39970Y-43530D01*
X39858Y-43553D01*
X39712Y-43650D01*
X38775Y-44588D01*
X38681Y-44650D01*
X38584Y-44796D01*
X38550Y-44969D01*
X38550Y-45000D01*
X38550Y-49563D01*
X36396Y-51717D01*
X36396Y-50660D01*
X36000Y-50264D01*
X35985Y-50278D01*
X35985Y-50250D01*
X35589Y-49853D01*
X35461Y-49871D01*
X35357Y-50106D01*
X35351Y-50362D01*
X35444Y-50602D01*
X35461Y-50628D01*
X35589Y-50646D01*
X35985Y-50250D01*
X35985Y-50278D01*
X35603Y-50660D01*
X35621Y-50788D01*
X35856Y-50892D01*
X36112Y-50898D01*
X36352Y-50805D01*
X36378Y-50788D01*
X36396Y-50660D01*
X36396Y-51717D01*
X35681Y-52431D01*
X35584Y-52577D01*
X35550Y-52750D01*
X35550Y-55250D01*
X35584Y-55422D01*
X35681Y-55568D01*
X36113Y-55999D01*
X35681Y-56431D01*
X35584Y-56577D01*
X35550Y-56750D01*
X35550Y-58500D01*
X35584Y-58672D01*
X35681Y-58818D01*
X36160Y-59296D01*
X36160Y-59639D01*
X36198Y-59731D01*
X36268Y-59801D01*
X36360Y-59840D01*
X36453Y-59840D01*
X36686Y-60072D01*
X35247Y-60072D01*
X35247Y-58840D01*
X35143Y-58571D01*
X35143Y-54841D01*
X35045Y-54604D01*
X34864Y-54423D01*
X34800Y-54396D01*
X34800Y-54291D01*
X34864Y-54264D01*
X35045Y-54083D01*
X35143Y-53847D01*
X35143Y-53591D01*
X35045Y-53354D01*
X34864Y-53173D01*
X34628Y-53075D01*
X34372Y-53075D01*
X34135Y-53173D01*
X33954Y-53354D01*
X33856Y-53590D01*
X33856Y-53846D01*
X33954Y-54083D01*
X34135Y-54264D01*
X34200Y-54291D01*
X34200Y-54396D01*
X34135Y-54423D01*
X33954Y-54604D01*
X33856Y-54840D01*
X33856Y-55096D01*
X33954Y-55333D01*
X34135Y-55514D01*
X34371Y-55612D01*
X34627Y-55612D01*
X34864Y-55514D01*
X35045Y-55333D01*
X35143Y-55097D01*
X35143Y-54841D01*
X35143Y-58571D01*
X35141Y-58564D01*
X35119Y-58531D01*
X34981Y-58501D01*
X34967Y-58516D01*
X34967Y-58487D01*
X34937Y-58349D01*
X34667Y-58229D01*
X34371Y-58221D01*
X34095Y-58327D01*
X34062Y-58349D01*
X34032Y-58487D01*
X34500Y-58954D01*
X34967Y-58487D01*
X34967Y-58516D01*
X34514Y-58969D01*
X34981Y-59436D01*
X35119Y-59406D01*
X35239Y-59136D01*
X35247Y-58840D01*
X35247Y-60072D01*
X34967Y-60072D01*
X34967Y-59450D01*
X34500Y-58983D01*
X34485Y-58997D01*
X34485Y-58969D01*
X34018Y-58501D01*
X33880Y-58531D01*
X33760Y-58801D01*
X33752Y-59097D01*
X33858Y-59373D01*
X33880Y-59406D01*
X34018Y-59436D01*
X34485Y-58969D01*
X34485Y-58997D01*
X34032Y-59450D01*
X34062Y-59588D01*
X34332Y-59708D01*
X34628Y-59716D01*
X34904Y-59610D01*
X34937Y-59588D01*
X34967Y-59450D01*
X34967Y-60072D01*
X33747Y-60072D01*
X33747Y-58840D01*
X33643Y-58571D01*
X33643Y-54841D01*
X33545Y-54604D01*
X33364Y-54423D01*
X33300Y-54396D01*
X33300Y-54291D01*
X33364Y-54264D01*
X33545Y-54083D01*
X33643Y-53847D01*
X33643Y-53591D01*
X33545Y-53354D01*
X33364Y-53173D01*
X33128Y-53075D01*
X32872Y-53075D01*
X32635Y-53173D01*
X32454Y-53354D01*
X32356Y-53590D01*
X32356Y-53846D01*
X32454Y-54083D01*
X32635Y-54264D01*
X32700Y-54291D01*
X32700Y-54396D01*
X32635Y-54423D01*
X32454Y-54604D01*
X32356Y-54840D01*
X32356Y-55096D01*
X32454Y-55333D01*
X32635Y-55514D01*
X32871Y-55612D01*
X33127Y-55612D01*
X33364Y-55514D01*
X33545Y-55333D01*
X33643Y-55097D01*
X33643Y-54841D01*
X33643Y-58571D01*
X33641Y-58564D01*
X33619Y-58531D01*
X33481Y-58501D01*
X33467Y-58516D01*
X33467Y-58487D01*
X33437Y-58349D01*
X33167Y-58229D01*
X32871Y-58221D01*
X32595Y-58327D01*
X32562Y-58349D01*
X32532Y-58487D01*
X33000Y-58954D01*
X33467Y-58487D01*
X33467Y-58516D01*
X33014Y-58969D01*
X33481Y-59436D01*
X33619Y-59406D01*
X33739Y-59136D01*
X33747Y-58840D01*
X33747Y-60072D01*
X33467Y-60072D01*
X33467Y-59450D01*
X33000Y-58983D01*
X32985Y-58997D01*
X32985Y-58969D01*
X32518Y-58501D01*
X32380Y-58531D01*
X32260Y-58801D01*
X32252Y-59097D01*
X32358Y-59373D01*
X32380Y-59406D01*
X32518Y-59436D01*
X32985Y-58969D01*
X32985Y-58997D01*
X32532Y-59450D01*
X32562Y-59588D01*
X32832Y-59708D01*
X33128Y-59716D01*
X33404Y-59610D01*
X33437Y-59588D01*
X33467Y-59450D01*
X33467Y-60072D01*
X31940Y-60072D01*
X31940Y-59659D01*
X31940Y-59347D01*
X31852Y-59260D01*
X31260Y-59260D01*
X31260Y-59852D01*
X31347Y-59940D01*
X31520Y-59940D01*
X31659Y-59940D01*
X31788Y-59886D01*
X31886Y-59788D01*
X31940Y-59659D01*
X31940Y-60072D01*
X31240Y-60072D01*
X31240Y-59852D01*
X31240Y-59260D01*
X30647Y-59260D01*
X30560Y-59347D01*
X30560Y-59659D01*
X30613Y-59788D01*
X30711Y-59886D01*
X30840Y-59940D01*
X30979Y-59940D01*
X31152Y-59940D01*
X31240Y-59852D01*
X31240Y-60072D01*
X30427Y-60072D01*
X30427Y-40927D01*
X31568Y-40927D01*
X31518Y-40948D01*
X31448Y-41018D01*
X31410Y-41110D01*
X31410Y-41209D01*
X31410Y-41665D01*
X31287Y-41787D01*
X31222Y-41885D01*
X31200Y-42000D01*
X31200Y-44875D01*
X30537Y-45537D01*
X30472Y-45635D01*
X30450Y-45750D01*
X30450Y-46250D01*
X30472Y-46364D01*
X30537Y-46462D01*
X30700Y-46624D01*
X30700Y-52750D01*
X30722Y-52864D01*
X30787Y-52962D01*
X31450Y-53624D01*
X31450Y-53694D01*
X31367Y-53660D01*
X31133Y-53659D01*
X30916Y-53749D01*
X30750Y-53915D01*
X30660Y-54132D01*
X30659Y-54366D01*
X30749Y-54583D01*
X30915Y-54749D01*
X30915Y-54750D01*
X30750Y-54915D01*
X30660Y-55132D01*
X30659Y-55366D01*
X30749Y-55583D01*
X30915Y-55749D01*
X30915Y-55750D01*
X30750Y-55915D01*
X30660Y-56132D01*
X30659Y-56366D01*
X30749Y-56583D01*
X30915Y-56749D01*
X30915Y-56750D01*
X30750Y-56915D01*
X30660Y-57132D01*
X30659Y-57366D01*
X30749Y-57583D01*
X30915Y-57749D01*
X30915Y-57750D01*
X30750Y-57915D01*
X30660Y-58132D01*
X30659Y-58366D01*
X30749Y-58583D01*
X30759Y-58593D01*
X30711Y-58613D01*
X30613Y-58711D01*
X30560Y-58840D01*
X30560Y-59152D01*
X30647Y-59240D01*
X31240Y-59240D01*
X31240Y-59232D01*
X31260Y-59232D01*
X31260Y-59240D01*
X31852Y-59240D01*
X31940Y-59152D01*
X31940Y-58840D01*
X31886Y-58711D01*
X31788Y-58613D01*
X31740Y-58593D01*
X31749Y-58584D01*
X31839Y-58367D01*
X31840Y-58133D01*
X31750Y-57916D01*
X31584Y-57750D01*
X31584Y-57749D01*
X31749Y-57584D01*
X31839Y-57367D01*
X31840Y-57133D01*
X31750Y-56916D01*
X31584Y-56750D01*
X31584Y-56749D01*
X31749Y-56584D01*
X31839Y-56367D01*
X31840Y-56133D01*
X31825Y-56098D01*
X32212Y-55712D01*
X32277Y-55614D01*
X32277Y-55614D01*
X32300Y-55500D01*
X32300Y-53250D01*
X32277Y-53135D01*
X32277Y-53135D01*
X32212Y-53037D01*
X31550Y-52375D01*
X31550Y-48879D01*
X31582Y-48928D01*
X31774Y-49056D01*
X32000Y-49101D01*
X32225Y-49056D01*
X32417Y-48928D01*
X32500Y-48804D01*
X32582Y-48928D01*
X32774Y-49056D01*
X32871Y-49075D01*
X32635Y-49173D01*
X32454Y-49354D01*
X32356Y-49590D01*
X32356Y-49846D01*
X32454Y-50083D01*
X32635Y-50264D01*
X32871Y-50362D01*
X33127Y-50362D01*
X33364Y-50264D01*
X33545Y-50083D01*
X33643Y-49847D01*
X33643Y-49591D01*
X33552Y-49371D01*
X33712Y-49212D01*
X33712Y-49212D01*
X33777Y-49114D01*
X33799Y-49000D01*
X33800Y-49000D01*
X33800Y-48124D01*
X34124Y-47800D01*
X34557Y-47800D01*
X34702Y-47944D01*
X34702Y-47944D01*
X34658Y-47961D01*
X34633Y-47978D01*
X34618Y-48104D01*
X35000Y-48485D01*
X35381Y-48104D01*
X35366Y-47978D01*
X35293Y-47946D01*
X35297Y-47945D01*
X35444Y-47797D01*
X35450Y-47785D01*
X35450Y-48124D01*
X35395Y-48118D01*
X35014Y-48500D01*
X35019Y-48505D01*
X35005Y-48519D01*
X35000Y-48514D01*
X34985Y-48528D01*
X34985Y-48500D01*
X34604Y-48118D01*
X34478Y-48133D01*
X34378Y-48360D01*
X34372Y-48609D01*
X34461Y-48841D01*
X34478Y-48866D01*
X34604Y-48881D01*
X34985Y-48500D01*
X34985Y-48528D01*
X34618Y-48895D01*
X34633Y-49021D01*
X34860Y-49121D01*
X35109Y-49127D01*
X35253Y-49071D01*
X35008Y-49317D01*
X34864Y-49173D01*
X34628Y-49075D01*
X34372Y-49075D01*
X34135Y-49173D01*
X33954Y-49354D01*
X33856Y-49590D01*
X33856Y-49846D01*
X33954Y-50083D01*
X34135Y-50264D01*
X34371Y-50362D01*
X34627Y-50362D01*
X34864Y-50264D01*
X35045Y-50083D01*
X35075Y-50010D01*
X35145Y-49996D01*
X35145Y-49996D01*
X35243Y-49931D01*
X35962Y-49212D01*
X35962Y-49212D01*
X36001Y-49153D01*
X36027Y-49114D01*
X36027Y-49114D01*
X36050Y-49000D01*
X36050Y-44750D01*
X36027Y-44635D01*
X36027Y-44635D01*
X36001Y-44596D01*
X35962Y-44537D01*
X35712Y-44287D01*
X35614Y-44222D01*
X35500Y-44200D01*
X35442Y-44200D01*
X35297Y-44055D01*
X35164Y-43999D01*
X35297Y-43945D01*
X35444Y-43797D01*
X35524Y-43604D01*
X35525Y-43396D01*
X35445Y-43203D01*
X35300Y-43057D01*
X35300Y-43025D01*
X35324Y-43025D01*
X35416Y-42986D01*
X35486Y-42916D01*
X35525Y-42824D01*
X35525Y-42725D01*
X35525Y-42175D01*
X35486Y-42083D01*
X35416Y-42013D01*
X35324Y-41975D01*
X35225Y-41975D01*
X34675Y-41975D01*
X34583Y-42013D01*
X34513Y-42083D01*
X34475Y-42175D01*
X34475Y-42274D01*
X34475Y-42557D01*
X34462Y-42537D01*
X33564Y-41640D01*
X33590Y-41511D01*
X33590Y-41488D01*
X33545Y-41262D01*
X33417Y-41071D01*
X33225Y-40943D01*
X33144Y-40927D01*
X38913Y-40927D01*
X38950Y-40965D01*
X38731Y-41090D01*
X38479Y-41645D01*
X38460Y-42239D01*
X38445Y-42203D01*
X38297Y-42055D01*
X38104Y-41975D01*
X37896Y-41974D01*
X37703Y-42054D01*
X37555Y-42202D01*
X37479Y-42383D01*
X36681Y-43181D01*
X36584Y-43327D01*
X36550Y-43500D01*
X36550Y-49888D01*
X36538Y-49871D01*
X36410Y-49853D01*
X36396Y-49867D01*
X36396Y-49839D01*
X36378Y-49711D01*
X36143Y-49607D01*
X35887Y-49601D01*
X35647Y-49694D01*
X35621Y-49711D01*
X35603Y-49839D01*
X36000Y-50235D01*
X36396Y-49839D01*
X36396Y-49867D01*
X36014Y-50250D01*
X36410Y-50646D01*
X36538Y-50628D01*
X36559Y-50580D01*
X36690Y-50712D01*
X36891Y-50795D01*
X37108Y-50795D01*
X37308Y-50712D01*
X37462Y-50559D01*
X37545Y-50358D01*
X37545Y-50141D01*
X37462Y-49941D01*
X37450Y-49928D01*
X37450Y-43686D01*
X37491Y-43644D01*
X37554Y-43797D01*
X37702Y-43944D01*
X37835Y-44000D01*
X37703Y-44054D01*
X37555Y-44202D01*
X37475Y-44395D01*
X37474Y-44603D01*
X37554Y-44797D01*
X37702Y-44944D01*
X37835Y-45000D01*
X37703Y-45054D01*
X37555Y-45202D01*
X37475Y-45395D01*
X37474Y-45603D01*
X37554Y-45797D01*
X37702Y-45944D01*
X37835Y-46000D01*
X37703Y-46054D01*
X37555Y-46202D01*
X37475Y-46395D01*
X37474Y-46603D01*
X37554Y-46797D01*
X37702Y-46944D01*
X37835Y-47000D01*
X37703Y-47054D01*
X37555Y-47202D01*
X37475Y-47395D01*
X37474Y-47603D01*
X37554Y-47797D01*
X37702Y-47944D01*
X37835Y-48000D01*
X37703Y-48054D01*
X37555Y-48202D01*
X37475Y-48395D01*
X37474Y-48603D01*
X37554Y-48797D01*
X37702Y-48944D01*
X37895Y-49024D01*
X38103Y-49025D01*
X38297Y-48945D01*
X38444Y-48797D01*
X38524Y-48604D01*
X38525Y-48396D01*
X38445Y-48203D01*
X38297Y-48055D01*
X38164Y-47999D01*
X38297Y-47945D01*
X38444Y-47797D01*
X38524Y-47604D01*
X38525Y-47396D01*
X38445Y-47203D01*
X38297Y-47055D01*
X38164Y-46999D01*
X38297Y-46945D01*
X38444Y-46797D01*
X38524Y-46604D01*
X38525Y-46396D01*
X38445Y-46203D01*
X38297Y-46055D01*
X38164Y-45999D01*
X38297Y-45945D01*
X38444Y-45797D01*
X38524Y-45604D01*
X38525Y-45396D01*
X38445Y-45203D01*
X38297Y-45055D01*
X38164Y-44999D01*
X38297Y-44945D01*
X38444Y-44797D01*
X38524Y-44604D01*
X38525Y-44396D01*
X38445Y-44203D01*
X38297Y-44055D01*
X38164Y-43999D01*
X38297Y-43945D01*
X38444Y-43797D01*
X38524Y-43604D01*
X38525Y-43396D01*
X38445Y-43203D01*
X38297Y-43055D01*
X38164Y-42999D01*
X38297Y-42945D01*
X38444Y-42797D01*
X38524Y-42604D01*
X38525Y-42427D01*
X38674Y-42824D01*
X38731Y-42909D01*
X38950Y-43034D01*
X39985Y-42000D01*
X39980Y-41994D01*
X39994Y-41980D01*
X40000Y-41985D01*
X40005Y-41980D01*
X40019Y-41994D01*
X40014Y-42000D01*
X40019Y-42005D01*
G36*
X40767Y-59260D02*
X40760Y-59260D01*
X40760Y-59267D01*
X40740Y-59267D01*
X40740Y-59260D01*
X40732Y-59260D01*
X40732Y-59240D01*
X40740Y-59240D01*
X40740Y-59232D01*
X40760Y-59232D01*
X40760Y-59240D01*
X40767Y-59240D01*
X40767Y-59260D01*
X40767Y-59260D01*
G37*
X40767Y-59260D02*
X40760Y-59260D01*
X40760Y-59267D01*
X40740Y-59267D01*
X40740Y-59260D01*
X40732Y-59260D01*
X40732Y-59240D01*
X40740Y-59240D01*
X40740Y-59232D01*
X40760Y-59232D01*
X40760Y-59240D01*
X40767Y-59240D01*
X40767Y-59260D01*
G36*
X41450Y-57746D02*
X41321Y-57832D01*
X41250Y-57939D01*
X41178Y-57832D01*
X41049Y-57746D01*
X41027Y-57635D01*
X40962Y-57537D01*
X40962Y-57537D01*
X40550Y-57125D01*
X40550Y-56648D01*
X40632Y-56679D01*
X40740Y-56602D01*
X40740Y-56010D01*
X40732Y-56010D01*
X40732Y-55990D01*
X40740Y-55990D01*
X40740Y-55982D01*
X40760Y-55982D01*
X40760Y-55990D01*
X40767Y-55990D01*
X40767Y-56010D01*
X40760Y-56010D01*
X40760Y-56602D01*
X40867Y-56679D01*
X40950Y-56648D01*
X40950Y-57000D01*
X40972Y-57114D01*
X41037Y-57212D01*
X41450Y-57624D01*
X41450Y-57746D01*
X41450Y-57746D01*
G37*
X41450Y-57746D02*
X41321Y-57832D01*
X41250Y-57939D01*
X41178Y-57832D01*
X41049Y-57746D01*
X41027Y-57635D01*
X40962Y-57537D01*
X40962Y-57537D01*
X40550Y-57125D01*
X40550Y-56648D01*
X40632Y-56679D01*
X40740Y-56602D01*
X40740Y-56010D01*
X40732Y-56010D01*
X40732Y-55990D01*
X40740Y-55990D01*
X40740Y-55982D01*
X40760Y-55982D01*
X40760Y-55990D01*
X40767Y-55990D01*
X40767Y-56010D01*
X40760Y-56010D01*
X40760Y-56602D01*
X40867Y-56679D01*
X40950Y-56648D01*
X40950Y-57000D01*
X40972Y-57114D01*
X41037Y-57212D01*
X41450Y-57624D01*
X41450Y-57746D01*
G36*
X42769Y-50255D02*
X42755Y-50269D01*
X42750Y-50264D01*
X42744Y-50269D01*
X42730Y-50255D01*
X42735Y-50250D01*
X42730Y-50244D01*
X42744Y-50230D01*
X42750Y-50235D01*
X42755Y-50230D01*
X42769Y-50244D01*
X42764Y-50250D01*
X42769Y-50255D01*
X42769Y-50255D01*
G37*
X42769Y-50255D02*
X42755Y-50269D01*
X42750Y-50264D01*
X42744Y-50269D01*
X42730Y-50255D01*
X42735Y-50250D01*
X42730Y-50244D01*
X42744Y-50230D01*
X42750Y-50235D01*
X42755Y-50230D01*
X42769Y-50244D01*
X42764Y-50250D01*
X42769Y-50255D01*
G36*
X42913Y-57587D02*
X42867Y-57570D01*
X42760Y-57647D01*
X42760Y-58240D01*
X42767Y-58240D01*
X42767Y-58260D01*
X42760Y-58260D01*
X42760Y-58267D01*
X42740Y-58267D01*
X42740Y-58260D01*
X42732Y-58260D01*
X42732Y-58240D01*
X42740Y-58240D01*
X42740Y-57647D01*
X42632Y-57570D01*
X42550Y-57601D01*
X42550Y-57500D01*
X42527Y-57385D01*
X42462Y-57287D01*
X42462Y-57287D01*
X42050Y-56875D01*
X42050Y-56503D01*
X42178Y-56417D01*
X42250Y-56310D01*
X42321Y-56417D01*
X42450Y-56503D01*
X42450Y-57000D01*
X42472Y-57114D01*
X42537Y-57212D01*
X42913Y-57587D01*
X42913Y-57587D01*
G37*
X42913Y-57587D02*
X42867Y-57570D01*
X42760Y-57647D01*
X42760Y-58240D01*
X42767Y-58240D01*
X42767Y-58260D01*
X42760Y-58260D01*
X42760Y-58267D01*
X42740Y-58267D01*
X42740Y-58260D01*
X42732Y-58260D01*
X42732Y-58240D01*
X42740Y-58240D01*
X42740Y-57647D01*
X42632Y-57570D01*
X42550Y-57601D01*
X42550Y-57500D01*
X42527Y-57385D01*
X42462Y-57287D01*
X42462Y-57287D01*
X42050Y-56875D01*
X42050Y-56503D01*
X42178Y-56417D01*
X42250Y-56310D01*
X42321Y-56417D01*
X42450Y-56503D01*
X42450Y-57000D01*
X42472Y-57114D01*
X42537Y-57212D01*
X42913Y-57587D01*
G36*
X44769Y-46505D02*
X44755Y-46519D01*
X44750Y-46514D01*
X44368Y-46895D01*
X44383Y-47021D01*
X44456Y-47053D01*
X44453Y-47054D01*
X44305Y-47202D01*
X44225Y-47395D01*
X44224Y-47600D01*
X44200Y-47625D01*
X44200Y-46810D01*
X44211Y-46841D01*
X44228Y-46866D01*
X44354Y-46881D01*
X44735Y-46500D01*
X44354Y-46118D01*
X44228Y-46133D01*
X44200Y-46198D01*
X44200Y-43686D01*
X44241Y-43644D01*
X44304Y-43797D01*
X44452Y-43944D01*
X44585Y-44000D01*
X44453Y-44054D01*
X44305Y-44202D01*
X44225Y-44395D01*
X44224Y-44603D01*
X44304Y-44797D01*
X44452Y-44944D01*
X44585Y-45000D01*
X44453Y-45054D01*
X44305Y-45202D01*
X44225Y-45395D01*
X44224Y-45603D01*
X44304Y-45797D01*
X44452Y-45944D01*
X44452Y-45944D01*
X44408Y-45961D01*
X44383Y-45978D01*
X44368Y-46104D01*
X44750Y-46485D01*
X44755Y-46480D01*
X44769Y-46494D01*
X44764Y-46500D01*
X44769Y-46505D01*
X44769Y-46505D01*
G37*
X44769Y-46505D02*
X44755Y-46519D01*
X44750Y-46514D01*
X44368Y-46895D01*
X44383Y-47021D01*
X44456Y-47053D01*
X44453Y-47054D01*
X44305Y-47202D01*
X44225Y-47395D01*
X44224Y-47600D01*
X44200Y-47625D01*
X44200Y-46810D01*
X44211Y-46841D01*
X44228Y-46866D01*
X44354Y-46881D01*
X44735Y-46500D01*
X44354Y-46118D01*
X44228Y-46133D01*
X44200Y-46198D01*
X44200Y-43686D01*
X44241Y-43644D01*
X44304Y-43797D01*
X44452Y-43944D01*
X44585Y-44000D01*
X44453Y-44054D01*
X44305Y-44202D01*
X44225Y-44395D01*
X44224Y-44603D01*
X44304Y-44797D01*
X44452Y-44944D01*
X44585Y-45000D01*
X44453Y-45054D01*
X44305Y-45202D01*
X44225Y-45395D01*
X44224Y-45603D01*
X44304Y-45797D01*
X44452Y-45944D01*
X44452Y-45944D01*
X44408Y-45961D01*
X44383Y-45978D01*
X44368Y-46104D01*
X44750Y-46485D01*
X44755Y-46480D01*
X44769Y-46494D01*
X44764Y-46500D01*
X44769Y-46505D01*
G36*
X44950Y-54447D02*
X44761Y-54410D01*
X44738Y-54410D01*
X44512Y-54454D01*
X44321Y-54582D01*
X44250Y-54689D01*
X44178Y-54582D01*
X43987Y-54454D01*
X43761Y-54410D01*
X43738Y-54410D01*
X43512Y-54454D01*
X43321Y-54582D01*
X43310Y-54599D01*
X43248Y-54539D01*
X43248Y-53231D01*
X42781Y-52764D01*
X42766Y-52778D01*
X42766Y-52750D01*
X42299Y-52282D01*
X42161Y-52312D01*
X42041Y-52582D01*
X42033Y-52878D01*
X42139Y-53154D01*
X42161Y-53187D01*
X42299Y-53217D01*
X42766Y-52750D01*
X42766Y-52778D01*
X42313Y-53231D01*
X42343Y-53369D01*
X42613Y-53489D01*
X42909Y-53497D01*
X43185Y-53391D01*
X43218Y-53369D01*
X43248Y-53231D01*
X43248Y-54539D01*
X43119Y-54416D01*
X42867Y-54320D01*
X42760Y-54397D01*
X42760Y-54990D01*
X42767Y-54990D01*
X42767Y-55010D01*
X42760Y-55010D01*
X42760Y-55017D01*
X42740Y-55017D01*
X42740Y-55010D01*
X42732Y-55010D01*
X42732Y-54990D01*
X42740Y-54990D01*
X42740Y-54397D01*
X42632Y-54320D01*
X42380Y-54416D01*
X42189Y-54599D01*
X42178Y-54582D01*
X42050Y-54496D01*
X42050Y-54051D01*
X42110Y-53991D01*
X42174Y-53834D01*
X42175Y-53665D01*
X42110Y-53509D01*
X41991Y-53389D01*
X41834Y-53325D01*
X41665Y-53324D01*
X41509Y-53389D01*
X41389Y-53508D01*
X41340Y-53629D01*
X41340Y-52139D01*
X41340Y-52040D01*
X41340Y-51360D01*
X41301Y-51268D01*
X41231Y-51198D01*
X41139Y-51160D01*
X41040Y-51160D01*
X40360Y-51160D01*
X40268Y-51198D01*
X40198Y-51268D01*
X40184Y-51301D01*
X40178Y-51307D01*
X40155Y-51175D01*
X39904Y-51063D01*
X39630Y-51056D01*
X39373Y-51155D01*
X39344Y-51175D01*
X39321Y-51307D01*
X39750Y-51735D01*
X39755Y-51730D01*
X39769Y-51744D01*
X39764Y-51750D01*
X39769Y-51755D01*
X39755Y-51769D01*
X39750Y-51764D01*
X39321Y-52192D01*
X39344Y-52324D01*
X39595Y-52436D01*
X39869Y-52443D01*
X40126Y-52344D01*
X40155Y-52324D01*
X40178Y-52192D01*
X40178Y-52192D01*
X40184Y-52198D01*
X40198Y-52231D01*
X40268Y-52301D01*
X40360Y-52340D01*
X40459Y-52340D01*
X41139Y-52340D01*
X41231Y-52301D01*
X41301Y-52231D01*
X41340Y-52139D01*
X41340Y-53629D01*
X41325Y-53665D01*
X41324Y-53834D01*
X41389Y-53990D01*
X41450Y-54051D01*
X41450Y-54496D01*
X41321Y-54582D01*
X41250Y-54689D01*
X41178Y-54582D01*
X41050Y-54496D01*
X41050Y-54051D01*
X41110Y-53991D01*
X41174Y-53834D01*
X41175Y-53665D01*
X41110Y-53509D01*
X40991Y-53389D01*
X40834Y-53325D01*
X40665Y-53324D01*
X40509Y-53389D01*
X40389Y-53508D01*
X40325Y-53665D01*
X40324Y-53834D01*
X40389Y-53990D01*
X40450Y-54051D01*
X40450Y-54496D01*
X40321Y-54582D01*
X40250Y-54689D01*
X40178Y-54582D01*
X40050Y-54496D01*
X40050Y-53675D01*
X40084Y-53675D01*
X40240Y-53610D01*
X40360Y-53491D01*
X40424Y-53334D01*
X40425Y-53165D01*
X40360Y-53009D01*
X40241Y-52889D01*
X40178Y-52863D01*
X40084Y-52825D01*
X39915Y-52824D01*
X39759Y-52889D01*
X39639Y-53008D01*
X39575Y-53165D01*
X39574Y-53250D01*
X39537Y-53287D01*
X39472Y-53385D01*
X39450Y-53500D01*
X39450Y-54496D01*
X39321Y-54582D01*
X39310Y-54599D01*
X39119Y-54416D01*
X38867Y-54320D01*
X38760Y-54397D01*
X38760Y-54990D01*
X38767Y-54990D01*
X38767Y-55010D01*
X38760Y-55010D01*
X38760Y-55017D01*
X38740Y-55017D01*
X38740Y-55010D01*
X38732Y-55010D01*
X38732Y-54990D01*
X38740Y-54990D01*
X38740Y-54397D01*
X38632Y-54320D01*
X38380Y-54416D01*
X38200Y-54589D01*
X38200Y-54186D01*
X39068Y-53318D01*
X39165Y-53172D01*
X39200Y-53000D01*
X39200Y-52159D01*
X39307Y-52178D01*
X39735Y-51750D01*
X39307Y-51321D01*
X39178Y-51344D01*
X39084Y-51250D01*
X38867Y-51160D01*
X38633Y-51159D01*
X38416Y-51249D01*
X38250Y-51415D01*
X38160Y-51632D01*
X38159Y-51866D01*
X38249Y-52083D01*
X38300Y-52134D01*
X38300Y-52813D01*
X37431Y-53681D01*
X37334Y-53827D01*
X37300Y-54000D01*
X37300Y-54614D01*
X37250Y-54689D01*
X37178Y-54582D01*
X36987Y-54454D01*
X36761Y-54410D01*
X36738Y-54410D01*
X36512Y-54454D01*
X36450Y-54496D01*
X36450Y-52936D01*
X39318Y-50068D01*
X39415Y-49922D01*
X39450Y-49750D01*
X39450Y-45186D01*
X40128Y-44507D01*
X40135Y-44514D01*
X40371Y-44612D01*
X40627Y-44612D01*
X40864Y-44514D01*
X40950Y-44429D01*
X40950Y-45000D01*
X40972Y-45114D01*
X41037Y-45212D01*
X41225Y-45399D01*
X41224Y-45600D01*
X41037Y-45787D01*
X40972Y-45885D01*
X40950Y-46000D01*
X40950Y-47094D01*
X40692Y-47352D01*
X40628Y-47325D01*
X40372Y-47325D01*
X40135Y-47423D01*
X39954Y-47604D01*
X39856Y-47840D01*
X39856Y-48096D01*
X39954Y-48333D01*
X40135Y-48514D01*
X40371Y-48612D01*
X40627Y-48612D01*
X40864Y-48514D01*
X41045Y-48333D01*
X41143Y-48097D01*
X41143Y-47841D01*
X41116Y-47776D01*
X41243Y-47649D01*
X41304Y-47797D01*
X41452Y-47944D01*
X41452Y-47944D01*
X41408Y-47961D01*
X41383Y-47978D01*
X41368Y-48104D01*
X41750Y-48485D01*
X41755Y-48480D01*
X41769Y-48494D01*
X41764Y-48500D01*
X41769Y-48505D01*
X41755Y-48519D01*
X41750Y-48514D01*
X41735Y-48528D01*
X41735Y-48500D01*
X41354Y-48118D01*
X41228Y-48133D01*
X41128Y-48360D01*
X41122Y-48609D01*
X41211Y-48841D01*
X41228Y-48866D01*
X41354Y-48881D01*
X41735Y-48500D01*
X41735Y-48528D01*
X41368Y-48895D01*
X41383Y-49021D01*
X41610Y-49121D01*
X41859Y-49127D01*
X41950Y-49092D01*
X41950Y-50750D01*
X41972Y-50864D01*
X42037Y-50962D01*
X43197Y-52121D01*
X42948Y-52010D01*
X42652Y-52002D01*
X42376Y-52108D01*
X42343Y-52130D01*
X42313Y-52268D01*
X42781Y-52735D01*
X42786Y-52730D01*
X42800Y-52744D01*
X42795Y-52750D01*
X43262Y-53217D01*
X43400Y-53187D01*
X43520Y-52917D01*
X43528Y-52621D01*
X43422Y-52346D01*
X44950Y-53874D01*
X44950Y-54447D01*
X44950Y-54447D01*
G37*
X44950Y-54447D02*
X44761Y-54410D01*
X44738Y-54410D01*
X44512Y-54454D01*
X44321Y-54582D01*
X44250Y-54689D01*
X44178Y-54582D01*
X43987Y-54454D01*
X43761Y-54410D01*
X43738Y-54410D01*
X43512Y-54454D01*
X43321Y-54582D01*
X43310Y-54599D01*
X43248Y-54539D01*
X43248Y-53231D01*
X42781Y-52764D01*
X42766Y-52778D01*
X42766Y-52750D01*
X42299Y-52282D01*
X42161Y-52312D01*
X42041Y-52582D01*
X42033Y-52878D01*
X42139Y-53154D01*
X42161Y-53187D01*
X42299Y-53217D01*
X42766Y-52750D01*
X42766Y-52778D01*
X42313Y-53231D01*
X42343Y-53369D01*
X42613Y-53489D01*
X42909Y-53497D01*
X43185Y-53391D01*
X43218Y-53369D01*
X43248Y-53231D01*
X43248Y-54539D01*
X43119Y-54416D01*
X42867Y-54320D01*
X42760Y-54397D01*
X42760Y-54990D01*
X42767Y-54990D01*
X42767Y-55010D01*
X42760Y-55010D01*
X42760Y-55017D01*
X42740Y-55017D01*
X42740Y-55010D01*
X42732Y-55010D01*
X42732Y-54990D01*
X42740Y-54990D01*
X42740Y-54397D01*
X42632Y-54320D01*
X42380Y-54416D01*
X42189Y-54599D01*
X42178Y-54582D01*
X42050Y-54496D01*
X42050Y-54051D01*
X42110Y-53991D01*
X42174Y-53834D01*
X42175Y-53665D01*
X42110Y-53509D01*
X41991Y-53389D01*
X41834Y-53325D01*
X41665Y-53324D01*
X41509Y-53389D01*
X41389Y-53508D01*
X41340Y-53629D01*
X41340Y-52139D01*
X41340Y-52040D01*
X41340Y-51360D01*
X41301Y-51268D01*
X41231Y-51198D01*
X41139Y-51160D01*
X41040Y-51160D01*
X40360Y-51160D01*
X40268Y-51198D01*
X40198Y-51268D01*
X40184Y-51301D01*
X40178Y-51307D01*
X40155Y-51175D01*
X39904Y-51063D01*
X39630Y-51056D01*
X39373Y-51155D01*
X39344Y-51175D01*
X39321Y-51307D01*
X39750Y-51735D01*
X39755Y-51730D01*
X39769Y-51744D01*
X39764Y-51750D01*
X39769Y-51755D01*
X39755Y-51769D01*
X39750Y-51764D01*
X39321Y-52192D01*
X39344Y-52324D01*
X39595Y-52436D01*
X39869Y-52443D01*
X40126Y-52344D01*
X40155Y-52324D01*
X40178Y-52192D01*
X40178Y-52192D01*
X40184Y-52198D01*
X40198Y-52231D01*
X40268Y-52301D01*
X40360Y-52340D01*
X40459Y-52340D01*
X41139Y-52340D01*
X41231Y-52301D01*
X41301Y-52231D01*
X41340Y-52139D01*
X41340Y-53629D01*
X41325Y-53665D01*
X41324Y-53834D01*
X41389Y-53990D01*
X41450Y-54051D01*
X41450Y-54496D01*
X41321Y-54582D01*
X41250Y-54689D01*
X41178Y-54582D01*
X41050Y-54496D01*
X41050Y-54051D01*
X41110Y-53991D01*
X41174Y-53834D01*
X41175Y-53665D01*
X41110Y-53509D01*
X40991Y-53389D01*
X40834Y-53325D01*
X40665Y-53324D01*
X40509Y-53389D01*
X40389Y-53508D01*
X40325Y-53665D01*
X40324Y-53834D01*
X40389Y-53990D01*
X40450Y-54051D01*
X40450Y-54496D01*
X40321Y-54582D01*
X40250Y-54689D01*
X40178Y-54582D01*
X40050Y-54496D01*
X40050Y-53675D01*
X40084Y-53675D01*
X40240Y-53610D01*
X40360Y-53491D01*
X40424Y-53334D01*
X40425Y-53165D01*
X40360Y-53009D01*
X40241Y-52889D01*
X40178Y-52863D01*
X40084Y-52825D01*
X39915Y-52824D01*
X39759Y-52889D01*
X39639Y-53008D01*
X39575Y-53165D01*
X39574Y-53250D01*
X39537Y-53287D01*
X39472Y-53385D01*
X39450Y-53500D01*
X39450Y-54496D01*
X39321Y-54582D01*
X39310Y-54599D01*
X39119Y-54416D01*
X38867Y-54320D01*
X38760Y-54397D01*
X38760Y-54990D01*
X38767Y-54990D01*
X38767Y-55010D01*
X38760Y-55010D01*
X38760Y-55017D01*
X38740Y-55017D01*
X38740Y-55010D01*
X38732Y-55010D01*
X38732Y-54990D01*
X38740Y-54990D01*
X38740Y-54397D01*
X38632Y-54320D01*
X38380Y-54416D01*
X38200Y-54589D01*
X38200Y-54186D01*
X39068Y-53318D01*
X39165Y-53172D01*
X39200Y-53000D01*
X39200Y-52159D01*
X39307Y-52178D01*
X39735Y-51750D01*
X39307Y-51321D01*
X39178Y-51344D01*
X39084Y-51250D01*
X38867Y-51160D01*
X38633Y-51159D01*
X38416Y-51249D01*
X38250Y-51415D01*
X38160Y-51632D01*
X38159Y-51866D01*
X38249Y-52083D01*
X38300Y-52134D01*
X38300Y-52813D01*
X37431Y-53681D01*
X37334Y-53827D01*
X37300Y-54000D01*
X37300Y-54614D01*
X37250Y-54689D01*
X37178Y-54582D01*
X36987Y-54454D01*
X36761Y-54410D01*
X36738Y-54410D01*
X36512Y-54454D01*
X36450Y-54496D01*
X36450Y-52936D01*
X39318Y-50068D01*
X39415Y-49922D01*
X39450Y-49750D01*
X39450Y-45186D01*
X40128Y-44507D01*
X40135Y-44514D01*
X40371Y-44612D01*
X40627Y-44612D01*
X40864Y-44514D01*
X40950Y-44429D01*
X40950Y-45000D01*
X40972Y-45114D01*
X41037Y-45212D01*
X41225Y-45399D01*
X41224Y-45600D01*
X41037Y-45787D01*
X40972Y-45885D01*
X40950Y-46000D01*
X40950Y-47094D01*
X40692Y-47352D01*
X40628Y-47325D01*
X40372Y-47325D01*
X40135Y-47423D01*
X39954Y-47604D01*
X39856Y-47840D01*
X39856Y-48096D01*
X39954Y-48333D01*
X40135Y-48514D01*
X40371Y-48612D01*
X40627Y-48612D01*
X40864Y-48514D01*
X41045Y-48333D01*
X41143Y-48097D01*
X41143Y-47841D01*
X41116Y-47776D01*
X41243Y-47649D01*
X41304Y-47797D01*
X41452Y-47944D01*
X41452Y-47944D01*
X41408Y-47961D01*
X41383Y-47978D01*
X41368Y-48104D01*
X41750Y-48485D01*
X41755Y-48480D01*
X41769Y-48494D01*
X41764Y-48500D01*
X41769Y-48505D01*
X41755Y-48519D01*
X41750Y-48514D01*
X41735Y-48528D01*
X41735Y-48500D01*
X41354Y-48118D01*
X41228Y-48133D01*
X41128Y-48360D01*
X41122Y-48609D01*
X41211Y-48841D01*
X41228Y-48866D01*
X41354Y-48881D01*
X41735Y-48500D01*
X41735Y-48528D01*
X41368Y-48895D01*
X41383Y-49021D01*
X41610Y-49121D01*
X41859Y-49127D01*
X41950Y-49092D01*
X41950Y-50750D01*
X41972Y-50864D01*
X42037Y-50962D01*
X43197Y-52121D01*
X42948Y-52010D01*
X42652Y-52002D01*
X42376Y-52108D01*
X42343Y-52130D01*
X42313Y-52268D01*
X42781Y-52735D01*
X42786Y-52730D01*
X42800Y-52744D01*
X42795Y-52750D01*
X43262Y-53217D01*
X43400Y-53187D01*
X43520Y-52917D01*
X43528Y-52621D01*
X43422Y-52346D01*
X44950Y-53874D01*
X44950Y-54447D01*
G36*
X45913Y-57587D02*
X45867Y-57570D01*
X45760Y-57647D01*
X45760Y-58240D01*
X45767Y-58240D01*
X45767Y-58260D01*
X45760Y-58260D01*
X45760Y-58267D01*
X45740Y-58267D01*
X45740Y-58260D01*
X45732Y-58260D01*
X45732Y-58240D01*
X45740Y-58240D01*
X45740Y-57647D01*
X45632Y-57570D01*
X45380Y-57666D01*
X45189Y-57849D01*
X45178Y-57832D01*
X45050Y-57746D01*
X45050Y-57500D01*
X45027Y-57385D01*
X44962Y-57287D01*
X44962Y-57287D01*
X44550Y-56875D01*
X44550Y-56552D01*
X44738Y-56590D01*
X44761Y-56590D01*
X44987Y-56545D01*
X45178Y-56417D01*
X45250Y-56310D01*
X45321Y-56417D01*
X45450Y-56503D01*
X45450Y-57000D01*
X45472Y-57114D01*
X45537Y-57212D01*
X45913Y-57587D01*
X45913Y-57587D01*
G37*
X45913Y-57587D02*
X45867Y-57570D01*
X45760Y-57647D01*
X45760Y-58240D01*
X45767Y-58240D01*
X45767Y-58260D01*
X45760Y-58260D01*
X45760Y-58267D01*
X45740Y-58267D01*
X45740Y-58260D01*
X45732Y-58260D01*
X45732Y-58240D01*
X45740Y-58240D01*
X45740Y-57647D01*
X45632Y-57570D01*
X45380Y-57666D01*
X45189Y-57849D01*
X45178Y-57832D01*
X45050Y-57746D01*
X45050Y-57500D01*
X45027Y-57385D01*
X44962Y-57287D01*
X44962Y-57287D01*
X44550Y-56875D01*
X44550Y-56552D01*
X44738Y-56590D01*
X44761Y-56590D01*
X44987Y-56545D01*
X45178Y-56417D01*
X45250Y-56310D01*
X45321Y-56417D01*
X45450Y-56503D01*
X45450Y-57000D01*
X45472Y-57114D01*
X45537Y-57212D01*
X45913Y-57587D01*
G36*
X46373Y-54547D02*
X46321Y-54582D01*
X46310Y-54599D01*
X46119Y-54416D01*
X45867Y-54320D01*
X45760Y-54397D01*
X45760Y-54990D01*
X45767Y-54990D01*
X45767Y-55010D01*
X45760Y-55010D01*
X45760Y-55017D01*
X45740Y-55017D01*
X45740Y-55010D01*
X45732Y-55010D01*
X45732Y-54990D01*
X45740Y-54990D01*
X45740Y-54397D01*
X45632Y-54320D01*
X45550Y-54351D01*
X45550Y-53750D01*
X45543Y-53717D01*
X46373Y-54547D01*
X46373Y-54547D01*
G37*
X46373Y-54547D02*
X46321Y-54582D01*
X46310Y-54599D01*
X46119Y-54416D01*
X45867Y-54320D01*
X45760Y-54397D01*
X45760Y-54990D01*
X45767Y-54990D01*
X45767Y-55010D01*
X45760Y-55010D01*
X45760Y-55017D01*
X45740Y-55017D01*
X45740Y-55010D01*
X45732Y-55010D01*
X45732Y-54990D01*
X45740Y-54990D01*
X45740Y-54397D01*
X45632Y-54320D01*
X45550Y-54351D01*
X45550Y-53750D01*
X45543Y-53717D01*
X46373Y-54547D01*
G36*
X48800Y-48563D02*
X47681Y-49681D01*
X47584Y-49827D01*
X47550Y-50000D01*
X47550Y-50813D01*
X46931Y-51431D01*
X46901Y-51477D01*
X46800Y-51375D01*
X46800Y-51000D01*
X46800Y-49061D01*
X47000Y-49101D01*
X47225Y-49056D01*
X47417Y-48928D01*
X47500Y-48804D01*
X47582Y-48928D01*
X47774Y-49056D01*
X48000Y-49101D01*
X48225Y-49056D01*
X48417Y-48928D01*
X48545Y-48737D01*
X48590Y-48511D01*
X48590Y-48488D01*
X48545Y-48262D01*
X48417Y-48071D01*
X48310Y-48000D01*
X48417Y-47928D01*
X48545Y-47737D01*
X48590Y-47511D01*
X48590Y-47488D01*
X48545Y-47262D01*
X48417Y-47071D01*
X48310Y-47000D01*
X48417Y-46928D01*
X48545Y-46737D01*
X48590Y-46511D01*
X48590Y-46488D01*
X48545Y-46262D01*
X48417Y-46071D01*
X48310Y-46000D01*
X48417Y-45928D01*
X48545Y-45737D01*
X48590Y-45511D01*
X48590Y-45488D01*
X48545Y-45262D01*
X48417Y-45071D01*
X48310Y-45000D01*
X48417Y-44928D01*
X48545Y-44737D01*
X48590Y-44511D01*
X48590Y-44488D01*
X48545Y-44262D01*
X48417Y-44071D01*
X48400Y-44060D01*
X48583Y-43869D01*
X48679Y-43617D01*
X48602Y-43510D01*
X48010Y-43510D01*
X48010Y-43517D01*
X47990Y-43517D01*
X47990Y-43510D01*
X47602Y-43510D01*
X47397Y-43510D01*
X47010Y-43510D01*
X47010Y-43517D01*
X46990Y-43517D01*
X46990Y-43510D01*
X46397Y-43510D01*
X46320Y-43617D01*
X46416Y-43869D01*
X46599Y-44060D01*
X46582Y-44071D01*
X46454Y-44262D01*
X46410Y-44488D01*
X46410Y-44511D01*
X46454Y-44737D01*
X46582Y-44928D01*
X46689Y-45000D01*
X46582Y-45071D01*
X46454Y-45262D01*
X46410Y-45488D01*
X46410Y-45511D01*
X46454Y-45737D01*
X46542Y-45867D01*
X46050Y-45375D01*
X46050Y-45301D01*
X46110Y-45241D01*
X46174Y-45084D01*
X46175Y-44915D01*
X46110Y-44759D01*
X45991Y-44639D01*
X45834Y-44575D01*
X45665Y-44574D01*
X45550Y-44622D01*
X45550Y-44425D01*
X45584Y-44425D01*
X45740Y-44360D01*
X45860Y-44241D01*
X45924Y-44084D01*
X45925Y-43915D01*
X45860Y-43759D01*
X45741Y-43639D01*
X45584Y-43575D01*
X45415Y-43574D01*
X45260Y-43639D01*
X45274Y-43604D01*
X45275Y-43396D01*
X45195Y-43203D01*
X45047Y-43055D01*
X44914Y-42999D01*
X45047Y-42945D01*
X45194Y-42797D01*
X45274Y-42604D01*
X45275Y-42396D01*
X45195Y-42203D01*
X45047Y-42055D01*
X44854Y-41975D01*
X44646Y-41974D01*
X44453Y-42054D01*
X44305Y-42202D01*
X44229Y-42383D01*
X43431Y-43181D01*
X43334Y-43327D01*
X43300Y-43500D01*
X43300Y-44625D01*
X42274Y-43600D01*
X42275Y-43396D01*
X42195Y-43203D01*
X42047Y-43055D01*
X41975Y-43025D01*
X42074Y-43025D01*
X42166Y-42986D01*
X42236Y-42916D01*
X42275Y-42824D01*
X42275Y-42725D01*
X42275Y-42175D01*
X42236Y-42083D01*
X42166Y-42013D01*
X42074Y-41975D01*
X41975Y-41975D01*
X41532Y-41975D01*
X41540Y-41745D01*
X41325Y-41175D01*
X41268Y-41090D01*
X41049Y-40965D01*
X41086Y-40927D01*
X46568Y-40927D01*
X46518Y-40948D01*
X46448Y-41018D01*
X46410Y-41110D01*
X46410Y-41209D01*
X46410Y-41889D01*
X46448Y-41981D01*
X46518Y-42051D01*
X46578Y-42077D01*
X46454Y-42262D01*
X46410Y-42488D01*
X46410Y-42511D01*
X46454Y-42737D01*
X46582Y-42928D01*
X46599Y-42939D01*
X46416Y-43130D01*
X46320Y-43382D01*
X46397Y-43490D01*
X46990Y-43490D01*
X46990Y-43482D01*
X47010Y-43482D01*
X47010Y-43490D01*
X47397Y-43490D01*
X47602Y-43490D01*
X47990Y-43490D01*
X47990Y-43482D01*
X48010Y-43482D01*
X48010Y-43490D01*
X48602Y-43490D01*
X48679Y-43382D01*
X48583Y-43130D01*
X48400Y-42939D01*
X48417Y-42928D01*
X48545Y-42737D01*
X48590Y-42511D01*
X48590Y-42488D01*
X48545Y-42262D01*
X48417Y-42071D01*
X48310Y-42000D01*
X48385Y-41950D01*
X48563Y-41950D01*
X48800Y-42186D01*
X48800Y-48563D01*
X48800Y-48563D01*
G37*
X48800Y-48563D02*
X47681Y-49681D01*
X47584Y-49827D01*
X47550Y-50000D01*
X47550Y-50813D01*
X46931Y-51431D01*
X46901Y-51477D01*
X46800Y-51375D01*
X46800Y-51000D01*
X46800Y-49061D01*
X47000Y-49101D01*
X47225Y-49056D01*
X47417Y-48928D01*
X47500Y-48804D01*
X47582Y-48928D01*
X47774Y-49056D01*
X48000Y-49101D01*
X48225Y-49056D01*
X48417Y-48928D01*
X48545Y-48737D01*
X48590Y-48511D01*
X48590Y-48488D01*
X48545Y-48262D01*
X48417Y-48071D01*
X48310Y-48000D01*
X48417Y-47928D01*
X48545Y-47737D01*
X48590Y-47511D01*
X48590Y-47488D01*
X48545Y-47262D01*
X48417Y-47071D01*
X48310Y-47000D01*
X48417Y-46928D01*
X48545Y-46737D01*
X48590Y-46511D01*
X48590Y-46488D01*
X48545Y-46262D01*
X48417Y-46071D01*
X48310Y-46000D01*
X48417Y-45928D01*
X48545Y-45737D01*
X48590Y-45511D01*
X48590Y-45488D01*
X48545Y-45262D01*
X48417Y-45071D01*
X48310Y-45000D01*
X48417Y-44928D01*
X48545Y-44737D01*
X48590Y-44511D01*
X48590Y-44488D01*
X48545Y-44262D01*
X48417Y-44071D01*
X48400Y-44060D01*
X48583Y-43869D01*
X48679Y-43617D01*
X48602Y-43510D01*
X48010Y-43510D01*
X48010Y-43517D01*
X47990Y-43517D01*
X47990Y-43510D01*
X47602Y-43510D01*
X47397Y-43510D01*
X47010Y-43510D01*
X47010Y-43517D01*
X46990Y-43517D01*
X46990Y-43510D01*
X46397Y-43510D01*
X46320Y-43617D01*
X46416Y-43869D01*
X46599Y-44060D01*
X46582Y-44071D01*
X46454Y-44262D01*
X46410Y-44488D01*
X46410Y-44511D01*
X46454Y-44737D01*
X46582Y-44928D01*
X46689Y-45000D01*
X46582Y-45071D01*
X46454Y-45262D01*
X46410Y-45488D01*
X46410Y-45511D01*
X46454Y-45737D01*
X46542Y-45867D01*
X46050Y-45375D01*
X46050Y-45301D01*
X46110Y-45241D01*
X46174Y-45084D01*
X46175Y-44915D01*
X46110Y-44759D01*
X45991Y-44639D01*
X45834Y-44575D01*
X45665Y-44574D01*
X45550Y-44622D01*
X45550Y-44425D01*
X45584Y-44425D01*
X45740Y-44360D01*
X45860Y-44241D01*
X45924Y-44084D01*
X45925Y-43915D01*
X45860Y-43759D01*
X45741Y-43639D01*
X45584Y-43575D01*
X45415Y-43574D01*
X45260Y-43639D01*
X45274Y-43604D01*
X45275Y-43396D01*
X45195Y-43203D01*
X45047Y-43055D01*
X44914Y-42999D01*
X45047Y-42945D01*
X45194Y-42797D01*
X45274Y-42604D01*
X45275Y-42396D01*
X45195Y-42203D01*
X45047Y-42055D01*
X44854Y-41975D01*
X44646Y-41974D01*
X44453Y-42054D01*
X44305Y-42202D01*
X44229Y-42383D01*
X43431Y-43181D01*
X43334Y-43327D01*
X43300Y-43500D01*
X43300Y-44625D01*
X42274Y-43600D01*
X42275Y-43396D01*
X42195Y-43203D01*
X42047Y-43055D01*
X41975Y-43025D01*
X42074Y-43025D01*
X42166Y-42986D01*
X42236Y-42916D01*
X42275Y-42824D01*
X42275Y-42725D01*
X42275Y-42175D01*
X42236Y-42083D01*
X42166Y-42013D01*
X42074Y-41975D01*
X41975Y-41975D01*
X41532Y-41975D01*
X41540Y-41745D01*
X41325Y-41175D01*
X41268Y-41090D01*
X41049Y-40965D01*
X41086Y-40927D01*
X46568Y-40927D01*
X46518Y-40948D01*
X46448Y-41018D01*
X46410Y-41110D01*
X46410Y-41209D01*
X46410Y-41889D01*
X46448Y-41981D01*
X46518Y-42051D01*
X46578Y-42077D01*
X46454Y-42262D01*
X46410Y-42488D01*
X46410Y-42511D01*
X46454Y-42737D01*
X46582Y-42928D01*
X46599Y-42939D01*
X46416Y-43130D01*
X46320Y-43382D01*
X46397Y-43490D01*
X46990Y-43490D01*
X46990Y-43482D01*
X47010Y-43482D01*
X47010Y-43490D01*
X47397Y-43490D01*
X47602Y-43490D01*
X47990Y-43490D01*
X47990Y-43482D01*
X48010Y-43482D01*
X48010Y-43490D01*
X48602Y-43490D01*
X48679Y-43382D01*
X48583Y-43130D01*
X48400Y-42939D01*
X48417Y-42928D01*
X48545Y-42737D01*
X48590Y-42511D01*
X48590Y-42488D01*
X48545Y-42262D01*
X48417Y-42071D01*
X48310Y-42000D01*
X48385Y-41950D01*
X48563Y-41950D01*
X48800Y-42186D01*
X48800Y-48563D01*
G36*
X48950Y-56875D02*
X48537Y-57287D01*
X48500Y-57344D01*
X48462Y-57287D01*
X48462Y-57287D01*
X48050Y-56875D01*
X48050Y-56503D01*
X48178Y-56417D01*
X48189Y-56400D01*
X48380Y-56583D01*
X48632Y-56679D01*
X48740Y-56602D01*
X48740Y-56010D01*
X48732Y-56010D01*
X48732Y-55990D01*
X48740Y-55990D01*
X48740Y-55982D01*
X48760Y-55982D01*
X48760Y-55990D01*
X48767Y-55990D01*
X48767Y-56010D01*
X48760Y-56010D01*
X48760Y-56602D01*
X48867Y-56679D01*
X48950Y-56648D01*
X48950Y-56875D01*
X48950Y-56875D01*
G37*
X48950Y-56875D02*
X48537Y-57287D01*
X48500Y-57344D01*
X48462Y-57287D01*
X48462Y-57287D01*
X48050Y-56875D01*
X48050Y-56503D01*
X48178Y-56417D01*
X48189Y-56400D01*
X48380Y-56583D01*
X48632Y-56679D01*
X48740Y-56602D01*
X48740Y-56010D01*
X48732Y-56010D01*
X48732Y-55990D01*
X48740Y-55990D01*
X48740Y-55982D01*
X48760Y-55982D01*
X48760Y-55990D01*
X48767Y-55990D01*
X48767Y-56010D01*
X48760Y-56010D01*
X48760Y-56602D01*
X48867Y-56679D01*
X48950Y-56648D01*
X48950Y-56875D01*
G36*
X49572Y-60072D02*
X49429Y-60072D01*
X49429Y-59367D01*
X49352Y-59260D01*
X48760Y-59260D01*
X48760Y-59852D01*
X48867Y-59929D01*
X49119Y-59833D01*
X49314Y-59647D01*
X49423Y-59401D01*
X49429Y-59367D01*
X49429Y-60072D01*
X44563Y-60072D01*
X44805Y-59831D01*
X44987Y-59795D01*
X45178Y-59667D01*
X45250Y-59560D01*
X45321Y-59667D01*
X45512Y-59795D01*
X45738Y-59840D01*
X45761Y-59840D01*
X45987Y-59795D01*
X46178Y-59667D01*
X46250Y-59560D01*
X46321Y-59667D01*
X46512Y-59795D01*
X46738Y-59840D01*
X46761Y-59840D01*
X46987Y-59795D01*
X47178Y-59667D01*
X47250Y-59560D01*
X47321Y-59667D01*
X47512Y-59795D01*
X47738Y-59840D01*
X47761Y-59840D01*
X47987Y-59795D01*
X48178Y-59667D01*
X48189Y-59650D01*
X48380Y-59833D01*
X48632Y-59929D01*
X48740Y-59852D01*
X48740Y-59260D01*
X48732Y-59260D01*
X48732Y-59240D01*
X48740Y-59240D01*
X48740Y-59232D01*
X48760Y-59232D01*
X48760Y-59240D01*
X49352Y-59240D01*
X49429Y-59132D01*
X49423Y-59098D01*
X49314Y-58852D01*
X49143Y-58690D01*
X49178Y-58667D01*
X49306Y-58475D01*
X49351Y-58250D01*
X49306Y-58024D01*
X49178Y-57832D01*
X49050Y-57746D01*
X49050Y-57624D01*
X49462Y-57212D01*
X49462Y-57212D01*
X49527Y-57114D01*
X49549Y-57000D01*
X49550Y-57000D01*
X49550Y-55500D01*
X49527Y-55385D01*
X49462Y-55287D01*
X49462Y-55287D01*
X49399Y-55225D01*
X49399Y-53663D01*
X49000Y-53264D01*
X48600Y-53663D01*
X48618Y-53791D01*
X48855Y-53896D01*
X49113Y-53902D01*
X49354Y-53809D01*
X49381Y-53791D01*
X49399Y-53663D01*
X49399Y-55225D01*
X49322Y-55147D01*
X49351Y-55000D01*
X49306Y-54774D01*
X49178Y-54582D01*
X49049Y-54496D01*
X49027Y-54385D01*
X48962Y-54287D01*
X47800Y-53125D01*
X47800Y-53077D01*
X47938Y-53215D01*
X48140Y-53299D01*
X48348Y-53300D01*
X48347Y-53363D01*
X48440Y-53604D01*
X48458Y-53631D01*
X48586Y-53649D01*
X48985Y-53250D01*
X48980Y-53244D01*
X48994Y-53230D01*
X49000Y-53235D01*
X49399Y-52836D01*
X49381Y-52708D01*
X49338Y-52689D01*
X49465Y-52561D01*
X49549Y-52359D01*
X49550Y-52141D01*
X49466Y-51938D01*
X49311Y-51784D01*
X49109Y-51700D01*
X48974Y-51699D01*
X49181Y-51493D01*
X49181Y-51493D01*
X49220Y-51434D01*
X49246Y-51395D01*
X49246Y-51395D01*
X49269Y-51281D01*
X49269Y-50822D01*
X49333Y-50795D01*
X49514Y-50614D01*
X49572Y-50473D01*
X49572Y-52929D01*
X49559Y-52895D01*
X49541Y-52868D01*
X49413Y-52850D01*
X49014Y-53250D01*
X49413Y-53649D01*
X49541Y-53631D01*
X49572Y-53561D01*
X49572Y-60072D01*
X49572Y-60072D01*
G37*
X49572Y-60072D02*
X49429Y-60072D01*
X49429Y-59367D01*
X49352Y-59260D01*
X48760Y-59260D01*
X48760Y-59852D01*
X48867Y-59929D01*
X49119Y-59833D01*
X49314Y-59647D01*
X49423Y-59401D01*
X49429Y-59367D01*
X49429Y-60072D01*
X44563Y-60072D01*
X44805Y-59831D01*
X44987Y-59795D01*
X45178Y-59667D01*
X45250Y-59560D01*
X45321Y-59667D01*
X45512Y-59795D01*
X45738Y-59840D01*
X45761Y-59840D01*
X45987Y-59795D01*
X46178Y-59667D01*
X46250Y-59560D01*
X46321Y-59667D01*
X46512Y-59795D01*
X46738Y-59840D01*
X46761Y-59840D01*
X46987Y-59795D01*
X47178Y-59667D01*
X47250Y-59560D01*
X47321Y-59667D01*
X47512Y-59795D01*
X47738Y-59840D01*
X47761Y-59840D01*
X47987Y-59795D01*
X48178Y-59667D01*
X48189Y-59650D01*
X48380Y-59833D01*
X48632Y-59929D01*
X48740Y-59852D01*
X48740Y-59260D01*
X48732Y-59260D01*
X48732Y-59240D01*
X48740Y-59240D01*
X48740Y-59232D01*
X48760Y-59232D01*
X48760Y-59240D01*
X49352Y-59240D01*
X49429Y-59132D01*
X49423Y-59098D01*
X49314Y-58852D01*
X49143Y-58690D01*
X49178Y-58667D01*
X49306Y-58475D01*
X49351Y-58250D01*
X49306Y-58024D01*
X49178Y-57832D01*
X49050Y-57746D01*
X49050Y-57624D01*
X49462Y-57212D01*
X49462Y-57212D01*
X49527Y-57114D01*
X49549Y-57000D01*
X49550Y-57000D01*
X49550Y-55500D01*
X49527Y-55385D01*
X49462Y-55287D01*
X49462Y-55287D01*
X49399Y-55225D01*
X49399Y-53663D01*
X49000Y-53264D01*
X48600Y-53663D01*
X48618Y-53791D01*
X48855Y-53896D01*
X49113Y-53902D01*
X49354Y-53809D01*
X49381Y-53791D01*
X49399Y-53663D01*
X49399Y-55225D01*
X49322Y-55147D01*
X49351Y-55000D01*
X49306Y-54774D01*
X49178Y-54582D01*
X49049Y-54496D01*
X49027Y-54385D01*
X48962Y-54287D01*
X47800Y-53125D01*
X47800Y-53077D01*
X47938Y-53215D01*
X48140Y-53299D01*
X48348Y-53300D01*
X48347Y-53363D01*
X48440Y-53604D01*
X48458Y-53631D01*
X48586Y-53649D01*
X48985Y-53250D01*
X48980Y-53244D01*
X48994Y-53230D01*
X49000Y-53235D01*
X49399Y-52836D01*
X49381Y-52708D01*
X49338Y-52689D01*
X49465Y-52561D01*
X49549Y-52359D01*
X49550Y-52141D01*
X49466Y-51938D01*
X49311Y-51784D01*
X49109Y-51700D01*
X48974Y-51699D01*
X49181Y-51493D01*
X49181Y-51493D01*
X49220Y-51434D01*
X49246Y-51395D01*
X49246Y-51395D01*
X49269Y-51281D01*
X49269Y-50822D01*
X49333Y-50795D01*
X49514Y-50614D01*
X49572Y-50473D01*
X49572Y-52929D01*
X49559Y-52895D01*
X49541Y-52868D01*
X49413Y-52850D01*
X49014Y-53250D01*
X49413Y-53649D01*
X49541Y-53631D01*
X49572Y-53561D01*
X49572Y-60072D01*
M02*
